<?xml version="1.0" encoding="UTF-8"?>
<svg version="1.1" xmlns="http://www.w3.org/2000/svg" width="512" height="512">
<path d="M0 0 C1.15936569 0.38499664 2.31873138 0.76999329 3.51322937 1.16665649 C6.05718204 2.01326965 8.59870255 2.86525216 11.13827515 3.72473145 C14.57814779 4.88595206 18.02705482 6.01728107 21.47985744 7.13939667 C37.1251375 12.22480547 52.63046104 17.56609649 68.00250244 23.42938232 C77.25693328 26.95665293 86.55123951 30.37145526 95.875 33.7109375 C97.28086994 34.21504654 97.28086994 34.21504654 98.7151413 34.7293396 C137.60384241 48.56716108 174.59986499 51.21990729 215.61936951 48.62081909 C228.06984091 47.90062848 228.06984091 47.90062848 233.61679077 50.98434448 C238.21818989 55.31002978 239.44337022 58.33693048 239.69086456 64.64854431 C239.71292302 67.24420583 239.71338709 69.83427304 239.69543457 72.42944336 C239.70004484 73.87403206 239.70639861 75.31861606 239.71434355 76.76319027 C239.73104288 80.72872917 239.72278792 84.69388306 239.71039867 88.65942335 C239.70135292 92.93761778 239.71531554 97.21574575 239.72631836 101.493927 C239.74411326 109.87326131 239.74025928 118.25245237 239.7286678 126.63179231 C239.71963757 133.44129758 239.7184077 140.25076268 239.72276306 147.06027222 C239.72337599 148.02910337 239.72398893 148.99793453 239.72462043 149.99612421 C239.72589932 151.96423063 239.72719617 153.93233704 239.7285108 155.90044343 C239.73991944 174.35930318 239.72679843 192.81808349 239.70530933 211.27693021 C239.6874381 227.1185792 239.69054212 242.96011094 239.70898438 258.80175781 C239.73038606 277.19415626 239.73882078 295.58648507 239.72653532 313.97889423 C239.72526111 315.93979707 239.72400363 317.90069992 239.72276306 319.86160278 C239.72214596 320.82642718 239.72152886 321.79125157 239.72089306 322.78531307 C239.71743805 329.58735095 239.72327174 336.38934469 239.73268127 343.19137573 C239.74389484 351.47978525 239.74087475 359.76804322 239.7195583 368.05643535 C239.7090392 372.28606174 239.7049406 376.51543539 239.71815491 380.74505997 C239.730067 384.6163964 239.7235362 388.48724561 239.7022447 392.35853779 C239.69777357 393.75952775 239.70005645 395.1605588 239.70974785 396.56152236 C239.79251146 409.51875293 239.79251146 409.51875293 235.1875 414.4609375 C229.60416957 419.91053334 222.97777218 418.99683327 215.65478516 418.91503906 C214.27460768 418.91390983 212.8944278 418.91454593 211.51425171 418.91680908 C207.77897689 418.91795421 204.0442185 418.89447818 200.30906343 418.86651325 C196.40133074 418.84146566 192.4935855 418.83915496 188.58578491 418.83441162 C181.19101689 418.82199167 173.79648612 418.78918348 166.40182245 418.74901366 C157.98107901 418.70426531 149.5603241 418.68230123 141.13949132 418.66223192 C123.8220002 418.6204498 106.50483577 418.54710989 89.1875 418.4609375 C89.1875 428.0309375 89.1875 437.6009375 89.1875 447.4609375 C94.02921875 447.40873047 94.02921875 447.40873047 98.96875 447.35546875 C102.11294674 447.33203765 105.25713356 447.31384128 108.40136719 447.29614258 C110.57784415 447.28110451 112.75429105 447.26066877 114.93066406 447.23461914 C118.06843508 447.1980166 121.2058036 447.18116089 124.34375 447.16796875 C125.30865356 447.15248489 126.27355713 447.13700104 127.2677002 447.12104797 C133.50597541 447.11951209 139.92124997 447.41831345 144.74645996 451.91316223 C148.64828227 456.47088837 149.48636528 459.32837451 149.40234375 465.14453125 C148.963887 469.87189221 147.08302982 472.65277644 143.625 475.7734375 C140.10151346 478.21277433 138.33474571 478.58710577 134.08554459 478.59515858 C132.99844326 478.59961642 131.91134194 478.60407426 130.79129815 478.60866719 C129.58724068 478.60848283 128.38318322 478.60829847 127.14263916 478.60810852 C125.87109537 478.61178521 124.59955158 478.6154619 123.28947616 478.61925 C119.74828594 478.62928638 116.20711267 478.63298942 112.66591024 478.63563931 C108.85120006 478.63953752 105.03650336 478.6491162 101.22180176 478.65785217 C92.00339778 478.67763039 82.78499268 478.68768457 73.56657279 478.69657996 C69.2279113 478.70096069 64.88925103 478.70632806 60.55059052 478.71156883 C46.1320178 478.72858256 31.71344586 478.74307737 17.29486465 478.75031757 C13.55171966 478.75222754 9.80857466 478.75414786 6.06542969 478.75610352 C5.13506274 478.75658726 4.2046958 478.757071 3.24613592 478.7575694 C-11.82966121 478.76587203 -26.90537904 478.79121224 -41.98114154 478.82368419 C-57.4511052 478.85673418 -72.92102853 478.87476447 -88.39102769 478.87796181 C-97.0801092 478.88012884 -105.7690751 478.88890552 -114.45812225 478.91442299 C-121.85728434 478.93610189 -129.25630275 478.94419432 -136.65549299 478.93445621 C-140.43145939 478.92990327 -144.20712916 478.93185492 -147.98305511 478.95121765 C-152.07548162 478.97202234 -156.16724675 478.9618906 -160.25970459 478.94868469 C-162.05240646 478.96513856 -162.05240646 478.96513856 -163.88132453 478.98192483 C-170.15892015 478.93284439 -174.06794902 478.73625659 -178.8125 474.4609375 C-182.5645729 470.1913373 -183.15544144 466.26868472 -183.1015625 460.74609375 C-182.658045 457.23990813 -181.03846735 455.13209832 -178.8125 452.4609375 C-178.379375 451.8834375 -177.94625 451.3059375 -177.5 450.7109375 C-171.94474191 446.59593151 -164.62352565 447.19584994 -158.06640625 447.265625 C-156.5497361 447.26986984 -156.5497361 447.26986984 -155.00242615 447.27420044 C-151.79316048 447.28533861 -148.58418042 447.31043153 -145.375 447.3359375 C-143.19075926 447.34597552 -141.00651411 447.35509993 -138.82226562 447.36328125 C-133.48548022 447.38355009 -128.14930743 447.42271126 -122.8125 447.4609375 C-122.8125 437.8909375 -122.8125 428.3209375 -122.8125 418.4609375 C-127.02209473 418.48188477 -131.23168945 418.50283203 -135.56884766 418.52441406 C-149.46680313 418.59064984 -163.36475616 418.63506301 -177.26282692 418.66818619 C-185.69043654 418.68880579 -194.11789656 418.71691478 -202.54541016 418.76269531 C-209.8913929 418.80258163 -217.23726729 418.8283747 -224.58335531 418.83729148 C-228.47260348 418.84250323 -232.36154169 418.85473986 -236.25069046 418.88385773 C-239.9131261 418.91105544 -243.57512479 418.91937386 -247.23765182 418.91336823 C-249.2189568 418.91498929 -251.20021443 418.93648932 -253.18139648 418.95861816 C-264.25704505 418.90727802 -264.25704505 418.90727802 -268.8125 414.4609375 C-274.21885748 408.65873337 -273.37264208 402.03941359 -273.32043457 394.49243164 C-273.32504484 393.04784294 -273.33139861 391.60325894 -273.33934355 390.15868473 C-273.35604288 386.19314583 -273.34778792 382.22799194 -273.33539867 378.26245165 C-273.32635292 373.98425722 -273.34031554 369.70612925 -273.35131836 365.427948 C-273.36911326 357.04861369 -273.36525928 348.66942263 -273.3536678 340.29008269 C-273.34463757 333.48057742 -273.3434077 326.67111232 -273.34776306 319.86160278 C-273.34837599 318.89277163 -273.34898893 317.92394047 -273.34962043 316.92575079 C-273.35089932 314.95764437 -273.35219617 312.98953796 -273.3535108 311.02143157 C-273.36491944 292.56257182 -273.35179843 274.10379151 -273.33030933 255.64494479 C-273.3124381 239.8032958 -273.31554212 223.96176406 -273.33398438 208.12011719 C-273.35538606 189.72771874 -273.36382078 171.33538993 -273.35153532 152.94298077 C-273.35026111 150.98207793 -273.34900363 149.02117508 -273.34776306 147.06027222 C-273.34683741 145.61303562 -273.34683741 145.61303562 -273.34589306 144.13656193 C-273.34243805 137.33452405 -273.34827174 130.53253031 -273.35768127 123.73049927 C-273.36889484 115.44208975 -273.36587475 107.15383178 -273.3445583 98.86543965 C-273.3340392 94.63581326 -273.3299406 90.40643961 -273.34315491 86.17681503 C-273.355067 82.3054786 -273.3485362 78.43462939 -273.3272447 74.56333721 C-273.32277357 73.16234725 -273.32505645 71.7613162 -273.33474785 70.36035264 C-273.41867012 57.22172624 -273.41867012 57.22172624 -268.8125 52.4609375 C-263.77603267 48.48690695 -258.52234875 47.9329368 -252.31933594 48.24829102 C-251.09962774 48.28258398 -251.09962774 48.28258398 -249.85527897 48.31756973 C-248.0931657 48.36745296 -246.33127324 48.42570091 -244.56968117 48.49146461 C-239.74428663 48.66266956 -234.91714985 48.73973107 -230.08959961 48.82519531 C-228.5670319 48.85359355 -228.5670319 48.85359355 -227.01370525 48.8825655 C-185.50122853 49.60862661 -153.13314025 46.18045585 -114.93017578 29.4609375 C-107.32233821 26.1814657 -99.57446351 23.40823126 -91.74609375 20.7109375 C-91.07128653 20.47830452 -90.3964793 20.24567154 -89.70122337 20.00598907 C-86.33478305 18.84773325 -82.96612062 17.69612374 -79.59622192 16.54797363 C-74.6658859 14.86573102 -69.7508889 13.14022601 -64.83610535 11.41314697 C-61.41874628 10.21341326 -57.99810069 9.02342691 -54.57714844 7.83398438 C-49.92064293 6.21046023 -45.28180202 4.54457249 -40.64941406 2.85351562 C-38.89843918 2.22367767 -38.89843918 2.22367767 -37.11209106 1.58111572 C-34.90896194 0.78830329 -32.71004941 -0.01637525 -30.51657104 -0.83551025 C-19.19441124 -4.87542034 -11.23318584 -3.85066294 0 0 Z " fill="#D4E6FC" transform="translate(272.8125,18.5390625)"/>
<path d="M0 0 C1.15936569 0.38499664 2.31873138 0.76999329 3.51322937 1.16665649 C6.05718204 2.01326965 8.59870255 2.86525216 11.13827515 3.72473145 C14.57814779 4.88595206 18.02705482 6.01728107 21.47985744 7.13939667 C37.1251375 12.22480547 52.63046104 17.56609649 68.00250244 23.42938232 C77.25693328 26.95665293 86.55123951 30.37145526 95.875 33.7109375 C97.28086994 34.21504654 97.28086994 34.21504654 98.7151413 34.7293396 C137.60384241 48.56716108 174.59986499 51.21990729 215.61936951 48.62081909 C228.06984091 47.90062848 228.06984091 47.90062848 233.61679077 50.98434448 C238.21818989 55.31002978 239.44337022 58.33693048 239.69086456 64.64854431 C239.71292302 67.24420583 239.71338709 69.83427304 239.69543457 72.42944336 C239.70004484 73.87403206 239.70639861 75.31861606 239.71434355 76.76319027 C239.73104288 80.72872917 239.72278792 84.69388306 239.71039867 88.65942335 C239.70135292 92.93761778 239.71531554 97.21574575 239.72631836 101.493927 C239.74411326 109.87326131 239.74025928 118.25245237 239.7286678 126.63179231 C239.71963757 133.44129758 239.7184077 140.25076268 239.72276306 147.06027222 C239.72337599 148.02910337 239.72398893 148.99793453 239.72462043 149.99612421 C239.72589932 151.96423063 239.72719617 153.93233704 239.7285108 155.90044343 C239.73991944 174.35930318 239.72679843 192.81808349 239.70530933 211.27693021 C239.6874381 227.1185792 239.69054212 242.96011094 239.70898438 258.80175781 C239.73038606 277.19415626 239.73882078 295.58648507 239.72653532 313.97889423 C239.72526111 315.93979707 239.72400363 317.90069992 239.72276306 319.86160278 C239.72214596 320.82642718 239.72152886 321.79125157 239.72089306 322.78531307 C239.71743805 329.58735095 239.72327174 336.38934469 239.73268127 343.19137573 C239.74389484 351.47978525 239.74087475 359.76804322 239.7195583 368.05643535 C239.7090392 372.28606174 239.7049406 376.51543539 239.71815491 380.74505997 C239.730067 384.6163964 239.7235362 388.48724561 239.7022447 392.35853779 C239.69777357 393.75952775 239.70005645 395.1605588 239.70974785 396.56152236 C239.79251146 409.51875293 239.79251146 409.51875293 235.1875 414.4609375 C229.60416957 419.91053334 222.97777218 418.99683327 215.65478516 418.91503906 C214.27460768 418.91390983 212.8944278 418.91454593 211.51425171 418.91680908 C207.77897689 418.91795421 204.0442185 418.89447818 200.30906343 418.86651325 C196.40133074 418.84146566 192.4935855 418.83915496 188.58578491 418.83441162 C181.19101689 418.82199167 173.79648612 418.78918348 166.40182245 418.74901366 C157.98107901 418.70426531 149.5603241 418.68230123 141.13949132 418.66223192 C123.8220002 418.6204498 106.50483577 418.54710989 89.1875 418.4609375 C89.1875 428.0309375 89.1875 437.6009375 89.1875 447.4609375 C94.02921875 447.40873047 94.02921875 447.40873047 98.96875 447.35546875 C102.11294674 447.33203765 105.25713356 447.31384128 108.40136719 447.29614258 C110.57784415 447.28110451 112.75429105 447.26066877 114.93066406 447.23461914 C118.06843508 447.1980166 121.2058036 447.18116089 124.34375 447.16796875 C125.30865356 447.15248489 126.27355713 447.13700104 127.2677002 447.12104797 C133.50597541 447.11951209 139.92124997 447.41831345 144.74645996 451.91316223 C148.64828227 456.47088837 149.48636528 459.32837451 149.40234375 465.14453125 C148.963887 469.87189221 147.08302982 472.65277644 143.625 475.7734375 C140.10151346 478.21277433 138.33474571 478.58710577 134.08554459 478.59515858 C132.99844326 478.59961642 131.91134194 478.60407426 130.79129815 478.60866719 C129.58724068 478.60848283 128.38318322 478.60829847 127.14263916 478.60810852 C125.87109537 478.61178521 124.59955158 478.6154619 123.28947616 478.61925 C119.74828594 478.62928638 116.20711267 478.63298942 112.66591024 478.63563931 C108.85120006 478.63953752 105.03650336 478.6491162 101.22180176 478.65785217 C92.00339778 478.67763039 82.78499268 478.68768457 73.56657279 478.69657996 C69.2279113 478.70096069 64.88925103 478.70632806 60.55059052 478.71156883 C46.1320178 478.72858256 31.71344586 478.74307737 17.29486465 478.75031757 C13.55171966 478.75222754 9.80857466 478.75414786 6.06542969 478.75610352 C5.13506274 478.75658726 4.2046958 478.757071 3.24613592 478.7575694 C-11.82966121 478.76587203 -26.90537904 478.79121224 -41.98114154 478.82368419 C-57.4511052 478.85673418 -72.92102853 478.87476447 -88.39102769 478.87796181 C-97.0801092 478.88012884 -105.7690751 478.88890552 -114.45812225 478.91442299 C-121.85728434 478.93610189 -129.25630275 478.94419432 -136.65549299 478.93445621 C-140.43145939 478.92990327 -144.20712916 478.93185492 -147.98305511 478.95121765 C-152.07548162 478.97202234 -156.16724675 478.9618906 -160.25970459 478.94868469 C-162.05240646 478.96513856 -162.05240646 478.96513856 -163.88132453 478.98192483 C-170.15892015 478.93284439 -174.06794902 478.73625659 -178.8125 474.4609375 C-182.5645729 470.1913373 -183.15544144 466.26868472 -183.1015625 460.74609375 C-182.658045 457.23990813 -181.03846735 455.13209832 -178.8125 452.4609375 C-178.379375 451.8834375 -177.94625 451.3059375 -177.5 450.7109375 C-171.94474191 446.59593151 -164.62352565 447.19584994 -158.06640625 447.265625 C-156.5497361 447.26986984 -156.5497361 447.26986984 -155.00242615 447.27420044 C-151.79316048 447.28533861 -148.58418042 447.31043153 -145.375 447.3359375 C-143.19075926 447.34597552 -141.00651411 447.35509993 -138.82226562 447.36328125 C-133.48548022 447.38355009 -128.14930743 447.42271126 -122.8125 447.4609375 C-122.8125 437.8909375 -122.8125 428.3209375 -122.8125 418.4609375 C-127.02209473 418.48188477 -131.23168945 418.50283203 -135.56884766 418.52441406 C-149.46680313 418.59064984 -163.36475616 418.63506301 -177.26282692 418.66818619 C-185.69043654 418.68880579 -194.11789656 418.71691478 -202.54541016 418.76269531 C-209.8913929 418.80258163 -217.23726729 418.8283747 -224.58335531 418.83729148 C-228.47260348 418.84250323 -232.36154169 418.85473986 -236.25069046 418.88385773 C-239.9131261 418.91105544 -243.57512479 418.91937386 -247.23765182 418.91336823 C-249.2189568 418.91498929 -251.20021443 418.93648932 -253.18139648 418.95861816 C-264.25704505 418.90727802 -264.25704505 418.90727802 -268.8125 414.4609375 C-274.21885748 408.65873337 -273.37264208 402.03941359 -273.32043457 394.49243164 C-273.32504484 393.04784294 -273.33139861 391.60325894 -273.33934355 390.15868473 C-273.35604288 386.19314583 -273.34778792 382.22799194 -273.33539867 378.26245165 C-273.32635292 373.98425722 -273.34031554 369.70612925 -273.35131836 365.427948 C-273.36911326 357.04861369 -273.36525928 348.66942263 -273.3536678 340.29008269 C-273.34463757 333.48057742 -273.3434077 326.67111232 -273.34776306 319.86160278 C-273.34837599 318.89277163 -273.34898893 317.92394047 -273.34962043 316.92575079 C-273.35089932 314.95764437 -273.35219617 312.98953796 -273.3535108 311.02143157 C-273.36491944 292.56257182 -273.35179843 274.10379151 -273.33030933 255.64494479 C-273.3124381 239.8032958 -273.31554212 223.96176406 -273.33398438 208.12011719 C-273.35538606 189.72771874 -273.36382078 171.33538993 -273.35153532 152.94298077 C-273.35026111 150.98207793 -273.34900363 149.02117508 -273.34776306 147.06027222 C-273.34683741 145.61303562 -273.34683741 145.61303562 -273.34589306 144.13656193 C-273.34243805 137.33452405 -273.34827174 130.53253031 -273.35768127 123.73049927 C-273.36889484 115.44208975 -273.36587475 107.15383178 -273.3445583 98.86543965 C-273.3340392 94.63581326 -273.3299406 90.40643961 -273.34315491 86.17681503 C-273.355067 82.3054786 -273.3485362 78.43462939 -273.3272447 74.56333721 C-273.32277357 73.16234725 -273.32505645 71.7613162 -273.33474785 70.36035264 C-273.41867012 57.22172624 -273.41867012 57.22172624 -268.8125 52.4609375 C-263.77603267 48.48690695 -258.52234875 47.9329368 -252.31933594 48.24829102 C-251.09962774 48.28258398 -251.09962774 48.28258398 -249.85527897 48.31756973 C-248.0931657 48.36745296 -246.33127324 48.42570091 -244.56968117 48.49146461 C-239.74428663 48.66266956 -234.91714985 48.73973107 -230.08959961 48.82519531 C-228.5670319 48.85359355 -228.5670319 48.85359355 -227.01370525 48.8825655 C-185.50122853 49.60862661 -153.13314025 46.18045585 -114.93017578 29.4609375 C-107.32233821 26.1814657 -99.57446351 23.40823126 -91.74609375 20.7109375 C-91.07128653 20.47830452 -90.3964793 20.24567154 -89.70122337 20.00598907 C-86.33478305 18.84773325 -82.96612062 17.69612374 -79.59622192 16.54797363 C-74.6658859 14.86573102 -69.7508889 13.14022601 -64.83610535 11.41314697 C-61.41874628 10.21341326 -57.99810069 9.02342691 -54.57714844 7.83398438 C-49.92064293 6.21046023 -45.28180202 4.54457249 -40.64941406 2.85351562 C-38.89843918 2.22367767 -38.89843918 2.22367767 -37.11209106 1.58111572 C-34.90896194 0.78830329 -32.71004941 -0.01637525 -30.51657104 -0.83551025 C-19.19441124 -4.87542034 -11.23318584 -3.85066294 0 0 Z M-242.8125 79.4609375 C-242.8125 181.4309375 -242.8125 283.4009375 -242.8125 388.4609375 C-162.47657142 388.5216284 -162.47657142 388.5216284 -82.140625 388.52734375 C-80.22328977 388.52663152 -80.22328977 388.52663152 -78.2672205 388.52590489 C-36.00593126 388.50911403 6.25468438 388.40957786 48.515625 388.23828125 C49.73239646 388.23337716 50.94916792 388.22847308 52.20281124 388.22342038 C104.53122511 388.01134812 156.85934796 387.72555521 209.1875 387.4609375 C209.1875 285.8209375 209.1875 184.1809375 209.1875 79.4609375 C191.6975 79.4609375 174.2075 79.4609375 156.1875 79.4609375 C156.16171875 86.24914062 156.1359375 93.03734375 156.109375 100.03125 C156.08420659 104.33337106 156.0578737 108.63542181 156.02734375 112.9375 C155.97900316 119.76497663 155.9349606 126.59229054 155.91650391 133.41992188 C155.90135271 138.92494752 155.86693393 144.4295473 155.81919098 149.93438339 C155.80436142 152.03386609 155.79645809 154.13340959 155.79561615 156.23294449 C155.79324954 159.17545143 155.76619382 162.11677855 155.73339844 165.05908203 C155.7384288 165.92583054 155.74345917 166.79257904 155.74864197 167.68559265 C155.6555842 173.08728817 154.75488681 176.16113925 151.1875 180.4609375 C147.35106068 183.84603102 143.55317692 183.97726647 138.625 183.80859375 C134.93883356 183.28284245 132.89766051 181.97279359 130.1875 179.4609375 C127.0437172 174.45404284 126.74487733 170.4246161 126.75512695 164.70166016 C126.7449353 163.84246979 126.73474365 162.98327942 126.72424316 162.09805298 C126.69418107 159.27363507 126.68485761 156.4495567 126.67578125 153.625 C126.65892954 151.66058226 126.64077863 149.69617528 126.62138367 147.73178101 C126.57393111 142.57305256 126.54409099 137.41436772 126.51794434 132.25549316 C126.48811494 126.98664746 126.44159275 121.71795188 126.39648438 116.44921875 C126.31050518 106.11987028 126.24313588 95.79049086 126.1875 85.4609375 C121.28505036 86.50084723 116.46668648 87.57366662 111.71484375 89.1875 C110.79638672 89.496875 109.87792969 89.80625 108.93164062 90.125 C108.00544922 90.44210938 107.07925781 90.75921875 106.125 91.0859375 C104.68350586 91.57320312 104.68350586 91.57320312 103.21289062 92.0703125 C100.86965356 92.86304942 98.52793824 93.65998326 96.1875 94.4609375 C96.18163376 95.24941071 96.17576752 96.03788391 96.16972351 96.85025024 C96.11172661 104.29496176 96.03961029 111.73934127 95.95178509 119.18375587 C95.90713123 123.01066593 95.86786445 126.83747075 95.84106445 130.66455078 C95.81498125 134.36059509 95.77454424 138.05623337 95.72431374 141.7520256 C95.70767875 143.15930491 95.69614352 144.56665439 95.68988609 145.9740181 C95.68020919 147.95105451 95.65042214 149.92796109 95.61987305 151.90478516 C95.60876999 153.02841461 95.59766693 154.15204407 95.58622742 155.3097229 C94.98090489 160.09369585 93.42425684 163.40428245 89.75488281 166.53930664 C84.87451154 169.4446766 79.41294078 171.23863518 74.109375 173.20703125 C72.28970283 173.89311098 70.47003079 174.57919107 68.65036488 175.2652874 C66.07389599 176.23446988 63.4947829 177.19651887 60.91581345 178.15902328 C57.61182171 179.39392287 54.31098747 180.63719795 51.01000977 181.88012695 C47.06993304 183.36325003 43.12966675 184.84585035 39.18800354 186.32475281 C31.81768297 189.09045335 24.45456164 191.87365089 17.10546875 194.6953125 C15.91357437 195.1529171 15.91357437 195.1529171 14.69760132 195.61976624 C11.82673746 196.72302453 8.95640421 197.82764097 6.08703613 198.93478394 C2.12733058 200.46203732 -1.8405191 201.96596528 -5.8125 203.4609375 C-6.66054199 203.79947754 -7.50858398 204.13801758 -8.38232422 204.48681641 C-9.14174316 204.77347168 -9.90116211 205.06012695 -10.68359375 205.35546875 C-11.30032959 205.5975708 -11.91706543 205.83967285 -12.55249023 206.08911133 C-19.68402652 207.26242123 -26.29563121 204.41750005 -32.80859375 201.875 C-33.77513885 201.50600586 -34.74168396 201.13701172 -35.73751831 200.75683594 C-38.91190431 199.54225208 -42.08105806 198.31464852 -45.25 197.0859375 C-47.46161657 196.23430185 -49.67345261 195.38323593 -51.88549805 194.53271484 C-56.5038796 192.7555095 -61.12006705 190.97273065 -65.73535156 189.1875 C-71.6059675 186.92041776 -77.48748545 184.68341066 -83.37406921 182.4581604 C-87.88024226 180.75334741 -92.38214745 179.03745551 -96.8833313 177.31951904 C-99.03572082 176.50045077 -101.18974866 175.68567426 -103.34542847 174.87530518 C-106.3563503 173.74194629 -109.36034421 172.59181898 -112.36328125 171.4375 C-113.69430374 170.9432251 -113.69430374 170.9432251 -115.05221558 170.43896484 C-120.73157681 168.22988705 -125.11158355 165.92903683 -127.91972351 160.20335388 C-128.95669714 157.01799507 -129.09171145 154.36756994 -129.13134766 151.01831055 C-129.15121735 149.73736008 -129.17108704 148.45640961 -129.19155884 147.13664246 C-129.20343344 145.74864881 -129.2150964 144.36065333 -129.2265625 142.97265625 C-129.24528405 141.54489535 -129.2648582 140.1171454 -129.2852478 138.68940735 C-129.33647101 134.94288604 -129.37614894 131.19632889 -129.41339111 127.449646 C-129.45349253 123.62194018 -129.50455679 119.79438215 -129.5546875 115.96679688 C-129.65133049 108.46494533 -129.73577213 100.96302198 -129.8125 93.4609375 C-174.34896008 75.64635347 -185.91137712 79.4609375 -242.8125 79.4609375 Z " fill="#5A729E" transform="translate(272.8125,18.5390625)"/>
<path d="M0 0 C87.85297964 0 87.85297964 0 112 13 C113.78773567 14.78773567 113.1342797 17.44659267 113.1418457 19.86157227 C113.15239738 21.74471886 113.15239738 21.74471886 113.16316223 23.66590881 C113.16497812 24.34169542 113.16679401 25.01748203 113.16866493 25.71374702 C113.175824 27.82903615 113.19148965 29.94409241 113.21000671 32.05931091 C113.26247663 38.07539511 113.31037544 44.09135838 113.32592773 50.10766602 C113.336059 53.78546962 113.36552125 57.46269705 113.40724754 61.14027214 C113.41949962 62.53753215 113.42468944 63.93487382 113.42244911 65.33218575 C113.13746195 76.43339121 113.13746195 76.43339121 118 86 C120.50586894 87.82629651 123.1096028 88.90739839 126 90 C127.2026651 90.49143494 127.2026651 90.49143494 128.42962646 90.99279785 C131.16730682 92.09753825 133.92021888 93.15403862 136.6796875 94.203125 C137.70980957 94.59845428 138.73993164 94.99378357 139.80126953 95.40109253 C143.15768066 96.68801591 146.51627948 97.96911736 149.875 99.25 C152.20080162 100.14015392 154.52648408 101.03061924 156.85205078 101.92138672 C162.7576273 104.18216902 168.66513545 106.43785613 174.57324219 108.6920166 C178.89907684 110.34317499 183.22371396 111.99745459 187.54830933 113.65185547 C192.32316697 115.4780866 197.09901082 117.3017306 201.875 119.125 C202.76249939 119.46406372 203.64999878 119.80312744 204.56439209 120.15246582 C207.06063234 121.10563197 209.55753957 122.05702728 212.0546875 123.0078125 C212.77736816 123.28398407 213.50004883 123.56015564 214.24462891 123.84469604 C218.14144158 125.32584094 222.04109218 126.68036406 226 128 C226 142.85 226 157.7 226 173 C221.46121094 173.02578125 216.92242187 173.0515625 212.24609375 173.078125 C209.36127256 173.10330795 206.47655473 173.12965166 203.59179688 173.16015625 C199.01847007 173.20840654 194.44538265 173.25248265 189.87182617 173.27099609 C186.18217741 173.2862015 182.49315722 173.32071426 178.80378914 173.36830902 C177.40013167 173.38308313 175.99638443 173.39103873 174.59264946 173.39188385 C164.07156345 173.32196238 164.07156345 173.32196238 155 178 C151.76331579 181.65432088 151.53108286 185.08174505 151.71875 189.7890625 C152.32337256 194.5420676 153.9794252 197.19392932 157.70169067 200.1338501 C161.38173786 202.2159834 163.4570493 202.51328443 167.64794922 202.54589844 C168.94884491 202.56561707 170.2497406 202.58533569 171.59005737 202.60565186 C172.99493365 202.60731465 174.39981049 202.60854571 175.8046875 202.609375 C177.25344685 202.62436776 178.70218918 202.64109721 180.15090942 202.65948486 C183.94845393 202.7030485 187.74576791 202.72313273 191.54351807 202.73822021 C196.10841745 202.76128432 200.67306404 202.81370122 205.23776245 202.86116028 C212.15857405 202.92984823 219.0786608 202.961398 226 203 C226 212.9 226 222.8 226 233 C221.46121094 233.02578125 216.92242187 233.0515625 212.24609375 233.078125 C209.36127256 233.10330795 206.47655473 233.12965166 203.59179688 233.16015625 C199.01847007 233.20840654 194.44538265 233.25248265 189.87182617 233.27099609 C186.18217741 233.2862015 182.49315722 233.32071426 178.80378914 233.36830902 C177.40013167 233.38308313 175.99638443 233.39103873 174.59264946 233.39188385 C164.07156345 233.32196238 164.07156345 233.32196238 155 238 C151.76248355 241.65526051 151.53497905 245.08129938 151.71484375 249.7890625 C152.31223365 254.42088009 154.12407016 257.1897649 157.5 260.3125 C161.44154448 262.97304252 164.47169034 263.14032302 169.1237793 263.20532227 C170.38486008 263.22526749 171.64594086 263.24521271 172.94523621 263.26576233 C174.32156247 263.28274533 175.69789002 263.29962419 177.07421875 263.31640625 C178.48241275 263.33698197 179.89060065 263.3579786 181.29878235 263.37937927 C185.00260481 263.43453622 188.70648241 263.48397354 192.41040039 263.53222656 C196.19096773 263.58248821 199.97145611 263.63809774 203.75195312 263.69335938 C211.16790821 263.80136861 218.58390734 263.90044092 226 264 C226 278.85 226 293.7 226 309 C151.42 309 76.84 309 0 309 C0 207.03 0 105.06 0 0 Z " fill="#EBF3FE" transform="translate(30,98)"/>
<path d="M0 0 C9.00034693 1.12504337 9.00034693 1.12504337 13.07958984 2.47338867 C14.01350555 2.77801025 14.94742126 3.08263184 15.90963745 3.39648438 C16.91656647 3.73357422 17.92349548 4.07066406 18.9609375 4.41796875 C20.056409 4.77930908 21.15188049 5.14064941 22.2805481 5.51293945 C24.69373929 6.30972169 27.1059593 7.10944973 29.51733398 7.91171265 C32.79505395 8.99953828 36.07974757 10.06448674 39.36702347 11.12303638 C54.60180324 16.03222881 69.69002113 21.19525001 84.64526367 26.90431213 C93.89351099 30.43271482 103.18189221 33.84816809 112.5 37.1875 C113.43968124 37.52449543 114.37936249 37.86149086 115.34751892 38.20869827 C154.31034203 52.07202901 191.33387893 54.76400191 232.43191528 52.15989685 C244.88229749 51.43966684 244.88229749 51.43966684 250.42929077 54.52340698 C255.03068989 58.84909228 256.25587022 61.87599298 256.50336456 68.18760681 C256.52542302 70.78326833 256.52588709 73.37333554 256.50793457 75.96850586 C256.51254484 77.41309456 256.51889861 78.85767856 256.52684355 80.30225277 C256.54354288 84.26779167 256.53528792 88.23294556 256.52289867 92.19848585 C256.51385292 96.47668028 256.52781554 100.75480825 256.53881836 105.0329895 C256.55661326 113.41232381 256.55275928 121.79151487 256.5411678 130.17085481 C256.53213757 136.98036008 256.5309077 143.78982518 256.53526306 150.59933472 C256.53587599 151.56816587 256.53648893 152.53699703 256.53712043 153.53518671 C256.53839932 155.50329313 256.53969617 157.47139954 256.5410108 159.43950593 C256.55241944 177.89836568 256.53929843 196.35714599 256.51780933 214.81599271 C256.4999381 230.6576417 256.50304212 246.49917344 256.52148438 262.34082031 C256.54288606 280.73321876 256.55132078 299.12554757 256.53903532 317.51795673 C256.53776111 319.47885957 256.53650363 321.43976242 256.53526306 323.40066528 C256.53433741 324.84790188 256.53433741 324.84790188 256.53339306 326.32437557 C256.52993805 333.12641345 256.53577174 339.92840719 256.54518127 346.73043823 C256.55639484 355.01884775 256.55337475 363.30710572 256.5320583 371.59549785 C256.5215392 375.82512424 256.5174406 380.05449789 256.53065491 384.28412247 C256.542567 388.1554589 256.5360362 392.02630811 256.5147447 395.89760029 C256.51027357 397.29859025 256.51255645 398.6996213 256.52224785 400.10058486 C256.60501146 413.05781543 256.60501146 413.05781543 252 418 C246.41666957 423.44959584 239.79027218 422.53589577 232.46728516 422.45410156 C231.08710768 422.45297233 229.7069278 422.45360843 228.32675171 422.45587158 C224.59147689 422.45701671 220.8567185 422.43354068 217.12156343 422.40557575 C213.21383074 422.38052816 209.3060855 422.37821746 205.39828491 422.37347412 C198.00351689 422.36105417 190.60898612 422.32824598 183.21432245 422.28807616 C174.79357901 422.24332781 166.3728241 422.22136373 157.95199132 422.20129442 C140.6345002 422.1595123 123.31733577 422.08617239 106 422 C106 431.57 106 441.14 106 451 C109.2278125 450.96519531 112.455625 450.93039062 115.78125 450.89453125 C118.92544674 450.87110015 122.06963356 450.85290378 125.21386719 450.83520508 C127.39034415 450.82016701 129.56679105 450.79973127 131.74316406 450.77368164 C134.88093508 450.7370791 138.0183036 450.72022339 141.15625 450.70703125 C142.12115356 450.69154739 143.08605713 450.67606354 144.0802002 450.66011047 C150.31847541 450.65857459 156.73374997 450.95737595 161.55895996 455.45222473 C165.46078227 460.00995087 166.29886528 462.86743701 166.21484375 468.68359375 C165.776387 473.41095471 163.89552982 476.19183894 160.4375 479.3125 C156.58011518 481.98299719 154.52888394 482.12401997 149.83712769 482.12025452 C147.86409164 482.12231651 147.86409164 482.12231651 145.85119629 482.12442017 C144.38500954 482.12088077 142.91882302 482.11724595 141.45263672 482.11352539 C139.91541546 482.11324345 138.37819408 482.11340139 136.8409729 482.1139679 C132.65939479 482.11425561 128.47784518 482.10836314 124.29627371 482.10139394 C119.92937965 482.09515601 115.56248499 482.09455625 111.19558716 482.09336853 C102.92247748 482.09025652 94.64938096 482.08204487 86.37627709 482.07201904 C75.19949028 482.05876747 64.02269989 482.05335695 52.84590721 482.04751682 C35.23059494 482.0381049 17.61531045 482.01818511 0 482 C0 451.97 0 421.94 0 391 C74.58 391 149.16 391 226 391 C226 289.36 226 187.72 226 83 C208.51 83 191.02 83 173 83 C173.04640625 89.78820312 173.0928125 96.57640625 173.140625 103.5703125 C173.1610647 107.87241114 173.18032058 112.17444986 173.1953125 116.4765625 C173.21921796 123.30416304 173.24748936 130.13154887 173.30175781 136.95898438 C173.34523939 142.46382881 173.36914229 147.96844297 173.37950897 153.47344589 C173.38689613 155.57300313 173.40132153 157.67254785 173.42292023 159.77200699 C173.45198449 162.71432924 173.45595468 165.65570168 173.45410156 168.59814453 C173.46848267 169.46489304 173.48286377 170.33164154 173.49768066 171.22465515 C173.46077887 176.64445408 172.59154995 179.69349646 169 184 C164.65060345 187.93516831 161.08177745 188.6434461 155.3984375 188.37890625 C151.71593844 187.79714337 149.71817972 186.52402403 147 184 C143.22972061 178.53123082 142.42759575 174.68926822 142.54589844 168.12719727 C142.54531433 167.26786087 142.54473022 166.40852448 142.54412842 165.52314758 C142.54689858 162.70381216 142.57793942 159.88555526 142.609375 157.06640625 C142.6168412 155.10343503 142.62253234 153.14045633 142.62652588 151.17747498 C142.64175233 146.02673537 142.68100842 140.87645146 142.7253418 135.72589111 C142.76635902 130.46380781 142.78455066 125.20165043 142.8046875 119.93945312 C142.84750554 109.62610257 142.91572064 99.31308927 143 89 C125.4321208 94.84818065 107.86481101 100.69806858 90.29818153 106.5500021 C82.14209253 109.26697804 73.98581657 111.98339023 65.82910156 114.69848633 C58.72156943 117.06434631 51.61438684 119.43125282 44.50762594 121.79942852 C40.74297717 123.05387605 36.9781528 124.3077908 33.2129097 125.56045341 C29.67164493 126.73861879 26.13084791 127.91817896 22.59041023 129.09882736 C21.28847954 129.53271228 19.98637634 129.96607997 18.68409157 130.39890099 C16.91081197 130.98834407 15.13820218 131.57980111 13.3656311 132.17137146 C12.37193827 132.50229514 11.37824543 132.83321882 10.35444069 133.17417049 C8.02027092 133.93737883 8.02027092 133.93737883 6 135 C4.02 135 2.04 135 0 135 C0 90.45 0 45.9 0 0 Z " fill="#3F558F" transform="translate(256,15)"/>
<path d="M0 0 C1.3331147 -0.00087616 1.3331147 -0.00087616 2.69316101 -0.00177002 C5.60444431 0.00099669 8.51467882 0.03202121 11.42578125 0.06347656 C13.45458416 0.07094399 15.48339431 0.07663455 17.51220703 0.08062744 C22.83225688 0.09584422 28.15186463 0.13509191 33.47174072 0.17944336 C38.90818299 0.22048155 44.34469723 0.23865668 49.78125 0.25878906 C60.43378718 0.30159001 71.08599734 0.36979329 81.73828125 0.45410156 C79.56443561 2.62794721 77.42557651 3.97608917 74.73828125 5.45410156 C74.07828125 5.45410156 73.41828125 5.45410156 72.73828125 5.45410156 C70.46761007 10.29820008 68.77553847 15.4081357 70.4296875 20.64160156 C72.2375864 24.49845254 73.97403153 27.26840818 77.73828125 29.45410156 C78.72828125 30.11410156 79.71828125 30.77410156 80.73828125 31.45410156 C56.97828125 31.45410156 33.21828125 31.45410156 8.73828125 31.45410156 C8.73828125 133.42410156 8.73828125 235.39410156 8.73828125 340.45410156 C83.31828125 340.45410156 157.89828125 340.45410156 234.73828125 340.45410156 C234.73828125 370.15410156 234.73828125 399.85410156 234.73828125 430.45410156 C195.85928757 430.6153137 195.85928757 430.6153137 179.578125 430.64941406 C168.33244539 430.67315677 157.08688558 430.70108168 145.84130859 430.75585938 C137.65152256 430.79573316 129.46183363 430.82153581 121.27195323 430.83045554 C116.93558838 430.83566938 112.59950135 430.84791962 108.26322556 430.87702179 C104.18056454 430.90419952 100.09829541 430.91254186 96.01555252 430.90653229 C94.5183728 430.90763148 93.02117979 430.91557159 91.52407837 430.93092346 C89.47629781 430.95088977 87.42998774 430.94601849 85.38217163 430.93511963 C83.6648713 430.94065039 83.6648713 430.94065039 81.91287804 430.94629288 C77.19250504 430.21444353 74.0475502 427.94395933 70.92578125 424.39160156 C68.23790127 420.00611317 68.10688255 415.44556423 68.73828125 410.45410156 C70.55078125 407.07910156 70.55078125 407.07910156 72.73828125 404.45410156 C73.17140625 403.87660156 73.60453125 403.29910156 74.05078125 402.70410156 C79.60603934 398.58909557 86.9272556 399.18901401 93.484375 399.25878906 C95.00104515 399.26303391 95.00104515 399.26303391 96.5483551 399.2673645 C99.75762077 399.27850267 102.96660083 399.30359559 106.17578125 399.32910156 C108.36002199 399.33913958 110.54426714 399.34826399 112.72851562 399.35644531 C118.06530103 399.37671415 123.40147382 399.41587533 128.73828125 399.45410156 C128.73828125 389.88410156 128.73828125 380.31410156 128.73828125 370.45410156 C124.52868652 370.47504883 120.3190918 370.49599609 115.98193359 370.51757812 C102.08397812 370.5838139 88.18602509 370.62822708 74.28795433 370.66135025 C65.86034471 370.68196985 57.43288469 370.71007884 49.00537109 370.75585938 C41.65938835 370.7957457 34.31351396 370.82153876 26.96742594 370.83045554 C23.07817777 370.83566729 19.18923956 370.84790392 15.30009079 370.87702179 C11.63765515 370.9042195 7.97565646 370.91253793 4.31312943 370.90653229 C2.33182445 370.90815336 0.35056682 370.92965339 -1.63061523 370.95178223 C-12.7062638 370.90044208 -12.7062638 370.90044208 -17.26171875 366.45410156 C-22.66807623 360.65189743 -21.82186083 354.03257766 -21.76965332 346.4855957 C-21.77426359 345.04100701 -21.78061736 343.596423 -21.7885623 342.15184879 C-21.80526163 338.18630989 -21.79700667 334.221156 -21.78461742 330.25561571 C-21.77557167 325.97742128 -21.78953429 321.69929331 -21.80053711 317.42111206 C-21.81833201 309.04177776 -21.81447803 300.66258669 -21.80288655 292.28324676 C-21.79385632 285.47374148 -21.79262645 278.66427638 -21.79698181 271.85476685 C-21.79759474 270.88593569 -21.79820768 269.91710453 -21.79883918 268.91891485 C-21.80011807 266.95080843 -21.80141492 264.98270202 -21.80272955 263.01459563 C-21.81413819 244.55573588 -21.80101718 226.09695557 -21.77952808 207.63810885 C-21.76165685 191.79645986 -21.76476087 175.95492812 -21.78320312 160.11328125 C-21.80460481 141.7208828 -21.81303953 123.32855399 -21.80075407 104.93614483 C-21.79947986 102.97524199 -21.79822238 101.01433914 -21.79698181 99.05343628 C-21.79605616 97.60619969 -21.79605616 97.60619969 -21.79511181 96.12972599 C-21.7916568 89.32768811 -21.79749049 82.52569437 -21.80690002 75.72366333 C-21.81811359 67.43525382 -21.8150935 59.14699585 -21.79377705 50.85860372 C-21.78325795 46.62897732 -21.77915935 42.39960367 -21.79237366 38.1699791 C-21.80428575 34.29864266 -21.79775495 30.42779345 -21.77646345 26.55650127 C-21.77199232 25.15551131 -21.7742752 23.75448027 -21.7839666 22.3535167 C-21.86786014 9.21938723 -21.86786014 9.21938723 -17.26171875 4.45410156 C-12.07301897 0.32327075 -6.40206133 -0.11198461 0 0 Z " fill="#5A729E" transform="translate(21.26171875,66.5458984375)"/>
<path d="M0 0 C9.00034693 1.12504337 9.00034693 1.12504337 13.07958984 2.47338867 C14.47988937 2.93035126 14.47988937 2.93035126 15.90847778 3.39654541 C16.91578949 3.73361511 17.9231012 4.07068481 18.9609375 4.41796875 C20.05985321 4.77912781 21.15876892 5.14028687 22.29098511 5.51239014 C25.34441478 6.5178831 28.39551062 7.53010111 31.4455719 8.54575729 C34.71715265 9.63391035 37.9910963 10.71491463 41.26464844 11.79711914 C46.3622033 13.48345378 51.45834173 15.17399772 56.5533905 16.86788845 C65.54909685 19.85843393 74.55015095 22.83246212 83.55381203 25.79896832 C91.73436685 28.49466401 99.91247933 31.19768382 108.08897972 33.90565205 C113.16842146 35.58778691 118.24871675 37.26722268 123.33123779 38.94003296 C128.17374102 40.53422523 133.01317554 42.13742053 137.85052872 43.74716949 C139.64539994 44.34281161 141.44130422 44.93535126 143.23830795 45.5245285 C167.02389346 53.32850242 167.02389346 53.32850242 172 61 C173.1979295 63.39585901 173.13353315 64.89036918 173.14717102 67.565979 C173.15790398 69.00853813 173.15790398 69.00853813 173.16885376 70.48023987 C173.17154266 71.53895798 173.17423157 72.59767609 173.17700195 73.68847656 C173.18357315 74.80079147 173.19014435 75.91310638 173.19691467 77.05912781 C173.21668164 80.75296083 173.22831789 84.44675313 173.23828125 88.140625 C173.24235678 89.40004662 173.2464323 90.65946823 173.25063133 91.95705414 C173.26935236 97.93500795 173.28391464 103.91293699 173.2922433 109.89091229 C173.30201072 116.78751897 173.32831598 123.68380425 173.36874419 130.58029771 C173.40257062 136.55611033 173.41439064 142.53176724 173.41844749 148.5076828 C173.42332433 151.04821705 173.43496929 153.5887476 173.45348549 156.12921906 C173.4777864 159.68438902 173.47692791 163.23871803 173.4699707 166.79394531 C173.48918579 168.36987709 173.48918579 168.36987709 173.50878906 169.97764587 C173.46587844 175.99039249 172.99631075 179.41703578 169 184 C164.65060345 187.93516831 161.08177745 188.6434461 155.3984375 188.37890625 C151.71593844 187.79714337 149.71817972 186.52402403 147 184 C143.22972061 178.53123082 142.42759575 174.68926822 142.54589844 168.12719727 C142.54531433 167.26786087 142.54473022 166.40852448 142.54412842 165.52314758 C142.54689858 162.70381216 142.57793942 159.88555526 142.609375 157.06640625 C142.6168412 155.10343503 142.62253234 153.14045633 142.62652588 151.17747498 C142.64175233 146.02673537 142.68100842 140.87645146 142.7253418 135.72589111 C142.76635902 130.46380781 142.78455066 125.20165043 142.8046875 119.93945312 C142.84750554 109.62610257 142.91572064 99.31308927 143 89 C125.4321208 94.84818065 107.86481101 100.69806858 90.29818153 106.5500021 C82.14209253 109.26697804 73.98581657 111.98339023 65.82910156 114.69848633 C58.72156943 117.06434631 51.61438684 119.43125282 44.50762594 121.79942852 C40.74297717 123.05387605 36.9781528 124.3077908 33.2129097 125.56045341 C29.67164493 126.73861879 26.13084791 127.91817896 22.59041023 129.09882736 C21.28847954 129.53271228 19.98637634 129.96607997 18.68409157 130.39890099 C16.91081197 130.98834407 15.13820218 131.57980111 13.3656311 132.17137146 C12.37193827 132.50229514 11.37824543 132.83321882 10.35444069 133.17417049 C8.02027092 133.93737883 8.02027092 133.93737883 6 135 C4.02 135 2.04 135 0 135 C0 90.45 0 45.9 0 0 Z " fill="#1C3470" transform="translate(256,15)"/>
<path d="M0 0 C0 44.55 0 89.1 0 135 C-5.88157022 134.26480372 -9.83173233 133.57281064 -15.19921875 131.62890625 C-15.8634082 131.39126556 -16.52759766 131.15362488 -17.21191406 130.90878296 C-19.37314288 130.13397503 -21.53019067 129.34814689 -23.6875 128.5625 C-25.98355764 127.73693487 -28.28067668 126.9143697 -30.57783508 126.09187317 C-32.13325913 125.53470528 -33.68834256 124.97658561 -35.24308777 124.41752625 C-42.36864636 121.85714536 -49.52343809 119.38819312 -56.6875 116.9375 C-66.6475969 113.52008191 -76.58091335 110.03410134 -86.5 106.5 C-96.58673994 102.90673085 -106.68780812 99.36039376 -116.8125 95.875 C-117.99207275 95.46741455 -119.17164551 95.0598291 -120.38696289 94.63989258 C-126.3743225 92.57478784 -132.36994943 90.54048362 -138.3828125 88.55078125 C-139.5689917 88.1532666 -140.7551709 87.75575195 -141.97729492 87.34619141 C-144.21597751 86.59654154 -146.45815737 85.85722226 -148.7043457 85.13037109 C-155.91973267 82.69918123 -160.96282533 80.48291153 -164.9375 73.6875 C-166.48497446 68.31685333 -166.02049152 64.49453484 -163.875 59.25 C-154.73146959 48.27776351 -132.39813424 44.27944964 -119.38912964 39.82647705 C-113.62366768 37.85248849 -107.86258011 35.86582144 -102.1015625 33.87890625 C-100.33681831 33.2705191 -100.33681831 33.2705191 -98.53642273 32.64984131 C-87.65046306 28.89108992 -76.79336288 25.05312887 -65.94274902 21.19372559 C-36.66348615 10.78144457 -36.66348615 10.78144457 -22.10379028 5.73358154 C-20.59623488 5.20979936 -19.08959235 4.68338101 -17.58395386 4.15411377 C-15.54414387 3.43773206 -13.50119388 2.73119172 -11.45703125 2.02734375 C-10.32241455 1.63281006 -9.18779785 1.23827637 -8.01879883 0.83178711 C-5 0 -5 0 0 0 Z " fill="#3F558F" transform="translate(256,15)"/>
<path d="M0 0 C0.06963245 8.11052242 0.12287815 16.22091911 0.15543652 24.33166695 C0.17106606 28.09817214 0.19225424 31.86447221 0.22631836 35.63085938 C0.25900935 39.26835002 0.2768734 42.90564385 0.28463173 46.54327011 C0.29015785 47.92830374 0.30094905 49.31332709 0.31719017 50.69827652 C0.33909128 52.64395821 0.34022648 54.58983961 0.34057617 56.53564453 C0.35056892 58.19444138 0.35056892 58.19444138 0.36076355 59.88674927 C-0.17906621 64.54527252 -1.84844496 67.84543419 -5.14770508 71.15332031 C-8.81358696 73.52674585 -12.5578015 75.02144851 -16.63671875 76.546875 C-17.920625 77.03951088 -17.920625 77.03951088 -19.23046875 77.542099 C-22.04624882 78.62008777 -24.86673752 79.68512444 -27.6875 80.75 C-29.65565401 81.50027355 -31.62350488 82.25134278 -33.59106445 83.00317383 C-37.67473079 84.56191836 -41.76037628 86.11530723 -45.84765625 87.66455078 C-51.78914733 89.91757714 -57.72334395 92.18932584 -63.65625 94.46484375 C-67.33305388 95.8731265 -71.01024894 97.28038541 -74.6875 98.6875 C-75.54193695 99.01480103 -76.3963739 99.34210205 -77.27670288 99.67932129 C-86.01499496 103.02326297 -94.76769899 106.31813274 -103.58203125 109.45703125 C-104.30186691 109.71514084 -105.02170258 109.97325043 -105.76335144 110.23918152 C-110.7596058 112 -110.7596058 112 -113 112 C-113 86.92 -113 61.84 -113 36 C-110.36 35.34 -107.72 34.68 -105 34 C-103.3881831 33.51244329 -101.78212475 33.00493775 -100.18583679 32.46871948 C-99.32093124 32.17988892 -98.4560257 31.89105835 -97.56491089 31.59347534 C-96.6446109 31.28274078 -95.72431091 30.97200623 -94.77612305 30.65185547 C-93.78490952 30.31994202 -92.79369598 29.98802856 -91.77244568 29.64605713 C-89.63314412 28.92931968 -87.49430028 28.21121487 -85.3558712 27.49187851 C-81.97393129 26.35447898 -78.590655 25.22114062 -75.20698547 24.08889771 C-65.59139751 20.87047188 -55.97839992 17.64433832 -46.3659668 14.41650391 C-40.47712664 12.43935324 -34.58684703 10.46654175 -28.69568825 8.49631119 C-26.45075506 7.74447071 -24.20640692 6.99088104 -21.96265221 6.23553085 C-18.83540665 5.18276618 -15.7063826 4.13546085 -12.5769043 3.08935547 C-11.18127258 2.61718094 -11.18127258 2.61718094 -9.75744629 2.13546753 C-8.48123665 1.71068115 -8.48123665 1.71068115 -7.179245 1.27731323 C-6.44021785 1.02918318 -5.7011907 0.78105312 -4.93976879 0.52540398 C-3 0 -3 0 0 0 Z " fill="#3F558F" transform="translate(369,114)"/>
<path d="M0 0 C1.52170285 -0.0083016 1.52170285 -0.0083016 3.07414716 -0.0167709 C6.4658963 -0.03035991 9.85690737 -0.01541712 13.24864197 -0.00050354 C15.68326123 -0.00428731 18.11787835 -0.00978782 20.55249023 -0.01687622 C26.47389803 -0.0293901 32.39511108 -0.0232668 38.31649668 -0.00820064 C45.21483614 0.00868156 52.11312271 0.00544646 59.01147645 0.00170528 C71.32071797 -0.00416973 83.62985711 0.00998471 95.93907166 0.03465271 C107.87888933 0.05857767 119.81857025 0.06565449 131.75840759 0.05516052 C144.76680724 0.04374784 157.77514368 0.04182517 170.78354257 0.05625862 C172.1709359 0.05778443 173.55832924 0.05930479 174.94572258 0.06081963 C175.96960782 0.06195635 175.96960782 0.06195635 177.01417761 0.06311603 C181.8209752 0.06785575 186.62774454 0.06600968 191.4345417 0.06175423 C197.90488915 0.05630947 204.37508924 0.0670823 210.84540367 0.08870888 C213.22140489 0.09427801 215.59742431 0.09474091 217.97342682 0.08975601 C221.21385946 0.0838096 224.45371149 0.0962966 227.6940918 0.11352539 C228.63679509 0.10751535 229.57949838 0.1015053 230.55076844 0.09531313 C236.43144944 0.15226315 240.90154593 0.87248542 245.42808533 5.00120544 C249.29347637 9.96545347 250.20945261 13.21920203 249.78355408 19.50120544 C247.7465832 24.96886412 244.84550391 27.86576539 239.73782158 30.59386635 C235.44915407 31.91103742 231.35275699 31.78336836 226.89027405 31.76863098 C225.886387 31.77316209 224.88249996 31.77769321 223.8481921 31.78236163 C220.48040805 31.79503371 217.11278513 31.79338343 213.74497986 31.79173279 C211.33198335 31.79771624 208.91898876 31.80452137 206.5059967 31.81208801 C200.62949778 31.82793559 194.7530367 31.83419717 188.87652077 31.83531277 C184.09932932 31.83626358 179.3221511 31.84037555 174.54496384 31.84671402 C160.99692552 31.86432367 147.44891887 31.87355325 133.90086903 31.87205307 C133.17073419 31.87197316 132.44059936 31.87189325 131.68833923 31.87181091 C130.95731168 31.87172915 130.22628413 31.87164739 129.47310422 31.87156315 C117.62495344 31.87075019 105.77692976 31.88989099 93.92881574 31.91808765 C81.75951103 31.9468199 69.59026832 31.96062778 57.42092884 31.95890009 C50.590243 31.95823634 43.75969045 31.96372231 36.92903519 31.9852562 C30.50549147 32.00537712 24.08215654 32.00479079 17.65859604 31.99022293 C15.30074401 31.98812872 12.94287454 31.99287198 10.58505249 32.00494385 C7.3666362 32.02035494 4.1491963 32.01111471 0.93080139 31.99568176 C-0.4692578 32.01111245 -0.4692578 32.01111245 -1.89760101 32.02685487 C-7.85605894 31.96370045 -11.32518635 30.95638504 -16.21644592 27.50120544 C-20.56800909 22.80609782 -21.59129318 19.02929629 -21.48988342 12.78245544 C-21.05211753 9.13023715 -19.66153237 7.19706999 -17.21644592 4.50120544 C-11.41273321 0.38666593 -7.00903433 -0.07158297 0 0 Z " fill="#00ADE9" transform="translate(202.21644592285156,330.49879455566406)"/>
<path d="M0 0 C34.98 0 69.96 0 106 0 C106 19.8 106 39.6 106 60 C85.76374579 60.09030011 65.52765475 60.16398186 45.29125023 60.20724869 C35.89510255 60.22787234 26.49908896 60.25598918 17.10302734 60.30175781 C8.91324131 60.3416316 0.72355238 60.36743425 -7.46632802 60.37635398 C-11.80269287 60.38156782 -16.1387799 60.39381805 -20.47505569 60.42292023 C-24.55771671 60.45009796 -28.63998584 60.45844029 -32.72272873 60.45243073 C-34.21990845 60.45352992 -35.71710146 60.46147003 -37.21420288 60.4768219 C-39.26198344 60.49678821 -41.30829351 60.49191693 -43.35610962 60.48101807 C-44.50097651 60.48470524 -45.64584339 60.48839241 -46.82540321 60.49219131 C-51.54577621 59.76034197 -54.69073105 57.48985777 -57.8125 53.9375 C-60.50037998 49.55201161 -60.6313987 44.99146267 -60 40 C-58.1875 36.625 -58.1875 36.625 -56 34 C-55.3503125 33.13375 -55.3503125 33.13375 -54.6875 32.25 C-49.13224191 28.13499401 -41.81102565 28.73491244 -35.25390625 28.8046875 C-34.24279282 28.8075174 -33.23167938 28.81034729 -32.18992615 28.81326294 C-28.98066048 28.82440111 -25.77168042 28.84949403 -22.5625 28.875 C-20.37825926 28.88503802 -18.19401411 28.89416243 -16.00976562 28.90234375 C-10.67298022 28.92261259 -5.33680743 28.96177376 0 29 C0 19.43 0 9.86 0 0 Z " fill="#59729E" transform="translate(150,437)"/>
<path d="M0 0 C1.01305743 -0.00623996 2.02611487 -0.01247993 3.06987101 -0.01890898 C6.45693963 -0.0348354 9.84328826 -0.02223555 13.23036194 -0.00964355 C15.66173726 -0.01506483 18.09310929 -0.02218752 20.5244751 -0.03088379 C26.43852439 -0.04722681 32.35238742 -0.04483864 38.2664315 -0.03323323 C43.07456545 -0.02418969 47.88264253 -0.02297887 52.69078255 -0.02732849 C53.71832961 -0.02824789 53.71832961 -0.02824789 54.7666352 -0.02918586 C56.15839463 -0.0304648 57.55015404 -0.03176166 58.94191343 -0.03307623 C71.98525409 -0.04447586 85.02848221 -0.03137849 98.07180441 -0.00987476 C109.25492163 0.00799169 120.43787273 0.00489472 131.62098694 -0.0135498 C144.61696038 -0.03497437 157.6128352 -0.04337307 170.60882384 -0.03110075 C171.99569132 -0.0298266 173.38255883 -0.02856911 174.76942635 -0.02732849 C175.79288945 -0.02640284 175.79288945 -0.02640284 176.83702857 -0.02545848 C181.63688981 -0.02201003 186.43668832 -0.0278231 191.23653984 -0.0372467 C197.70199786 -0.0496617 204.16721634 -0.04077392 210.63264656 -0.01766968 C213.00458379 -0.01238388 215.37654743 -0.01389411 217.74847412 -0.02272034 C220.98835164 -0.03366405 224.22722719 -0.01992506 227.46704102 0 C228.40391862 -0.00892289 229.34079623 -0.01784577 230.30606407 -0.02703905 C236.20629563 0.04325872 240.93330481 1.00540347 245.79701233 4.50793457 C249.1088934 8.36105236 250.53907681 12.26280889 250.24623108 17.45324707 C249.1510881 22.46233583 246.62734942 26.33238654 242.32778931 29.09381199 C237.64840647 30.96796631 233.61903725 30.92717062 228.62489319 30.89561462 C227.60311194 30.90100016 226.5813307 30.9063857 225.52858639 30.91193444 C222.10622029 30.92623713 218.68423972 30.91910443 215.26185608 30.9119873 C212.80768014 30.9176896 210.35350686 30.92465331 207.89933777 30.93278503 C201.92634796 30.94888055 195.95350952 30.95081424 189.98051286 30.94557213 C185.12562382 30.94152867 180.27076585 30.94297607 175.4158783 30.94832039 C174.72458326 30.94906881 174.03328823 30.94981723 173.32104486 30.95058833 C171.91663845 30.95211983 170.51223204 30.95365817 169.10782564 30.9552033 C155.94248878 30.96892619 142.77721138 30.96349188 129.61187589 30.95201809 C117.56911285 30.94208322 105.5265034 30.95503107 93.48376405 30.97895228 C81.11441339 31.00333697 68.74513429 31.01295288 56.37576008 31.00629956 C49.43278854 31.00280627 42.48993517 31.0050467 35.54698181 31.02255058 C29.01999509 31.03880191 22.49325439 31.03410082 15.966259 31.01524544 C13.56928947 31.01155055 11.17229832 31.01469405 8.77534866 31.02513123 C5.50626807 31.03828053 2.2381694 31.0268465 -1.03086853 31.00914001 C-2.45761949 31.02354752 -2.45761949 31.02354752 -3.9131937 31.0382461 C-9.65946599 30.97409423 -12.78228562 30.25069587 -17.20298767 26.50793457 C-20.95159517 22.24227776 -21.56608337 18.3121297 -21.47642517 12.78918457 C-21.03865928 9.13696628 -19.64807412 7.20379911 -17.20298767 4.50793457 C-11.40359063 0.39841089 -7.00322258 -0.06654074 0 0 Z " fill="#00ADE9" transform="translate(202.20298767089844,270.4920654296875)"/>
<path d="M0 0 C1.31864548 -0.00960754 2.63729095 -0.01921509 3.99589539 -0.02911377 C5.44363228 -0.03396298 6.89137117 -0.0382415 8.33911133 -0.04199219 C9.82164003 -0.04774515 11.30416872 -0.05350287 12.78669739 -0.05926514 C15.89963121 -0.06977928 19.01253919 -0.07561849 22.12548828 -0.07910156 C26.10221029 -0.08457161 30.07858735 -0.10856554 34.05520153 -0.13707352 C37.12053906 -0.15576225 40.18579479 -0.16090891 43.25118446 -0.16243744 C44.71632068 -0.16545305 46.18145582 -0.17344454 47.64653587 -0.18662262 C49.70472193 -0.20380616 51.76208251 -0.20177311 53.8203125 -0.1953125 C54.98898361 -0.19895813 56.15765472 -0.20260376 57.36174011 -0.20635986 C62.94473564 0.40211265 66.55149708 2.04161531 70.63169861 5.90565491 C73.08722178 9.70875411 73.36122415 11.75602081 73.36474609 16.2487793 C73.3719014 16.93091492 73.3790567 17.61305054 73.38642883 18.31585693 C73.40324257 20.55534266 73.38395795 22.79280512 73.36254883 25.03222656 C73.36337832 26.59872095 73.36584071 28.16521525 73.36985779 29.73170471 C73.37271087 33.009311 73.35806537 36.2862321 73.33056641 39.5637207 C73.29651183 43.75131484 73.30249663 47.93768217 73.32122898 52.12533474 C73.33183231 55.35889284 73.32283068 58.59216884 73.30784416 61.82570076 C73.30268436 63.36895979 73.30311727 64.91224855 73.30938911 66.45550346 C73.34849392 81.86053083 73.34849392 81.86053083 68.73364258 87.16113281 C64.26413716 89.87238747 60.91676502 90.54202975 55.72192383 90.56518555 C55.04793549 90.5720488 54.37394714 90.57891205 53.67953491 90.58598328 C51.46818532 90.60417332 49.25755038 90.60042582 47.04614258 90.59472656 C45.49967215 90.59929167 43.95320376 90.60459822 42.40673828 90.61061096 C39.17219783 90.61952636 35.9379045 90.61713647 32.70336914 90.60717773 C28.5673104 90.59568133 24.43210458 90.61591696 20.29615784 90.64509487 C17.10472233 90.66347719 13.91349056 90.66316058 10.72201538 90.65745735 C9.19744672 90.65730443 7.67286399 90.66332469 6.14834595 90.67574883 C4.01347939 90.69069923 1.88018026 90.67995544 -0.25463867 90.6628418 C-2.07282104 90.66259254 -2.07282104 90.66259254 -3.92773438 90.66233826 C-8.53928034 89.97003729 -11.59949874 88.01643893 -14.70861816 84.55581665 C-18.31653271 77.7653337 -17.8459498 70.41597697 -17.79760742 62.93457031 C-17.80030657 61.45821884 -17.80419251 59.98186911 -17.8092041 58.50552368 C-17.81507569 55.42408177 -17.80661029 52.34310613 -17.7878418 49.26171875 C-17.76501255 45.32295979 -17.77821406 41.38528889 -17.80213165 37.44656944 C-17.81661932 34.40265777 -17.81197092 31.35900213 -17.80162048 28.31508255 C-17.79896344 26.863093 -17.80218681 25.41107976 -17.8115387 23.95911789 C-17.82175587 21.927991 -17.80340828 19.8967819 -17.78393555 17.86572266 C-17.78075317 16.71292816 -17.7775708 15.56013367 -17.77429199 14.37240601 C-16.96990177 9.2868755 -14.43926523 6.19440873 -10.64135742 2.84863281 C-6.81633011 0.13085025 -4.68960882 0.02749279 0 0 Z " fill="#FB6284" transform="translate(77.266357421875,270.8388671875)"/>
<path d="M0 0 C34.98 0 69.96 0 106 0 C106 9.9 106 19.8 106 30 C71.02 30 36.04 30 0 30 C0 20.1 0 10.2 0 0 Z " fill="#1C3470" transform="translate(256,437)"/>
<path d="M0 0 C34.98 0 69.96 0 106 0 C106 9.9 106 19.8 106 30 C71.02 30 36.04 30 0 30 C0 20.1 0 10.2 0 0 Z " fill="#3F558F" transform="translate(150,437)"/>
<path d="M0 0 C1.01870196 -0.0034177 2.03740392 -0.0068354 3.08697563 -0.01035666 C6.49276608 -0.01693341 9.89776449 0.005038 13.30348206 0.0269165 C15.74783306 0.02804502 18.19218543 0.02741104 20.63653564 0.02514648 C25.89506085 0.02423628 31.15340772 0.03556489 36.41187859 0.05809784 C44.01465214 0.09065504 51.61732979 0.10102863 59.2201655 0.10604981 C71.55626043 0.11479665 83.89224935 0.14139558 96.22828674 0.17926025 C108.20907563 0.2159962 120.18983569 0.24430019 132.17066956 0.2612915 C133.27907331 0.26286784 133.27907331 0.26286784 134.40986907 0.26447603 C138.11702412 0.26969631 141.82417937 0.27475111 145.53133476 0.27972364 C176.26869336 0.32116665 207.00592022 0.39189645 237.74317932 0.48101807 C237.74317932 0.81101807 237.74317932 1.14101807 237.74317932 1.48101807 C177.02317932 1.48101807 116.30317932 1.48101807 53.74317932 1.48101807 C53.74317932 11.05101807 53.74317932 20.62101807 53.74317932 30.48101807 C114.13317932 30.48101807 174.52317932 30.48101807 236.74317932 30.48101807 C236.74317932 30.81101807 236.74317932 31.14101807 236.74317932 31.48101807 C205.52340774 31.57227842 174.30367145 31.64306188 143.08379814 31.68527938 C139.39758579 31.69028218 135.7113737 31.69545947 132.02516174 31.70074463 C131.29130668 31.70179387 130.55745162 31.70284311 129.80135853 31.70392415 C117.92057073 31.72132699 106.03986038 31.75286399 94.15911853 31.78962925 C81.96738577 31.82704208 69.77569356 31.84925464 57.58390576 31.85737205 C50.0615471 31.86285913 42.53940739 31.8801863 35.01711614 31.91268393 C29.24793971 31.93633742 23.47890343 31.93883703 17.70968819 31.93344879 C15.34376808 31.93454999 12.97783974 31.94251653 10.61196899 31.95783997 C7.3823647 31.97773313 4.15369814 31.97295895 0.92407227 31.96203613 C-0.48110282 31.97951318 -0.48110282 31.97951318 -1.91466528 31.9973433 C-7.88530013 31.94274016 -11.35709678 30.94596143 -16.25682068 27.48101807 C-20.60838384 22.78591044 -21.63166793 19.00910891 -21.53025818 12.76226807 C-21.09249229 9.11004977 -19.70190712 7.17688261 -17.25682068 4.48101807 C-11.4402082 0.35144056 -7.02639011 -0.08667166 0 0 Z " fill="#0FC2F0" transform="translate(202.25682067871094,330.51898193359375)"/>
<path d="M0 0 C1.42488304 0.00747056 2.84977643 0.01315964 4.27467346 0.01715088 C8.00508539 0.03234348 11.73486347 0.07156842 15.46502686 0.1159668 C19.95123956 0.16429697 24.43766551 0.18248403 28.92406464 0.20578003 C35.72195119 0.24442521 42.51845003 0.32112019 49.31640625 0.390625 C49.31640625 10.290625 49.31640625 20.190625 49.31640625 30.390625 C33.335274 30.55106024 33.335274 30.55106024 26.50390625 30.5859375 C21.84909748 30.60981535 17.19460454 30.63801077 12.54003906 30.69238281 C8.7858243 30.73596119 5.03194839 30.75978719 1.27750015 30.77013397 C-0.15221361 30.77750398 -1.58190958 30.79189614 -3.01147842 30.81354523 C-5.01934856 30.8427326 -7.02756232 30.8442602 -9.03564453 30.84472656 C-10.17703888 30.85360901 -11.31843323 30.86249146 -12.49441528 30.87164307 C-17.22862264 30.15759106 -20.36779678 27.88791121 -23.49609375 24.328125 C-26.19555846 19.92373522 -26.28396363 15.39942515 -25.68359375 10.390625 C-23.67396962 6.13022185 -21.2105572 3.48626759 -17.06222534 1.21325684 C-11.62363429 -0.66763895 -5.68717425 -0.08784002 0 0 Z " fill="#02C1F0" transform="translate(206.68359375,270.609375)"/>
</svg>
