<?xml version="1.0" encoding="UTF-8"?>
<svg version="1.1" xmlns="http://www.w3.org/2000/svg" width="512" height="512" fill="white">
<path d="M0 0 C14.17784005 12.12646758 24.88956633 31.36411693 27 50 C27.26191206 53.9381389 27.3787269 57.86639388 27.4375 61.8125 C27.45997803 62.77220703 27.48245605 63.73191406 27.50561523 64.72070312 C27.47690494 73.53697275 25.35908023 81.57069346 23 90 C24.87534424 90.01401855 24.87534424 90.01401855 26.78857422 90.02832031 C31.46682192 90.0684623 36.14442864 90.13428677 40.82226562 90.20751953 C42.8394339 90.23558953 44.85670931 90.25687292 46.87402344 90.27099609 C49.78896386 90.29262028 52.70263491 90.33936818 55.6171875 90.390625 C56.50614716 90.39185364 57.39510681 90.39308228 58.31100464 90.39434814 C67.09517598 90.59572514 74.97412512 93.23114045 81.46875 99.296875 C88.03068928 106.59535848 90.30432941 114.14858449 90.2746582 123.80004883 C90.2823246 125.09641014 90.2823246 125.09641014 90.29014587 126.41896057 C90.3040017 129.26505535 90.30308784 132.11090682 90.30078125 134.95703125 C90.30467093 136.94471831 90.30900617 138.93240455 90.31376648 140.92008972 C90.32122049 145.08355403 90.32094374 149.24693353 90.31567383 153.41040039 C90.30988629 158.72975648 90.32679697 164.04876358 90.3500185 169.36806202 C90.36479626 173.47318023 90.36562194 177.57821523 90.36250877 181.68335533 C90.36302015 183.64363991 90.36822321 185.60392937 90.37832069 187.564188 C90.39074361 190.31360738 90.3838581 193.06235782 90.37231445 195.81176758 C90.37995819 196.61155029 90.38760193 197.41133301 90.39547729 198.23535156 C90.30414894 208.14346239 86.90812287 215.91298152 80 223 C71.4700223 229.76799389 64.25413189 230 53 230 C53 248.81 53 267.62 53 287 C56.96 287.33 60.92 287.66 65 288 C77.27648463 291.64247346 86.30285311 297.68286272 94 308 C95.44921875 310.9375 95.44921875 310.9375 96.6875 314 C97.31205078 315.5159375 97.31205078 315.5159375 97.94921875 317.0625 C99.85765845 322.39761767 100.18353504 327.40824208 100.16796875 333.04296875 C100.16613083 333.82778122 100.16429291 334.61259369 100.16239929 335.42118835 C100.0794492 343.89856271 99.40831078 352.30166079 98.56567383 360.73364258 C98.31109126 363.32684961 98.08588695 365.92161958 97.86132812 368.51757812 C96.54749141 382.55371006 93.74927497 394.26345667 84 405 C83.45085937 405.65226562 82.90171875 406.30453125 82.3359375 406.9765625 C74.93251578 415.16272484 64.75040903 420.27213567 55.2890625 425.71875 C54.52005615 426.1636377 53.7510498 426.60852539 52.95874023 427.06689453 C51.47642248 427.92062543 49.98912258 428.7657801 48.49633789 429.60107422 C47.82078857 429.9879541 47.14523926 430.37483398 46.44921875 430.7734375 C45.85455811 431.10778809 45.25989746 431.44213867 44.6472168 431.78662109 C42.48441342 433.37979329 41.32478977 434.63636763 40 437 C39.71081242 439.61553287 39.58253732 442.00354995 39.59375 444.6171875 C39.57749573 445.71935104 39.57749573 445.71935104 39.56091309 446.84378052 C39.52671521 449.18761 39.51107727 451.53095414 39.5 453.875 C39.48537308 456.95619194 39.45156754 460.03631076 39.40625 463.1171875 C39.40927124 463.81738007 39.41229248 464.51757263 39.41540527 465.23898315 C39.34521991 469.87128715 38.44832889 473.06668042 36 477 C33.20819179 478.3959041 30.91284864 478.13564058 27.78811646 478.14717102 C27.1440286 478.15084771 26.49994074 478.1545244 25.83633506 478.1583125 C23.66838858 478.16936521 21.50049 478.17319582 19.33251953 478.17700195 C17.78208259 478.18326532 16.23164716 478.18991201 14.68121338 478.19691467 C10.46219476 478.21433414 6.24318747 478.22487864 2.02414179 478.2331202 C-0.61015998 478.23826752 -3.24445821 478.24434332 -5.87875748 478.25063133 C-14.11632017 478.26968459 -22.35387389 478.2839164 -30.59145439 478.2922433 C-40.10912446 478.3020224 -49.62656238 478.32835878 -59.14415061 478.36874419 C-66.49536238 478.39886994 -73.84650746 478.41370873 -81.19777977 478.41702431 C-85.59104269 478.41937853 -89.98405763 478.4283871 -94.37725449 478.45348549 C-98.50920031 478.47671002 -102.64073388 478.48102235 -106.77272797 478.47072411 C-108.2900924 478.47022728 -109.80747675 478.47659072 -111.32477951 478.49028015 C-113.39506716 478.50791524 -115.46386175 478.50093669 -117.53414917 478.48774719 C-119.27244145 478.49132972 -119.27244145 478.49132972 -121.04585075 478.49498463 C-124.65454531 477.89032719 -125.83531562 476.90621443 -128 474 C-128.37136752 471.3699812 -128.51168579 469.14706649 -128.46875 466.5234375 C-128.47579956 465.7981485 -128.48284912 465.0728595 -128.4901123 464.32559204 C-128.51944609 461.2372164 -128.50310511 458.1494792 -128.49072266 455.06103516 C-128.48100434 445.93942076 -128.82314679 438.31336984 -133 430 C-133.75277991 427.90416513 -134.48671736 425.80128927 -135.1875 423.6875 C-135.51105469 422.72199219 -135.83460938 421.75648438 -136.16796875 420.76171875 C-137.44303849 416.529445 -138.12400956 412.59706222 -138.14717102 408.17610168 C-138.15432632 407.23288055 -138.16148163 406.28965942 -138.16885376 405.31785583 C-138.17154266 404.29490921 -138.17423157 403.27196259 -138.17700195 402.21801758 C-138.18357315 401.1311969 -138.19014435 400.04437622 -138.19691467 398.92462158 C-138.2166098 395.33125739 -138.22830194 391.73793493 -138.23828125 388.14453125 C-138.24235678 386.91491858 -138.2464323 385.6853059 -138.25063133 384.41843224 C-138.26932913 378.58037539 -138.28389836 372.74233485 -138.2922433 366.90425378 C-138.30103449 360.85556718 -138.32031231 354.8071319 -138.35668945 348.75854492 C-138.39517042 342.25587321 -138.41393525 335.75342804 -138.41844749 329.25064659 C-138.42330841 326.77761277 -138.43490814 324.30458236 -138.45348549 321.83161354 C-138.47791706 318.36379541 -138.47690404 314.89683351 -138.4699707 311.42895508 C-138.48278076 310.41612961 -138.49559082 309.40330414 -138.50878906 308.35978699 C-138.43812696 298.61784564 -135.56565474 290.79501015 -128.859375 283.6875 C-122.09590417 277.54922395 -114.57852627 275.65048797 -105.63671875 275.796875 C-102.52146213 276.03686514 -99.86565307 276.76079867 -97 278 C-96.835 277.175 -96.67 276.35 -96.5 275.5 C-93.71615347 269.0043581 -88.70322552 264.50137879 -82.3125 261.5625 C-71.50518453 257.36889212 -63.74057156 259.38212327 -53 263 C-52.74605469 262.41347656 -52.49210938 261.82695312 -52.23046875 261.22265625 C-48.33980986 254.19476765 -41.09400837 250.51443492 -33.6875 248.3125 C-25.27690172 247.33452346 -20.39829813 248.20056729 -12 251 C-11.67 244.07 -11.34 237.14 -11 230 C-14.0722287 230.00888245 -17.1444574 230.01776489 -20.30978394 230.0269165 C-48.50262743 230.10656419 -76.69544008 230.16625336 -104.88836747 230.20426132 C-108.58573478 230.20926396 -112.28310183 230.21444127 -115.98046875 230.21972656 C-116.71652749 230.2207758 -117.45258624 230.22182505 -118.21094979 230.22290608 C-130.11881027 230.24029681 -142.02659326 230.27182711 -153.93440782 230.30861118 C-166.15892542 230.34605777 -178.38340252 230.3682437 -190.60797513 230.37635398 C-198.14721532 230.38183407 -205.68623648 230.39912315 -213.22540922 230.43166587 C-219.01289522 230.45537027 -224.80024181 230.45781047 -230.58776665 230.45243073 C-232.95726429 230.4535295 -235.32677037 230.46146383 -237.69621849 230.4768219 C-240.93790732 230.4967997 -244.17866816 230.49191012 -247.42037964 230.48101807 C-248.35231545 230.49266943 -249.28425127 230.5043208 -250.24442756 230.51632524 C-259.08027724 230.43638694 -266.94054237 227.80022458 -273.46875 221.703125 C-280.05347264 214.37930083 -282.30131113 206.80444826 -282.29052734 197.12402344 C-282.30060318 195.81544121 -282.30060318 195.81544121 -282.31088257 194.48042297 C-282.32982355 191.60668177 -282.33378503 188.73317468 -282.3359375 185.859375 C-282.34236894 183.85166327 -282.34909756 181.84395247 -282.35610962 179.83624268 C-282.36807322 175.62990142 -282.37179146 171.42364222 -282.37060547 167.21728516 C-282.37040252 161.84637834 -282.39768399 156.47600207 -282.43214989 151.10522079 C-282.45446901 146.95802428 -282.45844145 142.81095433 -282.45738602 138.66370392 C-282.45973522 136.68469671 -282.46852009 134.70568564 -282.48405075 132.72673798 C-282.57744219 119.5955563 -282.47560672 108.84606621 -273 98.7578125 C-267.00347965 93.48743328 -260.7066378 90.87178048 -252.77349854 90.87974548 C-251.71623062 90.87837082 -250.65896271 90.87699615 -249.56965637 90.87557983 C-248.41519516 90.87917511 -247.26073395 90.88277039 -246.07128906 90.88647461 C-244.85150864 90.88632858 -243.63172821 90.88618256 -242.37498474 90.8860321 C-239.03439478 90.8866092 -235.6938667 90.89162292 -232.3532877 90.89860606 C-228.86058802 90.90485929 -225.36788751 90.90544496 -221.87518311 90.90663147 C-215.26314728 90.90973897 -208.651128 90.91794455 -202.03909945 90.92798096 C-194.51073626 90.93916012 -186.98237228 90.94465709 -179.45400286 90.94967639 C-163.96932566 90.96012763 -148.48466496 90.97771585 -133 91 C-133.27714844 90.13117188 -133.55429688 89.26234375 -133.83984375 88.3671875 C-134.20207031 87.21476562 -134.56429687 86.06234375 -134.9375 84.875 C-135.29714844 83.73804687 -135.65679687 82.60109375 -136.02734375 81.4296875 C-141.53058632 62.02467955 -137.61865334 40.84315307 -129 23 C-117.97513838 3.43976165 -101.85651993 -9.45392244 -81 -17 C-80.01386719 -17.3609375 -79.02773438 -17.721875 -78.01171875 -18.09375 C-50.72859481 -26.06824901 -21.37933569 -17.76938228 0 0 Z M-107.3515625 21.73046875 C-118.04258171 35.60476896 -122.53373166 52.62351749 -121 70 C-118.40929107 87.81112391 -109.4147418 104.12964364 -94.94921875 115.05078125 C-78.77893381 125.73816162 -61.63156696 130.37261165 -42.25 127 C-25.2091627 122.98484696 -9.92053717 112.81368256 -0.15625 98.25 C9.08034108 83.22097045 12.55272007 66.3140139 9.3515625 48.875 C6.07124959 35.41730599 -0.18724598 24.69613385 -10 15 C-11.03060547 13.93652344 -11.03060547 13.93652344 -12.08203125 12.8515625 C-24.77517484 0.55875925 -40.91475263 -3.52940024 -58.14086914 -3.41992188 C-78.19295246 -2.85967741 -94.4859752 6.79185492 -107.3515625 21.73046875 Z M-263.34265137 114.72570801 C-265.35365445 118.69868699 -265.56371429 122.03646487 -265.51757812 126.38867188 C-265.5245874 127.20896378 -265.53159668 128.02925568 -265.53881836 128.87440491 C-265.55635406 131.57286923 -265.54479169 134.27027591 -265.53125 136.96875 C-265.53394619 138.85152385 -265.53782968 140.73429634 -265.54284668 142.61706543 C-265.54873572 146.55783378 -265.54019793 150.49823881 -265.52148438 154.43896484 C-265.49869517 159.48300854 -265.51182144 164.52620083 -265.53577423 169.57021332 C-265.55024826 173.45650616 -265.54561886 177.34259811 -265.53526306 181.22889709 C-265.53260021 183.08838502 -265.53584996 184.94789136 -265.54518127 186.80735779 C-265.55537342 189.40917066 -265.53980938 192.00961671 -265.51757812 194.61132812 C-265.52567505 195.37514297 -265.53377197 196.13895782 -265.54211426 196.92591858 C-265.46022188 202.11551909 -264.37642686 205.07147958 -261 209 C-255.74187338 213.46164777 -251.59533769 213.56328588 -245.01528931 213.48101807 C-243.51301932 213.48614462 -243.51301932 213.48614462 -241.98040044 213.49137473 C-238.62677856 213.49795977 -235.27395822 213.47596643 -231.92041016 213.45410156 C-229.51561502 213.45297322 -227.1108185 213.45360668 -224.70602417 213.45587158 C-219.52987555 213.45678225 -214.35390795 213.44544203 -209.17781448 213.42292023 C-201.69412108 213.39037901 -194.21052514 213.37999107 -186.72676866 213.37496826 C-174.58422922 213.36621892 -162.44179742 213.33961318 -150.29931641 213.30175781 C-138.50570208 213.26502836 -126.71211702 213.23672119 -114.91845703 213.21972656 C-114.19120645 213.21867567 -113.46395587 213.21762477 -112.71466739 213.21654204 C-109.066178 213.2113218 -105.4176884 213.20626698 -101.76919866 213.20129442 C-71.51272206 213.15984362 -41.25637598 213.08910723 -11 213 C-10.9906543 211.9262915 -10.98130859 210.85258301 -10.97167969 209.74633789 C-10.9315161 205.72591122 -10.8656871 201.70622875 -10.79248047 197.6862793 C-10.76442263 195.95330434 -10.74313325 194.22020503 -10.72900391 192.48706055 C-10.61991016 179.8576408 -9.93790148 170.44359082 -1 160.79296875 C6.43759709 154.12527917 13.88724071 152.63849403 23.60546875 152.71484375 C28.61088924 153.13532211 32.5812111 154.6899956 37 157 C38.60875 157.8353125 38.60875 157.8353125 40.25 158.6875 C47.91444629 165.13260256 50.77665976 173.31913807 52 183 C52.13965341 185.41362935 52.24380526 187.8295179 52.31640625 190.24609375 C52.33718735 190.90207047 52.35796844 191.55804718 52.37937927 192.23390198 C52.44405938 194.30167546 52.50337466 196.36956101 52.5625 198.4375 C52.60576307 199.85092242 52.64937965 201.26433407 52.69335938 202.67773438 C52.79965516 206.11837471 52.90114472 209.55913692 53 213 C54.43084004 213.03224906 55.86189197 213.05517972 57.29296875 213.07421875 C58.08985107 213.08799561 58.8867334 213.10177246 59.70776367 213.1159668 C64.40684365 212.87823509 67.20156136 210.8631769 70.3125 207.5 C73.25953917 203.13401605 73.15361958 199.21596555 73.16113281 194.13549805 C73.16609772 193.33515137 73.17106262 192.53480469 73.17617798 191.71020508 C73.19079064 189.0607009 73.19760033 186.41125661 73.203125 183.76171875 C73.20887747 181.9194997 73.21463519 180.07728066 73.22039795 178.23506165 C73.23090558 174.37065349 73.23674971 170.50626613 73.24023438 166.6418457 C73.24571665 161.69541658 73.26973996 156.74926307 73.29820633 151.80292034 C73.3168511 147.99645694 73.3220393 144.19005966 73.32357025 140.38355446 C73.32659348 138.56033637 73.33461086 136.73711936 73.34775543 134.91394615 C73.36485342 132.3599808 73.36292657 129.80668527 73.35644531 127.25268555 C73.3656601 126.50285904 73.37487488 125.75303253 73.3843689 124.98048401 C73.34679366 120.24213168 72.50596628 117.0219895 70 113 C66.02815212 109.41564947 63.58725541 107.89658202 58.29418945 107.74365234 C57.31589676 107.71467865 56.33760406 107.68570496 55.32966614 107.65585327 C50.84374941 107.55834121 46.35798766 107.48430301 41.87133789 107.43017578 C39.50738264 107.39352531 37.14363422 107.33896529 34.78051758 107.26611328 C31.36985459 107.16255016 27.96277546 107.11822336 24.55078125 107.0859375 C23.49949539 107.04262299 22.44820953 106.99930847 21.36506653 106.9546814 C15.56524357 106.9636097 15.56524357 106.9636097 10.80406189 109.97674561 C9.03257414 112.24587151 7.50108164 114.54657391 6 117 C-6.62003803 131.78803733 -26.27660737 142.01829379 -45.671875 143.87109375 C-69.45499208 145.18794419 -91.40405541 140.09312433 -109.69067383 124.02612305 C-116.37053608 118.02397345 -116.37053608 118.02397345 -118.36923122 114.77261829 C-120.68232364 111.1237774 -122.47024582 108.46836641 -126.70999336 107.17027855 C-130.07780238 106.86314879 -133.34363747 106.84073334 -136.72485352 106.91479492 C-137.99395569 106.90705551 -139.26305786 106.8993161 -140.57061768 106.89134216 C-144.03637349 106.87174678 -147.49947967 106.90802773 -150.96487927 106.95572829 C-154.59885062 106.99727404 -158.2327639 106.99065868 -161.8669281 106.99031067 C-167.96764492 106.99680247 -174.06734921 107.03772239 -180.16772461 107.10131836 C-187.21219358 107.17453016 -194.25566698 107.20263011 -201.30049378 107.204467 C-208.81413485 107.20671896 -216.32740734 107.23948935 -223.84091449 107.28248048 C-226.00025358 107.29295104 -228.15955065 107.29802196 -230.3189106 107.30199242 C-234.34790618 107.3114012 -238.37581835 107.35526382 -242.40454102 107.40307617 C-243.59691879 107.40283447 -244.78929657 107.40259277 -246.01780701 107.40234375 C-253.90264761 107.53494243 -258.04345665 108.56001999 -263.34265137 114.72570801 Z M10 173 C5.72468669 178.13682536 5.42967471 182.0406591 5.50170898 188.59790039 C5.49619019 189.546595 5.49067139 190.49528961 5.48498535 191.47273254 C5.47568377 193.5253855 5.47554491 195.57809617 5.48357964 197.63075447 C5.49621949 200.87997869 5.48491108 204.12835473 5.46754456 207.37754822 C5.44085415 213.1016236 5.43524862 218.8254907 5.43664551 224.54962158 C5.43887495 233.71500321 5.4247891 242.88012757 5.38105965 252.04540825 C5.37121523 255.24566529 5.37994097 258.44551844 5.38975525 261.64576721 C5.38361156 263.60767889 5.3767 265.56958836 5.36889648 267.53149414 C5.37661575 268.42046387 5.38433502 269.30943359 5.39228821 270.2253418 C5.35339151 274.96137677 5.11339466 278.16988846 2 282 C-0.80915474 283.40457737 -2.88810534 283.24895157 -6 283 C-9.59171303 281.41542072 -10.46713347 279.09273682 -11.875 275.625 C-13.87875315 270.87478984 -15.55012499 268.68671698 -20 266 C-24.77317656 264.50340104 -28.72119899 264.52762171 -33.3125 266.5625 C-37.09063939 268.78140726 -39.04149136 271.01044537 -41 275 C-41.45450433 276.91270572 -41.8908076 278.82979353 -42.3125 280.75 C-43.02734375 283.62109375 -43.02734375 283.62109375 -44 286 C-47.64262144 287.95622262 -49.58583343 288.23569443 -53.625 287.5625 C-56.02653237 285.98254449 -56.83939413 284.91576614 -58.375 282.5625 C-60.9681552 278.68087081 -63.42614871 277.26175208 -68 276 C-72.24326187 276 -74.98482614 276.69770646 -78.3125 279.25 C-82.96507563 284.01077506 -83.27609972 288.27905337 -83.75390625 294.6953125 C-84 297 -84 297 -85 300 C-92.21769134 301.34567127 -92.21769134 301.34567127 -95.6875 299.8125 C-98.13873416 297.89126242 -100.58082093 295.96149655 -103 294 C-106.51145201 292.244274 -110.28528368 293.05525381 -114 294 C-117.80122918 296.99245702 -120.66684053 300.21175697 -121.25447559 305.12973022 C-121.25652846 305.89951202 -121.25858133 306.66929382 -121.26069641 307.46240234 C-121.26778122 308.35087357 -121.27486603 309.23934479 -121.28216553 310.15473938 C-121.27968811 311.12203476 -121.27721069 312.08933014 -121.2746582 313.0859375 C-121.27976913 314.11087814 -121.28488007 315.13581879 -121.29014587 316.19181824 C-121.304064 319.58627134 -121.3030824 322.98052171 -121.30078125 326.375 C-121.30466899 328.73950272 -121.30900382 331.10400474 -121.31376648 333.46850586 C-121.32123495 338.4316636 -121.32093433 343.39475024 -121.31567383 348.35791016 C-121.30990015 354.69487747 -121.32675637 361.03155051 -121.3500185 367.36846924 C-121.36481285 372.25691408 -121.36561942 377.14528917 -121.36250877 382.03375244 C-121.36301984 384.36835306 -121.36821698 386.70295781 -121.37832069 389.03753662 C-121.56684724 408.78697953 -121.56684724 408.78697953 -115.38813782 427.31860352 C-114.71626922 428.64179344 -114.71626922 428.64179344 -114.03082752 429.99171448 C-113.69065444 430.6544487 -113.35048136 431.31718292 -113 432 C-95.37166328 432.2336816 -77.74381031 432.40998007 -60.11427879 432.51812172 C-51.9283608 432.5696706 -43.74340549 432.63993572 -35.55810547 432.75439453 C-28.42306808 432.85411941 -21.2887278 432.91859332 -14.15301287 432.94088495 C-10.37480589 432.95391538 -6.59859298 432.98449077 -2.82102585 433.05730057 C0.73697547 433.12532108 4.29216783 433.1460928 7.8507576 433.13107681 C9.77511752 433.13512892 11.69917283 433.18888127 13.6227417 433.24420166 C17.03617311 433.20348994 19.76258548 433.08855465 23 432 C25.81152324 428.9668405 27.30123535 425.72893717 29 422 C31.34936523 419.73608398 31.34936523 419.73608398 33.62109375 418.30859375 C34.91249268 417.48270752 34.91249268 417.48270752 36.22998047 416.64013672 C37.14408691 416.0988916 38.05819336 415.55764648 39 415 C39.95922363 414.43168457 40.91844727 413.86336914 41.90673828 413.27783203 C45.96905571 410.92075011 50.06071715 408.61918613 54.16601562 406.33789062 C65.56740383 399.84674884 75.40853147 392.31398651 79.05859375 379.1953125 C80.3562294 372.86303395 80.86860239 366.42145862 81.43261719 359.9909668 C81.62314186 357.83354081 81.82653789 355.67760483 82.03125 353.52148438 C84.55543424 333.12809733 84.55543424 333.12809733 77.26953125 314.75 C69.95580379 306.80854743 61.64474435 304.13926459 51.06835938 303.703125 C49.64414934 303.65090832 48.2196248 303.60667684 46.79492188 303.5703125 C42.65649496 303.38379185 39.86667975 303.13118636 37 300 C36.02014132 297.00608748 35.87333045 294.2541926 35.86869812 291.11758423 C35.86268585 289.64565865 35.86268585 289.64565865 35.85655212 288.14399719 C35.8573452 286.53865364 35.8573452 286.53865364 35.8581543 284.90087891 C35.85467987 283.7687648 35.85120544 282.6366507 35.84762573 281.4702301 C35.84027266 279.01100786 35.83492489 276.55177899 35.83133507 274.09254837 C35.82417124 270.20075336 35.80850579 266.30908454 35.78999329 262.41732788 C35.78365634 261.08349805 35.77733071 259.74966817 35.77101612 258.41583824 C35.76785031 257.74796437 35.7646845 257.0800905 35.76142275 256.39197803 C35.7193886 247.33490236 35.68637022 238.27786988 35.67407227 229.22070312 C35.66478907 222.45325233 35.63469347 215.68612955 35.59275246 208.91880417 C35.58042976 206.33924132 35.5753235 203.75963358 35.57755089 201.18004227 C35.57989985 197.57231857 35.5577669 193.96551028 35.5300293 190.35791016 C35.53663071 189.29172958 35.54323212 188.22554901 35.55003357 187.12705994 C35.47387216 181.09821983 35.00969508 177.5982648 31 173 C27.72769996 170.12434239 25.1264645 169.10831389 20.75 168.6875 C16.35511246 169.05374063 13.33250036 170.09474327 10 173 Z M-111 449 C-111 452.96 -111 456.92 -111 461 C-67.11 461 -23.22 461 22 461 C22 457.04 22 453.08 22 449 C-21.89 449 -65.78 449 -111 449 Z " fill="#000000" transform="translate(347,27)"/>
<path d="M0 0 C5.09908447 2.73798666 8.52823798 7.00505019 10.734375 12.27734375 C11.10546875 15.01171875 11.10546875 15.01171875 11.171875 18.02734375 C11.23181641 19.50460938 11.23181641 19.50460938 11.29296875 21.01171875 C9.97446026 28.71992224 4.13280348 34.29690016 -1.2890625 39.55859375 C-1.95346344 40.21637817 -2.61786438 40.8741626 -3.30239868 41.55187988 C-5.40806963 43.63435388 -7.52368091 45.70633609 -9.640625 47.77734375 C-11.74866039 49.85005165 -13.85443001 51.92498879 -15.95742798 54.00280762 C-17.25976564 55.28847312 -18.56518911 56.57102388 -19.87435913 57.84973145 C-23.68781497 61.60157224 -27.27384673 65.4843967 -30.75564575 69.5464325 C-36.80159266 76.4769897 -42.82140706 81.66267398 -52.140625 82.71484375 C-63.26098954 82.08270555 -70.01712117 74.21498177 -77.31542969 66.71459961 C-79.14472756 64.83562979 -80.99228062 62.97624279 -82.84375 61.11914062 C-84.02454293 59.92426848 -85.20426878 58.72834068 -86.3828125 57.53125 C-86.92968719 56.9790126 -87.47656189 56.42677521 -88.04000854 55.85780334 C-93.85816138 49.85772222 -96.61094741 44.87527564 -96.484375 36.36328125 C-95.90528767 30.84126993 -93.06766926 26.18801784 -89.265625 22.27734375 C-84.19989585 19.05369793 -78.96674711 17.66805219 -73.03515625 18.64453125 C-66.82831833 20.37518141 -62.77351088 23.79885713 -58.265625 28.27734375 C-57.73453125 28.79425781 -57.2034375 29.31117187 -56.65625 29.84375 C-55.51084251 30.9730703 -54.38538649 32.12258972 -53.265625 33.27734375 C-49.24126614 31.66987014 -46.55854066 28.82575679 -43.58203125 25.7890625 C-43.04464828 25.24884964 -42.50726532 24.70863678 -41.95359802 24.15205383 C-40.24033954 22.42763669 -38.53415724 20.69640746 -36.828125 18.96484375 C-35.68470938 17.81138823 -34.54083375 16.65838852 -33.39648438 15.50585938 C-31.28301779 13.37610662 -29.17231426 11.2436954 -27.06469727 9.1081543 C-25.67915649 7.70690308 -25.67915649 7.70690308 -24.265625 6.27734375 C-23.36021973 5.35751709 -22.45481445 4.43769043 -21.52197266 3.48999023 C-15.84555124 -2.07648968 -7.44561304 -2.37489381 0 0 Z M-12.13543701 17.59971619 C-12.77749084 18.27700272 -13.41954468 18.95428925 -14.08105469 19.65209961 C-15.18305206 20.79339577 -15.18305206 20.79339577 -16.30731201 21.95774841 C-17.09277405 22.79411331 -17.87823608 23.63047821 -18.6875 24.4921875 C-20.36940062 26.22759261 -22.05170506 27.96260644 -23.734375 29.69726562 C-26.37905714 32.45369836 -29.01691615 35.21620428 -31.64648438 37.98706055 C-34.1844965 40.65192568 -36.74670559 43.29160192 -39.3125 45.9296875 C-40.08986511 46.76402817 -40.86723022 47.59836884 -41.66815186 48.45799255 C-47.8523361 54.7807338 -47.8523361 54.7807338 -52.65942383 54.90234375 C-56.77569635 54.18894197 -58.27674426 53.26622449 -61.203125 50.33984375 C-62.03972656 49.52902344 -62.87632812 48.71820313 -63.73828125 47.8828125 C-65.42336439 46.14564023 -67.09790281 44.39817705 -68.76171875 42.640625 C-69.54675781 41.81949219 -70.33179688 40.99835938 -71.140625 40.15234375 C-71.83929688 39.38664062 -72.53796875 38.6209375 -73.2578125 37.83203125 C-75.14459663 35.9974463 -75.14459663 35.9974463 -77.5234375 36.53515625 C-78.38582031 36.90253906 -78.38582031 36.90253906 -79.265625 37.27734375 C-77.66189352 41.28251771 -74.84448514 43.95445355 -71.8203125 46.91796875 C-71.29043732 47.44501404 -70.76056213 47.97205933 -70.21463013 48.51507568 C-68.52794675 50.1906005 -66.83442936 51.85902097 -65.140625 53.52734375 C-63.99303112 54.66490226 -62.84589039 55.80291811 -61.69921875 56.94140625 C-58.89324363 59.7253784 -56.08112036 62.50300135 -53.265625 65.27734375 C-49.84697111 63.79902485 -47.60531367 61.87516568 -44.97192383 59.25830078 C-44.13458206 58.43049103 -43.2972403 57.60268127 -42.43452454 56.74978638 C-41.539608 55.85395844 -40.64469147 54.95813049 -39.72265625 54.03515625 C-38.79845383 53.11523895 -37.8742514 52.19532166 -36.92204285 51.24752808 C-34.9694279 49.30236287 -33.02071835 47.35338287 -31.07446289 45.40185547 C-28.58115152 42.9027412 -26.07664116 40.41519591 -23.56886768 37.93060493 C-21.17569531 35.55570825 -18.79356342 33.16985301 -16.41015625 30.78515625 C-15.50916702 29.89337677 -14.6081778 29.00159729 -13.67988586 28.08279419 C-12.43805794 26.83162308 -12.43805794 26.83162308 -11.17114258 25.55517578 C-10.07338249 24.45835983 -10.07338249 24.45835983 -8.95344543 23.33938599 C-7.24075252 21.24695657 -6.65615037 19.92144107 -6.265625 17.27734375 C-8.88928101 16.21848615 -9.76033256 15.91998976 -12.13543701 17.59971619 Z " fill="#000000" transform="translate(334.265625,48.72265625)"/>
<path d="M0 0 C1.06564197 -0.00339833 1.06564197 -0.00339833 2.15281206 -0.00686532 C4.5333335 -0.01319546 6.91379786 -0.0123766 9.29432678 -0.0115509 C11.00106886 -0.01454298 12.70781027 -0.01794562 14.41455078 -0.02172852 C19.05086903 -0.03056705 23.68716882 -0.03290655 28.32349467 -0.0335443 C32.19288216 -0.03449363 36.06226534 -0.03817214 39.93165118 -0.0417164 C49.0593812 -0.04986015 58.18710136 -0.05230068 67.31483459 -0.05158997 C76.73403585 -0.05098895 86.15317988 -0.06154569 95.57236665 -0.07733363 C103.65738696 -0.09040294 111.74238855 -0.09577413 119.82741934 -0.09513456 C124.65711164 -0.09487942 129.48675307 -0.09773929 134.31643486 -0.10831261 C138.85788816 -0.11798351 143.39924184 -0.1180797 147.94069862 -0.11079597 C149.6076001 -0.10974893 151.27450775 -0.11212012 152.94139862 -0.11815643 C155.21666524 -0.12586234 157.49158663 -0.121241 159.7668457 -0.11352539 C161.0401773 -0.11407016 162.31350889 -0.11461493 163.62542629 -0.1151762 C167.77543991 0.19579662 170.66713272 1.02456841 173.82191467 3.75871277 C175.27115055 6.81821074 175.02347766 8.92512829 174.66175842 12.23136902 C173.64027306 14.94974811 172.45727302 15.67134306 169.94691467 17.13371277 C167.42208987 17.42614182 165.14466026 17.54760933 162.62135315 17.52812195 C161.88163474 17.53421305 161.14191632 17.54030416 160.3797822 17.54657984 C157.9000507 17.56323473 155.42083129 17.55843064 152.9410553 17.55363464 C151.16372137 17.56097346 149.38639221 17.56955914 147.60906982 17.57929993 C142.7806376 17.60154224 137.95237588 17.60444532 133.12389946 17.60255241 C129.09534322 17.60243286 125.0668233 17.61099065 121.03827715 17.61932993 C111.53660701 17.63857306 102.03502474 17.64144419 92.53334045 17.63468933 C82.72431904 17.6280445 72.91567328 17.65092859 63.10672808 17.68800306 C54.68964734 17.71866484 46.27268769 17.73006402 37.8555522 17.72616625 C32.82626504 17.72409544 27.79727027 17.72962937 22.76803589 17.75405884 C18.04009826 17.77626588 13.31277318 17.77449881 8.58483315 17.75413132 C6.84816834 17.75071074 5.11146277 17.7558553 3.37485313 17.7701149 C1.00667338 17.7882212 -1.35940898 17.77562573 -3.7275238 17.75517273 C-4.4174056 17.76769058 -5.1072874 17.78020843 -5.8180747 17.7931056 C-9.45947778 17.72551356 -10.82442178 17.35528475 -13.47968292 14.78237152 C-15.41752928 11.52020941 -15.67578021 9.86988208 -15.05308533 6.13371277 C-12.2075085 1.5604643 -12.2075085 1.5604643 -9.35327816 0.50535107 C-6.21582036 -0.00156273 -3.17886023 0.00418497 0 0 Z " fill="#000000" transform="translate(118.05308532714844,196.8662872314453)"/>
<path d="M0 0 C0.81307114 -0.00571014 1.62614227 -0.01142029 2.46385193 -0.01730347 C3.79642281 -0.01898026 3.79642281 -0.01898026 5.15591431 -0.02069092 C6.09441727 -0.02565582 7.03292023 -0.03062073 7.99986267 -0.03573608 C11.10869069 -0.05035721 14.21746769 -0.05715934 17.32632446 -0.06268311 C19.48482261 -0.06843422 21.64332074 -0.07419196 23.80181885 -0.07995605 C28.32952106 -0.09046564 32.85720552 -0.09630871 37.38491821 -0.09979248 C43.18787411 -0.10527972 48.99059566 -0.12931296 54.79347801 -0.15776443 C59.25271288 -0.17638262 63.71189119 -0.18159596 68.17116165 -0.18312836 C70.3105968 -0.18615683 72.4500309 -0.19419186 74.58942795 -0.20731354 C77.58182395 -0.22435806 80.57364577 -0.22249767 83.56607056 -0.21600342 C84.45040268 -0.2252182 85.3347348 -0.23443298 86.24586487 -0.243927 C90.97617833 -0.21174978 94.17779514 0.02213438 97.99038696 3.14044189 C100.3320746 6.65297335 100.48662374 8.00513545 99.99038696 12.14044189 C98.58230591 14.7953186 98.58230591 14.7953186 95.99038696 17.14044189 C92.71693123 17.89809154 89.49236172 17.82336551 86.14468384 17.78741455 C84.64651878 17.80055695 84.64651878 17.80055695 83.11808777 17.81396484 C79.81466302 17.83598208 76.51257546 17.82139704 73.20913696 17.80450439 C70.91514834 17.80787184 68.62116146 17.81272385 66.32717896 17.81900024 C61.51861592 17.82637477 56.71051715 17.81564683 51.90200806 17.79229736 C45.7343831 17.76380996 39.56784595 17.78021073 33.40026093 17.81015968 C28.66305323 17.82821658 23.92610398 17.82248186 19.18888855 17.80952072 C16.91466646 17.8061823 14.640421 17.81028904 12.3662262 17.82191849 C9.18888082 17.8346001 6.01330355 17.81528611 2.83609009 17.78741455 C1.8936293 17.79753571 0.95116852 17.80765686 -0.01985168 17.81808472 C-6.37904825 17.71459721 -6.37904825 17.71459721 -9.59371948 14.7875061 C-11.33763007 11.52720218 -11.61764157 9.78861307 -11.00961304 6.14044189 C-7.96714806 1.41937556 -5.5248391 0.02327667 0 0 Z " fill="#000000" transform="translate(114.00961303710938,159.85955810546875)"/>
</svg>
