<?xml version="1.0" encoding="UTF-8"?>
<svg version="1.1" xmlns="http://www.w3.org/2000/svg" width="512" height="512">
<path d="M0 0 C1.11359894 -0.00686325 2.22719788 -0.0137265 3.37454224 -0.02079773 C7.02863586 -0.03898795 10.68229691 -0.03523894 14.33642578 -0.02954102 C16.89413593 -0.0341067 19.45184485 -0.03941343 22.009552 -0.04542542 C27.36059134 -0.05434144 32.71147535 -0.05218712 38.0625 -0.04199219 C44.21902194 -0.03052067 50.37510773 -0.04458137 56.53157222 -0.07138866 C62.48923592 -0.09634422 68.44676587 -0.09870192 74.4044838 -0.0922718 C76.92329763 -0.09211911 79.44212006 -0.09812059 81.96090317 -0.11056328 C85.49248816 -0.12555218 89.02313064 -0.11473698 92.5546875 -0.09765625 C93.58051941 -0.10732422 94.60635132 -0.11699219 95.66326904 -0.12695312 C109.46756076 0.01184169 120.1673339 5.4484839 130.15673828 14.71655273 C139.7261004 24.82757686 142.8702931 36.38451509 142.81079102 49.99731445 C142.81765427 51.11091339 142.82451752 52.22451233 142.83158875 53.37185669 C142.84977896 57.02595032 142.84602996 60.67961137 142.84033203 64.33374023 C142.84489772 66.89145038 142.85020444 69.4491593 142.85621643 72.00686646 C142.86513246 77.35790579 142.86297813 82.70878981 142.8527832 88.05981445 C142.84131169 94.21633639 142.85537239 100.37242219 142.88217968 106.52888668 C142.90713524 112.48655037 142.90949294 118.44408033 142.90306282 124.40179825 C142.90291012 126.92061208 142.90891161 129.43943452 142.92135429 131.95821762 C142.93634319 135.48980261 142.925528 139.02044509 142.90844727 142.55200195 C142.92294922 144.09074982 142.92294922 144.09074982 142.93774414 145.6605835 C142.79894933 159.46487521 137.36230712 170.16464835 128.09423828 180.15405273 C117.98321416 189.72341485 106.42627592 192.86760755 92.81347656 192.80810547 C91.69987762 192.81496872 90.58627869 192.82183197 89.43893433 192.8289032 C85.7848407 192.84709342 82.13117965 192.84334441 78.47705078 192.83764648 C75.91934064 192.84221217 73.36163172 192.84751889 70.80392456 192.85353088 C65.45288522 192.86244691 60.10200121 192.86029259 54.75097656 192.85009766 C48.59445463 192.83862614 42.43836883 192.85268684 36.28190434 192.87949413 C30.32424065 192.90444969 24.36671069 192.90680739 18.40899277 192.90037727 C15.89017893 192.90022457 13.3713565 192.90622606 10.85257339 192.91866875 C7.3209884 192.93365765 3.79034593 192.92284245 0.25878906 192.90576172 C-1.2799588 192.92026367 -1.2799588 192.92026367 -2.84979248 192.93505859 C-16.6540842 192.79626378 -27.35385734 187.35962157 -37.34326172 178.09155273 C-46.91262384 167.98052861 -50.05681654 156.42359038 -49.99731445 142.81079102 C-50.0041777 141.69719208 -50.01104095 140.58359314 -50.01811218 139.43624878 C-50.0363024 135.78215515 -50.0325534 132.1284941 -50.02685547 128.47436523 C-50.03142116 125.91665509 -50.03672788 123.35894617 -50.04273987 120.80123901 C-50.05165589 115.45019968 -50.04950157 110.09931566 -50.03930664 104.74829102 C-50.02783513 98.59176908 -50.04189583 92.43568328 -50.06870311 86.27921879 C-50.09365868 80.3215551 -50.09601638 74.36402514 -50.08958626 68.40630722 C-50.08943356 65.88749339 -50.09543505 63.36867095 -50.10787773 60.84988785 C-50.12286663 57.31830286 -50.11205144 53.78766038 -50.0949707 50.25610352 C-50.10463867 49.23027161 -50.11430664 48.2044397 -50.12426758 47.14752197 C-49.98547277 33.34323025 -44.54883055 22.64345712 -35.28076172 12.65405273 C-25.1697376 3.08469062 -13.61279936 -0.05950209 0 0 Z " fill="#00A95A" transform="translate(97.59326171875,271.595947265625)"/>
<path d="M0 0 C1.11359894 -0.00686325 2.22719788 -0.0137265 3.37454224 -0.02079773 C7.02863586 -0.03898795 10.68229691 -0.03523894 14.33642578 -0.02954102 C16.89413593 -0.0341067 19.45184485 -0.03941343 22.009552 -0.04542542 C27.36059134 -0.05434144 32.71147535 -0.05218712 38.0625 -0.04199219 C44.21902194 -0.03052067 50.37510773 -0.04458137 56.53157222 -0.07138866 C62.48923592 -0.09634422 68.44676587 -0.09870192 74.4044838 -0.0922718 C76.92329763 -0.09211911 79.44212006 -0.09812059 81.96090317 -0.11056328 C85.49248816 -0.12555218 89.02313064 -0.11473698 92.5546875 -0.09765625 C93.58051941 -0.10732422 94.60635132 -0.11699219 95.66326904 -0.12695312 C109.46756076 0.01184169 120.1673339 5.4484839 130.15673828 14.71655273 C139.7261004 24.82757686 142.8702931 36.38451509 142.81079102 49.99731445 C142.81765427 51.11091339 142.82451752 52.22451233 142.83158875 53.37185669 C142.84977896 57.02595032 142.84602996 60.67961137 142.84033203 64.33374023 C142.84489772 66.89145038 142.85020444 69.4491593 142.85621643 72.00686646 C142.86513246 77.35790579 142.86297813 82.70878981 142.8527832 88.05981445 C142.84131169 94.21633639 142.85537239 100.37242219 142.88217968 106.52888668 C142.90713524 112.48655037 142.90949294 118.44408033 142.90306282 124.40179825 C142.90291012 126.92061208 142.90891161 129.43943452 142.92135429 131.95821762 C142.93634319 135.48980261 142.925528 139.02044509 142.90844727 142.55200195 C142.92294922 144.09074982 142.92294922 144.09074982 142.93774414 145.6605835 C142.79894933 159.46487521 137.36230712 170.16464835 128.09423828 180.15405273 C117.98321416 189.72341485 106.42627592 192.86760755 92.81347656 192.80810547 C91.69987762 192.81496872 90.58627869 192.82183197 89.43893433 192.8289032 C85.7848407 192.84709342 82.13117965 192.84334441 78.47705078 192.83764648 C75.91934064 192.84221217 73.36163172 192.84751889 70.80392456 192.85353088 C65.45288522 192.86244691 60.10200121 192.86029259 54.75097656 192.85009766 C48.59445463 192.83862614 42.43836883 192.85268684 36.28190434 192.87949413 C30.32424065 192.90444969 24.36671069 192.90680739 18.40899277 192.90037727 C15.89017893 192.90022457 13.3713565 192.90622606 10.85257339 192.91866875 C7.3209884 192.93365765 3.79034593 192.92284245 0.25878906 192.90576172 C-1.2799588 192.92026367 -1.2799588 192.92026367 -2.84979248 192.93505859 C-16.6540842 192.79626378 -27.35385734 187.35962157 -37.34326172 178.09155273 C-46.91262384 167.98052861 -50.05681654 156.42359038 -49.99731445 142.81079102 C-50.0041777 141.69719208 -50.01104095 140.58359314 -50.01811218 139.43624878 C-50.0363024 135.78215515 -50.0325534 132.1284941 -50.02685547 128.47436523 C-50.03142116 125.91665509 -50.03672788 123.35894617 -50.04273987 120.80123901 C-50.05165589 115.45019968 -50.04950157 110.09931566 -50.03930664 104.74829102 C-50.02783513 98.59176908 -50.04189583 92.43568328 -50.06870311 86.27921879 C-50.09365868 80.3215551 -50.09601638 74.36402514 -50.08958626 68.40630722 C-50.08943356 65.88749339 -50.09543505 63.36867095 -50.10787773 60.84988785 C-50.12286663 57.31830286 -50.11205144 53.78766038 -50.0949707 50.25610352 C-50.10463867 49.23027161 -50.11430664 48.2044397 -50.12426758 47.14752197 C-49.98547277 33.34323025 -44.54883055 22.64345712 -35.28076172 12.65405273 C-25.1697376 3.08469062 -13.61279936 -0.05950209 0 0 Z " fill="#00A95A" transform="translate(321.59326171875,47.595947265625)"/>
<path d="M0 0 C1.11359894 -0.00686325 2.22719788 -0.0137265 3.37454224 -0.02079773 C7.02863586 -0.03898795 10.68229691 -0.03523894 14.33642578 -0.02954102 C16.89413593 -0.0341067 19.45184485 -0.03941343 22.009552 -0.04542542 C27.36059134 -0.05434144 32.71147535 -0.05218712 38.0625 -0.04199219 C44.21902194 -0.03052067 50.37510773 -0.04458137 56.53157222 -0.07138866 C62.48923592 -0.09634422 68.44676587 -0.09870192 74.4044838 -0.0922718 C76.92329763 -0.09211911 79.44212006 -0.09812059 81.96090317 -0.11056328 C85.49248816 -0.12555218 89.02313064 -0.11473698 92.5546875 -0.09765625 C93.58051941 -0.10732422 94.60635132 -0.11699219 95.66326904 -0.12695312 C109.46756076 0.01184169 120.1673339 5.4484839 130.15673828 14.71655273 C139.7261004 24.82757686 142.8702931 36.38451509 142.81079102 49.99731445 C142.81765427 51.11091339 142.82451752 52.22451233 142.83158875 53.37185669 C142.84977896 57.02595032 142.84602996 60.67961137 142.84033203 64.33374023 C142.84489772 66.89145038 142.85020444 69.4491593 142.85621643 72.00686646 C142.86513246 77.35790579 142.86297813 82.70878981 142.8527832 88.05981445 C142.84131169 94.21633639 142.85537239 100.37242219 142.88217968 106.52888668 C142.90713524 112.48655037 142.90949294 118.44408033 142.90306282 124.40179825 C142.90291012 126.92061208 142.90891161 129.43943452 142.92135429 131.95821762 C142.93634319 135.48980261 142.925528 139.02044509 142.90844727 142.55200195 C142.92294922 144.09074982 142.92294922 144.09074982 142.93774414 145.6605835 C142.79894933 159.46487521 137.36230712 170.16464835 128.09423828 180.15405273 C117.98321416 189.72341485 106.42627592 192.86760755 92.81347656 192.80810547 C91.69987762 192.81496872 90.58627869 192.82183197 89.43893433 192.8289032 C85.7848407 192.84709342 82.13117965 192.84334441 78.47705078 192.83764648 C75.91934064 192.84221217 73.36163172 192.84751889 70.80392456 192.85353088 C65.45288522 192.86244691 60.10200121 192.86029259 54.75097656 192.85009766 C48.59445463 192.83862614 42.43836883 192.85268684 36.28190434 192.87949413 C30.32424065 192.90444969 24.36671069 192.90680739 18.40899277 192.90037727 C15.89017893 192.90022457 13.3713565 192.90622606 10.85257339 192.91866875 C7.3209884 192.93365765 3.79034593 192.92284245 0.25878906 192.90576172 C-1.2799588 192.92026367 -1.2799588 192.92026367 -2.84979248 192.93505859 C-16.6540842 192.79626378 -27.35385734 187.35962157 -37.34326172 178.09155273 C-46.91262384 167.98052861 -50.05681654 156.42359038 -49.99731445 142.81079102 C-50.0041777 141.69719208 -50.01104095 140.58359314 -50.01811218 139.43624878 C-50.0363024 135.78215515 -50.0325534 132.1284941 -50.02685547 128.47436523 C-50.03142116 125.91665509 -50.03672788 123.35894617 -50.04273987 120.80123901 C-50.05165589 115.45019968 -50.04950157 110.09931566 -50.03930664 104.74829102 C-50.02783513 98.59176908 -50.04189583 92.43568328 -50.06870311 86.27921879 C-50.09365868 80.3215551 -50.09601638 74.36402514 -50.08958626 68.40630722 C-50.08943356 65.88749339 -50.09543505 63.36867095 -50.10787773 60.84988785 C-50.12286663 57.31830286 -50.11205144 53.78766038 -50.0949707 50.25610352 C-50.10463867 49.23027161 -50.11430664 48.2044397 -50.12426758 47.14752197 C-49.98547277 33.34323025 -44.54883055 22.64345712 -35.28076172 12.65405273 C-25.1697376 3.08469062 -13.61279936 -0.05950209 0 0 Z " fill="#00A95A" transform="translate(97.59326171875,47.595947265625)"/>
<path d="M0 0 C19.64310634 16.50723368 34.95998326 37.87100875 38 64 C40.00706443 92.38316441 35.11130766 117.2402984 16.84375 139.64453125 C0.42107852 158.46699451 -21.83614019 172.43272251 -47.21777344 174.22753906 C-75.8329536 175.49950262 -100.20094475 169.80835389 -122.1875 150.625 C-140.72962913 133.23989973 -153.23970686 111.00534464 -154.3828125 85.2890625 C-155.09445376 56.78869783 -148.21659255 32.57486407 -128.3359375 11.37109375 C-94.61920639 -22.8530798 -39.12763276 -29.61944513 0 0 Z " fill="#145637" transform="translate(426,290)"/>
</svg>
