<?xml version="1.0" encoding="UTF-8"?>
<svg version="1.1" xmlns="http://www.w3.org/2000/svg" width="512" height="512">
<path d="M0 0 C1.0999568 -0.00525911 1.0999568 -0.00525911 2.22213495 -0.01062447 C4.68068859 -0.01993241 7.13900505 -0.01501674 9.59756851 -0.01015663 C11.37753564 -0.0138932 13.15750112 -0.01849475 14.937464 -0.02388728 C19.83010045 -0.03613193 24.72266859 -0.03585508 29.61531687 -0.03349853 C34.89153633 -0.03309073 40.16773379 -0.04412598 45.44394302 -0.05361366 C55.78173933 -0.07023279 66.11951283 -0.07572363 76.45732138 -0.07683842 C84.8600333 -0.07778848 93.26273769 -0.08189669 101.66544724 -0.08823967 C125.48515781 -0.10585475 149.30485035 -0.11507815 173.12456748 -0.11357872 C175.05111113 -0.11345885 175.05111113 -0.11345885 177.01657486 -0.11333656 C178.30250433 -0.1132548 179.5884338 -0.11317304 180.91333082 -0.1130888 C201.75430607 -0.11227588 222.59520905 -0.13141449 243.4361634 -0.1596133 C264.83206158 -0.18833468 286.22792452 -0.20215399 307.62384248 -0.20042574 C319.63739081 -0.19976157 331.6508634 -0.20526569 343.66439438 -0.22678185 C353.89308231 -0.24498382 364.12166015 -0.24934904 374.35035726 -0.235763 C379.56880156 -0.22922837 384.78703457 -0.22913416 390.00545883 -0.2464695 C394.78489775 -0.26218319 399.56395758 -0.25935386 404.34338716 -0.24190123 C406.0701593 -0.2388276 407.79695962 -0.24247742 409.52369854 -0.25362138 C421.04850804 -0.32305927 431.16995202 0.29629237 440.01169205 8.55414391 C445.63172651 14.80499856 448.78842816 21.7430163 448.80021095 30.21505928 C448.80665985 31.3912595 448.81310874 32.56745971 448.81975305 33.77930236 C448.81510724 35.70389293 448.81510724 35.70389293 448.81036758 37.66736412 C448.81410571 39.05135097 448.81870788 40.4353357 448.82409823 41.8193171 C448.83632369 45.61740795 448.8360683 49.41541068 448.83370948 53.21351671 C448.83330119 57.31181411 448.8443416 61.4100833 448.85382462 65.50836754 C448.87043336 73.53607194 448.87593411 81.56374697 448.87704937 89.59146711 C448.87799995 96.11774947 448.88211076 102.64402214 448.88845062 109.17030144 C448.90606309 127.67761038 448.91528954 146.18489613 448.91378967 164.69221351 C448.91370976 165.68982437 448.91362985 166.68743523 448.91354752 167.71527672 C448.91346575 168.71410717 448.91338399 169.71293762 448.91329975 170.74203566 C448.91248697 186.9271208 448.93162278 203.11211286 448.95982425 219.29717109 C448.98855952 235.91989838 449.00236417 252.54258028 449.0006367 269.16533303 C448.99997299 278.49610528 449.00545664 287.82677996 449.0269928 297.15752983 C449.0452131 305.10252459 449.049545 313.04737755 449.03597395 320.99238417 C449.02944842 325.04429716 449.02931188 329.09593819 449.04668045 333.14782524 C449.06243501 336.86145736 449.05952368 340.57460241 449.04211219 344.28822282 C449.03760219 346.2589171 449.05268097 348.22962662 449.06859148 350.20026183 C448.99217724 360.05887722 447.12437702 368.36136378 440.24606705 375.72601891 C433.41036715 381.87187753 426.27899299 384.5046102 417.08588409 384.51453781 C416.35257956 384.51804389 415.61927503 384.52154996 414.86374915 384.52516228 C412.4051955 384.53447022 409.94687904 384.52955455 407.48831558 384.52469444 C405.70834846 384.52843101 403.92838297 384.53303256 402.1484201 384.53842509 C397.25578365 384.55066974 392.3632155 384.55039289 387.47056723 384.54803634 C382.19434776 384.54762854 376.91815031 384.55866379 371.64194107 384.56815147 C361.30414476 384.5847706 350.96637126 384.59026144 340.62856272 384.59137623 C332.22585079 384.59232629 323.8231464 384.5964345 315.42043686 384.60277748 C291.60072629 384.62039256 267.78103375 384.62961596 243.96131662 384.62811653 C242.03477296 384.62799666 242.03477296 384.62799666 240.06930923 384.62787437 C238.78337977 384.62779261 237.4974503 384.62771085 236.17255327 384.62762661 C215.33157802 384.62681369 194.49067504 384.6459523 173.6497207 384.67415111 C152.25382251 384.70287249 130.85795958 384.7166918 109.46204162 384.71496356 C97.44849328 384.71429939 85.4350207 384.7198035 73.42148972 384.74131966 C63.19280178 384.75952164 52.96422394 384.76388685 42.73552683 384.75030081 C37.51708254 384.74376618 32.29884952 384.74367197 27.08042526 384.76100731 C22.30098634 384.776721 17.52192652 384.77389167 12.74249694 384.75643905 C11.01572479 384.75336541 9.28892448 384.75701523 7.56218556 384.7681592 C-3.96262395 384.83759708 -14.08406792 384.21824544 -22.92580795 375.96039391 C-28.54584241 369.70953925 -31.70254407 362.77152152 -31.71432686 354.29947853 C-31.72077575 353.12327832 -31.72722464 351.9470781 -31.73386896 350.73523545 C-31.73077175 349.45217507 -31.72767455 348.16911469 -31.72448349 346.84717369 C-31.72822162 345.46318684 -31.73282379 344.07920211 -31.73821414 342.69522071 C-31.7504396 338.89712986 -31.75018421 335.09912713 -31.74782538 331.3010211 C-31.7474171 327.2027237 -31.75845751 323.10445451 -31.76794052 319.00617027 C-31.78454926 310.97846587 -31.79005002 302.95079084 -31.79116528 294.9230707 C-31.79211586 288.39678834 -31.79622667 281.87051567 -31.80256653 275.34423637 C-31.82017899 256.83692743 -31.82940545 238.32964169 -31.82790558 219.82232431 C-31.82782567 218.82471345 -31.82774576 217.82710259 -31.82766342 216.79926109 C-31.82758166 215.80043064 -31.8274999 214.80160019 -31.82741566 213.77250215 C-31.82660287 197.58741701 -31.84573869 181.40242495 -31.87394015 165.21736673 C-31.90267542 148.59463944 -31.91648008 131.97195753 -31.9147526 115.34920478 C-31.9140889 106.01843253 -31.91957254 96.68775785 -31.9411087 87.35700798 C-31.959329 79.41201322 -31.96366091 71.46716026 -31.95008986 63.52215365 C-31.94356433 59.47024065 -31.94342778 55.41859962 -31.96079636 51.36671257 C-31.97655092 47.65308045 -31.97363958 43.9399354 -31.95622809 40.22631499 C-31.95171809 38.25562072 -31.96679687 36.28491119 -31.98270738 34.31427598 C-31.90629314 24.45566059 -30.03849293 16.15317403 -23.16018295 8.78851891 C-16.32448306 2.64266028 -9.1931089 0.00992762 0 0 Z " fill="#555A6E" transform="translate(47.45705795288086,63.74273109436035)"/>
<path d="M0 0 C84.48 0 168.96 0 256 0 C256 110.88 256 221.76 256 336 C217.92625 336.0825 179.8525 336.165 140.625 336.25 C122.59351318 336.30462402 122.59351318 336.30462402 104.19775391 336.36035156 C89.51635742 336.37841797 89.51635742 336.37841797 82.64291382 336.3817749 C77.84327801 336.38550085 73.04381924 336.40048814 68.24423218 336.42230225 C62.11841013 336.44977451 55.99284489 336.45795798 49.86696696 336.4522891 C47.62106601 336.4534742 45.37515593 336.46138491 43.12930799 336.47686052 C40.08927061 336.49683236 37.05022371 336.49193345 34.01016235 336.48101807 C33.13684454 336.49266872 32.26352673 336.50431938 31.36374474 336.51632309 C22.70818716 336.43310758 14.90973246 333.66038692 8.53125 327.703125 C0.8136047 319.11921339 -0.29505892 310.63738902 -0.24050903 299.43374634 C-0.24221788 298.15455145 -0.24392673 296.87535657 -0.24568737 295.5573982 C-0.25015373 292.01361776 -0.24216703 288.46995849 -0.23213124 284.92619348 C-0.22348878 281.10213241 -0.22641747 277.2780781 -0.22793579 273.45401001 C-0.22898414 266.8308208 -0.22271278 260.20767102 -0.21146011 253.58449173 C-0.19520128 244.00850943 -0.18999671 234.43254618 -0.18748413 224.85655157 C-0.18310763 209.31988425 -0.16979975 193.78323794 -0.15087891 178.24658203 C-0.13251894 163.15478621 -0.11838594 148.06299612 -0.10986328 132.97119141 C-0.10932729 132.03133845 -0.10879129 131.09148549 -0.10823905 130.12315214 C-0.10408017 122.77280913 -0.10016634 115.422466 -0.09632993 108.07212281 C-0.07746492 72.04806259 -0.03722775 36.02405497 0 0 Z " fill="#463C4B" transform="translate(16,112)"/>
<path d="M0 0 C1.0999568 -0.00525911 1.0999568 -0.00525911 2.22213495 -0.01062447 C4.68068859 -0.01993241 7.13900505 -0.01501674 9.59756851 -0.01015663 C11.37753564 -0.0138932 13.15750112 -0.01849475 14.937464 -0.02388728 C19.83010045 -0.03613193 24.72266859 -0.03585508 29.61531687 -0.03349853 C34.89153633 -0.03309073 40.16773379 -0.04412598 45.44394302 -0.05361366 C55.78173933 -0.07023279 66.11951283 -0.07572363 76.45732138 -0.07683842 C84.8600333 -0.07778848 93.26273769 -0.08189669 101.66544724 -0.08823967 C125.48515781 -0.10585475 149.30485035 -0.11507815 173.12456748 -0.11357872 C175.05111113 -0.11345885 175.05111113 -0.11345885 177.01657486 -0.11333656 C178.30250433 -0.1132548 179.5884338 -0.11317304 180.91333082 -0.1130888 C201.75430607 -0.11227588 222.59520905 -0.13141449 243.4361634 -0.1596133 C264.83206158 -0.18833468 286.22792452 -0.20215399 307.62384248 -0.20042574 C319.63739081 -0.19976157 331.6508634 -0.20526569 343.66439438 -0.22678185 C353.89308231 -0.24498382 364.12166015 -0.24934904 374.35035726 -0.235763 C379.56880156 -0.22922837 384.78703457 -0.22913416 390.00545883 -0.2464695 C394.78489775 -0.26218319 399.56395758 -0.25935386 404.34338716 -0.24190123 C406.0701593 -0.2388276 407.79695962 -0.24247742 409.52369854 -0.25362138 C421.04850804 -0.32305927 431.16995202 0.29629237 440.01169205 8.55414391 C450.70300001 20.44549664 448.54294205 31.44854867 448.54294205 48.25726891 C290.14294205 48.25726891 131.74294205 48.25726891 -31.45705795 48.25726891 C-31.45705795 17.67204163 -31.45705795 17.67204163 -23.16018295 8.78851891 C-16.32448306 2.64266028 -9.1931089 0.00992762 0 0 Z " fill="#9A5FA9" transform="translate(47.45705795288086,63.74273109436035)"/>
<path d="M0 0 C1.60088722 -0.00006042 1.60088722 -0.00006042 3.2341156 -0.00012207 C5.48418079 0.00522619 7.73424593 0.02277897 9.98413086 0.05175781 C13.42554857 0.09365206 16.86501058 0.09282027 20.30664062 0.0859375 C22.49610733 0.09642918 24.68556397 0.10936715 26.875 0.125 C27.90218643 0.12520142 28.92937286 0.12540283 29.98768616 0.12561035 C36.22447965 0.22884743 39.93277606 0.86531215 44.62109375 5.21875 C45.95269719 7.74879655 46.17584629 9.42240124 46.44921875 12.2421875 C46.53075195 13.05606934 46.61228516 13.86995117 46.69628906 14.70849609 C46.75397461 15.33062988 46.81166016 15.95276367 46.87109375 16.59375 C48.216875 16.54661865 48.216875 16.54661865 49.58984375 16.49853516 C52.95222525 16.39563169 56.31290983 16.32075697 59.67626953 16.26416016 C61.12543305 16.23417746 62.57441803 16.19337479 64.02294922 16.14111328 C78.59458859 15.62894677 78.59458859 15.62894677 84.3984375 21.03417969 C84.88441406 21.54883789 85.37039062 22.06349609 85.87109375 22.59375 C86.63421875 23.26019531 87.39734375 23.92664063 88.18359375 24.61328125 C91.35919794 27.9873607 93.3278162 30.48383122 93.55859375 35.21875 C93.22388438 39.57740982 91.27657112 41.98553394 88.87109375 45.59375 C87.9041067 51.21245369 88.6780801 55.80422953 91.87109375 60.59375 C94.91159919 63.86814048 98.29393653 64.16449113 102.5546875 64.67578125 C106.05762821 66.0639618 108.11736087 68.34585578 109.87109375 71.59375 C110.50998314 74.48265644 110.48431582 77.20990291 110.37109375 80.15625 C110.37367188 80.89810547 110.37625 81.63996094 110.37890625 82.40429688 C110.29828446 86.93121014 109.72468287 89.90005314 106.87109375 93.59375 C103.94132297 95.85385889 101.3679148 96.74762362 97.80859375 97.46875 C94.59133862 98.19111483 93.90282566 98.56201809 91.43359375 101.03125 C88.56767839 105.7313512 88.15487813 110.20818058 88.87109375 115.59375 C89.86109375 117.07875 89.86109375 117.07875 90.87109375 118.59375 C93.16741687 122.03823468 93.75889275 124.06368171 93.5859375 128.15234375 C91.47511965 135.3614211 84.15132999 141.01094955 77.87109375 144.59375 C74.34423828 145.04785156 74.34423828 145.04785156 70.50390625 144.984375 C69.82431854 144.97871521 69.14473083 144.97305542 68.44454956 144.96722412 C66.29431826 144.94500351 64.14581301 144.89484198 61.99609375 144.84375 C60.52997215 144.82366614 59.06382417 144.80541868 57.59765625 144.7890625 C54.02158367 144.74518811 50.44650744 144.67626443 46.87109375 144.59375 C46.82645996 145.20283203 46.78182617 145.81191406 46.73583984 146.43945312 C46.66445801 147.24318359 46.59307617 148.04691406 46.51953125 148.875 C46.45427246 149.66970703 46.38901367 150.46441406 46.32177734 151.28320312 C45.56898096 155.14260994 43.68930741 156.90973699 40.87109375 159.59375 C38.00085705 160.55049557 36.11376378 160.74121343 33.12768555 160.78662109 C32.16626144 160.80268402 31.20483734 160.81874695 30.21427917 160.83529663 C25.82262966 160.87984339 21.43112929 160.92080328 17.03930664 160.94384766 C14.72410025 160.96041152 12.40894509 160.98770693 10.09399414 161.02587891 C6.75249761 161.08067707 3.41219799 161.10252605 0.0703125 161.1171875 C-1.47684196 161.15119156 -1.47684196 161.15119156 -3.05525208 161.18588257 C-11.08411602 161.1623137 -11.08411602 161.1623137 -14.74291992 158.28369141 C-18.51735842 154.02842042 -19.12890625 150.17346864 -19.12890625 144.59375 C-20.03656738 144.61469727 -20.94422852 144.63564453 -21.87939453 144.65722656 C-25.26768267 144.72565933 -28.65522975 144.77567295 -32.04394531 144.81347656 C-33.50662877 144.83351332 -34.96923291 144.86075104 -36.43164062 144.89550781 C-38.54186635 144.94438225 -40.65102761 144.96679659 -42.76171875 144.984375 C-44.02902832 145.00532227 -45.29633789 145.02626953 -46.60205078 145.04785156 C-52.51550632 144.28646244 -56.29381336 140.71100898 -60.37890625 136.59375 C-61.37664062 135.60375 -61.37664062 135.60375 -62.39453125 134.59375 C-65.41812643 131.10708169 -66.15282593 129.34721998 -66.00390625 124.65625 C-65.54002862 121.54082493 -65.185221 120.6603038 -63.06640625 118.15625 C-60.62521896 114.92758294 -60.47376317 112.91340316 -60.69921875 108.94140625 C-61.4760086 104.69730898 -62.8907251 101.50603283 -66.12890625 98.59375 C-68.89717553 97.58106978 -71.49613112 96.98851708 -74.41015625 96.5546875 C-78.18777548 95.2194945 -80.31153573 93.08210709 -82.12890625 89.59375 C-82.81603357 86.56284988 -82.83056037 83.6905765 -82.75390625 80.59375 C-82.77324219 79.81257813 -82.79257813 79.03140625 -82.8125 78.2265625 C-82.77887917 74.23240836 -82.41086577 71.38726841 -79.96875 68.1484375 C-76.90836944 65.39535788 -75.03356875 64.61148695 -71.06640625 63.71875 C-66.83245654 62.5089678 -66.83245654 62.5089678 -63.4609375 59.8515625 C-60.93154164 55.15802649 -60.44176805 50.83317881 -61.12890625 45.59375 C-62.43636374 43.90670807 -63.77062654 42.24014965 -65.12890625 40.59375 C-66.52472774 36.44096433 -66.59360067 33.56354705 -64.69140625 29.59375 C-53.90807856 16.96936637 -53.90807856 16.96936637 -46.92089844 16.27490234 C-45.68500977 16.24348145 -44.44912109 16.21206055 -43.17578125 16.1796875 C-42.51555969 16.16032135 -41.85533813 16.1409552 -41.17510986 16.1210022 C-39.07650472 16.06145651 -36.97784397 16.01492278 -34.87890625 15.96875 C-33.45179965 15.93054706 -32.02471553 15.89149398 -30.59765625 15.8515625 C-27.10827934 15.7557767 -23.61873339 15.67165358 -20.12890625 15.59375 C-19.98195312 14.92988281 -19.835 14.26601562 -19.68359375 13.58203125 C-19.45929688 12.69902344 -19.235 11.81601563 -19.00390625 10.90625 C-18.79507813 10.03613281 -18.58625 9.16601562 -18.37109375 8.26953125 C-14.47064914 -0.13236988 -8.32132062 -0.13308162 0 0 Z " fill="#90C73C" transform="translate(130.12890625,143.40625)"/>
<path d="M0 0 C10.56 0 21.12 0 32 0 C32.09044982 39.57671989 32.16205159 79.15341256 32.20426132 118.73021504 C32.20926407 123.40396514 32.21444136 128.07771505 32.21972656 132.75146484 C32.2207758 133.68191355 32.22182505 134.61236225 32.22290608 135.57100637 C32.24030528 150.63128983 32.2718403 165.69151214 32.30861118 180.75175934 C32.3460341 196.20811342 32.36823871 211.66443551 32.37635398 227.12083304 C32.38183895 236.65616835 32.39915483 246.19133079 32.43166587 255.72661288 C32.45283042 262.2677481 32.45919565 268.80879412 32.45400551 275.34996109 C32.45144674 279.12236484 32.45533394 282.89446679 32.4768219 286.66681671 C32.49997947 290.76231676 32.49193123 294.85717741 32.48101807 298.95272827 C32.49266943 300.13757573 32.5043208 301.32242318 32.51632524 302.5431751 C32.44724548 312.14271933 30.38534119 320.31405387 23.703125 327.46875 C16.61658185 333.84013742 9.25374977 336.3287464 -0.2421875 336.1953125 C-1.01055939 336.1924826 -1.77893127 336.18965271 -2.57058716 336.18673706 C-5.00555521 336.17561311 -7.44014462 336.1505236 -9.875 336.125 C-11.53384882 336.11496011 -13.19270346 336.10583603 -14.8515625 336.09765625 C-18.90118579 336.07569937 -22.95052887 336.04122406 -27 336 C-24.24490953 334.60587086 -21.47939527 333.36431208 -18.625 332.1875 C-10.77548437 328.66165199 -6.39801023 323.80557422 -3 316 C-0.62075888 309.49887991 -0.71027794 303.29939964 -0.7215271 296.42738342 C-0.7157347 295.15958477 -0.7099423 293.89178612 -0.70397437 292.58556932 C-0.68821416 289.07828213 -0.68474589 285.57107514 -0.68332577 282.06375682 C-0.67962475 278.27718199 -0.66446577 274.4906508 -0.65071106 270.70410156 C-0.62845643 264.14752219 -0.61343235 257.59095839 -0.60334396 251.03434944 C-0.58874744 241.55464397 -0.56320787 232.07499271 -0.53501268 222.59531908 C-0.48956239 207.21452071 -0.45294029 191.83371452 -0.421875 176.45288086 C-0.39168224 161.51341378 -0.35732863 146.57396581 -0.31738281 131.63452148 C-0.31492126 130.71337892 -0.31245972 129.79223635 -0.30992357 128.84318037 C-0.29754883 124.2219966 -0.28509233 119.60081307 -0.27259517 114.97962964 C-0.16905376 76.6531122 -0.08038667 38.32657248 0 0 Z " fill="#453B4A" transform="translate(464,112)"/>
<path d="M0 0 C4.46570449 -0.0743839 8.93107684 -0.12871171 13.3972168 -0.16479492 C14.91518438 -0.17984353 16.43310876 -0.20028738 17.95092773 -0.22631836 C20.13796677 -0.26287653 22.32442896 -0.27976523 24.51171875 -0.29296875 C25.82615967 -0.3086792 27.14060059 -0.32438965 28.49487305 -0.34057617 C32.9924453 0.09643109 35.49004558 1.59789947 38.75 4.625 C40.08160344 7.15504655 40.30475254 8.82865124 40.578125 11.6484375 C40.6596582 12.46231934 40.74119141 13.27620117 40.82519531 14.11474609 C40.91172363 15.04794678 40.91172363 15.04794678 41 16 C42.34578125 15.95286865 42.34578125 15.95286865 43.71875 15.90478516 C47.0811315 15.80188169 50.44181608 15.72700697 53.80517578 15.67041016 C55.2543393 15.64042746 56.70332428 15.59962479 58.15185547 15.54736328 C72.72349484 15.03519677 72.72349484 15.03519677 78.52734375 20.44042969 C79.01332031 20.95508789 79.49929687 21.46974609 80 22 C80.763125 22.66644531 81.52625 23.33289063 82.3125 24.01953125 C85.48810419 27.3936107 87.45672245 29.89008122 87.6875 34.625 C87.35279063 38.98365982 85.40547737 41.39178394 83 45 C82.03301295 50.61870369 82.80698635 55.21047953 86 60 C89.04050544 63.27439048 92.42284278 63.57074113 96.68359375 64.08203125 C100.18653446 65.4702118 102.24626712 67.75210578 104 71 C104.63888939 73.88890644 104.61322207 76.61615291 104.5 79.5625 C104.50386719 80.6752832 104.50386719 80.6752832 104.5078125 81.81054688 C104.42719071 86.33746014 103.85358912 89.30630314 101 93 C98.07022922 95.26010889 95.49682105 96.15387362 91.9375 96.875 C88.72024487 97.59736483 88.03173191 97.96826809 85.5625 100.4375 C82.69658464 105.1376012 82.28378438 109.61443058 83 115 C83.99 116.485 83.99 116.485 85 118 C87.29632312 121.44448468 87.887799 123.46993171 87.71484375 127.55859375 C85.6040259 134.7676711 78.28023624 140.41719955 72 144 C68.47314453 144.45410156 68.47314453 144.45410156 64.6328125 144.390625 C63.95322479 144.38496521 63.27363708 144.37930542 62.57345581 144.37347412 C60.42322451 144.35125351 58.27471926 144.30109198 56.125 144.25 C54.6588784 144.22991614 53.19273042 144.21166868 51.7265625 144.1953125 C48.15048992 144.15143811 44.57541369 144.08251443 41 144 C40.93304932 144.91362305 40.93304932 144.91362305 40.86474609 145.84570312 C40.79336426 146.64943359 40.72198242 147.45316406 40.6484375 148.28125 C40.58317871 149.07595703 40.51791992 149.87066406 40.45068359 150.68945312 C39.69788721 154.54885994 37.81821366 156.31598699 35 159 C31.4937557 160.1687481 28.3522134 160.12514267 24.70703125 160.09765625 C23.64798836 160.09553383 23.64798836 160.09553383 22.56755066 160.09336853 C20.31582374 160.08777764 18.06419679 160.07522688 15.8125 160.0625 C14.28450665 160.05748382 12.75651173 160.05292112 11.22851562 160.04882812 C7.48563865 160.0378112 3.74283627 160.02055287 0 160 C0.80050781 159.37609375 1.60101563 158.7521875 2.42578125 158.109375 C5.44008761 155.63938193 6.63050412 153.97202855 7.34765625 150.14453125 C8.11284437 146.18486847 8.79518225 143.73153039 11.9375 141.0625 C16.81918568 137.77483413 21.24279757 137.23436168 27 138 C29 139.33333333 31 140.66666667 33 142 C36.24757471 142.93776867 38.75481583 142.96268621 42 142 C46.76134246 138.66229213 50.77315015 134.84027478 54 130 C54.7609369 125.35474566 54.63488204 121.95232305 52 118 C49.28627238 113.92940856 49.29908168 110.76111588 50 106 C51.68492548 101.29994472 53.73004184 98.59910497 58 96 C60.2988685 95.39695175 62.5645552 94.94668018 64.9140625 94.58984375 C67.41580521 93.88242212 68.39779749 93.02460136 70 91 C71.26740158 87.19779525 71.26228356 83.58875078 71.3125 79.625 C71.34150391 78.86960937 71.37050781 78.11421875 71.40039062 77.3359375 C71.44374212 73.52100613 71.24992216 71.43867457 69.32421875 68.05859375 C66.67211352 65.70958626 64.94971648 65.11512288 61.5 64.4375 C57.07068155 63.55528685 54.94040109 62.47020308 52 59 C49.51575068 54.65256369 49.25093576 49.88633764 50 45 C51.33333333 43 52.66666667 41 54 39 C54.93776867 35.75242529 54.96268621 33.24518417 54 30 C50.66229213 25.23865754 46.84027478 21.22684985 42 18 C37.35474566 17.2390631 33.95232305 17.36511796 30 20 C25.93817406 22.70788396 22.75317844 22.71553224 18 22 C14.30189003 20.56184612 11.52022856 19.06421231 9 16 C8.09696139 13.22399243 7.48648787 10.44016059 6.84375 7.59375 C5.53210712 3.56166264 3.47662208 2.31774805 0 0 Z " fill="#5FA945" transform="translate(136,144)"/>
<path d="M0 0 C1.14362 -0.0087616 2.28723999 -0.01752319 3.46551514 -0.02655029 C7.24562524 -0.04855603 11.02456551 -0.03398574 14.8046875 -0.01708984 C17.43115463 -0.0204576 20.05762024 -0.02530987 22.68408203 -0.03158569 C28.18860548 -0.04067488 33.69279319 -0.02871402 39.19726562 -0.00488281 C45.5555849 0.02232767 51.9131025 0.01351295 58.27140236 -0.01401484 C64.39521517 -0.03946331 70.51867337 -0.03673885 76.64251709 -0.02210617 C79.24526074 -0.01876884 81.84802483 -0.02287064 84.45074463 -0.03450394 C88.08750741 -0.04719142 91.72272726 -0.02786139 95.359375 0 C96.43693054 -0.01012115 97.51448608 -0.02024231 98.62469482 -0.03067017 C105.9064683 0.07277041 105.9064683 0.07277041 109.84814453 2.99990845 C111.6796875 5.64697266 111.6796875 5.64697266 112.3046875 8.64697266 C111.4266471 12.86156655 110.14611998 14.07275657 106.6796875 16.64697266 C102.91105937 17.39719441 99.19158216 17.32994008 95.359375 17.29394531 C93.64394501 17.30708771 93.64394501 17.30708771 91.89385986 17.32049561 C88.11374976 17.34250134 84.33480949 17.32793106 80.5546875 17.31103516 C77.92822037 17.31440291 75.30175476 17.31925518 72.67529297 17.32553101 C67.17076952 17.33462019 61.66658181 17.32265933 56.16210938 17.29882812 C49.8037901 17.27161764 43.4462725 17.28043236 37.08797264 17.30796015 C30.96415983 17.33340863 24.84070163 17.33068416 18.71685791 17.31605148 C16.11411426 17.31271415 13.51135017 17.31681595 10.90863037 17.32844925 C7.27186759 17.34113673 3.63664774 17.3218067 0 17.29394531 C-1.61633331 17.30912704 -1.61633331 17.30912704 -3.26531982 17.32461548 C-10.5470933 17.2211749 -10.5470933 17.2211749 -14.48876953 14.29403687 C-16.3203125 11.64697266 -16.3203125 11.64697266 -16.9453125 8.64697266 C-15.04050191 -0.4961182 -7.68800846 -0.07221115 0 0 Z " fill="#463C4B" transform="translate(304.3203125,367.35302734375)"/>
<path d="M0 0 C2.83601027 1.95787755 4.0351238 3.72276335 5.72265625 6.70703125 C6.2228125 7.57328125 6.72296875 8.43953125 7.23828125 9.33203125 C10.13013035 14.89609534 10.39467659 20.32461967 8.75390625 26.34375 C5.69641102 34.59158994 1.19395199 38.77618978 -6.52734375 42.70703125 C-12.39719203 44.51221881 -18.96371189 44.74284945 -24.65234375 42.26953125 C-30.93621599 38.69334379 -36.38409718 32.64106426 -38.52734375 25.70703125 C-39.39698522 18.37575145 -39.1789365 11.66997728 -34.52734375 5.70703125 C-23.86546996 -5.47202298 -13.60624219 -6.96084415 0 0 Z " fill="#5FA945" transform="translate(142.52734375,204.29296875)"/>
<path d="M0 0 C9.10041262 2.14127356 17.2218429 13.63237859 23.69897461 20.13110352 C25.64127265 22.07881803 27.5889314 24.0210593 29.53710938 25.96289062 C30.77375875 27.20019983 32.01009842 28.43781868 33.24609375 29.67578125 C33.82830185 30.25596512 34.41050995 30.83614899 35.01036072 31.43391418 C39.92633175 36.37886669 39.92633175 36.37886669 40.6875 40.375 C39.34553724 49.43324861 27.14258828 57.94633598 20.80639648 64.26147461 C18.85868197 66.20377265 16.9164407 68.1514314 14.97460938 70.09960938 C13.73730017 71.33625875 12.49968132 72.57259842 11.26171875 73.80859375 C10.39144295 74.6819059 10.39144295 74.6819059 9.50358582 75.57286072 C4.46761339 80.57931821 4.46761339 80.57931821 0.375 81.125 C-2.8125 80.75 -2.8125 80.75 -5.6875 78.625 C-7.8125 75.75 -7.8125 75.75 -8.5625 72.9375 C-6.55572845 64.40872092 3.60621477 57.21245391 9.625 51.25 C10.54732422 50.3321875 11.46964844 49.414375 12.41992188 48.46875 C14.67349899 46.22684945 16.92939075 43.987334 19.1875 41.75 C17.58997219 37.76295714 14.79694346 35.1198311 11.77734375 32.1796875 C11.24984024 31.65738556 10.72233673 31.13508362 10.17884827 30.59695435 C8.4989287 28.93479666 6.81245728 27.27950195 5.125 25.625 C3.43486984 23.96249027 1.7462228 22.29854046 0.06044006 20.63162231 C-0.98740971 19.5960278 -2.03792114 18.56311817 -3.09132385 17.53317261 C-7.63947437 13.04769222 -7.63947437 13.04769222 -8.1875 8.9375 C-7.8125 5.75 -7.8125 5.75 -5.6875 2.875 C-2.8125 0.75 -2.8125 0.75 0 0 Z " fill="#A2BFD8" transform="translate(183.8125,327.25)"/>
<path d="M0 0 C3.21142855 2.37366458 4.71584605 3.93442268 5.75 7.8125 C3.74322845 16.34127908 -6.41871477 23.53754609 -12.4375 29.5 C-13.35982422 30.4178125 -14.28214844 31.335625 -15.23242188 32.28125 C-17.48599899 34.52315055 -19.74189075 36.762666 -22 39 C-20.40247219 42.98704286 -17.60944346 45.6301689 -14.58984375 48.5703125 C-13.79858849 49.35376541 -13.79858849 49.35376541 -12.99134827 50.15304565 C-11.3114287 51.81520334 -9.62495728 53.47049805 -7.9375 55.125 C-6.24736984 56.78750973 -4.5587228 58.45145954 -2.87294006 60.11837769 C-1.82509029 61.1539722 -0.77457886 62.18688183 0.27882385 63.21682739 C4.82697437 67.70230778 4.82697437 67.70230778 5.375 71.8125 C5 75 5 75 2.875 77.875 C-0 80 -0 80 -2.8125 80.75 C-11.91291262 78.60872644 -20.0343429 67.11762141 -26.51147461 60.61889648 C-28.45377265 58.67118197 -30.4014314 56.7289407 -32.34960938 54.78710938 C-33.58625875 53.54980017 -34.82259842 52.31218132 -36.05859375 51.07421875 C-36.64080185 50.49403488 -37.22300995 49.91385101 -37.82286072 49.31608582 C-42.73883175 44.37113331 -42.73883175 44.37113331 -43.5 40.375 C-42.15803724 31.31675139 -29.95508828 22.80366402 -23.61889648 16.48852539 C-21.67118197 14.54622735 -19.7289407 12.5985686 -17.78710938 10.65039062 C-16.54980017 9.41374125 -15.31218132 8.17740158 -14.07421875 6.94140625 C-13.49403488 6.35919815 -12.91385101 5.77699005 -12.31608582 5.17713928 C-8.10780767 0.9935251 -6.06229203 -0.71321083 0 0 Z " fill="#A2BFD8" transform="translate(107,328)"/>
<path d="M0 0 C4.94378949 -0.09975053 9.88697822 -0.17187902 14.83154297 -0.21972656 C16.50938131 -0.23969699 18.18715136 -0.26688332 19.86474609 -0.30175781 C31.85893023 -0.54464183 42.19845513 -0.36123058 51.46875 8.296875 C59.15170324 16.84220054 60.2945242 25.21790723 60.125 36.375 C60.08375 40.21125 60.0425 44.0475 60 48 C49.44 48 38.88 48 28 48 C27.6875 38.125 27.6875 38.125 27.61206055 35.07861328 C27.18579263 24.42295261 24.77170529 15.60634986 17 8 C11.75242451 4.13733222 6.3375939 2.26751878 0 1 C0 0.67 0 0.34 0 0 Z " fill="#804B8F" transform="translate(436,64)"/>
<path d="M0 0 C1.83984375 0.5703125 1.83984375 0.5703125 3.83984375 2.2578125 C5.61781584 6.36937296 5.1953804 9.64022172 3.61395264 13.77726746 C3.039776 14.92737808 2.46559937 16.07748871 1.87402344 17.26245117 C1.40085945 18.22214058 1.40085945 18.22214058 0.9181366 19.20121765 C-0.12216451 21.30303602 -1.17958771 23.39567456 -2.23828125 25.48828125 C-2.96932699 26.95187584 -3.69960121 28.41585602 -4.42913818 29.88020325 C-5.95829366 32.94284047 -7.49581451 36.00108397 -9.03955078 39.05639648 C-11.01611652 42.96972176 -12.97286537 46.89256046 -14.92363358 50.81879711 C-16.4278377 53.8413966 -17.94172207 56.85906391 -19.45864105 59.87529945 C-20.18389039 61.31995531 -20.90629239 62.76604428 -21.62577057 64.21358299 C-22.63309011 66.23622519 -23.65309591 68.2519477 -24.67675781 70.26635742 C-25.25411682 71.41408127 -25.83147583 72.56180511 -26.42633057 73.74430847 C-28.13129866 76.52327682 -29.36226214 77.95174435 -32.16015625 79.5703125 C-35.09765625 80.0703125 -35.09765625 80.0703125 -38.16015625 79.5703125 C-41.03515625 77.4453125 -41.03515625 77.4453125 -43.16015625 74.5703125 C-43.7390239 69.54636205 -42.42389441 66.34411468 -40.19433594 61.87817383 C-39.87889328 61.23838089 -39.56345062 60.59858795 -39.2384491 59.93940735 C-38.19814799 57.83758898 -37.14072479 55.74495044 -36.08203125 53.65234375 C-35.35098551 52.18874916 -34.62071129 50.72476898 -33.89117432 49.26042175 C-32.36201884 46.19778453 -30.82449799 43.13954103 -29.28076172 40.08422852 C-27.30419598 36.17090324 -25.34744713 32.24806454 -23.39667892 28.32182789 C-21.8924748 25.2992284 -20.37859043 22.28156109 -18.86167145 19.26532555 C-18.13642211 17.82066969 -17.41402011 16.37458072 -16.69454193 14.92704201 C-15.68722239 12.90439981 -14.66721659 10.8886773 -13.64355469 8.87426758 C-12.77751617 7.15268181 -12.77751617 7.15268181 -11.89398193 5.39631653 C-8.62603379 0.06980953 -5.92895105 -1.03784246 0 0 Z " fill="#A2C0D8" transform="translate(163.16015625,328.4296875)"/>
<path d="M0 0 C0.67544861 -0.0087616 1.35089722 -0.01752319 2.04681396 -0.02655029 C4.26885132 -0.04847103 6.48888166 -0.03402082 8.7109375 -0.01708984 C10.26123434 -0.02046017 11.81152859 -0.02531459 13.36181641 -0.03158569 C16.6067019 -0.03894698 19.85089795 -0.0282766 23.09570312 -0.00488281 C27.2489408 0.02360583 31.40056301 0.00719768 35.55374146 -0.02274513 C38.75378527 -0.04083902 41.95344793 -0.03505079 45.15350342 -0.02210617 C46.68447055 -0.01877787 48.21547262 -0.02283903 49.74639893 -0.03450394 C51.8891524 -0.04724882 54.02931399 -0.02779228 56.171875 0 C57.3892334 0.00397797 58.6065918 0.00795593 59.86083984 0.01205444 C63.99807896 0.82654403 65.49260642 2.38881877 68.0859375 5.64697266 C68.7109375 8.64697266 68.7109375 8.64697266 68.0859375 11.64697266 C65.49260642 14.90512654 63.99807896 16.46740128 59.86083984 17.28189087 C58.03480225 17.28785782 58.03480225 17.28785782 56.171875 17.29394531 C55.15870209 17.30708771 55.15870209 17.30708771 54.12506104 17.32049561 C51.90302368 17.34241634 49.68299334 17.32796613 47.4609375 17.31103516 C45.91064066 17.31440548 44.36034641 17.3192599 42.81005859 17.32553101 C39.5651731 17.33289229 36.32097705 17.32222192 33.07617188 17.29882812 C28.9229342 17.27033948 24.77131199 17.28674763 20.61813354 17.31669044 C17.41808973 17.33478433 14.21842707 17.3289961 11.01837158 17.31605148 C9.48740445 17.31272318 7.95640238 17.31678434 6.42547607 17.32844925 C4.2827226 17.34119413 2.14256101 17.32173759 0 17.29394531 C-1.2173584 17.28996735 -2.4347168 17.28598938 -3.68896484 17.28189087 C-7.82620396 16.46740128 -9.32073142 14.90512654 -11.9140625 11.64697266 C-12.5390625 8.64697266 -12.5390625 8.64697266 -11.9140625 5.64697266 C-8.21836279 1.00384843 -5.87469163 0.01919675 0 0 Z " fill="#463C4B" transform="translate(299.9140625,335.35302734375)"/>
<path d="M0 0 C1.76947998 -0.00717545 1.76947998 -0.00717545 3.57470703 -0.01449585 C6.06609431 -0.01789477 8.55752619 -0.00869315 11.04882812 0.01220703 C14.86168899 0.03896907 18.67160568 0.01245507 22.484375 -0.01953125 C24.9062565 -0.01622716 27.32813616 -0.00982094 29.75 0 C31.45953857 -0.01518173 31.45953857 -0.01518173 33.20361328 -0.03067017 C41.08458933 0.08600275 41.08458933 0.08600275 45.09375 3.01806641 C46.875 5.6640625 46.875 5.6640625 47.5 8.6640625 C46.61526483 12.91079132 45.3947506 14.08992451 41.875 16.6640625 C37.83759221 17.42043738 33.84788126 17.36451665 29.75 17.328125 C27.98052002 17.33530045 27.98052002 17.33530045 26.17529297 17.34262085 C23.68390569 17.34601977 21.19247381 17.33681815 18.70117188 17.31591797 C14.88831101 17.28915593 11.07839432 17.31566993 7.265625 17.34765625 C4.8437435 17.34435216 2.42186384 17.33794594 0 17.328125 C-1.70953857 17.34330673 -1.70953857 17.34330673 -3.45361328 17.35879517 C-11.33458933 17.24212225 -11.33458933 17.24212225 -15.34375 14.31005859 C-17.125 11.6640625 -17.125 11.6640625 -17.75 8.6640625 C-15.78392524 -0.77309636 -7.88621583 -0.07003435 0 0 Z " fill="#463C4B" transform="translate(401.125,335.3359375)"/>
<path d="M0 0 C1.73618591 -0.00006042 1.73618591 -0.00006042 3.50744629 -0.00012207 C5.95179684 0.00523347 8.39614694 0.02281732 10.84033203 0.05175781 C14.58028833 0.09359939 18.31844293 0.09282635 22.05859375 0.0859375 C24.43490834 0.09643055 26.81121365 0.10936926 29.1875 0.125 C30.3053186 0.12520142 31.42313721 0.12540283 32.5748291 0.12561035 C34.14170471 0.14947815 34.14170471 0.14947815 35.74023438 0.17382812 C37.11326721 0.18645691 37.11326721 0.18645691 38.51403809 0.19934082 C41.63433226 0.676399 43.54257635 1.76301627 46.09375 3.59375 C47.49832737 6.40290474 47.34270157 8.48185534 47.09375 11.59375 C45.31390595 14.7296657 44.57066793 15.43477736 41.09375 16.59375 C39.38740843 16.70601312 37.67714861 16.76271412 35.96728516 16.78662109 C34.92255035 16.80268402 33.87781555 16.81874695 32.80142212 16.83529663 C28.03363736 16.87977343 23.26599045 16.92079304 18.49804688 16.94384766 C15.98200239 16.96042624 13.46600536 16.98774082 10.95019531 17.02587891 C7.32331909 17.08057216 3.69754524 17.10250922 0.0703125 17.1171875 C-1.61582657 17.15119156 -1.61582657 17.15119156 -3.33602905 17.18588257 C-11.12480853 17.16476223 -11.12480853 17.16476223 -15.11572266 14.24853516 C-16.90625 11.59375 -16.90625 11.59375 -17.53125 8.59375 C-15.57756079 -0.78395819 -7.83903622 -0.11497667 0 0 Z " fill="#D5E4EE" transform="translate(400.90625,271.40625)"/>
<path d="M0 0 C1.73618591 -0.00006042 1.73618591 -0.00006042 3.50744629 -0.00012207 C5.95179684 0.00523347 8.39614694 0.02281732 10.84033203 0.05175781 C14.58028833 0.09359939 18.31844293 0.09282635 22.05859375 0.0859375 C24.43490834 0.09643055 26.81121365 0.10936926 29.1875 0.125 C30.3053186 0.12520142 31.42313721 0.12540283 32.5748291 0.12561035 C34.14170471 0.14947815 34.14170471 0.14947815 35.74023438 0.17382812 C37.11326721 0.18645691 37.11326721 0.18645691 38.51403809 0.19934082 C41.63433226 0.676399 43.54257635 1.76301627 46.09375 3.59375 C47.49832737 6.40290474 47.34270157 8.48185534 47.09375 11.59375 C45.31390595 14.7296657 44.57066793 15.43477736 41.09375 16.59375 C39.38740843 16.70601312 37.67714861 16.76271412 35.96728516 16.78662109 C34.92255035 16.80268402 33.87781555 16.81874695 32.80142212 16.83529663 C28.03363736 16.87977343 23.26599045 16.92079304 18.49804688 16.94384766 C15.98200239 16.96042624 13.46600536 16.98774082 10.95019531 17.02587891 C7.32331909 17.08057216 3.69754524 17.10250922 0.0703125 17.1171875 C-1.61582657 17.15119156 -1.61582657 17.15119156 -3.33602905 17.18588257 C-11.12480853 17.16476223 -11.12480853 17.16476223 -15.11572266 14.24853516 C-16.90625 11.59375 -16.90625 11.59375 -17.53125 8.59375 C-15.57756079 -0.78395819 -7.83903622 -0.11497667 0 0 Z " fill="#90C73C" transform="translate(320.90625,271.40625)"/>
<path d="M0 0 C1.73618591 -0.00006042 1.73618591 -0.00006042 3.50744629 -0.00012207 C5.95179684 0.00523347 8.39614694 0.02281732 10.84033203 0.05175781 C14.58028833 0.09359939 18.31844293 0.09282635 22.05859375 0.0859375 C24.43490834 0.09643055 26.81121365 0.10936926 29.1875 0.125 C30.3053186 0.12520142 31.42313721 0.12540283 32.5748291 0.12561035 C34.14170471 0.14947815 34.14170471 0.14947815 35.74023438 0.17382812 C37.11326721 0.18645691 37.11326721 0.18645691 38.51403809 0.19934082 C41.63433226 0.676399 43.54257635 1.76301627 46.09375 3.59375 C47.49832737 6.40290474 47.34270157 8.48185534 47.09375 11.59375 C45.31390595 14.7296657 44.57066793 15.43477736 41.09375 16.59375 C39.38740843 16.70601312 37.67714861 16.76271412 35.96728516 16.78662109 C34.92255035 16.80268402 33.87781555 16.81874695 32.80142212 16.83529663 C28.03363736 16.87977343 23.26599045 16.92079304 18.49804688 16.94384766 C15.98200239 16.96042624 13.46600536 16.98774082 10.95019531 17.02587891 C7.32331909 17.08057216 3.69754524 17.10250922 0.0703125 17.1171875 C-1.61582657 17.15119156 -1.61582657 17.15119156 -3.33602905 17.18588257 C-11.12480853 17.16476223 -11.12480853 17.16476223 -15.11572266 14.24853516 C-16.90625 11.59375 -16.90625 11.59375 -17.53125 8.59375 C-15.57756079 -0.78395819 -7.83903622 -0.11497667 0 0 Z " fill="#D5E4EE" transform="translate(400.90625,239.40625)"/>
<path d="M0 0 C1.73618591 -0.00006042 1.73618591 -0.00006042 3.50744629 -0.00012207 C5.95179684 0.00523347 8.39614694 0.02281732 10.84033203 0.05175781 C14.58028833 0.09359939 18.31844293 0.09282635 22.05859375 0.0859375 C24.43490834 0.09643055 26.81121365 0.10936926 29.1875 0.125 C30.3053186 0.12520142 31.42313721 0.12540283 32.5748291 0.12561035 C34.14170471 0.14947815 34.14170471 0.14947815 35.74023438 0.17382812 C37.11326721 0.18645691 37.11326721 0.18645691 38.51403809 0.19934082 C41.63433226 0.676399 43.54257635 1.76301627 46.09375 3.59375 C47.49832737 6.40290474 47.34270157 8.48185534 47.09375 11.59375 C45.31390595 14.7296657 44.57066793 15.43477736 41.09375 16.59375 C39.38740843 16.70601312 37.67714861 16.76271412 35.96728516 16.78662109 C34.92255035 16.80268402 33.87781555 16.81874695 32.80142212 16.83529663 C28.03363736 16.87977343 23.26599045 16.92079304 18.49804688 16.94384766 C15.98200239 16.96042624 13.46600536 16.98774082 10.95019531 17.02587891 C7.32331909 17.08057216 3.69754524 17.10250922 0.0703125 17.1171875 C-1.61582657 17.15119156 -1.61582657 17.15119156 -3.33602905 17.18588257 C-11.12480853 17.16476223 -11.12480853 17.16476223 -15.11572266 14.24853516 C-16.90625 11.59375 -16.90625 11.59375 -17.53125 8.59375 C-15.57756079 -0.78395819 -7.83903622 -0.11497667 0 0 Z " fill="#90C73C" transform="translate(320.90625,239.40625)"/>
<path d="M0 0 C1.73618591 -0.00006042 1.73618591 -0.00006042 3.50744629 -0.00012207 C5.95179684 0.00523347 8.39614694 0.02281732 10.84033203 0.05175781 C14.58028833 0.09359939 18.31844293 0.09282635 22.05859375 0.0859375 C24.43490834 0.09643055 26.81121365 0.10936926 29.1875 0.125 C30.3053186 0.12520142 31.42313721 0.12540283 32.5748291 0.12561035 C34.14170471 0.14947815 34.14170471 0.14947815 35.74023438 0.17382812 C37.11326721 0.18645691 37.11326721 0.18645691 38.51403809 0.19934082 C41.63433226 0.676399 43.54257635 1.76301627 46.09375 3.59375 C47.49832737 6.40290474 47.34270157 8.48185534 47.09375 11.59375 C45.31390595 14.7296657 44.57066793 15.43477736 41.09375 16.59375 C39.38740843 16.70601312 37.67714861 16.76271412 35.96728516 16.78662109 C34.92255035 16.80268402 33.87781555 16.81874695 32.80142212 16.83529663 C28.03363736 16.87977343 23.26599045 16.92079304 18.49804688 16.94384766 C15.98200239 16.96042624 13.46600536 16.98774082 10.95019531 17.02587891 C7.32331909 17.08057216 3.69754524 17.10250922 0.0703125 17.1171875 C-1.61582657 17.15119156 -1.61582657 17.15119156 -3.33602905 17.18588257 C-11.12480853 17.16476223 -11.12480853 17.16476223 -15.11572266 14.24853516 C-16.90625 11.59375 -16.90625 11.59375 -17.53125 8.59375 C-15.57756079 -0.78395819 -7.83903622 -0.11497667 0 0 Z " fill="#D5E4EE" transform="translate(400.90625,207.40625)"/>
<path d="M0 0 C1.73618591 -0.00006042 1.73618591 -0.00006042 3.50744629 -0.00012207 C5.95179684 0.00523347 8.39614694 0.02281732 10.84033203 0.05175781 C14.58028833 0.09359939 18.31844293 0.09282635 22.05859375 0.0859375 C24.43490834 0.09643055 26.81121365 0.10936926 29.1875 0.125 C30.3053186 0.12520142 31.42313721 0.12540283 32.5748291 0.12561035 C34.14170471 0.14947815 34.14170471 0.14947815 35.74023438 0.17382812 C37.11326721 0.18645691 37.11326721 0.18645691 38.51403809 0.19934082 C41.63433226 0.676399 43.54257635 1.76301627 46.09375 3.59375 C47.49832737 6.40290474 47.34270157 8.48185534 47.09375 11.59375 C45.31390595 14.7296657 44.57066793 15.43477736 41.09375 16.59375 C39.38740843 16.70601312 37.67714861 16.76271412 35.96728516 16.78662109 C34.92255035 16.80268402 33.87781555 16.81874695 32.80142212 16.83529663 C28.03363736 16.87977343 23.26599045 16.92079304 18.49804688 16.94384766 C15.98200239 16.96042624 13.46600536 16.98774082 10.95019531 17.02587891 C7.32331909 17.08057216 3.69754524 17.10250922 0.0703125 17.1171875 C-1.61582657 17.15119156 -1.61582657 17.15119156 -3.33602905 17.18588257 C-11.12480853 17.16476223 -11.12480853 17.16476223 -15.11572266 14.24853516 C-16.90625 11.59375 -16.90625 11.59375 -17.53125 8.59375 C-15.57756079 -0.78395819 -7.83903622 -0.11497667 0 0 Z " fill="#90C73C" transform="translate(320.90625,207.40625)"/>
<path d="M0 0 C1.73618591 -0.00006042 1.73618591 -0.00006042 3.50744629 -0.00012207 C5.95179684 0.00523347 8.39614694 0.02281732 10.84033203 0.05175781 C14.58028833 0.09359939 18.31844293 0.09282635 22.05859375 0.0859375 C24.43490834 0.09643055 26.81121365 0.10936926 29.1875 0.125 C30.3053186 0.12520142 31.42313721 0.12540283 32.5748291 0.12561035 C34.14170471 0.14947815 34.14170471 0.14947815 35.74023438 0.17382812 C37.11326721 0.18645691 37.11326721 0.18645691 38.51403809 0.19934082 C41.63433226 0.676399 43.54257635 1.76301627 46.09375 3.59375 C47.49832737 6.40290474 47.34270157 8.48185534 47.09375 11.59375 C45.31390595 14.7296657 44.57066793 15.43477736 41.09375 16.59375 C39.38740843 16.70601312 37.67714861 16.76271412 35.96728516 16.78662109 C34.92255035 16.80268402 33.87781555 16.81874695 32.80142212 16.83529663 C28.03363736 16.87977343 23.26599045 16.92079304 18.49804688 16.94384766 C15.98200239 16.96042624 13.46600536 16.98774082 10.95019531 17.02587891 C7.32331909 17.08057216 3.69754524 17.10250922 0.0703125 17.1171875 C-1.61582657 17.15119156 -1.61582657 17.15119156 -3.33602905 17.18588257 C-11.12480853 17.16476223 -11.12480853 17.16476223 -15.11572266 14.24853516 C-16.90625 11.59375 -16.90625 11.59375 -17.53125 8.59375 C-15.57756079 -0.78395819 -7.83903622 -0.11497667 0 0 Z " fill="#90C73C" transform="translate(304.90625,175.40625)"/>
<path d="M0 0 C4.71772778 1.84475253 5.95860473 4.8547523 8.01171875 9.28515625 C10.60207532 16.40095789 8.98919377 22.026084 6.16796875 28.8359375 C5.00796041 30.98525061 3.81635847 32.38661569 2 34 C-1.25813633 32.95274189 -2.53606177 31.42983232 -4.1875 28.5625 C-7.22473129 22.59276954 -7.66813284 17.6181266 -7 11 C-5.52593002 6.52670843 -3.42416237 3.21812395 0 0 Z " fill="#473F4A" transform="translate(143,207)"/>
<path d="M0 0 C4.0743356 0.84881992 5.54405875 2.30225596 8 5.625 C8.625 8.625 8.625 8.625 8 11.625 C5.54405875 14.94774404 4.0743356 16.40118008 0 17.25 C-4.0743356 16.40118008 -5.54405875 14.94774404 -8 11.625 C-8.625 8.625 -8.625 8.625 -8 5.625 C-5.54405875 2.30225596 -4.0743356 0.84881992 0 0 Z " fill="#91C341" transform="translate(120,79.375)"/>
<path d="M0 0 C4.0743356 0.84881992 5.54405875 2.30225596 8 5.625 C8.625 8.625 8.625 8.625 8 11.625 C5.54405875 14.94774404 4.0743356 16.40118008 0 17.25 C-4.0743356 16.40118008 -5.54405875 14.94774404 -8 11.625 C-8.625 8.625 -8.625 8.625 -8 5.625 C-5.54405875 2.30225596 -4.0743356 0.84881992 0 0 Z " fill="#91C341" transform="translate(88,79.375)"/>
<path d="M0 0 C4.0743356 0.84881992 5.54405875 2.30225596 8 5.625 C8.625 8.625 8.625 8.625 8 11.625 C5.54405875 14.94774404 4.0743356 16.40118008 0 17.25 C-4.0743356 16.40118008 -5.54405875 14.94774404 -8 11.625 C-8.625 8.625 -8.625 8.625 -8 5.625 C-5.54405875 2.30225596 -4.0743356 0.84881992 0 0 Z " fill="#91C341" transform="translate(56,79.375)"/>
<path d="M0 0 C4.06662662 1.55271198 5.57519602 2.36279402 8 6 C-1.9 6 -11.8 6 -22 6 C-22 5.67 -22 5.34 -22 5 C-21.09507813 4.83564453 -21.09507813 4.83564453 -20.171875 4.66796875 C-15.2408507 3.81353923 -15.2408507 3.81353923 -11 1.375 C-7.63057939 -0.94147667 -3.94819722 -0.51319721 0 0 Z " fill="#5E9E46" transform="translate(102,282)"/>
<path d="M0 0 C9.9 0 19.8 0 30 0 C26.35135135 4.86486486 26.35135135 4.86486486 22 6 C15.52849484 6.78949971 12.35881607 5.84436805 7 2 C3.26774656 1.20317197 3.26774656 1.20317197 0 1 C0 0.67 0 0.34 0 0 Z " fill="#5E9E46" transform="translate(80,160)"/>
<path d="M0 0 C0.66 0.33 1.32 0.66 2 1 C-1.63 4.63 -5.26 8.26 -9 12 C-9 7.8407692 -6.75316432 5.85455565 -4 3 C-1.6875 1.125 -1.6875 1.125 0 0 Z " fill="#9251AB" transform="translate(30,68)"/>
</svg>
