<?xml version="1.0" encoding="UTF-8"?>
<svg version="1.1" xmlns="http://www.w3.org/2000/svg" width="512" height="512">
<path d="M0 0 C1.53349113 -0.00186977 3.06698178 -0.00417113 4.60047168 -0.00686532 C8.80255105 -0.01296916 13.00461049 -0.0128514 17.20669329 -0.01167095 C21.74327755 -0.01146658 26.27985547 -0.01698908 30.81643677 -0.02172852 C39.69978905 -0.03002771 48.5831347 -0.03278302 57.46649054 -0.03334089 C64.68827012 -0.03381637 71.91004751 -0.03587271 79.1318264 -0.03904152 C99.6144006 -0.04784586 120.09696955 -0.0524612 140.57954565 -0.05171105 C141.68329483 -0.05167109 142.787044 -0.05163113 143.92424011 -0.05158997 C145.02933938 -0.05154909 146.13443865 -0.0515082 147.27302577 -0.05146609 C165.1838398 -0.05105961 183.0946328 -0.06063014 201.00544075 -0.07472833 C219.40348052 -0.0890956 237.80151005 -0.09599833 256.19955558 -0.09513456 C266.52572403 -0.09480272 276.85187044 -0.09754388 287.17803383 -0.10831261 C295.96942515 -0.11742217 304.76078442 -0.11958907 313.55217842 -0.11280318 C318.03553412 -0.10954039 322.51882836 -0.10947266 327.00217819 -0.11815643 C331.11102785 -0.12603285 335.21976743 -0.12457836 339.32861444 -0.1158723 C340.81039213 -0.11433984 342.29217808 -0.11614387 343.77394602 -0.12173238 C358.14049826 -0.17230228 371.31494307 0.63665026 382.30192566 10.82121277 C389.07037549 18.04180601 392.07712694 26.04065403 392.18229675 35.79484558 C392.19047424 36.45557571 392.19865173 37.11630585 392.20707703 37.79705811 C392.23182529 39.97697568 392.24842059 42.15682856 392.26286316 44.33683777 C392.26818684 45.08443108 392.27351051 45.83202438 392.27899551 46.60227203 C392.30568247 50.56017021 392.32507066 54.51803735 392.33952332 58.47599792 C392.35285256 61.74093198 392.38069163 65.00523956 392.42155457 68.26994324 C392.47102711 72.22334928 392.49566172 76.17618811 392.5027504 80.12989044 C392.50943731 81.63052826 392.52459243 83.13115468 392.5486412 84.63161469 C392.76191416 98.74430834 392.76191416 98.74430834 388.41877747 104.69273376 C385.85813677 107.27420423 383.31739992 108.6546131 379.98942566 110.13371277 C378.99942566 110.13371277 378.00942566 110.13371277 376.98942566 110.13371277 C376.88629131 137.92451425 376.84051501 165.71490267 376.86245537 193.50589943 C376.87131562 206.41068811 376.86162115 219.31495827 376.80778503 232.21965027 C376.76089225 243.47140819 376.74928315 254.72256384 376.77950776 265.97438848 C376.7942845 271.9288146 376.79175658 277.88206808 376.74692917 283.83636856 C376.70522861 289.44954224 376.71097267 295.06073503 376.7519474 300.67389488 C376.75877374 302.72565372 376.74877455 304.77755419 376.7199955 306.82912254 C376.53567587 320.8992893 378.76181012 328.53851556 387.98942566 339.13371277 C389.5374551 341.30389257 390.97885745 343.51879869 392.42692566 345.75871277 C392.86633484 346.42161316 393.30574402 347.08451355 393.75846863 347.76750183 C394.14148132 348.34725769 394.52449402 348.92701355 394.91911316 349.52433777 C398.91846135 355.54940105 402.98905244 361.52641235 407.05192566 367.50871277 C407.87590072 368.72257965 408.69987533 369.93644684 409.52384949 371.15031433 C413.56909978 377.10795584 417.62045511 383.06137021 421.68083191 389.00871277 C425.79776877 395.04089889 429.90366558 401.08036031 433.98942566 407.13371277 C434.50311707 407.89474304 435.01680847 408.65577332 435.54606628 409.43986511 C442.71931354 420.12700027 448.36623447 429.80096315 446.58708191 443.15324402 C444.36253466 453.40722217 440.04731454 461.51367935 431.41520691 467.66496277 C421.9598172 473.38996524 412.5289403 474.28763488 401.71812439 474.26742554 C400.81729071 474.26969109 399.91645703 474.27195665 398.98832536 474.27429086 C395.98705127 474.28059194 392.98582279 474.279804 389.98454285 474.27897644 C387.82552024 474.28197037 385.66649818 474.28537344 383.50747681 474.28915405 C377.65402284 474.29797468 371.8005835 474.30033136 365.94712353 474.30096984 C362.28656297 474.30168147 358.62600611 474.30381793 354.96544647 474.30646706 C342.18486292 474.31571423 329.40428979 474.31980275 316.623703 474.3190155 C304.72678411 474.31841495 292.8299106 474.32896396 280.93300319 474.34475917 C270.70513597 474.35785257 260.47728354 474.36319864 250.24940801 474.36256009 C244.14691016 474.36230563 238.04445266 474.3651285 231.9419632 474.37573814 C226.19964679 474.38544935 220.45740904 474.38547759 214.7150898 474.37822151 C212.61412249 474.37717941 210.5131502 474.37951619 208.41219139 474.38558197 C176.1628208 474.47261965 176.1628208 474.47261965 163.80973816 463.03996277 C157.19167033 456.10945397 154.07651373 447.28872945 153.55192566 437.75871277 C153.72758291 432.39140779 155.10266114 423.02047729 158.98942566 419.13371277 C158.16373896 419.13040262 157.33805225 419.12709248 156.48734474 419.12368202 C136.37184219 419.04236741 116.25641423 418.95024732 96.14101601 418.84618568 C86.4132557 418.79612073 76.68550356 418.7496772 66.95768738 418.71183777 C58.47629606 418.67883743 49.9949693 418.63896203 41.51364934 418.59092271 C37.02525782 418.56573752 32.53690867 418.5439329 28.04846573 418.5303688 C23.81808034 418.51747574 19.58784089 418.49534423 15.35753632 418.46632957 C13.81047271 418.45731015 12.26338565 418.45157684 10.71629715 418.44949913 C-2.94764842 418.42787496 -14.51261858 417.85174143 -25.05354309 408.27824402 C-31.31173998 401.59304863 -35.13775659 393.49576801 -35.13362217 384.28427505 C-35.13561322 383.3044435 -35.13760427 382.32461194 -35.13965565 381.31508851 C-35.13674281 380.2411653 -35.13382997 379.16724209 -35.13082886 378.06077576 C-35.13168328 376.91804695 -35.13253771 375.77531814 -35.13341802 374.59796119 C-35.13478147 371.42594432 -35.13165188 368.2539682 -35.12663996 365.08195615 C-35.12232497 361.66140827 -35.12378263 358.24086233 -35.12454224 354.8203125 C-35.1250668 348.89391377 -35.121927 342.96752603 -35.1163044 337.04113007 C-35.10818033 328.47253735 -35.10557325 319.90394997 -35.10431641 311.33535382 C-35.10212732 297.43366446 -35.09547109 283.53198097 -35.08601379 269.6302948 C-35.07683599 256.12541229 -35.06975695 242.62053136 -35.06550598 229.11564636 C-35.06524326 228.28332549 -35.06498053 227.45100462 -35.06470985 226.5934619 C-35.06340482 222.41798857 -35.06214111 218.24251523 -35.06089795 214.06704187 C-35.05052978 179.42259466 -35.03291534 144.77815425 -35.01057434 110.13371277 C-35.95908264 109.99127136 -36.90759094 109.84882996 -37.88484192 109.70207214 C-40.98865554 109.13769832 -42.32956419 108.62127374 -44.69807434 106.63371277 C-45.53918762 105.96855652 -45.53918762 105.96855652 -46.39729309 105.28996277 C-51.77748763 98.09900058 -51.4392593 89.32529551 -51.37385559 80.73527527 C-51.3743541 79.46453156 -51.3748526 78.19378784 -51.37536621 76.88453674 C-51.37303405 74.20653839 -51.36496352 71.52934411 -51.34675598 68.85148621 C-51.32411696 65.45045483 -51.32352234 62.04986868 -51.33027363 58.64878273 C-51.33445566 55.3650811 -51.32241197 52.08145562 -51.31135559 48.79777527 C-51.312267 47.59222992 -51.31317841 46.38668457 -51.31411743 45.14460754 C-51.22166991 33.97813903 -50.26062326 24.58547386 -44.01057434 15.13371277 C-43.43307434 14.24683777 -42.85557434 13.35996277 -42.26057434 12.44621277 C-30.32795525 0.18213204 -16.0979496 -0.01860964 0 0 Z " fill="#FEFEFE" transform="translate(58.01057434082031,18.866287231445313)"/>
<path d="M0 0 C1.53349113 -0.00186977 3.06698178 -0.00417113 4.60047168 -0.00686532 C8.80255105 -0.01296916 13.00461049 -0.0128514 17.20669329 -0.01167095 C21.74327755 -0.01146658 26.27985547 -0.01698908 30.81643677 -0.02172852 C39.69978905 -0.03002771 48.5831347 -0.03278302 57.46649054 -0.03334089 C64.68827012 -0.03381637 71.91004751 -0.03587271 79.1318264 -0.03904152 C99.6144006 -0.04784586 120.09696955 -0.0524612 140.57954565 -0.05171105 C141.68329483 -0.05167109 142.787044 -0.05163113 143.92424011 -0.05158997 C145.02933938 -0.05154909 146.13443865 -0.0515082 147.27302577 -0.05146609 C165.1838398 -0.05105961 183.0946328 -0.06063014 201.00544075 -0.07472833 C219.40348052 -0.0890956 237.80151005 -0.09599833 256.19955558 -0.09513456 C266.52572403 -0.09480272 276.85187044 -0.09754388 287.17803383 -0.10831261 C295.96942515 -0.11742217 304.76078442 -0.11958907 313.55217842 -0.11280318 C318.03553412 -0.10954039 322.51882836 -0.10947266 327.00217819 -0.11815643 C331.11102785 -0.12603285 335.21976743 -0.12457836 339.32861444 -0.1158723 C340.81039213 -0.11433984 342.29217808 -0.11614387 343.77394602 -0.12173238 C358.14049826 -0.17230228 371.31494307 0.63665026 382.30192566 10.82121277 C389.07037549 18.04180601 392.07712694 26.04065403 392.18229675 35.79484558 C392.19047424 36.45557571 392.19865173 37.11630585 392.20707703 37.79705811 C392.23182529 39.97697568 392.24842059 42.15682856 392.26286316 44.33683777 C392.26818684 45.08443108 392.27351051 45.83202438 392.27899551 46.60227203 C392.30568247 50.56017021 392.32507066 54.51803735 392.33952332 58.47599792 C392.35285256 61.74093198 392.38069163 65.00523956 392.42155457 68.26994324 C392.47102711 72.22334928 392.49566172 76.17618811 392.5027504 80.12989044 C392.50943731 81.63052826 392.52459243 83.13115468 392.5486412 84.63161469 C392.76191416 98.74430834 392.76191416 98.74430834 388.41877747 104.69273376 C385.85813677 107.27420423 383.31739992 108.6546131 379.98942566 110.13371277 C378.99942566 110.13371277 378.00942566 110.13371277 376.98942566 110.13371277 C376.88629131 137.92451425 376.84051501 165.71490267 376.86245537 193.50589943 C376.87131562 206.41068811 376.86162115 219.31495827 376.80778503 232.21965027 C376.76089225 243.47140819 376.74928315 254.72256384 376.77950776 265.97438848 C376.7942845 271.9288146 376.79175658 277.88206808 376.74692917 283.83636856 C376.70522861 289.44954224 376.71097267 295.06073503 376.7519474 300.67389488 C376.75877374 302.72565372 376.74877455 304.77755419 376.7199955 306.82912254 C376.53567587 320.8992893 378.76181012 328.53851556 387.98942566 339.13371277 C389.5374551 341.30389257 390.97885745 343.51879869 392.42692566 345.75871277 C392.86633484 346.42161316 393.30574402 347.08451355 393.75846863 347.76750183 C394.14148132 348.34725769 394.52449402 348.92701355 394.91911316 349.52433777 C398.91846135 355.54940105 402.98905244 361.52641235 407.05192566 367.50871277 C407.87590072 368.72257965 408.69987533 369.93644684 409.52384949 371.15031433 C413.56909978 377.10795584 417.62045511 383.06137021 421.68083191 389.00871277 C425.79776877 395.04089889 429.90366558 401.08036031 433.98942566 407.13371277 C434.50311707 407.89474304 435.01680847 408.65577332 435.54606628 409.43986511 C442.71931354 420.12700027 448.36623447 429.80096315 446.58708191 443.15324402 C444.36253466 453.40722217 440.04731454 461.51367935 431.41520691 467.66496277 C421.9598172 473.38996524 412.5289403 474.28763488 401.71812439 474.26742554 C400.81729071 474.26969109 399.91645703 474.27195665 398.98832536 474.27429086 C395.98705127 474.28059194 392.98582279 474.279804 389.98454285 474.27897644 C387.82552024 474.28197037 385.66649818 474.28537344 383.50747681 474.28915405 C377.65402284 474.29797468 371.8005835 474.30033136 365.94712353 474.30096984 C362.28656297 474.30168147 358.62600611 474.30381793 354.96544647 474.30646706 C342.18486292 474.31571423 329.40428979 474.31980275 316.623703 474.3190155 C304.72678411 474.31841495 292.8299106 474.32896396 280.93300319 474.34475917 C270.70513597 474.35785257 260.47728354 474.36319864 250.24940801 474.36256009 C244.14691016 474.36230563 238.04445266 474.3651285 231.9419632 474.37573814 C226.19964679 474.38544935 220.45740904 474.38547759 214.7150898 474.37822151 C212.61412249 474.37717941 210.5131502 474.37951619 208.41219139 474.38558197 C176.1628208 474.47261965 176.1628208 474.47261965 163.80973816 463.03996277 C157.19167033 456.10945397 154.07651373 447.28872945 153.55192566 437.75871277 C153.72758291 432.39140779 155.10266114 423.02047729 158.98942566 419.13371277 C158.16373896 419.13040262 157.33805225 419.12709248 156.48734474 419.12368202 C136.37184219 419.04236741 116.25641423 418.95024732 96.14101601 418.84618568 C86.4132557 418.79612073 76.68550356 418.7496772 66.95768738 418.71183777 C58.47629606 418.67883743 49.9949693 418.63896203 41.51364934 418.59092271 C37.02525782 418.56573752 32.53690867 418.5439329 28.04846573 418.5303688 C23.81808034 418.51747574 19.58784089 418.49534423 15.35753632 418.46632957 C13.81047271 418.45731015 12.26338565 418.45157684 10.71629715 418.44949913 C-2.94764842 418.42787496 -14.51261858 417.85174143 -25.05354309 408.27824402 C-31.31173998 401.59304863 -35.13775659 393.49576801 -35.13362217 384.28427505 C-35.13561322 383.3044435 -35.13760427 382.32461194 -35.13965565 381.31508851 C-35.13674281 380.2411653 -35.13382997 379.16724209 -35.13082886 378.06077576 C-35.13168328 376.91804695 -35.13253771 375.77531814 -35.13341802 374.59796119 C-35.13478147 371.42594432 -35.13165188 368.2539682 -35.12663996 365.08195615 C-35.12232497 361.66140827 -35.12378263 358.24086233 -35.12454224 354.8203125 C-35.1250668 348.89391377 -35.121927 342.96752603 -35.1163044 337.04113007 C-35.10818033 328.47253735 -35.10557325 319.90394997 -35.10431641 311.33535382 C-35.10212732 297.43366446 -35.09547109 283.53198097 -35.08601379 269.6302948 C-35.07683599 256.12541229 -35.06975695 242.62053136 -35.06550598 229.11564636 C-35.06524326 228.28332549 -35.06498053 227.45100462 -35.06470985 226.5934619 C-35.06340482 222.41798857 -35.06214111 218.24251523 -35.06089795 214.06704187 C-35.05052978 179.42259466 -35.03291534 144.77815425 -35.01057434 110.13371277 C-35.95908264 109.99127136 -36.90759094 109.84882996 -37.88484192 109.70207214 C-40.98865554 109.13769832 -42.32956419 108.62127374 -44.69807434 106.63371277 C-45.53918762 105.96855652 -45.53918762 105.96855652 -46.39729309 105.28996277 C-51.77748763 98.09900058 -51.4392593 89.32529551 -51.37385559 80.73527527 C-51.3743541 79.46453156 -51.3748526 78.19378784 -51.37536621 76.88453674 C-51.37303405 74.20653839 -51.36496352 71.52934411 -51.34675598 68.85148621 C-51.32411696 65.45045483 -51.32352234 62.04986868 -51.33027363 58.64878273 C-51.33445566 55.3650811 -51.32241197 52.08145562 -51.31135559 48.79777527 C-51.312267 47.59222992 -51.31317841 46.38668457 -51.31411743 45.14460754 C-51.22166991 33.97813903 -50.26062326 24.58547386 -44.01057434 15.13371277 C-43.43307434 14.24683777 -42.85557434 13.35996277 -42.26057434 12.44621277 C-30.32795525 0.18213204 -16.0979496 -0.01860964 0 0 Z M155.98942566 84.13371277 C154.00942566 90.07371277 152.02942566 96.01371277 149.98942566 102.13371277 C147.98942566 108.13371277 147.98942566 108.13371277 146.98942566 109.13371277 C144.77481473 109.24302701 142.55666445 109.28064319 140.33938599 109.29193115 C139.63616056 109.29686913 138.93293512 109.30180711 138.20839983 109.30689472 C135.83454832 109.32234338 133.46072399 109.33065014 131.08683777 109.33903503 C129.39212807 109.34860778 127.69742079 109.3586175 126.00271606 109.36903381 C121.38723541 109.39615437 116.77174446 109.41712508 112.15622783 109.4370358 C107.33820244 109.4588514 102.52020907 109.48626167 97.70220947 109.51309204 C88.57202389 109.56307897 79.44182059 109.60799546 70.31160027 109.6511144 C59.91997617 109.70043562 49.52838418 109.75537266 39.13679111 109.810794 C17.75436585 109.92470611 -3.62809004 110.03152495 -25.01057434 110.13371277 C-25.12507116 145.37901565 -25.2131493 180.62428083 -25.26590099 215.86973061 C-25.27215436 220.03275752 -25.27862599 224.19578406 -25.28523254 228.35881042 C-25.2865441 229.18757823 -25.28785565 230.01634603 -25.28920694 230.87022801 C-25.31095105 244.28157177 -25.35036707 257.69280814 -25.39633832 271.10408823 C-25.44313069 284.86994088 -25.47087561 298.63573737 -25.48101681 312.40166628 C-25.48787023 320.89293675 -25.50949943 329.38390365 -25.55015668 337.87508066 C-25.57662942 343.70138766 -25.58456512 349.52753821 -25.57808123 355.35390095 C-25.57488519 358.7133577 -25.58246191 362.07185876 -25.60660172 365.43129349 C-25.63153469 369.08035333 -25.62547671 372.72812184 -25.61184692 376.37721252 C-25.62641113 377.42976774 -25.64097534 378.48232295 -25.65598089 379.56677377 C-25.5701808 388.08447216 -23.06405841 394.43738995 -17.63557434 401.00871277 C-11.93970235 405.61965676 -7.92490104 407.62688954 -0.54771423 407.69548035 C0.17062186 407.70736484 0.88895796 407.71924932 1.62906182 407.73149395 C4.01874461 407.765981 6.40761992 407.77225136 8.79753113 407.77824402 C10.51794623 407.7967751 12.23834502 407.81687621 13.95872498 407.83842468 C18.61991726 407.89074206 23.28087961 407.91666314 27.94231939 407.93446732 C30.85729502 407.94621552 33.77220861 407.96263905 36.68715286 407.98048401 C45.81584772 408.03512847 54.94439981 408.07382544 64.07324684 408.08929157 C74.5968037 408.10722139 85.11828403 408.17746019 95.64120948 408.29329395 C103.78668977 408.37983393 111.93158645 408.42011204 120.07752144 408.42545605 C124.93827117 408.42964239 129.79706547 408.45313166 134.65732956 408.5247345 C139.23020823 408.59079929 143.79966944 408.59922694 148.37285614 408.56417847 C150.0462347 408.56110401 151.71979961 408.57838095 153.39271164 408.61801147 C162.85746102 408.94477592 162.85746102 408.94477592 170.92293167 404.53851318 C173.31271627 401.61414494 175.15675806 398.43315159 176.98942566 395.13371277 C178.08955166 393.49500768 179.20132154 391.86394728 180.33317566 390.24699402 C181.38843316 388.64882496 182.44042734 387.04849716 183.48942566 385.44621277 C184.70323296 383.60958987 185.91812397 381.77368283 187.13395691 379.93840027 C187.76253601 378.989328 188.39111511 378.04025574 189.03874207 377.06242371 C192.3829814 372.04146061 195.77972094 367.05642966 199.17692566 362.07121277 C199.88397644 361.03327576 200.59102722 359.99533875 201.31950378 358.9259491 C202.78667817 356.77230917 204.25396523 354.61874601 205.72135925 352.46525574 C209.25007816 347.28408036 212.76784056 342.09546611 216.28645325 336.90742493 C223.37071279 326.46210036 230.46277421 316.0221207 237.56217957 305.58708191 C241.75843112 299.41811204 245.95009897 293.24606754 250.13563538 287.06982422 C252.18864484 284.04070942 254.24356137 281.0129315 256.3033905 277.9884491 C259.67667942 273.03341482 263.04238356 268.076423 266.31755066 263.05558777 C273.188339 252.58895944 280.33553061 244.25080129 292.98942566 241.13371277 C303.87957628 239.84908374 314.56494874 241.96461642 323.39958191 248.62199402 C329.26248663 254.30803886 333.52473174 261.33980052 337.98942566 268.13371277 C338.95543761 269.57998543 339.92286367 271.02531466 340.89176941 272.46965027 C342.85098479 275.39579393 344.80173239 278.32734474 346.74723816 281.26261902 C350.52459645 286.95005118 354.34430436 292.60840943 358.17692566 298.25871277 C359.16752991 299.72763977 359.16752991 299.72763977 360.17814636 301.22624207 C360.79004822 302.12641052 361.40195007 303.02657898 362.03239441 303.95402527 C362.57919861 304.76113953 363.12600281 305.56825378 363.68937683 306.39982605 C364.11839294 306.97200867 364.54740906 307.54419128 364.98942566 308.13371277 C365.31942566 308.13371277 365.64942566 308.13371277 365.98942566 308.13371277 C365.98942566 242.79371277 365.98942566 177.45371277 365.98942566 110.13371277 C330.67942566 109.80371277 295.36942566 109.47371277 258.98942566 109.13371277 C254.98942566 100.13371277 254.98942566 100.13371277 249.98942566 84.13371277 C218.96942566 84.13371277 187.94942566 84.13371277 155.98942566 84.13371277 Z " fill="#9BBFFC" transform="translate(58.01057434082031,18.866287231445313)"/>
<path d="M0 0 C8.26675286 5.02091125 13.36441386 14.76829431 18.625 22.625 C19.46307766 23.86945323 20.30162892 25.11358764 21.140625 26.35742188 C22.87992161 28.93676253 24.61719132 31.51745041 26.35302734 34.09912109 C29.9734669 39.48038846 33.6186968 44.84478845 37.26364136 50.20947266 C39.23679548 53.1141361 41.20815809 56.02001491 43.1796875 58.92578125 C43.97102616 60.09196132 44.76236731 61.25813971 45.55371094 62.42431641 C47.55311488 65.37090899 49.55226599 68.31767302 51.55133057 71.26449585 C59.50757902 82.99278772 67.46668123 94.71910253 75.4375 106.4375 C77.54319373 109.53413738 79.64880641 112.63082986 81.75439453 115.72753906 C83.24717143 117.92246533 84.74027788 120.11716358 86.23388672 122.31152344 C91.81471043 130.51143863 97.38337231 138.71947774 102.9375 146.9375 C103.35696899 147.5578009 103.77643799 148.17810181 104.20861816 148.81719971 C106.74529047 152.56957612 109.27612781 156.32578228 111.79934692 160.08721924 C112.59175816 161.26712507 113.38573337 162.44598225 114.18136597 163.62371826 C115.2829534 165.25523701 116.37794841 166.89120102 117.47265625 168.52734375 C118.095354 169.45409912 118.71805176 170.38085449 119.35961914 171.33569336 C123.56946652 178.27741446 124.06649622 185.32098097 122.47265625 193.25 C120.3367276 199.72097909 116.15306933 204.82821186 110.3125 208.3125 C106.32470998 210.23254705 103.23093114 211.05989612 98.83160114 211.07451439 C98.01755607 211.07958893 97.203511 211.08466347 96.36479789 211.08989179 C95.47599738 211.09038955 94.58719687 211.09088731 93.67146301 211.09140015 C92.72292771 211.0957824 91.7743924 211.10016465 90.7971136 211.1046797 C87.61059 211.11806152 84.42409405 211.12424518 81.23754883 211.13037109 C78.9560229 211.1382725 76.67449822 211.14654148 74.39297485 211.15515137 C66.89350579 211.18136545 59.39403115 211.19667771 51.89453125 211.2109375 C49.31303084 211.2162973 46.73153047 211.22167481 44.15003014 211.22706985 C33.4123581 211.24869704 22.67468931 211.26758518 11.93700123 211.27869225 C9.15192981 211.2816218 6.36685843 211.28458348 3.58178711 211.28759766 C2.54350145 211.28871673 2.54350145 211.28871673 1.48424032 211.28985842 C-9.72569307 211.30250872 -20.93546773 211.33572931 -32.14532693 211.37739949 C-43.66146192 211.41985635 -55.17749103 211.44298412 -66.69370633 211.44861281 C-73.15676575 211.45226693 -79.61955596 211.46429555 -86.08254051 211.49671555 C-92.1638743 211.52678408 -98.2447758 211.53311197 -104.32616806 211.52133179 C-106.55579934 211.52111096 -108.78545062 211.52942345 -111.01501274 211.54698563 C-114.06437556 211.56969426 -117.11217307 211.56137358 -120.1615448 211.54550171 C-121.0391917 211.5593838 -121.9168386 211.57326588 -122.82108086 211.58756864 C-130.29549727 211.49202924 -135.78351466 208.77855742 -141.40234375 203.91015625 C-141.92957031 203.27980469 -142.45679688 202.64945313 -143 202 C-143.81791016 201.05833984 -143.81791016 201.05833984 -144.65234375 200.09765625 C-149.03376049 193.38595692 -148.96085979 185.65830916 -148.0625 177.9375 C-146.72965105 173.7861035 -144.53099639 170.5142122 -142.0625 166.9375 C-141.33740234 165.88199951 -141.33740234 165.88199951 -140.59765625 164.80517578 C-137.66100877 160.54369183 -134.68655698 156.31037186 -131.69140625 152.08984375 C-128.50609053 147.58974168 -125.41496526 143.03668186 -122.375 138.4375 C-117.26150965 130.71362647 -112.079934 123.03739172 -106.875 115.375 C-106.26442245 114.47599976 -106.26442245 114.47599976 -105.64151001 113.55883789 C-102.78319113 109.35080625 -99.92308954 105.14398827 -97.0625 100.9375 C-95.96881104 99.3289917 -95.96881104 99.3289917 -94.85302734 97.68798828 C-92.06159387 93.58271241 -89.26998389 89.47755683 -86.4777832 85.37280273 C-81.56970755 78.15685452 -76.66755341 70.93691186 -71.76831055 63.71496582 C-54.51728081 38.28550196 -54.51728081 38.28550196 -47.87890625 28.5546875 C-45.50764801 25.07574401 -43.15920085 21.58404719 -40.83984375 18.0703125 C-31.46027027 3.94293753 -18.34682966 -9.50159492 0 0 Z " fill="#97BCFC" transform="translate(371.0625,271.0625)"/>
<path d="M0 0 C1.53349113 -0.00186977 3.06698178 -0.00417113 4.60047168 -0.00686532 C8.80255105 -0.01296916 13.00461049 -0.0128514 17.20669329 -0.01167095 C21.74327755 -0.01146658 26.27985547 -0.01698908 30.81643677 -0.02172852 C39.69978905 -0.03002771 48.5831347 -0.03278302 57.46649054 -0.03334089 C64.68827012 -0.03381637 71.91004751 -0.03587271 79.1318264 -0.03904152 C99.6144006 -0.04784586 120.09696955 -0.0524612 140.57954565 -0.05171105 C141.68329483 -0.05167109 142.787044 -0.05163113 143.92424011 -0.05158997 C145.02933938 -0.05154909 146.13443865 -0.0515082 147.27302577 -0.05146609 C165.1838398 -0.05105961 183.0946328 -0.06063014 201.00544075 -0.07472833 C219.40348052 -0.0890956 237.80151005 -0.09599833 256.19955558 -0.09513456 C266.52572403 -0.09480272 276.85187044 -0.09754388 287.17803383 -0.10831261 C295.96942515 -0.11742217 304.76078442 -0.11958907 313.55217842 -0.11280318 C318.03553412 -0.10954039 322.51882836 -0.10947266 327.00217819 -0.11815643 C331.11102785 -0.12603285 335.21976743 -0.12457836 339.32861444 -0.1158723 C340.81039213 -0.11433984 342.29217808 -0.11614387 343.77394602 -0.12173238 C358.14049826 -0.17230228 371.31494307 0.63665026 382.30192566 10.82121277 C389.07037549 18.04180601 392.07712694 26.04065403 392.18229675 35.79484558 C392.19047424 36.45557571 392.19865173 37.11630585 392.20707703 37.79705811 C392.23182529 39.97697568 392.24842059 42.15682856 392.26286316 44.33683777 C392.26818684 45.08443108 392.27351051 45.83202438 392.27899551 46.60227203 C392.30568247 50.56017021 392.32507066 54.51803735 392.33952332 58.47599792 C392.35285256 61.74093198 392.38069163 65.00523956 392.42155457 68.26994324 C392.47102711 72.22334928 392.49566172 76.17618811 392.5027504 80.12989044 C392.50943731 81.63052826 392.52459243 83.13115468 392.5486412 84.63161469 C392.76191416 98.74430834 392.76191416 98.74430834 388.41877747 104.69273376 C385.85813677 107.27420423 383.31739992 108.6546131 379.98942566 110.13371277 C378.99942566 110.13371277 378.00942566 110.13371277 376.98942566 110.13371277 C376.88629131 137.92451425 376.84051501 165.71490267 376.86245537 193.50589943 C376.87131562 206.41068811 376.86162115 219.31495827 376.80778503 232.21965027 C376.76089225 243.47140819 376.74928315 254.72256384 376.77950776 265.97438848 C376.7942845 271.9288146 376.79175658 277.88206808 376.74692917 283.83636856 C376.70522861 289.44954224 376.71097267 295.06073503 376.7519474 300.67389488 C376.75877374 302.72565372 376.74877455 304.77755419 376.7199955 306.82912254 C376.53567587 320.8992893 378.76181012 328.53851556 387.98942566 339.13371277 C389.5374551 341.30389257 390.97885745 343.51879869 392.42692566 345.75871277 C392.86633484 346.42161316 393.30574402 347.08451355 393.75846863 347.76750183 C394.14148132 348.34725769 394.52449402 348.92701355 394.91911316 349.52433777 C398.91846135 355.54940105 402.98905244 361.52641235 407.05192566 367.50871277 C407.87590072 368.72257965 408.69987533 369.93644684 409.52384949 371.15031433 C413.56909978 377.10795584 417.62045511 383.06137021 421.68083191 389.00871277 C425.79776877 395.04089889 429.90366558 401.08036031 433.98942566 407.13371277 C434.50311707 407.89474304 435.01680847 408.65577332 435.54606628 409.43986511 C442.71931354 420.12700027 448.36623447 429.80096315 446.58708191 443.15324402 C444.36253466 453.40722217 440.04731454 461.51367935 431.41520691 467.66496277 C421.9598172 473.38996524 412.5289403 474.28763488 401.71812439 474.26742554 C400.81729071 474.26969109 399.91645703 474.27195665 398.98832536 474.27429086 C395.98705127 474.28059194 392.98582279 474.279804 389.98454285 474.27897644 C387.82552024 474.28197037 385.66649818 474.28537344 383.50747681 474.28915405 C377.65402284 474.29797468 371.8005835 474.30033136 365.94712353 474.30096984 C362.28656297 474.30168147 358.62600611 474.30381793 354.96544647 474.30646706 C342.18486292 474.31571423 329.40428979 474.31980275 316.623703 474.3190155 C304.72678411 474.31841495 292.8299106 474.32896396 280.93300319 474.34475917 C270.70513597 474.35785257 260.47728354 474.36319864 250.24940801 474.36256009 C244.14691016 474.36230563 238.04445266 474.3651285 231.9419632 474.37573814 C226.19964679 474.38544935 220.45740904 474.38547759 214.7150898 474.37822151 C212.61412249 474.37717941 210.5131502 474.37951619 208.41219139 474.38558197 C176.1628208 474.47261965 176.1628208 474.47261965 163.80973816 463.03996277 C157.19167033 456.10945397 154.07651373 447.28872945 153.55192566 437.75871277 C153.72758291 432.39140779 155.10266114 423.02047729 158.98942566 419.13371277 C158.16373896 419.13040262 157.33805225 419.12709248 156.48734474 419.12368202 C136.37184219 419.04236741 116.25641423 418.95024732 96.14101601 418.84618568 C86.4132557 418.79612073 76.68550356 418.7496772 66.95768738 418.71183777 C58.47629606 418.67883743 49.9949693 418.63896203 41.51364934 418.59092271 C37.02525782 418.56573752 32.53690867 418.5439329 28.04846573 418.5303688 C23.81808034 418.51747574 19.58784089 418.49534423 15.35753632 418.46632957 C13.81047271 418.45731015 12.26338565 418.45157684 10.71629715 418.44949913 C-2.94764842 418.42787496 -14.51261858 417.85174143 -25.05354309 408.27824402 C-31.31173998 401.59304863 -35.13775659 393.49576801 -35.13362217 384.28427505 C-35.13561322 383.3044435 -35.13760427 382.32461194 -35.13965565 381.31508851 C-35.13674281 380.2411653 -35.13382997 379.16724209 -35.13082886 378.06077576 C-35.13168328 376.91804695 -35.13253771 375.77531814 -35.13341802 374.59796119 C-35.13478147 371.42594432 -35.13165188 368.2539682 -35.12663996 365.08195615 C-35.12232497 361.66140827 -35.12378263 358.24086233 -35.12454224 354.8203125 C-35.1250668 348.89391377 -35.121927 342.96752603 -35.1163044 337.04113007 C-35.10818033 328.47253735 -35.10557325 319.90394997 -35.10431641 311.33535382 C-35.10212732 297.43366446 -35.09547109 283.53198097 -35.08601379 269.6302948 C-35.07683599 256.12541229 -35.06975695 242.62053136 -35.06550598 229.11564636 C-35.06524326 228.28332549 -35.06498053 227.45100462 -35.06470985 226.5934619 C-35.06340482 222.41798857 -35.06214111 218.24251523 -35.06089795 214.06704187 C-35.05052978 179.42259466 -35.03291534 144.77815425 -35.01057434 110.13371277 C-35.95908264 109.99127136 -36.90759094 109.84882996 -37.88484192 109.70207214 C-40.98865554 109.13769832 -42.32956419 108.62127374 -44.69807434 106.63371277 C-45.53918762 105.96855652 -45.53918762 105.96855652 -46.39729309 105.28996277 C-51.77748763 98.09900058 -51.4392593 89.32529551 -51.37385559 80.73527527 C-51.3743541 79.46453156 -51.3748526 78.19378784 -51.37536621 76.88453674 C-51.37303405 74.20653839 -51.36496352 71.52934411 -51.34675598 68.85148621 C-51.32411696 65.45045483 -51.32352234 62.04986868 -51.33027363 58.64878273 C-51.33445566 55.3650811 -51.32241197 52.08145562 -51.31135559 48.79777527 C-51.312267 47.59222992 -51.31317841 46.38668457 -51.31411743 45.14460754 C-51.22166991 33.97813903 -50.26062326 24.58547386 -44.01057434 15.13371277 C-43.43307434 14.24683777 -42.85557434 13.35996277 -42.26057434 12.44621277 C-30.32795525 0.18213204 -16.0979496 -0.01860964 0 0 Z M-35.01057434 20.13371277 C-39.05696452 25.79865902 -40.12315597 30.62671759 -40.21931458 37.4752655 C-40.23860519 38.7601738 -40.25789581 40.04508209 -40.277771 41.368927 C-40.29257495 42.76837657 -40.30634888 44.16783736 -40.31916809 45.56730652 C-40.32573992 46.27451403 -40.33231174 46.98172153 -40.33908272 47.71035957 C-40.3716066 51.45082221 -40.39607941 55.1912571 -40.41560364 58.93180847 C-40.43344148 62.02337463 -40.4683081 65.11403284 -40.5181427 68.20524597 C-40.57834585 71.94470812 -40.60907721 75.68332654 -40.61877632 79.4232502 C-40.62732779 80.84546305 -40.64613908 82.26765349 -40.67551994 83.68958855 C-40.71445335 85.68029555 -40.71188465 87.67168243 -40.70759583 89.6627655 C-40.71790329 90.79431564 -40.72821075 91.92586578 -40.73883057 93.09170532 C-39.90211791 96.58674738 -38.55909044 97.89340134 -35.77336246 100.08731741 C-32.7839822 101.86182088 -30.07026339 101.74726976 -26.64537048 101.73498535 C-25.92562227 101.73925748 -25.20587406 101.7435296 -24.4643153 101.74793118 C-22.06389045 101.7561364 -19.6652314 101.72872018 -17.26496887 101.70133972 C-15.53996827 101.6999287 -13.81496467 101.70072228 -12.08996582 101.70355225 C-7.41458648 101.70498571 -2.73984967 101.67560724 1.93538046 101.64068246 C6.82405933 101.60940738 11.71275324 101.60648731 16.60151672 101.60055542 C25.85565109 101.58502037 35.10948981 101.54399644 44.36349404 101.49380797 C54.9002712 101.43790401 65.43706254 101.41042535 75.9739511 101.3853308 C97.64594091 101.33308034 119.31766465 101.24514457 140.98942566 101.13371277 C141.22129578 100.41715515 141.45316589 99.70059753 141.69206238 98.96232605 C142.74326385 95.72571821 143.80371873 92.49221727 144.86442566 89.25871277 C145.22923035 88.13078308 145.59403503 87.00285339 145.96989441 85.84074402 C146.50163269 84.22619324 146.50163269 84.22619324 147.04411316 82.57902527 C147.53113708 81.08653259 147.53113708 81.08653259 148.02799988 79.56388855 C148.98942566 77.13371277 148.98942566 77.13371277 150.98942566 75.13371277 C152.85414124 74.88203049 152.85414124 74.88203049 155.16471863 74.87974548 C156.03964966 74.87410583 156.91458069 74.86846619 157.81602478 74.86265564 C159.25924103 74.86872833 159.25924103 74.86872833 160.73161316 74.87492371 C162.24878937 74.86966675 162.24878937 74.86966675 163.7966156 74.86430359 C167.15262133 74.85547383 170.50841765 74.86133986 173.86442566 74.86808777 C176.18848206 74.86674148 178.51253819 74.86480125 180.83659363 74.86228943 C185.71243465 74.85933648 190.5882025 74.86364134 195.46403503 74.87297058 C201.72576216 74.88436516 207.98731786 74.87780661 214.2490387 74.86582565 C219.04957886 74.85861169 223.85007813 74.86089285 228.65061951 74.86608124 C230.95998657 74.86741902 233.26935731 74.86576555 235.57872009 74.86112213 C238.80166005 74.85606455 242.02431921 74.86375641 245.24723816 74.87492371 C246.69045441 74.86885101 246.69045441 74.86885101 248.16282654 74.86265564 C249.47522308 74.87111511 249.47522308 74.87111511 250.81413269 74.87974548 C251.57662323 74.88049953 252.33911377 74.88125359 253.12471008 74.88203049 C254.98942566 75.13371277 254.98942566 75.13371277 256.98942566 77.13371277 C257.75138855 79.02555847 257.75138855 79.02555847 258.46208191 81.30949402 C258.721828 82.13771667 258.9815741 82.96593933 259.24919128 83.81925964 C259.51409363 84.68615417 259.77899597 85.55304871 260.05192566 86.44621277 C260.32069519 87.30150574 260.58946472 88.15679871 260.86637878 89.03800964 C262.11491793 93.05762072 263.18214273 97.00056434 263.98942566 101.13371277 C278.50599451 101.22718856 293.02251664 101.29744177 307.53932476 101.34096146 C314.2798742 101.3615795 321.02023655 101.38968524 327.76066589 101.43547058 C334.26398836 101.47962425 340.76718937 101.50284232 347.27065468 101.51322174 C349.7534116 101.5206198 352.23615774 101.53506622 354.71883202 101.556633 C358.19297263 101.58561575 361.6663069 101.58967077 365.14054871 101.58781433 C366.16985504 101.60219543 367.19916138 101.61657654 368.25965881 101.63139343 C372.69728905 101.6056881 375.25449516 101.58270278 379.10498047 99.23033142 C382.21097731 95.77462417 382.12640538 93.64523843 382.16642761 89.06681824 C382.17926285 87.79144196 382.19209808 86.51606567 382.20532227 85.20204163 C382.21349247 83.80166513 382.22093566 82.40128423 382.22770691 81.00090027 C382.23178244 80.29560307 382.23585796 79.59030586 382.24005699 78.86363602 C382.26092726 75.12619062 382.27522137 71.38878198 382.28459167 67.65129089 C382.29562185 63.80459154 382.32997868 59.95847614 382.36976337 56.11198235 C382.3960171 53.14353928 382.40429149 50.17523304 382.40787315 47.20668411 C382.41272135 45.78980213 382.42428469 44.37292553 382.44291115 42.95615768 C382.57365577 32.34676953 381.51447931 25.10141663 373.98942566 17.13371277 C368.16876292 12.79917669 363.67965517 10.88467843 356.41508007 10.87923717 C355.7650605 10.8760307 355.11504093 10.87282422 354.4453238 10.86952057 C352.26406777 10.86120973 350.08308555 10.86714856 347.90182495 10.87301636 C346.32341084 10.86999616 344.74499818 10.86610734 343.16658813 10.86142379 C338.82650186 10.85111793 334.48649796 10.8533322 330.14640486 10.85760438 C325.46666862 10.86006695 320.78695245 10.85106325 316.10722351 10.84356689 C306.93770413 10.83080437 297.76821402 10.82902817 288.59868725 10.83136716 C281.14606785 10.83314889 273.69345734 10.83140378 266.240839 10.82714272 C265.18086288 10.82654753 264.12088676 10.82595234 263.02879015 10.82533911 C260.87555267 10.82412738 258.72231519 10.82291325 256.56907771 10.82169674 C236.36618964 10.81081502 216.16331824 10.81298656 195.96042923 10.81908158 C177.47509818 10.82425022 158.98981984 10.81299782 140.50449922 10.79398336 C121.52912907 10.77461431 102.55378387 10.76634739 83.57840377 10.77010661 C72.92307763 10.77202022 62.26779634 10.76951571 51.61247826 10.75539207 C42.54057523 10.74348913 33.46874466 10.74206112 24.39684065 10.75418224 C19.76803365 10.76007881 15.13935924 10.76114891 10.51056099 10.74917984 C6.27217152 10.73834766 2.03402578 10.74139259 -2.20435216 10.75544152 C-3.73663626 10.75809583 -5.26893929 10.75569892 -6.80120484 10.74770566 C-18.06078564 10.69305147 -27.02104343 11.41417395 -35.01057434 20.13371277 Z M155.98942566 84.13371277 C154.00942566 90.07371277 152.02942566 96.01371277 149.98942566 102.13371277 C147.98942566 108.13371277 147.98942566 108.13371277 146.98942566 109.13371277 C144.77481473 109.24302701 142.55666445 109.28064319 140.33938599 109.29193115 C139.63616056 109.29686913 138.93293512 109.30180711 138.20839983 109.30689472 C135.83454832 109.32234338 133.46072399 109.33065014 131.08683777 109.33903503 C129.39212807 109.34860778 127.69742079 109.3586175 126.00271606 109.36903381 C121.38723541 109.39615437 116.77174446 109.41712508 112.15622783 109.4370358 C107.33820244 109.4588514 102.52020907 109.48626167 97.70220947 109.51309204 C88.57202389 109.56307897 79.44182059 109.60799546 70.31160027 109.6511144 C59.91997617 109.70043562 49.52838418 109.75537266 39.13679111 109.810794 C17.75436585 109.92470611 -3.62809004 110.03152495 -25.01057434 110.13371277 C-25.12507116 145.37901565 -25.2131493 180.62428083 -25.26590099 215.86973061 C-25.27215436 220.03275752 -25.27862599 224.19578406 -25.28523254 228.35881042 C-25.2865441 229.18757823 -25.28785565 230.01634603 -25.28920694 230.87022801 C-25.31095105 244.28157177 -25.35036707 257.69280814 -25.39633832 271.10408823 C-25.44313069 284.86994088 -25.47087561 298.63573737 -25.48101681 312.40166628 C-25.48787023 320.89293675 -25.50949943 329.38390365 -25.55015668 337.87508066 C-25.57662942 343.70138766 -25.58456512 349.52753821 -25.57808123 355.35390095 C-25.57488519 358.7133577 -25.58246191 362.07185876 -25.60660172 365.43129349 C-25.63153469 369.08035333 -25.62547671 372.72812184 -25.61184692 376.37721252 C-25.62641113 377.42976774 -25.64097534 378.48232295 -25.65598089 379.56677377 C-25.5701808 388.08447216 -23.06405841 394.43738995 -17.63557434 401.00871277 C-11.93970235 405.61965676 -7.92490104 407.62688954 -0.54771423 407.69548035 C0.17062186 407.70736484 0.88895796 407.71924932 1.62906182 407.73149395 C4.01874461 407.765981 6.40761992 407.77225136 8.79753113 407.77824402 C10.51794623 407.7967751 12.23834502 407.81687621 13.95872498 407.83842468 C18.61991726 407.89074206 23.28087961 407.91666314 27.94231939 407.93446732 C30.85729502 407.94621552 33.77220861 407.96263905 36.68715286 407.98048401 C45.81584772 408.03512847 54.94439981 408.07382544 64.07324684 408.08929157 C74.5968037 408.10722139 85.11828403 408.17746019 95.64120948 408.29329395 C103.78668977 408.37983393 111.93158645 408.42011204 120.07752144 408.42545605 C124.93827117 408.42964239 129.79706547 408.45313166 134.65732956 408.5247345 C139.23020823 408.59079929 143.79966944 408.59922694 148.37285614 408.56417847 C150.0462347 408.56110401 151.71979961 408.57838095 153.39271164 408.61801147 C162.85746102 408.94477592 162.85746102 408.94477592 170.92293167 404.53851318 C173.31271627 401.61414494 175.15675806 398.43315159 176.98942566 395.13371277 C178.08955166 393.49500768 179.20132154 391.86394728 180.33317566 390.24699402 C181.38843316 388.64882496 182.44042734 387.04849716 183.48942566 385.44621277 C184.70323296 383.60958987 185.91812397 381.77368283 187.13395691 379.93840027 C187.76253601 378.989328 188.39111511 378.04025574 189.03874207 377.06242371 C192.3829814 372.04146061 195.77972094 367.05642966 199.17692566 362.07121277 C199.88397644 361.03327576 200.59102722 359.99533875 201.31950378 358.9259491 C202.78667817 356.77230917 204.25396523 354.61874601 205.72135925 352.46525574 C209.25007816 347.28408036 212.76784056 342.09546611 216.28645325 336.90742493 C223.37071279 326.46210036 230.46277421 316.0221207 237.56217957 305.58708191 C241.75843112 299.41811204 245.95009897 293.24606754 250.13563538 287.06982422 C252.18864484 284.04070942 254.24356137 281.0129315 256.3033905 277.9884491 C259.67667942 273.03341482 263.04238356 268.076423 266.31755066 263.05558777 C273.188339 252.58895944 280.33553061 244.25080129 292.98942566 241.13371277 C303.87957628 239.84908374 314.56494874 241.96461642 323.39958191 248.62199402 C329.26248663 254.30803886 333.52473174 261.33980052 337.98942566 268.13371277 C338.95543761 269.57998543 339.92286367 271.02531466 340.89176941 272.46965027 C342.85098479 275.39579393 344.80173239 278.32734474 346.74723816 281.26261902 C350.52459645 286.95005118 354.34430436 292.60840943 358.17692566 298.25871277 C359.16752991 299.72763977 359.16752991 299.72763977 360.17814636 301.22624207 C360.79004822 302.12641052 361.40195007 303.02657898 362.03239441 303.95402527 C362.57919861 304.76113953 363.12600281 305.56825378 363.68937683 306.39982605 C364.11839294 306.97200867 364.54740906 307.54419128 364.98942566 308.13371277 C365.31942566 308.13371277 365.64942566 308.13371277 365.98942566 308.13371277 C365.98942566 242.79371277 365.98942566 177.45371277 365.98942566 110.13371277 C330.67942566 109.80371277 295.36942566 109.47371277 258.98942566 109.13371277 C254.98942566 100.13371277 254.98942566 100.13371277 249.98942566 84.13371277 C218.96942566 84.13371277 187.94942566 84.13371277 155.98942566 84.13371277 Z M280.98942566 258.13371277 C278.17246228 261.53639221 275.6530039 265.03688849 273.22770691 268.72746277 C269.25969325 274.73033173 265.2293303 280.68758827 261.17692566 286.63371277 C259.68070165 288.83154093 258.18459459 291.02944826 256.68864441 293.22746277 C256.3050174 293.79102478 255.92139038 294.35458679 255.52613831 294.93522644 C251.17371323 301.33007144 246.83164033 307.73193258 242.48942566 314.13371277 C236.4948753 322.97075943 230.49551149 331.80449953 224.48942566 340.63371277 C217.73134854 350.56876494 210.98088547 360.50895434 204.23576355 370.45280457 C203.43880872 371.62769169 202.64185234 372.80257775 201.84489441 373.97746277 C201.44861343 374.56167496 201.05233246 375.14588715 200.64404297 375.74780273 C197.73632812 380.03397947 194.82615955 384.3184845 191.91520691 388.60246277 C187.26771263 395.44244792 182.62686246 402.28690463 177.98942566 409.13371277 C177.41208679 409.98465515 176.83474792 410.83559753 176.23991394 411.71232605 C174.8191682 413.80851559 173.40313069 415.90777122 171.98942566 418.00871277 C171.26755066 419.07863464 170.54567566 420.14855652 169.80192566 421.25090027 C164.87197257 429.09207566 164.0899454 434.93213306 164.98942566 444.13371277 C166.67445212 451.36131052 170.96351582 455.9949206 176.98942566 460.13371277 C182.26570951 463.39255777 186.49355972 463.56017249 192.50270081 463.5146637 C193.45365053 463.51934367 194.40460025 463.52402364 195.38436663 463.52884543 C198.56715236 463.54080023 201.74950791 463.53133605 204.93229675 463.52189636 C207.21574149 463.52596189 209.49918425 463.53130366 211.78262329 463.53782654 C217.98306963 463.55150961 224.18336631 463.54619689 230.38381529 463.53668928 C236.87301253 463.52909604 243.36219692 463.53613754 249.85139465 463.54084778 C261.44957729 463.54665683 273.04769162 463.5373295 284.64586349 463.52206977 C295.1529961 463.50867316 305.66002923 463.51098966 316.16716003 463.52482605 C328.3768139 463.54089696 340.58639694 463.54684746 352.79606116 463.53798926 C359.25617398 463.53331434 365.71621834 463.53268282 372.17632675 463.54259872 C378.25188315 463.55127268 384.327252 463.54523835 390.40278816 463.52791595 C392.63120907 463.5239531 394.85964579 463.5250817 397.08806038 463.53170395 C400.13298023 463.53991745 403.17730138 463.52959967 406.22218323 463.5146637 C407.54097648 463.52470194 407.54097648 463.52470194 408.88641202 463.53494298 C416.97738128 463.45811238 423.41223637 461.35524267 429.45036316 455.81340027 C434.37213111 450.44192763 436.11904315 444.66255679 436.36442566 437.50871277 C436.41341003 436.54707214 436.46239441 435.58543152 436.51286316 434.59465027 C435.18878214 425.83990561 429.3383752 418.36445035 424.36442566 411.25871277 C423.02533432 409.32029029 421.68682085 407.38146852 420.34880066 405.44230652 C419.64174988 404.42120789 418.9346991 403.40010925 418.20622253 402.34806824 C414.71424987 397.28470787 411.26666181 392.19147699 407.81809998 387.09849548 C405.79615839 384.11300199 403.77162455 381.12926755 401.74723816 378.14543152 C401.34725616 377.55578613 400.94727417 376.96614075 400.53517151 376.35862732 C396.52467925 370.44708734 392.50745098 364.54013461 388.48942566 358.63371277 C382.52572482 349.86651517 376.56761921 341.09554662 370.61442566 332.32121277 C370.02229279 331.44848221 370.02229279 331.44848221 369.41819763 330.55812073 C366.2056361 325.82309149 362.9933989 321.08784225 359.78117371 316.35258484 C358.57456305 314.57388902 357.36793249 312.79520672 356.16130066 311.01652527 C355.76391693 310.43071686 355.3665332 309.84490845 354.95710754 309.24134827 C352.97227386 306.3155422 350.9869596 303.39006421 349.00065613 300.46525574 C348.21825107 299.31308543 347.43586169 298.16090448 346.65348816 297.00871277 C346.26857208 296.4418576 345.88365601 295.87500244 345.48707581 295.29096985 C343.1318598 291.82106392 340.78192821 288.34764426 338.43598938 284.87145996 C337.27725936 283.1550378 336.11721304 281.43951327 334.95671082 279.72428894 C333.52941848 277.61415304 332.10442761 275.50245765 330.68229675 273.38883972 C321.38563414 259.5540126 321.38563414 259.5540126 307.98942566 250.13371277 C296.71206493 249.29273599 288.97709828 249.65354396 280.98942566 258.13371277 Z " fill="#5E90FC" transform="translate(58.01057434082031,18.866287231445313)"/>
<path d="M0 0 C4.97856294 2.75649247 8.8850919 6.70802409 10.76171875 12.1484375 C11.18744787 18.95865543 9.84764885 24.82352511 8.12890625 31.390625 C7.85458771 32.47183624 7.58026917 33.55304749 7.29763794 34.66702271 C6.41958732 38.12151134 5.52882947 41.57255584 4.63671875 45.0234375 C3.48395507 49.51973453 2.33662257 54.01740021 1.19140625 58.515625 C0.90565735 59.63521103 0.61990845 60.75479706 0.32550049 61.90830994 C-2.24576168 72.04329714 -4.59723178 82.22391655 -6.92529297 92.41699219 C-8.44702035 99.07894236 -10.02514852 105.72014603 -11.73828125 112.3359375 C-11.99480469 113.40005859 -12.25132812 114.46417969 -12.515625 115.56054688 C-14.18231437 121.95218098 -16.14625155 126.77331844 -21.23828125 131.1484375 C-26.14411106 133.96474721 -30.67036406 135.12584308 -36.23828125 134.1484375 C-41.63363765 132.1712572 -44.92431864 128.72950345 -48.23828125 124.1484375 C-51.55878012 114.1869409 -47.95345899 103.85909635 -45.30831909 94.14025879 C-44.12159793 89.77896081 -42.97850801 85.4061503 -41.828125 81.03515625 C-41.59974442 80.17266266 -41.37136383 79.31016907 -41.13606262 78.42153931 C-39.33866378 71.61125914 -37.70836238 64.77327026 -36.17578125 57.8984375 C-33.97377037 48.16092199 -31.6465128 38.45767622 -29.20950317 28.77648926 C-28.81627885 27.20810044 -28.42708668 25.63869442 -28.04220581 24.0682373 C-27.5018276 21.86795505 -26.9462309 19.67204625 -26.38671875 17.4765625 C-26.06880371 16.2071582 -25.75088867 14.93775391 -25.42333984 13.62988281 C-23.30595026 7.4094511 -20.14990608 3.29812235 -14.51171875 0.0703125 C-9.63004367 -1.90919836 -4.91317591 -1.86923621 0 0 Z " fill="#5F91FC" transform="translate(247.23828125,158.8515625)"/>
<path d="M0 0 C4.6318449 1.97006636 7.48937077 4.69773646 9.90625 9.10546875 C11.97375084 14.65056316 11.61983769 19.76454117 9.265625 25.12890625 C6.48330422 30.42358867 2.28573097 34.28170415 -1.99609375 38.37890625 C-2.78886719 39.15363281 -3.58164063 39.92835938 -4.3984375 40.7265625 C-6.33880814 42.62017722 -8.28790855 44.50374912 -10.24609375 46.37890625 C-5.9408084 51.56156748 -1.38118535 56.30820649 3.51757812 60.92773438 C7.40814282 64.70898563 10.229393 68.36413642 11.1875 73.87109375 C11.19726394 79.82709884 10.40749668 84.54097152 6.75390625 89.37890625 C1.54754779 93.52274257 -2.90481817 94.93787228 -9.4699707 94.73681641 C-19.4356066 93.45200221 -27.79785269 82.31633679 -34.52270508 75.54833984 C-36.55909044 73.50340748 -38.61352399 71.47790862 -40.66992188 69.453125 C-41.98420402 68.14045444 -43.29739346 66.82668872 -44.609375 65.51171875 C-45.21670975 64.91561798 -45.82404449 64.31951721 -46.44978333 63.70535278 C-51.23488675 58.84167228 -55.30362735 53.39523106 -55.80859375 46.37890625 C-55.34252239 38.29063516 -48.38818917 32.07234446 -42.96875 26.703125 C-42.27978134 26.01128616 -41.59081268 25.31944733 -40.88096619 24.60664368 C-39.43319697 23.15684602 -37.98168463 21.71077741 -36.52661133 20.26831055 C-34.307784 18.06560238 -32.10548799 15.8472701 -29.90429688 13.62695312 C-28.48924253 12.21388047 -27.07325825 10.80173831 -25.65625 9.390625 C-25.00294205 8.73124435 -24.34963409 8.07186371 -23.67652893 7.39250183 C-16.65521904 0.47758487 -9.84854735 -2.72333744 0 0 Z " fill="#5F91FC" transform="translate(177.24609375,178.62109375)"/>
<path d="M0 0 C4.6189223 2.72154081 8.03634118 6.26867441 11.78076172 10.07446289 C12.56895798 10.86453232 13.35715424 11.65460175 14.16923523 12.46861267 C15.8275307 14.13361152 17.48223396 15.80219492 19.13354492 17.47412109 C21.66897316 20.04081774 24.2150229 22.59658407 26.76318359 25.15063477 C28.37383695 26.77045395 29.98388443 28.39087585 31.59326172 30.01196289 C32.35673416 30.77968521 33.1202066 31.54740753 33.90681458 32.33839417 C34.60811996 33.0493071 35.30942535 33.76022003 36.03198242 34.49267578 C36.65120071 35.11872208 37.27041901 35.74476837 37.90840149 36.38978577 C40.63118367 39.37691071 40.5741238 41.77634546 40.66748047 45.72680664 C40.72355469 47.26594727 40.72355469 47.26594727 40.78076172 48.83618164 C39.80313825 56.04727588 33.60037551 61.02514387 28.66748047 65.92993164 C27.92796143 66.67136414 27.18844238 67.41279663 26.42651367 68.17669678 C24.86899371 69.7355726 23.30896572 71.29194615 21.74658203 72.84594727 C19.35589486 75.22589636 16.97609862 77.61636243 14.59716797 80.00805664 C13.07957992 81.52432359 11.56137185 83.03997028 10.04248047 84.55493164 C9.33196533 85.26949524 8.6214502 85.98405884 7.8894043 86.72027588 C7.22191162 87.38146423 6.55441895 88.04265259 5.86669922 88.72387695 C5.28364014 89.30534485 4.70058105 89.88681274 4.09985352 90.48590088 C-0.3007095 94.24595939 -4.26948198 94.40556739 -9.88720703 94.29321289 C-15.14750933 93.68969379 -18.26594942 91.39314891 -21.95751953 87.60180664 C-25.30179642 82.39959815 -25.87005174 78.34116227 -25.32470703 72.32055664 C-23.23906034 65.12867149 -17.07304321 60.16819797 -11.89501953 55.10180664 C-11.10224609 54.31805664 -10.30947266 53.53430664 -9.49267578 52.72680664 C-7.54793806 50.8054995 -5.598672 48.88904117 -3.64501953 46.97680664 C-6.98829315 42.94017943 -10.42040684 39.14340159 -14.23803711 35.55224609 C-20.00425776 30.0929446 -25.29408146 24.99288793 -25.78173828 16.63305664 C-25.43447973 10.68005287 -23.38283089 6.79667774 -19.21142578 2.50024414 C-13.68385901 -2.24524484 -6.69161242 -2.58856818 0 0 Z " fill="#5E90FC" transform="translate(294.64501953125,179.023193359375)"/>
<path d="M0 0 C2.9375 2.0625 2.9375 2.0625 5 5 C5.68212688 11.54310421 3.81393717 17.51125712 2.1484375 23.80078125 C1.85192291 24.94999557 1.55540833 26.0992099 1.24990845 27.2832489 C0.29953756 30.96177671 -0.66203769 34.63725022 -1.625 38.3125 C-2.87186608 43.09905516 -4.11356967 47.88692371 -5.3515625 52.67578125 C-5.81150101 54.45245178 -5.81150101 54.45245178 -6.2807312 56.26501465 C-8.93029946 66.57279907 -11.34394471 76.92746675 -13.69042969 87.30786133 C-14.91243295 92.68725471 -16.24105141 98.03516965 -17.625 103.375 C-17.80549896 104.09652756 -17.98599792 104.81805511 -18.17196655 105.56144714 C-19.30908573 109.71237328 -20.52247366 112.38857456 -24 115 C-27.84031465 115.54861638 -30.03897329 115.54211763 -33.4375 113.625 C-36.56011618 108.37900482 -35.31449458 101.7168385 -33.99365234 95.96289062 C-33.53660599 94.1908211 -33.06680435 92.42200446 -32.5859375 90.65625 C-32.33571838 89.69723282 -32.08549927 88.73821564 -31.82769775 87.75013733 C-31.29508633 85.71340778 -30.75712688 83.67807019 -30.21417236 81.64407349 C-28.80140296 76.3509406 -27.42715746 71.04777163 -26.046875 65.74609375 C-25.77650421 64.71234116 -25.50613342 63.67858856 -25.22756958 62.61351013 C-23.2299931 54.95667241 -21.35964761 47.28364745 -19.625 39.5625 C-19.18235687 37.61326644 -18.7396505 35.66404724 -18.296875 33.71484375 C-18.08740234 32.7904248 -17.87792969 31.86600586 -17.66210938 30.91357422 C-16.42672244 25.47732506 -15.16982135 20.04741957 -13.875 14.625 C-13.64506348 13.61252197 -13.41512695 12.60004395 -13.17822266 11.55688477 C-11.2640655 3.6597944 -9.21789889 -1.45545772 0 0 Z " fill="#9ABFFC" transform="translate(243,168)"/>
<path d="M0 0 C6.2715124 3.623273 11.29157053 9.20915611 13.53515625 16.11328125 C14.40450427 23.44208724 14.16352558 30.13497086 9.53515625 36.11328125 C3.77559556 42.07348238 -0.70464716 45.39279353 -9.15234375 45.55078125 C-16.8631001 45.41466198 -21.88145537 43.81276212 -27.2734375 38.24609375 C-32.2007672 32.17259863 -34.15355456 25.96458443 -33.46484375 18.11328125 C-31.62495573 10.7249809 -27.85656117 5.43036032 -21.52734375 1.23828125 C-14.97496372 -2.13652318 -6.93733204 -2.49568046 0 0 Z " fill="#5F91FC" transform="translate(83.46484375,54.88671875)"/>
<path d="M0 0 C7.22860004 4.25211767 11.90937685 8.5799516 14.1875 16.875 C15.47940279 24.5167269 13.53175019 30.54418315 9.1875 36.875 C4.70164124 41.92419917 0.22303062 44.5096903 -6.57421875 45.125 C-14.23982055 45.43277824 -19.79243382 44.57455976 -25.52734375 39.296875 C-30.86676075 33.50053967 -33.50007822 27.42071265 -33.22265625 19.49609375 C-32.08336178 12.21545954 -28.29996745 6.6101151 -22.65625 2.03125 C-15.70449437 -2.32832557 -7.71771215 -2.27735768 0 0 Z " fill="#5F91FC" transform="translate(153.8125,55.125)"/>
<path d="M0 0 C3.49628994 1.93216023 6.70268736 4.32335201 8.01879883 8.21728516 C8.38650066 10.38014814 8.43035279 12.27114608 8.32421875 14.4609375 C8.28627197 15.28698486 8.2483252 16.11303223 8.20922852 16.96411133 C8.16080811 17.86282959 8.1123877 18.76154785 8.0625 19.6875 C7.99083618 21.10421997 7.99083618 21.10421997 7.91772461 22.54956055 C7.74696025 25.80451168 7.56240753 29.0584653 7.375 32.3125 C7.3037793 33.57433105 7.23255859 34.83616211 7.15917969 36.13623047 C6.92898782 40.13324293 6.68556273 44.12905962 6.4375 48.125 C6.36297607 49.39327637 6.28845215 50.66155273 6.21166992 51.96826172 C5.14245382 68.41387574 5.14245382 68.41387574 1.8125 73.875 C-1.92553644 76.07948303 -5.40523561 76.20760154 -9.625 75.3125 C-12.81484744 72.78720411 -15.35563923 70.54119922 -15.85914612 66.37516785 C-15.91022018 65.58386978 -15.96129425 64.79257172 -16.01391602 63.97729492 C-16.07390274 63.07843063 -16.13388947 62.17956635 -16.19569397 61.25346375 C-16.25615402 60.2765004 -16.31661407 59.29953705 -16.37890625 58.29296875 C-16.44407944 57.28341629 -16.50925262 56.27386383 -16.57640076 55.23371887 C-16.71379062 53.08766994 -16.84898481 50.94147951 -16.98217773 48.79516602 C-17.18431224 45.55115951 -17.39532217 42.30782145 -17.60742188 39.06445312 C-19.46399115 10.11477729 -19.46399115 10.11477729 -16.9375 4.6875 C-11.74648277 -0.64381499 -7.33338194 -1.92064765 0 0 Z " fill="#FCFDFE" transform="translate(363.625,323.6875)"/>
<path d="M0 0 C7.13676816 5.20378052 13.37571468 12.05692107 19.65698242 18.25195312 C20.85039218 19.42359907 22.05003457 20.5889281 23.25561523 21.74804688 C25.0171758 23.44265242 26.75818302 25.15618823 28.49609375 26.875 C29.03455429 27.38562988 29.57301483 27.89625977 30.12779236 28.42236328 C32.74727485 31.05653875 34.00365053 33.01222354 35.07275391 36.59204102 C34.98405236 40.74702389 34.24258986 41.7540541 31.33984375 44.65234375 C30.09243408 45.92827393 30.09243408 45.92827393 28.81982422 47.22998047 C27.42401123 48.60114014 27.42401123 48.60114014 26 50 C25.00958196 51.00832586 24.02152146 52.01897197 23.03564453 53.03173828 C20.43646483 55.69305059 17.81264073 58.32819723 15.17700195 60.95336914 C13.53671843 62.5881958 11.90197386 64.2284298 10.26757812 65.86914062 C9.22167542 66.91438405 8.17546338 67.95931807 7.12890625 69.00390625 C6.64249161 69.49234512 6.15607697 69.980784 5.65492249 70.48402405 C2.29642263 73.81906593 0.94097816 74.9089376 -3.875 75.375 C-7.20416588 75.32042351 -7.83276417 75.13460445 -10.5625 72.9375 C-12.45819731 69.06368377 -12.01945413 67.15850477 -11 63 C-8.8828125 60.26513672 -8.8828125 60.26513672 -6.125 57.6796875 C-5.64047363 57.21313751 -5.15594727 56.74658752 -4.65673828 56.26589966 C-3.11818967 54.78702864 -1.56136508 53.32973292 0 51.875 C1.55945058 50.41144888 3.11384161 48.94367768 4.65673828 47.462677 C6.05448784 46.12230514 7.46826488 44.79870629 8.8828125 43.47607422 C11.15548336 40.81816049 11.98102123 39.48682119 12 36 C10.90626223 33.94796788 10.90626223 33.94796788 9.0859375 32.19140625 C8.4372168 31.50449707 7.78849609 30.81758789 7.12011719 30.10986328 C2.96091276 25.97077477 -1.25710414 21.89494921 -5.56640625 17.91210938 C-8.92324561 14.6717832 -10.78547289 12.75122936 -12.08984375 8.18359375 C-11.97631579 4.16075532 -10.84607683 2.76476035 -8 0 C-4.89303638 -1.55348181 -3.33143054 -0.98709053 0 0 Z " fill="#9ABEFC" transform="translate(291,188)"/>
<path d="M0 0 C2.46286294 0.68411269 3.43353331 1.5163975 4.96934509 3.54702759 C5.64751964 7.54825741 6.01513592 10.02691633 3.6736908 13.43032837 C3.10738953 14.04891724 2.54108826 14.6675061 1.95762634 15.30484009 C1.00678162 16.34402588 1.00678162 16.34402588 0.03672791 17.40420532 C-4.07719878 21.66825049 -8.36081323 25.7608675 -12.68495178 29.81069946 C-13.37524475 30.48036743 -14.06553772 31.1500354 -14.77674866 31.83999634 C-15.71538757 32.72981201 -15.71538757 32.72981201 -16.67298889 33.63760376 C-18.18597287 35.49936419 -18.18597287 35.49936419 -18.54847717 37.95132446 C-17.79227842 41.7419445 -15.8212307 43.18927629 -12.99940491 45.78530884 C-11.95085444 46.78035824 -10.90268929 47.77581379 -9.85487366 48.77163696 C-8.19574024 50.31913096 -6.53072528 51.85946316 -4.85731506 53.39151001 C-3.24126077 54.88018233 -1.65119893 56.39317137 -0.06190491 57.91030884 C0.90166931 58.80016479 1.86524353 59.69002075 2.85801697 60.60684204 C5.7493488 64.63324227 5.49732044 66.67357738 4.96934509 71.54702759 C3.40684509 74.04702759 3.40684509 74.04702759 0.96934509 75.54702759 C-2.28065491 76.23452759 -2.28065491 76.23452759 -6.03065491 75.54702759 C-13.30399635 70.54545758 -19.46863766 63.26183917 -25.68763733 57.02041626 C-27.48507727 55.21755418 -29.28788152 53.42017773 -31.09120178 51.62319946 C-32.23670538 50.47703611 -33.3818993 49.33056317 -34.52674866 48.18374634 C-35.0652092 47.64731003 -35.60366974 47.11087372 -36.15844727 46.55818176 C-40.7644906 41.92278593 -40.7644906 41.92278593 -41.53822327 37.92349243 C-40.75630661 32.72199779 -37.54678508 30.14691418 -33.90956116 26.52359009 C-33.17624069 25.77741425 -32.44292023 25.0312384 -31.68737793 24.26245117 C-30.13215432 22.69001061 -28.5690237 21.12535694 -26.99867249 19.56802368 C-24.60637409 17.18519444 -22.25676962 14.76527106 -19.90760803 12.33999634 C-18.38986302 10.81543066 -16.8697542 9.29321383 -15.34706116 7.77359009 C-14.64980423 7.04870392 -13.9525473 6.32381775 -13.23416138 5.57696533 C-8.9347779 1.39572425 -6.06335285 -0.25411093 0 0 Z " fill="#9BBFFC" transform="translate(173.03065490722656,187.45297241210938)"/>
<path d="M0 0 C5.30852948 3.13651312 9.71942862 7.69845733 11.73046875 13.61328125 C12.73419579 20.9739462 12.27854579 27.55856568 7.73046875 33.61328125 C2.54079333 38.80295667 -2.83658412 41.71216959 -10.20703125 42.05078125 C-16.20115832 41.83248224 -20.67942065 40.09403163 -25.02734375 35.9296875 C-30.38534489 29.91164274 -31.67088994 25.6702375 -31.5234375 17.58984375 C-31.00861648 11.55455735 -28.50398766 6.96536145 -24.26953125 2.61328125 C-17.50341471 -2.82902988 -7.95384991 -3.37349668 0 0 Z " fill="#5E90FC" transform="translate(368.26953125,419.38671875)"/>
<path d="M0 0 C3.26269829 1.29148474 4.5619688 2.48644618 6.8125 5.125 C8.96829727 10.34429865 8.66957766 15.09698981 6.8125 20.375 C4.64627282 23.51229454 3.58922531 24.65404051 0 26 C-4.42838991 26.60848106 -8.8563828 27.02944462 -12.9765625 25.05078125 C-16.18324064 22.54704487 -18.06550175 19.92489265 -19 16 C-19.46725516 11.71682772 -19.30749558 9.57106322 -17.25 5.75 C-12.11756837 -0.52297199 -7.84117542 -0.85052869 0 0 Z " fill="#FCFDFE" transform="translate(79,64)"/>
<path d="M0 0 C3.48579191 1.98927391 6.19581306 4.39162612 8 8 C8.62133059 12.30212445 8.97036679 16.33395487 6.73046875 20.1796875 C4.00255232 23.37884983 1.93763629 25.77837493 -2.390625 26.2734375 C-11.06433361 26.58152005 -11.06433361 26.58152005 -14.5625 23.8125 C-17.89710615 19.96487752 -18.82619386 17.59322292 -19.375 12.5625 C-18.85294271 7.60295574 -16.85810229 4.68152237 -13.19140625 1.36328125 C-9.10460699 -1.17913041 -4.62260182 -0.828026 0 0 Z " fill="#FCFDFE" transform="translate(150,64)"/>
<path d="M0 0 C3 2.5 3 2.5 5 5 C5.33 5.33 5.66 5.66 6 6 C6.54396172 10.81539887 6.72490311 14.75730895 4.25 19 C0.2888584 22.52101476 -2.50710075 23.50674653 -7.96484375 23.39453125 C-11.61727597 22.68647817 -13.43783808 20.62465368 -16 18 C-17.85110583 14.29778834 -17.46454795 10.04093083 -17 6 C-12.93298586 -0.97202423 -7.43816764 -2.10814377 0 0 Z " fill="#FBFCFE" transform="translate(364,428)"/>
</svg>
