<?xml version="1.0" encoding="UTF-8"?>
<svg version="1.1" xmlns="http://www.w3.org/2000/svg" width="512" height="512">
<path d="M0 0 C1.24716797 -0.03867187 1.24716797 -0.03867187 2.51953125 -0.078125 C13.2396766 1.24031162 19.58526087 12.3858556 25.75 20.25 C26.67780864 21.44735499 27.60490193 22.64526466 28.53125 23.84375 C31.46518494 27.63412259 34.53145916 31.31105781 37.62890625 34.96875 C40.92960079 39.79984175 41.71377892 44.47361326 41.1875 50.25 C40.22757026 52.72957682 39.25549295 54.87171119 38 57.1875 C37.65340332 57.84919189 37.30680664 58.51088379 36.94970703 59.19262695 C36.16048719 60.69119908 35.36410922 62.18601524 34.56201172 63.67773438 C33.00602313 66.58961639 31.49014828 69.5210066 29.97265625 72.453125 C28.83745877 74.61538269 27.70074222 76.77684355 26.5625 78.9375 C25.75582886 80.49682251 25.75582886 80.49682251 24.93286133 82.08764648 C21.45384338 88.59411745 18.50931084 93.80939639 11.1875 96.25 C5.21860719 96.78422104 0.25156302 96.78306722 -4.8125 93.25 C-8.99044421 89.094762 -10.94866146 85.47448166 -11.125 79.5625 C-11.10123308 74.16740945 -9.53871002 70.85047941 -6.8125 66.25 C-34.31705663 73.85764332 -58.03347769 88.67812538 -72.86328125 113.734375 C-86.52729351 138.02292348 -91.34017132 166.01505432 -83.8125 193.25 C-79.27362998 207.91834208 -72.39332157 220.22337011 -62.8125 232.25 C-62.2246875 232.99378906 -61.636875 233.73757813 -61.03125 234.50390625 C-45.6637696 253.02461966 -21.30122882 264.02488366 2.1875 267.25 C29.54391235 269.32231762 57.39919063 263.47897246 78.73828125 245.3203125 C82.00806247 242.41440903 85.1217508 239.36898155 88.1875 236.25 C88.94804687 235.48816406 89.70859375 234.72632813 90.4921875 233.94140625 C108.32778987 215.0301158 116.8077993 188.31667854 116.40234375 162.66796875 C115.57653125 139.66319196 107.42152675 117.54424751 92.1875 100.25 C91.15689453 99.00476563 91.15689453 99.00476563 90.10546875 97.734375 C83.70337498 90.21335673 76.25961321 84.51020399 67.97265625 79.18359375 C64.46521026 76.7485506 62.50388069 74.26570065 61.1875 70.25 C60.43558659 65.04031425 60.37324739 60.07826666 62.8125 55.3125 C66.02334741 51.17219676 69.23142975 48.90202342 74.1875 47.25 C87.09424693 46.25717331 97.02407639 55.97303814 106.29052734 63.85400391 C116.85339085 73.06735821 128.42087111 84.83922547 133.1875 98.25 C135.88589738 95.79691147 137.63343973 93.0831269 139.5625 90 C159.51404802 59.74259721 190.93764114 38.7326061 226.375 31.375 C245.78020979 27.80570646 265.92205414 27.96497326 285.1875 32.25 C285.88858887 32.4056543 286.58967773 32.56130859 287.31201172 32.72167969 C304.99335328 36.86012964 321.87137733 45.13487595 336.1875 56.25 C337.13753906 56.97960937 338.08757812 57.70921875 339.06640625 58.4609375 C367.49431402 80.9976655 385.61860564 113.2498557 390.1875 149.25 C392.35637094 192.02312658 382.15594589 227.54805693 353.9375 260.3125 C333.93817044 281.9921011 308.00157943 293.47003721 280.1875 301.25 C280.826875 302.178125 281.46625 303.10625 282.125 304.0625 C285.41795253 309.15160846 285.72501884 313.34743468 285.1875 319.25 C283.40197105 324.60658685 280.05932062 328.44528831 275.1875 331.25 C270.23221307 332.68170409 266.30992439 332.5812072 261.375 331.125 C255.9338144 327.92430259 252.08773136 323.10633886 248.0625 318.3125 C247.59384521 317.75473877 247.12519043 317.19697754 246.64233398 316.62231445 C226.42357191 292.42509778 226.42357191 292.42509778 227.1875 282.25 C228.14224764 279.59632075 229.12362338 277.25244885 230.375 274.75 C230.72232178 274.03803467 231.06964355 273.32606934 231.42749023 272.5925293 C234.70506008 265.99747901 238.19911615 259.51362241 241.75 253.0625 C242.27940186 252.0828125 242.80880371 251.103125 243.35424805 250.09375 C246.93766449 243.71735231 250.62414487 237.83223474 257.8125 235.33984375 C264.86830628 234.88725091 269.49592262 235.91729961 275 240.6875 C278.33250346 244.59128977 279.48891949 247.34936457 279.5625 252.5 C279.59085937 253.39203125 279.61921875 254.2840625 279.6484375 255.203125 C279.02013685 259.35629877 277.21490101 262.60871886 275.1875 266.25 C291.93857709 260.84461042 306.77585408 254.96427184 320.1875 243.25 C320.85910156 242.72148437 321.53070313 242.19296875 322.22265625 241.6484375 C340.17140719 227.1609765 352.24252088 202.21355306 354.97216797 179.56835938 C357.63435941 150.90603522 350.88455111 124.17596528 332.75 101.5 C331.24593496 99.7355674 329.72599233 97.98449571 328.1875 96.25 C327.56230469 95.54101562 326.93710937 94.83203125 326.29296875 94.1015625 C308.90901495 75.58307698 282.76424428 65.67320104 257.87109375 64.03125 C229.74705709 63.24912152 203.10974094 73.61409504 182.65576172 92.81298828 C163.01430696 112.03640077 152.55600796 138.32997481 151.9375 165.625 C151.94639763 190.86164195 161.07501705 215.60463991 178.1875 234.25 C179.02023437 235.16394531 179.85296875 236.07789063 180.7109375 237.01953125 C186.17057081 242.74334036 191.79390563 247.42317734 198.41674805 251.72680664 C202.42683484 254.40077226 204.94002164 256.97708332 207.1875 261.25 C208.16244392 266.75556567 207.93310521 271.70355956 205.5 276.75 C198.81178498 283.98050272 198.81178498 283.98050272 193.8671875 284.48828125 C179.31917401 284.87325654 169.46999872 275.15055722 159.30078125 265.6875 C149.82830379 256.61313597 141.5719809 246.76631049 135.1875 235.25 C135.1875 234.59 135.1875 233.93 135.1875 233.25 C134.5275 233.25 133.8675 233.25 133.1875 233.25 C132.93871094 233.94996094 132.68992188 234.64992188 132.43359375 235.37109375 C127.78831269 246.10329482 119.19689053 254.93255599 111.1875 263.25 C110.33285156 264.19939453 110.33285156 264.19939453 109.4609375 265.16796875 C87.10654524 289.2992486 51.90989767 301.48804944 19.87988281 303.12426758 C-16.26871005 304.37893618 -51.06433413 291.78620399 -77.66796875 267.27734375 C-80.09862924 264.97950623 -82.47899079 262.64657703 -84.8125 260.25 C-85.555 259.57517578 -85.555 259.57517578 -86.3125 258.88671875 C-103.0056205 243.31420125 -112.83629378 220.85695611 -118.8125 199.25 C-119.00457031 198.57420898 -119.19664063 197.89841797 -119.39453125 197.20214844 C-125.03564372 176.28481729 -123.73087597 149.87921189 -117.8125 129.25 C-117.63058105 128.58452148 -117.44866211 127.91904297 -117.26123047 127.23339844 C-108.10511238 94.38920003 -84.57724596 64.34259044 -55 47.5625 C-41.06825586 39.91304546 -27.27975389 34.89825445 -11.8125 31.25 C-12.1734375 30.71632813 -12.534375 30.18265625 -12.90625 29.6328125 C-16.53370144 23.80873769 -18.0371404 19.09891482 -16.8125 12.25 C-15.07065727 7.39507665 -12.0857087 4.0988058 -7.8125 1.25 C-4.95554042 0.29768014 -2.97772959 0.05488902 0 0 Z " fill="#99E6FC" transform="translate(121.8125,44.75)"/>
<path d="M0 0 C0.33 0 0.66 0 1 0 C1.22042969 1.670625 1.22042969 1.670625 1.4453125 3.375 C4.46603339 24.57152252 12.39481504 44.086533 27 60 C27.83273437 60.91394531 28.66546875 61.82789063 29.5234375 62.76953125 C34.98307081 68.49334036 40.60640563 73.17317734 47.22924805 77.47680664 C51.23933484 80.15077226 53.75252164 82.72708332 56 87 C56.97494392 92.50556567 56.74560521 97.45355956 54.3125 102.5 C47.62428498 109.73050272 47.62428498 109.73050272 42.6796875 110.23828125 C28.13167401 110.62325654 18.28249872 100.90055722 8.11328125 91.4375 C-0.01555891 83.65136831 -6.94440147 75.50440608 -13 66 C-13.39268066 65.41089844 -13.78536133 64.82179688 -14.18994141 64.21484375 C-15.90800045 61.49415512 -17.02675852 59.62375023 -16.88671875 56.359375 C-15.96846639 53.91609559 -14.96512466 51.59255108 -13.8125 49.25 C-6.86014403 34.09949018 -3.58034283 19.64914609 -1.38549805 3.13867188 C-1 1 -1 1 0 0 Z " fill="#D9B1EE" transform="translate(273,219)"/>
<path d="M0 0 C18.54798761 10.49673133 33.48611271 26.33452487 44.92578125 44.08984375 C45.52390625 44.93675781 46.12203125 45.78367188 46.73828125 46.65625 C48.2516694 49.75770006 48.02197484 50.84472439 46.92578125 54.08984375 C46.18631584 55.78470662 45.44249207 57.47820888 44.65307617 59.15039062 C37.92773236 73.40876565 33.68450857 88.42479779 32.34765625 104.1328125 C31.92578125 107.08984375 31.92578125 107.08984375 29.92578125 109.08984375 C29.76722656 107.96449219 29.60867187 106.83914062 29.4453125 105.6796875 C26.38713114 85.08943767 19.82104106 66.86427202 5.92578125 51.08984375 C5.23871094 50.2596875 4.55164063 49.42953125 3.84375 48.57421875 C-2.55834377 41.05320048 -10.00210554 35.35004774 -18.2890625 30.0234375 C-21.79650849 27.58839435 -23.75783806 25.1055444 -25.07421875 21.08984375 C-25.82613216 15.880158 -25.88847136 10.91811041 -23.44921875 6.15234375 C-17.47207966 -1.55501982 -9.05070532 -4.35477396 0 0 Z " fill="#D9B0EE" transform="translate(208.07421875,93.91015625)"/>
<path d="M0 0 C6.80027405 5.5888892 12.35527188 11.38697779 13.8125 20.3125 C14.80990192 31.65794682 13.8501969 40.65296125 6.5625 49.625 C-0.69478834 57.30097805 -8.47845714 60.33488613 -19 60.6875 C-28.91707861 60.49840316 -35.95557874 57.57359141 -43.140625 50.70703125 C-49.35408274 43.43823431 -52.75116016 34.89472276 -52.1875 25.3125 C-50.83087773 15.3554045 -47.22472297 7.24309491 -39.25 0.9375 C-27.33498862 -7.27112425 -12.1623199 -8.61693321 0 0 Z M-33.1875 18.3125 C-35.65559815 22.53692267 -36.54508797 26.08600235 -35.6875 30.9375 C-34.08962357 36.5885264 -31.3237537 39.85596339 -26.4375 43.1875 C-21.43205846 44.92015284 -16.98595301 45.42299722 -11.97265625 43.43359375 C-7.21818368 40.75090252 -3.82279297 37.60676098 -2.1875 32.3125 C-1.41395457 27.23610812 -1.55526154 23.53181704 -3.9375 18.9375 C-4.68 18.07125 -5.4225 17.205 -6.1875 16.3125 C-6.80625 15.57 -7.425 14.8275 -8.0625 14.0625 C-11.29289671 11.4021733 -14.51741836 10.52661303 -18.625 10 C-24.8123181 10.75455099 -29.33574643 13.49780803 -33.1875 18.3125 Z " fill="#838383" transform="translate(304.1875,406.6875)"/>
<path d="M0 0 C0.89074219 0.00257813 1.78148438 0.00515625 2.69921875 0.0078125 C3.61832031 0.03617187 4.53742188 0.06453125 5.484375 0.09375 C6.38800781 0.09117187 7.29164062 0.08859375 8.22265625 0.0859375 C16.83051861 0.20979163 24.56117385 2.16213189 31.375 7.5859375 C39.14221544 15.97322477 40.55932317 26.10121556 40.4453125 37.0234375 C39.89737136 46.2978487 36.41696417 54.80802576 29.5 61.1953125 C22.22309029 66.70129286 14.97007346 66.95813839 6.109375 66.96875 C5.02527344 66.99324219 3.94117187 67.01773438 2.82421875 67.04296875 C1.78136719 67.04683594 0.73851563 67.05070312 -0.3359375 67.0546875 C-1.75543701 67.06701416 -1.75543701 67.06701416 -3.20361328 67.07958984 C-6.58835281 66.43773434 -7.61770884 65.25406707 -9.765625 62.59375 C-10.2802887 59.98243713 -10.2802887 59.98243713 -10.29907227 56.98657227 C-10.3149086 55.86182999 -10.33074493 54.73708771 -10.34706116 53.57826233 C-10.34210129 52.36778732 -10.33714142 51.15731232 -10.33203125 49.91015625 C-10.33822983 48.66249985 -10.34442841 47.41484344 -10.35081482 46.12937927 C-10.35792055 43.49022513 -10.35667023 40.85259368 -10.34204102 38.21362305 C-10.32486283 34.83938035 -10.34833543 31.46684211 -10.38353062 28.09278965 C-10.41083209 24.8652252 -10.40076612 21.63780358 -10.39453125 18.41015625 C-10.41441856 16.59748009 -10.41441856 16.59748009 -10.43470764 14.7481842 C-10.34231528 6.43350301 -10.34231528 6.43350301 -7.52416992 2.32983398 C-4.67814734 0.53869613 -3.3158794 -0.0295222 0 0 Z M6.234375 16.59375 C6.234375 27.81375 6.234375 39.03375 6.234375 50.59375 C14.39811702 51.13073709 14.39811702 51.13073709 20.234375 47.59375 C24.48492247 41.6733446 24.84765696 35.70124985 24.234375 28.59375 C23.06294556 24.037234 20.90191082 20.57362285 17.234375 17.59375 C13.49651021 16.17211298 13.49651021 16.17211298 6.234375 16.59375 Z " fill="#838383" transform="translate(82.765625,400.40625)"/>
<path d="M0 0 C2.73224394 2.26576327 4.23015781 3.83333105 5.5625 7.125 C5.4382742 10.23064495 5.03099826 12.29823836 3.5 15 C0.34078528 16.83438274 -2.92870322 16.65789419 -6.4375 16.125 C-8.13264137 15.17406703 -9.80118108 14.17392238 -11.4375 13.125 C-15.33252364 12.31913304 -17.64711574 11.86153858 -21.4375 13.125 C-21.7675 14.115 -22.0975 15.105 -22.4375 16.125 C-21.90382813 16.29515625 -21.37015625 16.4653125 -20.8203125 16.640625 C-18.35036015 17.44400051 -15.89305628 18.27863223 -13.4375 19.125 C-12.58671875 19.41503906 -11.7359375 19.70507812 -10.859375 20.00390625 C-3.86337873 22.56838954 1.1143048 25.72911634 5.5 31.8125 C7.38267855 37.68202726 7.37474216 43.48521298 5.5625 49.375 C1.30871911 55.22394873 -3.37072654 59.27228786 -10.4375 61.125 C-19.72902851 62.13905007 -27.87802184 61.10912329 -35.57421875 55.59375 C-40.05882353 51.88235294 -40.05882353 51.88235294 -41.4375 49.125 C-41.79269903 45.28885043 -41.98474594 42.97870366 -39.875 39.6875 C-36.42163031 37.47380148 -34.48104356 37.50818827 -30.4375 38.125 C-28.47284133 39.25457788 -26.7669278 40.49736178 -25.015625 41.93359375 C-21.43939265 44.63347213 -17.73350594 44.35514318 -13.4375 44.125 C-12.4475 43.465 -11.4575 42.805 -10.4375 42.125 C-10.4375 41.135 -10.4375 40.145 -10.4375 39.125 C-10.97640869 38.91407715 -11.51531738 38.7031543 -12.07055664 38.48583984 C-14.55293965 37.50481017 -17.02626262 36.50262016 -19.5 35.5 C-20.34755859 35.16871094 -21.19511719 34.83742188 -22.06835938 34.49609375 C-28.98074358 31.66708709 -35.42446732 28.31019571 -38.4375 21.125 C-39.33222302 13.74873699 -39.01752834 8.06665838 -34.4375 2.125 C-24.93451566 -7.64949817 -11.05785039 -6.03155476 0 0 Z " fill="#838383" transform="translate(432.4375,405.875)"/>
<path d="M0 0 C0.845625 0.00257813 1.69125 0.00515625 2.5625 0.0078125 C3.43390625 0.03617187 4.3053125 0.06453125 5.203125 0.09375 C6.0590625 0.09117187 6.915 0.08859375 7.796875 0.0859375 C14.62311314 0.18936535 21.03669424 1.25436351 26.7578125 5.171875 C31.67312692 10.40509533 34.52765331 15.12991606 34.890625 22.46875 C34.66645112 28.61485047 32.96754507 33.81120457 28.8046875 38.41796875 C23.61431137 43.09837343 19.20310139 44.87396926 12.140625 44.71875 C11.07199219 44.70070313 10.00335938 44.68265625 8.90234375 44.6640625 C7.68998047 44.62925781 7.68998047 44.62925781 6.453125 44.59375 C6.50533203 46.23923828 6.50533203 46.23923828 6.55859375 47.91796875 C6.58674365 49.37238045 6.61404252 50.8268088 6.640625 52.28125 C6.66576172 53.00248047 6.69089844 53.72371094 6.71679688 54.46679688 C6.77965197 59.05521874 6.32016252 61.96309474 3.453125 65.59375 C0.36138748 67.13961876 -2.14117052 66.88734521 -5.546875 66.59375 C-8.24415782 64.54106776 -9.39985933 63.33968157 -10.0615387 59.98243713 C-10.06773727 58.99380173 -10.07393585 58.00516632 -10.08032227 56.98657227 C-10.0961586 55.86182999 -10.11199493 54.73708771 -10.12831116 53.57826233 C-10.12335129 52.36778732 -10.11839142 51.15731232 -10.11328125 49.91015625 C-10.11947983 48.66249985 -10.12567841 47.41484344 -10.13206482 46.12937927 C-10.13917055 43.49022513 -10.13792023 40.85259368 -10.12329102 38.21362305 C-10.10611283 34.83938035 -10.12958543 31.46684211 -10.16478062 28.09278965 C-10.19208209 24.8652252 -10.18201612 21.63780358 -10.17578125 18.41015625 C-10.19566856 16.59748009 -10.19566856 16.59748009 -10.21595764 14.7481842 C-10.12350779 6.42832873 -10.12350779 6.42832873 -7.29174805 2.32983398 C-4.52322138 0.5787895 -3.2234346 -0.03029285 0 0 Z M6.453125 16.59375 C6.453125 20.55375 6.453125 24.51375 6.453125 28.59375 C12.44551569 29.2502025 12.44551569 29.2502025 17.578125 26.90625 C18.70167244 23.93687462 18.59105613 22.55237094 17.453125 19.59375 C15.89558247 17.63317845 15.89558247 17.63317845 13.453125 16.59375 C9.78597651 16.34311268 9.78597651 16.34311268 6.453125 16.59375 Z " fill="#838383" transform="translate(343.546875,400.40625)"/>
<path d="M0 0 C1.134375 -0.00515625 2.26875 -0.0103125 3.4375 -0.015625 C4.613125 -0.00015625 5.78875 0.0153125 7 0.03125 C8.7634375 0.00804687 8.7634375 0.00804687 10.5625 -0.015625 C11.696875 -0.01046875 12.83125 -0.0053125 14 0 C15.546875 0.00676758 15.546875 0.00676758 17.125 0.01367188 C20.71705145 0.66033875 22.40006657 2.01720723 25 4.53125 C26.46296477 8.00579134 26.11275119 9.25205658 24.6875 12.78125 C23 15.53125 23 15.53125 21 16.53125 C18.28239892 16.60306821 15.59140612 16.62424506 12.875 16.59375 C12.12089844 16.58923828 11.36679688 16.58472656 10.58984375 16.58007812 C8.72652873 16.56828499 6.86325445 16.55034942 5 16.53125 C5 19.50125 5 22.47125 5 25.53125 C5.88042969 25.49644531 6.76085937 25.46164062 7.66796875 25.42578125 C8.82941406 25.39871094 9.99085938 25.37164062 11.1875 25.34375 C12.33605469 25.30894531 13.48460937 25.27414062 14.66796875 25.23828125 C18.3044035 25.55801467 20.1105914 26.34966727 23 28.53125 C24.42662219 31.38449437 24.31033868 33.36579549 24 36.53125 C22.46484375 39.2109375 22.46484375 39.2109375 20 41.53125 C17.18760674 41.90523847 15.02407845 42.01418015 12.25 41.84375 C11.55261719 41.82119141 10.85523438 41.79863281 10.13671875 41.77539062 C8.42355065 41.71672048 6.71149377 41.62704256 5 41.53125 C5 44.50125 5 47.47125 5 50.53125 C6.02480469 50.48484375 7.04960937 50.4384375 8.10546875 50.390625 C9.46611656 50.35308989 10.82679605 50.31669159 12.1875 50.28125 C12.86103516 50.24773437 13.53457031 50.21421875 14.22851562 50.1796875 C17.87436737 50.10854893 19.82507623 50.41961641 22.92578125 52.3984375 C25.37308097 54.91486999 26 56.02669365 26 59.53125 C23.72289157 65.16980422 23.72289157 65.16980422 21 66.53125 C16.38068733 66.83032141 11.75284765 66.80935074 7.125 66.84375 C5.83207031 66.87275391 4.53914062 66.90175781 3.20703125 66.93164062 C1.34498047 66.94420898 1.34498047 66.94420898 -0.5546875 66.95703125 C-1.69405762 66.97161377 -2.83342773 66.98619629 -4.00732422 67.0012207 C-7.7368482 66.41553514 -8.67883188 65.45776843 -11 62.53125 C-11.5146637 59.87524414 -11.5146637 59.87524414 -11.53344727 56.81640625 C-11.5492836 55.66841553 -11.56511993 54.5204248 -11.58143616 53.33764648 C-11.57647629 52.10216064 -11.57151642 50.8666748 -11.56640625 49.59375 C-11.57260483 48.32152588 -11.57880341 47.04930176 -11.58518982 45.73852539 C-11.59229538 43.0481074 -11.59104475 40.35918326 -11.57641602 37.66894531 C-11.55922027 34.22511568 -11.58273269 30.7829533 -11.61790562 27.33930969 C-11.64517009 24.04910299 -11.63514417 20.75903782 -11.62890625 17.46875 C-11.64216446 16.23326416 -11.65542267 14.99777832 -11.66908264 13.72485352 C-11.65654953 12.57686279 -11.64401642 11.42887207 -11.63110352 10.24609375 C-11.63014175 9.23667725 -11.62917999 8.22726074 -11.62818909 7.18725586 C-10.23318955 1.28914806 -5.4749383 0.02395286 0 0 Z " fill="#838383" transform="translate(150,400.46875)"/>
<path d="M0 0 C3.51206182 2.5294124 4.49786419 6.45202395 5.875 10.375 C6.35064426 11.69564357 6.82724294 13.01594371 7.3046875 14.3359375 C7.68512207 15.39506348 7.68512207 15.39506348 8.07324219 16.47558594 C9.9822116 21.67546575 11.99961894 26.83474807 14 32 C14.28721924 31.13721436 14.57443848 30.27442871 14.87036133 29.38549805 C15.94236782 26.17941456 17.02229152 22.97622885 18.10766602 19.7746582 C18.57537861 18.38966513 19.0399292 17.0036 19.5012207 15.61645508 C20.16565563 13.62028945 20.84144689 11.6282828 21.51953125 9.63671875 C21.92276611 8.43748779 22.32600098 7.23825684 22.74145508 6.00268555 C23.90363107 3.22992075 24.62566182 1.77514571 27 0 C30.68996009 -1.12303133 32.30988722 -1.33738847 35.8125 0.375 C38 2 38 2 39 3 C39.51784283 10.40042777 38.03690711 16.22626463 35.67578125 23.203125 C35.3325029 24.24394226 34.98922455 25.28475952 34.63554382 26.3571167 C33.90995398 28.54434313 33.17755742 30.72932207 32.4387207 32.91210938 C31.31343894 36.24721717 30.21900604 39.59138505 29.12695312 42.9375 C28.41589541 45.06832086 27.70306486 47.1985511 26.98828125 49.328125 C26.66410721 50.32402649 26.33993317 51.31992798 26.00593567 52.3460083 C24.14484366 57.76470594 22.54488808 61.41985732 18 65 C15.9375 65.6640625 15.9375 65.6640625 14 65.625 C13.0409375 65.64433594 13.0409375 65.64433594 12.0625 65.6640625 C8.85077032 64.62998287 6.95685126 62.65302418 5 60 C3.30131618 56.44679976 2.05272374 52.76701926 0.79296875 49.0390625 C0.42271072 47.97513275 0.0524527 46.911203 -0.32902527 45.81503296 C-1.10651835 43.56986985 -1.87682408 41.3222065 -2.64038086 39.07226562 C-3.8082109 35.63761448 -5.00283198 32.21317181 -6.20117188 28.7890625 C-6.95474171 26.60211891 -7.70674761 24.41463567 -8.45703125 22.2265625 C-8.81320023 21.20656158 -9.1693692 20.18656067 -9.53633118 19.13565063 C-11.29707424 13.89846072 -12.5698979 9.53392412 -12 4 C-9.06642758 -1.30836915 -5.57456664 -1.39364166 0 0 Z " fill="#848484" transform="translate(203,402)"/>
<path d="M0 0 C0.33 0 0.66 0 1 0 C1.22042969 1.670625 1.22042969 1.670625 1.4453125 3.375 C3.77004641 19.68775327 8.83160943 38.26045356 19.80078125 51.109375 C21 53 21 53 20.9140625 55.27734375 C19.70820558 58.86914833 18.09999629 62.19940088 16.375 65.5625 C15.84519531 66.60954102 15.84519531 66.60954102 15.3046875 67.67773438 C12.10777674 73.92883666 8.63936047 79.99505522 5 86 C-2.75272966 82.64561807 -7.46232225 74.60275659 -11.9375 67.75 C-12.32703857 67.15993164 -12.71657715 66.56986328 -13.11791992 65.96191406 C-15.19526231 62.69031942 -16.862023 59.91352938 -17 56 C-15.99609375 53.265625 -15.99609375 53.265625 -14.4375 50.25 C-7.0424697 34.87657274 -3.63584109 20.0666255 -1.38549805 3.13867188 C-1 1 -1 1 0 0 Z " fill="#CB98E7" transform="translate(273,219)"/>
<path d="M0 0 C8.78612724 1.75341368 13.32105996 9.95730752 17.984375 16.87890625 C18.64953125 17.90886719 19.3146875 18.93882812 20 20 C20.60328125 20.85464844 21.2065625 21.70929688 21.828125 22.58984375 C23.32793028 25.67444327 23.08989792 26.77351805 22 30 C21.26053459 31.69486287 20.51671082 33.38836513 19.72729492 35.06054688 C13.00195111 49.3189219 8.75872732 64.33495404 7.421875 80.04296875 C7 83 7 83 5 85 C4.84144531 83.87464844 4.68289062 82.74929687 4.51953125 81.58984375 C2.08394922 65.1914564 -2.02543858 47.17420669 -13.30859375 34.3828125 C-15 32 -15 32 -14.98046875 29.69921875 C-13.62420324 25.96543602 -12.02884779 22.39363433 -10.3125 18.8125 C-9.95671875 18.06234619 -9.6009375 17.31219238 -9.234375 16.53930664 C-6.48280816 10.81858715 -3.45678567 5.32921124 0 0 Z " fill="#CB97E7" transform="translate(233,118)"/>
</svg>
