<?xml version="1.0" encoding="UTF-8"?>
<svg version="1.1" xmlns="http://www.w3.org/2000/svg" width="512" height="512">
<path d="M0 0 C1.08303067 -0.00307895 1.08303067 -0.00307895 2.18794075 -0.0062201 C4.6140719 -0.01188707 7.04014623 -0.01043323 9.46628284 -0.00901413 C11.22063681 -0.01159794 12.97499019 -0.01461114 14.72934276 -0.01801753 C19.55581327 -0.02608892 24.3822689 -0.02787718 29.20874536 -0.028615 C34.41203706 -0.03046531 39.61532104 -0.03801252 44.81860828 -0.04475021 C56.19878494 -0.05833497 67.57895808 -0.06435845 78.95914149 -0.06876087 C86.06417176 -0.07152301 93.16920066 -0.0757603 100.27423 -0.08026505 C119.94373171 -0.09245781 139.61323233 -0.10275717 159.28273773 -0.10614014 C160.5417489 -0.1063597 161.80076007 -0.10657927 163.09792309 -0.10680549 C164.35995584 -0.10702377 165.62198859 -0.10724204 166.92226475 -0.10746694 C169.4796468 -0.1079104 172.03702885 -0.10835697 174.5944109 -0.10880661 C176.49723782 -0.10913875 176.49723782 -0.10913875 178.43850569 -0.10947761 C198.99500267 -0.11342588 219.5514642 -0.13088078 240.10794749 -0.15416613 C261.21000705 -0.17787666 282.31204883 -0.19034185 303.41412193 -0.19150805 C315.26335315 -0.19242497 327.1125382 -0.19818156 338.96175671 -0.21632767 C349.05138057 -0.23172459 359.14094399 -0.2368515 369.23057737 -0.22858956 C374.37809886 -0.22468166 379.52549858 -0.22561961 384.6730051 -0.23964691 C389.38766088 -0.25237714 394.10210329 -0.25119595 398.81675873 -0.2390562 C400.52000811 -0.23709769 402.22327256 -0.24018473 403.92650076 -0.24890056 C415.89924472 -0.30627639 426.16935128 0.12431836 435.71672535 8.10017776 C440.86830747 13.2222097 445.3984504 19.79129321 446.01269376 27.17107266 C446.01480704 28.88706173 446.01480704 28.88706173 446.01696301 30.63771725 C446.02046908 31.28038413 446.02397515 31.92305101 446.02758747 32.58519265 C446.03690087 34.74145298 446.0319784 36.89744319 446.02711964 39.05371475 C446.03085595 40.61420468 446.03545739 42.17469273 446.04085028 43.73517781 C446.05309837 48.02579284 446.05281768 52.31632999 446.05046153 56.60695851 C446.05005381 61.23356591 446.06108828 65.86014819 446.07057667 70.48674393 C446.08719818 79.55265614 446.09268676 88.61854235 446.09380142 97.68446853 C446.09475147 105.05411924 446.09885959 112.42376136 446.10520267 119.79340935 C446.12281918 140.6861396 446.13204105 161.57884929 446.13054173 182.47158702 C446.13046181 183.5982041 446.1303819 184.72482117 446.13029957 185.88557816 C446.13021781 187.01357054 446.13013605 188.14156293 446.13005181 189.3037369 C446.12923906 207.58080236 446.1483727 225.85778537 446.1765763 244.13482698 C446.2053047 262.90002537 446.21911658 281.66518355 446.21738875 300.43040448 C446.21672477 310.96620464 446.22222025 321.5019184 446.24374485 332.03769875 C446.26195618 341.00928114 446.26630445 349.98073798 446.252726 358.95233085 C446.24619578 363.52876953 446.24608106 368.10496736 446.2634325 372.68138313 C446.27916616 376.87429585 446.27629669 381.06677679 446.25886424 385.259679 C446.25579495 386.77315833 446.25942409 388.2866699 446.27058439 389.8001112 C446.35037438 401.39197861 444.95236308 410.68122189 436.74797535 419.37752151 C429.44397272 425.82054152 420.92444454 428.37939842 411.27329254 428.38590336 C410.54896441 428.38910984 409.82463627 428.39231631 409.0783588 428.39561996 C406.65635659 428.40390735 404.23460248 428.39800014 401.81259632 428.39212418 C400.05651525 428.39514544 398.3004355 428.39903479 396.54435807 428.40371674 C391.72238654 428.41400881 386.90048926 428.41181183 382.0785116 428.40753615 C376.87661426 428.40507111 371.6747349 428.41408036 366.47284412 428.42157364 C356.2829048 428.43432909 346.09299182 428.43611325 335.90304586 428.43377338 C327.62049549 428.43199091 319.33795312 428.43373833 311.05540371 428.43799782 C309.87693548 428.43859301 308.69846725 428.4391882 307.48428786 428.43980142 C305.09027391 428.44101316 302.69625996 428.4422273 300.30224601 428.4434438 C277.84596958 428.45432271 255.38970817 428.45215525 232.93343089 428.44605895 C212.38999155 428.44089015 191.84659964 428.45214365 171.30316969 428.47115717 C150.21008383 428.49052977 129.11702042 428.49879254 108.0239256 428.49503392 C96.18143485 428.49312091 84.33898446 428.4956191 72.49650097 428.50974846 C62.41424069 428.52165588 52.3320456 428.52307433 42.24978443 428.51095829 C37.10630275 428.505065 31.96294036 428.50398268 26.81946659 428.51596069 C22.10858622 428.52680373 17.39792497 428.52373486 12.68705491 428.50969901 C10.98521334 428.50704773 9.28335469 428.50943215 7.58152988 428.51743487 C-4.38592778 428.56979326 -14.65461585 428.13465025 -24.19733715 420.16267776 C-29.35175277 415.03782858 -33.87639178 408.47009322 -34.4956069 401.08767217 C-34.49809989 399.94172584 -34.50059289 398.79577951 -34.50316143 397.61510754 C-34.5072667 396.97135147 -34.51137197 396.32759541 -34.51560163 395.66433159 C-34.52692238 393.50435564 -34.52402966 391.34463552 -34.52118969 389.18463516 C-34.52635811 387.62144508 -34.53238474 386.05825764 -34.53919649 384.49507385 C-34.55533034 380.19692657 -34.55891529 375.8988461 -34.56039143 371.60067213 C-34.56409368 366.96584048 -34.57918907 362.33104346 -34.59266186 357.69623184 C-34.61982634 347.55968665 -34.63187792 337.42315729 -34.64068317 327.28658175 C-34.64620904 320.95609817 -34.654684 314.62562068 -34.66369152 308.29514122 C-34.68807781 290.76508944 -34.70867545 273.23504255 -34.7154417 255.70497417 C-34.71588084 254.58297625 -34.71631997 253.46097832 -34.71677241 252.30498046 C-34.71720896 251.18030624 -34.71764552 250.05563201 -34.7180953 248.89687675 C-34.71898223 246.61788269 -34.71987536 244.33888862 -34.72077465 242.05989456 C-34.72121751 240.92943618 -34.72166037 239.7989778 -34.72211665 238.63426311 C-34.73001013 220.32294471 -34.76491008 202.01178561 -34.81149369 183.70052873 C-34.85894335 164.8968998 -34.88384647 146.09335076 -34.88617754 127.28966099 C-34.88800993 116.73362336 -34.89948607 106.17779323 -34.93581676 95.62181282 C-34.96664959 86.63158484 -34.97684182 77.64162846 -34.96034056 68.65135764 C-34.95253783 64.06645325 -34.95433456 59.48209554 -34.98245525 54.89725876 C-35.00799789 50.69420111 -35.00548423 46.49209905 -34.98127383 42.28904212 C-34.9773707 40.77417407 -34.98346707 39.25923757 -35.00096256 37.74446552 C-35.11564752 27.1375164 -33.58106947 18.05445378 -26.23072577 9.90275854 C-18.50097443 2.56288473 -10.51001694 0.0101811 0 0 Z " fill="#EDD2F5" transform="translate(50.24030590057373,41.86857223510742)"/>
<path d="M0 0 C1.08303067 -0.00307895 1.08303067 -0.00307895 2.18794075 -0.0062201 C4.6140719 -0.01188707 7.04014623 -0.01043323 9.46628284 -0.00901413 C11.22063681 -0.01159794 12.97499019 -0.01461114 14.72934276 -0.01801753 C19.55581327 -0.02608892 24.3822689 -0.02787718 29.20874536 -0.028615 C34.41203706 -0.03046531 39.61532104 -0.03801252 44.81860828 -0.04475021 C56.19878494 -0.05833497 67.57895808 -0.06435845 78.95914149 -0.06876087 C86.06417176 -0.07152301 93.16920066 -0.0757603 100.27423 -0.08026505 C119.94373171 -0.09245781 139.61323233 -0.10275717 159.28273773 -0.10614014 C160.5417489 -0.1063597 161.80076007 -0.10657927 163.09792309 -0.10680549 C164.35995584 -0.10702377 165.62198859 -0.10724204 166.92226475 -0.10746694 C169.4796468 -0.1079104 172.03702885 -0.10835697 174.5944109 -0.10880661 C176.49723782 -0.10913875 176.49723782 -0.10913875 178.43850569 -0.10947761 C198.99500267 -0.11342588 219.5514642 -0.13088078 240.10794749 -0.15416613 C261.21000705 -0.17787666 282.31204883 -0.19034185 303.41412193 -0.19150805 C315.26335315 -0.19242497 327.1125382 -0.19818156 338.96175671 -0.21632767 C349.05138057 -0.23172459 359.14094399 -0.2368515 369.23057737 -0.22858956 C374.37809886 -0.22468166 379.52549858 -0.22561961 384.6730051 -0.23964691 C389.38766088 -0.25237714 394.10210329 -0.25119595 398.81675873 -0.2390562 C400.52000811 -0.23709769 402.22327256 -0.24018473 403.92650076 -0.24890056 C415.89924472 -0.30627639 426.16935128 0.12431836 435.71672535 8.10017776 C440.45649577 12.81276021 443.29273523 17.9640306 445.7596941 24.13142776 C445.7596941 53.50142776 445.7596941 82.87142776 445.7596941 113.13142776 C287.3596941 113.13142776 128.9596941 113.13142776 -34.2403059 113.13142776 C-34.2403059 18.32497615 -34.2403059 18.32497615 -24.3653059 8.13142776 C-16.65582069 2.08766307 -9.76564598 0.00946003 0 0 Z " fill="#CD81F0" transform="translate(50.24030590057373,41.86857223510742)"/>
<path d="M0 0 C1.19603851 0.39361725 2.39207703 0.7872345 3.62435913 1.19277954 C6.88466505 2.2663271 10.14172694 3.34940083 13.39802384 4.43503976 C16.12114283 5.34215043 18.84566426 6.24500911 21.57013911 7.14803761 C27.99526666 9.27793727 34.41760691 11.41609175 40.83837891 13.55908203 C47.45872054 15.76848238 54.08410436 17.96223772 60.71205121 20.14870578 C66.41140958 22.02955287 72.10724811 23.92079115 77.80043238 25.82024449 C81.19714747 26.95334194 84.59510903 28.08227069 87.99662209 29.20089149 C91.78410119 30.44695134 95.56415391 31.71459255 99.34375 32.984375 C101.03392998 33.5355172 101.03392998 33.5355172 102.758255 34.09779358 C103.78575867 34.44682739 104.81326233 34.79586121 105.87190247 35.1554718 C106.76579083 35.45283391 107.6596792 35.75019602 108.5806551 36.0565691 C111.26019375 37.39142703 112.36146028 38.60417138 113.84838867 41.1862793 C114.09838867 44.6862793 114.09838867 44.6862793 112.84838867 48.1862793 C106.2015066 52.54522285 97.39124426 54.47621592 89.91088867 56.9362793 C88.68047852 57.34749023 87.45006836 57.75870117 86.18237305 58.18237305 C77.11576564 61.1862793 77.11576564 61.1862793 74.84838867 61.1862793 C74.84838867 61.8462793 74.84838867 62.5062793 74.84838867 63.1862793 C75.860625 63.30704834 76.87286133 63.42781738 77.91577148 63.55224609 C83.69314657 64.48369898 89.08753762 66.4143671 94.60180664 68.31445312 C96.60264851 69.00023935 98.60978258 69.66478566 100.61791992 70.32885742 C101.89830512 70.76572898 103.17826914 71.2038373 104.45776367 71.64331055 C105.61244141 72.03494385 106.76711914 72.42657715 107.95678711 72.83007812 C111.0254839 74.26933941 112.24753108 75.2321158 113.84838867 78.1862793 C114.09838867 81.6862793 114.09838867 81.6862793 112.84838867 85.1862793 C106.2015066 89.54522285 97.39124426 91.47621592 89.91088867 93.9362793 C88.68047852 94.34749023 87.45006836 94.75870117 86.18237305 95.18237305 C77.11576564 98.1862793 77.11576564 98.1862793 74.84838867 98.1862793 C74.84838867 98.8462793 74.84838867 99.5062793 74.84838867 100.1862793 C76.0472168 100.42475586 77.24604492 100.66323242 78.48120117 100.90893555 C85.03505243 102.36834191 91.35832077 104.50551208 97.72338867 106.6237793 C98.94541992 107.01887695 100.16745117 107.41397461 101.42651367 107.82104492 C102.5944043 108.2084082 103.76229492 108.59577148 104.96557617 108.99487305 C106.02373535 109.34348389 107.08189453 109.69209473 108.17211914 110.05126953 C110.77562758 111.15542121 112.16503876 111.9412221 113.84838867 114.1862793 C114.28588867 117.1237793 114.28588867 117.1237793 113.84838867 120.1862793 C111.22502836 123.32612229 108.91147165 124.83570846 105.06690979 126.14788818 C104.10730347 126.48153885 103.14769714 126.81518951 102.15901184 127.15895081 C101.11234848 127.5092485 100.06568512 127.8595462 98.98730469 128.22045898 C97.87928497 128.60143234 96.77126526 128.9824057 95.62966919 129.37492371 C92.59251273 130.41532599 89.55190791 131.44462812 86.508672 132.46708965 C84.59874658 133.10934751 82.689868 133.75462504 80.78129387 134.40088654 C74.09603825 136.66397417 67.406196 138.91293476 60.71240234 141.15063477 C54.51981491 143.22124992 48.33885402 145.32413409 42.1624456 147.44246554 C36.82866245 149.26995611 31.48678471 151.07231155 26.13842148 152.85667539 C22.95821663 153.91821792 19.78368463 154.99192601 16.61438179 156.08589935 C-10.57750452 165.44672545 -27.94495607 164.3604657 -54.96411133 154.97924805 C-57.47719431 154.13185533 -59.99097373 153.28689094 -62.50585938 152.44490051 C-67.73355017 150.68926974 -72.95303817 148.9110109 -78.16723633 147.11572266 C-85.51174766 144.58701594 -92.87064022 142.10239573 -100.23264503 139.6251682 C-105.97944996 137.6895089 -111.7219007 135.74098662 -117.46411133 133.79174805 C-118.68127838 133.37897299 -119.89844543 132.96619793 -121.15249634 132.54091454 C-124.58815771 131.37242265 -128.02075895 130.19539741 -131.45239258 129.01513672 C-132.46740845 128.67059448 -133.48242432 128.32605225 -134.52819824 127.97106934 C-146.29557876 123.89834444 -146.29557876 123.89834444 -148.15161133 120.1862793 C-148.52661133 117.3112793 -148.52661133 117.3112793 -148.15161133 114.1862793 C-144.43582201 110.50914521 -140.33324625 108.93437375 -135.44458008 107.3894043 C-134.71918533 107.15090759 -133.99379059 106.91241089 -133.24641418 106.66668701 C-130.94709786 105.91322525 -128.64333648 105.17457529 -126.33911133 104.4362793 C-124.77173639 103.92553433 -123.20467523 103.41382535 -121.63793945 102.90112305 C-117.81270353 101.65165946 -113.98341386 100.41544975 -110.15161133 99.1862793 C-111.16586182 98.8332373 -112.1801123 98.48019531 -113.22509766 98.11645508 C-116.9892888 96.80495813 -120.75151917 95.48791427 -124.51318359 94.16918945 C-126.14123471 93.5993148 -127.76981302 93.03094391 -129.39892578 92.46411133 C-131.74106979 91.64889388 -134.08126194 90.82827961 -136.42114258 90.0065918 C-137.51347954 89.62834763 -137.51347954 89.62834763 -138.62788391 89.24246216 C-141.77434022 88.13227687 -144.35912797 87.04793487 -147.15161133 85.1862793 C-147.83911133 83.3815918 -147.83911133 83.3815918 -148.15161133 81.3112793 C-148.27536133 80.63323242 -148.39911133 79.95518555 -148.52661133 79.2565918 C-147.92982061 75.96180969 -145.83381852 75.05997427 -143.15161133 73.1862793 C-139.89355469 71.81420898 -139.89355469 71.81420898 -136.24145508 70.6081543 C-135.59213516 70.39185364 -134.94281525 70.17555298 -134.27381897 69.95269775 C-132.90978508 69.50079778 -131.54405487 69.05398904 -130.17675781 68.61206055 C-128.08782535 67.93586302 -126.00535072 67.24210987 -123.9230957 66.5456543 C-113.72698626 63.1862793 -113.72698626 63.1862793 -109.15161133 63.1862793 C-109.15161133 62.5262793 -109.15161133 61.8662793 -109.15161133 61.1862793 C-110.36204102 60.94651367 -111.5724707 60.70674805 -112.81958008 60.4597168 C-119.18724562 59.04080092 -125.30142605 56.93132617 -131.46411133 54.8112793 C-132.63006836 54.42456055 -133.79602539 54.0378418 -134.99731445 53.6394043 C-136.67664063 53.06319336 -136.67664063 53.06319336 -138.38989258 52.4753418 C-139.40092041 52.13196777 -140.41194824 51.78859375 -141.45361328 51.43481445 C-144.40744909 50.06788691 -146.09528464 48.69607082 -148.15161133 46.1862793 C-148.71411133 43.1862793 -148.71411133 43.1862793 -148.15161133 40.1862793 C-143.67648779 35.41071982 -137.45809052 33.95118377 -131.41992188 31.95263672 C-130.23235291 31.55054993 -129.04478394 31.14846313 -127.82122803 30.73419189 C-124.57369591 29.63756496 -121.32328518 28.55051239 -118.0708158 27.46867919 C-115.35099975 26.5628287 -112.63327202 25.65079955 -109.91547805 24.73890382 C-103.50109233 22.58698297 -97.08301598 20.44634797 -90.66259766 18.3125 C-84.05022525 16.11461573 -77.44472528 13.89695059 -70.84223908 11.66956252 C-65.16278983 9.75440656 -59.4791449 7.85210459 -53.7920211 5.95986062 C-50.40003711 4.83109305 -47.00986725 3.69750385 -43.62372398 2.55132103 C-39.84575578 1.27319749 -36.05919665 0.02191827 -32.27148438 -1.22705078 C-31.15796097 -1.60774216 -30.04443756 -1.98843353 -28.89717102 -2.38066101 C-17.93298235 -5.9465922 -10.63231959 -3.55628444 0 0 Z " fill="#8036EA" transform="translate(273.151611328125,232.813720703125)"/>
<path d="M0 0 C1.19603851 0.39361725 2.39207703 0.7872345 3.62435913 1.19277954 C6.88466505 2.2663271 10.14172694 3.34940083 13.39802384 4.43503976 C16.12114283 5.34215043 18.84566426 6.24500911 21.57013911 7.14803761 C27.99526666 9.27793727 34.41760691 11.41609175 40.83837891 13.55908203 C47.45872054 15.76848238 54.08410436 17.96223772 60.71205121 20.14870578 C66.41140958 22.02955287 72.10724811 23.92079115 77.80043238 25.82024449 C81.19714747 26.95334194 84.59510903 28.08227069 87.99662209 29.20089149 C91.78410119 30.44695134 95.56415391 31.71459255 99.34375 32.984375 C101.03392998 33.5355172 101.03392998 33.5355172 102.758255 34.09779358 C103.78575867 34.44682739 104.81326233 34.79586121 105.87190247 35.1554718 C106.76579083 35.45283391 107.6596792 35.75019602 108.5806551 36.0565691 C111.26019375 37.39142703 112.36146028 38.60417138 113.84838867 41.1862793 C114.09838867 44.6862793 114.09838867 44.6862793 112.84838867 48.1862793 C111.06079102 49.29898071 111.06079102 49.29898071 108.80932617 50.2199707 C107.99463867 50.55506653 107.17995117 50.89016235 106.34057617 51.2354126 C102.66358822 52.63832686 98.96604764 53.93103739 95.22338867 55.1472168 C94.01127464 55.54776527 94.01127464 55.54776527 92.77467346 55.95640564 C91.03817217 56.52988216 89.30101588 57.10137853 87.56326294 57.67105103 C82.87248006 59.20919501 78.18682143 60.76281182 73.50073242 62.31518555 C72.5361058 62.63438461 71.57147919 62.95358368 70.57762146 63.28245544 C60.49961576 66.62253957 50.45401128 70.055521 40.41088867 73.4987793 C28.64920858 77.52612122 16.88602199 81.54793008 5.09838867 85.4987793 C3.4655896 86.04949097 3.4655896 86.04949097 1.79980469 86.61132812 C0.81036865 86.94156982 -0.17906738 87.27181152 -1.19848633 87.61206055 C-2.0425 87.89476807 -2.88651367 88.17747559 -3.75610352 88.46875 C-19.70701082 93.24654419 -34.63007138 87.1817048 -49.73754883 82.1003418 C-51.23269499 81.60116157 -52.72796785 81.10236071 -54.22335815 80.60391235 C-58.18020153 79.28358789 -62.13508322 77.95748895 -66.08937073 76.62953186 C-68.53261831 75.80926258 -70.97626146 74.990183 -73.42004395 74.17150879 C-80.6757374 71.74076209 -87.93061294 69.30761399 -95.1836853 66.8690567 C-102.21567501 64.50493166 -109.25109718 62.15183713 -116.29299927 59.81735229 C-119.87940946 58.62691642 -123.46273819 57.42745412 -127.04498291 56.22454834 C-128.6022071 55.70367215 -130.1607468 55.18671064 -131.72064209 54.67388916 C-133.81087272 53.98583648 -135.89572797 53.28353672 -137.97973633 52.5769043 C-139.64891113 52.0205127 -139.64891113 52.0205127 -141.35180664 51.45288086 C-144.37321091 50.08603002 -146.07248743 48.75533292 -148.15161133 46.1862793 C-148.71411133 43.1862793 -148.71411133 43.1862793 -148.15161133 40.1862793 C-143.67648779 35.41071982 -137.45809052 33.95118377 -131.41992188 31.95263672 C-130.23235291 31.55054993 -129.04478394 31.14846313 -127.82122803 30.73419189 C-124.57369591 29.63756496 -121.32328518 28.55051239 -118.0708158 27.46867919 C-115.35099975 26.5628287 -112.63327202 25.65079955 -109.91547805 24.73890382 C-103.50109233 22.58698297 -97.08301598 20.44634797 -90.66259766 18.3125 C-84.05022525 16.11461573 -77.44472528 13.89695059 -70.84223908 11.66956252 C-65.16278983 9.75440656 -59.4791449 7.85210459 -53.7920211 5.95986062 C-50.40003711 4.83109305 -47.00986725 3.69750385 -43.62372398 2.55132103 C-39.84575578 1.27319749 -36.05919665 0.02191827 -32.27148438 -1.22705078 C-31.15796097 -1.60774216 -30.04443756 -1.98843353 -28.89717102 -2.38066101 C-17.93298235 -5.9465922 -10.63231959 -3.55628444 0 0 Z " fill="#7D31EB" transform="translate(273.151611328125,232.813720703125)"/>
<path d="M0 0 C6.29296875 2.09765625 6.29296875 2.09765625 8.34562683 2.78201294 C12.22117625 4.07405321 16.09696558 5.36536708 19.97314453 6.65551758 C28.35433219 9.44600903 36.73293941 12.24380654 45.10523987 15.06086731 C49.19188608 16.43545751 53.27968414 17.8066036 57.36758423 19.17745972 C59.36745811 19.84911716 61.36679082 20.52238817 63.36557007 21.19729614 C66.18765488 22.14999132 69.01157711 23.09704483 71.8359375 24.04296875 C72.67513229 24.32786163 73.51432709 24.61275452 74.37895203 24.90628052 C97.76743086 32.70468906 119.92357207 21.45374573 142.125 14 C144.52204033 13.19763254 146.91917523 12.39554755 149.31640625 11.59375 C153.86932577 10.07052973 158.42174056 8.54581851 162.97363281 7.01953125 C169.97946835 4.67080162 176.98880205 2.33267025 184 0 C184 0.66 184 1.32 184 2 C185.01223633 2.12076904 186.02447266 2.24153809 187.06738281 2.3659668 C192.8447579 3.29741968 198.23914895 5.2280878 203.75341797 7.12817383 C205.75425984 7.81396006 207.7613939 8.47850636 209.76953125 9.14257812 C211.04991644 9.57944968 212.32988046 10.017558 213.609375 10.45703125 C214.76405273 10.84866455 215.91873047 11.24029785 217.10839844 11.64379883 C220.17709523 13.08306012 221.39914241 14.0458365 223 17 C223.25 20.5 223.25 20.5 222 24 C215.44761791 28.256079 206.83825959 30.25058215 199.5 32.75 C198.20018017 33.19559384 196.90037576 33.64123267 195.60058594 34.08691406 C186.88044809 37.066826 178.11877642 39.90150468 169.3293457 42.66992188 C156.07310565 46.87858276 142.93625206 51.44638416 129.78256226 55.96295166 C126.56594269 57.06692082 123.34845896 58.1683564 120.13079834 59.26928711 C118.19098194 59.93450672 116.25286583 60.60467927 114.31494141 61.27539062 C113.26870605 61.63310547 112.2224707 61.99082031 111.14453125 62.359375 C110.27803955 62.65811523 109.41154785 62.95685547 108.51879883 63.26464844 C103.08691873 64.85046048 97.75365736 65.18213937 92.125 65.1875 C91.45597656 65.19974609 90.78695312 65.21199219 90.09765625 65.22460938 C81.44465206 65.24961806 73.44509687 62.25653784 65.30859375 59.5859375 C64.28685562 59.25260406 63.26511749 58.91927063 62.2124176 58.57583618 C60.04945783 57.86944402 57.88694475 57.1616828 55.72485352 56.45263672 C52.50070557 55.3957196 49.27490325 54.34398655 46.04882812 53.29296875 C28.85748671 47.67544304 28.85748671 47.67544304 20.45751953 44.69238281 C18.88515282 44.13509995 18.88515282 44.13509995 17.28102112 43.56655884 C15.29251278 42.85785765 13.30645702 42.14222348 11.323349 41.41854858 C10.4329744 41.10076447 9.54259979 40.78298035 8.62524414 40.45556641 C7.84975723 40.1737149 7.07427032 39.8918634 6.27528381 39.60147095 C3.9629057 38.88150446 3.9629057 38.88150446 1.33592224 39.0340271 C-1 39 -1 39 -3 37 C-5.35601561 36.0891131 -7.69338619 35.2579601 -10.08984375 34.46875 C-10.79017227 34.23216675 -11.49050079 33.9955835 -12.21205139 33.75183105 C-14.45202545 32.99560536 -16.69447226 32.24711538 -18.9375 31.5 C-21.17677161 30.75237416 -23.41538154 30.00299501 -25.65223694 29.24816895 C-27.04420329 28.77857982 -28.43758725 28.31316724 -29.83250427 27.85241699 C-32.89301086 26.82117176 -35.29159438 25.80560375 -38 24 C-38.6875 22.1953125 -38.6875 22.1953125 -39 20.125 C-39.12375 19.44695312 -39.2475 18.76890625 -39.375 18.0703125 C-38.77820928 14.77553039 -36.68220719 13.87369497 -34 12 C-30.74194336 10.62792969 -30.74194336 10.62792969 -27.08984375 9.421875 C-26.44052383 9.20557434 -25.79120392 8.98927368 -25.12220764 8.76641846 C-23.75817376 8.31451848 -22.39244354 7.86770975 -21.02514648 7.42578125 C-18.93621403 6.74958372 -16.85373939 6.05583057 -14.77148438 5.359375 C-4.57537494 2 -4.57537494 2 0 2 C0 1.34 0 0.68 0 0 Z " fill="#C373F0" transform="translate(164,294)"/>
<path d="M0 0 C1.21295998 -0.01007584 1.21295998 -0.01007584 2.45042419 -0.02035522 C5.12220415 -0.03934375 7.79373295 -0.04326002 10.46557617 -0.04541016 C12.32639163 -0.05183814 14.18720607 -0.05856651 16.04801941 -0.06558228 C19.94935447 -0.07755764 23.85060098 -0.0812629 27.75195312 -0.08007812 C32.74208854 -0.07987507 37.73165358 -0.10716192 42.72165394 -0.14162254 C46.56591887 -0.16390272 50.41004686 -0.1679153 54.25436974 -0.16685867 C56.09351248 -0.16921353 57.93265906 -0.17803057 59.77173805 -0.19352341 C62.34952883 -0.2132036 64.92609413 -0.20733756 67.50390625 -0.1953125 C68.25791718 -0.20655151 69.0119281 -0.21779053 69.78878784 -0.22937012 C75.25005732 -0.16489999 78.41667489 1.22523068 82.94604492 4.29052734 C86.35553454 7.81319504 86.67346691 11.07483885 87.00854492 15.82177734 C86.91917271 19.35197971 85.98836872 21.43127403 83.94604492 24.29052734 C78.48563784 29.33090311 74.41683085 30.59002956 67.07568359 30.58105469 C66.28655075 30.58777191 65.49741791 30.59448914 64.68437195 30.60140991 C62.07752165 30.62039552 59.4709288 30.62431456 56.86401367 30.62646484 C55.04803868 30.63289306 53.23206473 30.63962144 51.41609192 30.64663696 C47.60891317 30.65861161 43.80182516 30.66231766 39.99462891 30.66113281 C35.12555593 30.66092977 30.25706759 30.6882158 25.38813305 30.72267723 C21.63651377 30.74496043 17.88503477 30.7489699 14.13335609 30.74791336 C12.33887024 30.7502678 10.54438044 30.75908246 8.74995995 30.77457809 C6.23442552 30.79426443 3.72014625 30.78838999 1.20458984 30.77636719 C0.4692804 30.7876062 -0.26602905 30.79884521 -1.02362061 30.8104248 C-6.54959247 30.74360861 -9.59191038 29.31010136 -14.05395508 26.29052734 C-18.00034801 21.94949512 -18.51351293 17.55804186 -18.47192383 11.86865234 C-17.77777707 7.58699943 -15.36220552 4.96140844 -12.05395508 2.29052734 C-8.27739983 -0.22497141 -4.37689329 -0.00521929 0 0 Z " fill="#843BE9" transform="translate(377.053955078125,83.70947265625)"/>
<path d="M0 0 C4.6893077 2.53365645 7.54989377 5.98156128 10.04296875 10.59375 C11.79522936 16.87268386 11.24480052 21.81417665 8.13671875 27.453125 C5.22278084 31.41743588 1.40295842 33.74458678 -3.20703125 35.28125 C-10.18785331 36.27671018 -14.71516884 35.16425974 -20.359375 30.93359375 C-25.03624068 26.75111133 -25.98272897 22.52427277 -26.58203125 16.53125 C-26.51654602 11.51695253 -24.31560054 8.09093682 -21.20703125 4.28125 C-15.0947858 -1.26241447 -8.04154879 -2.61884067 0 0 Z " fill="#843AE9" transform="translate(144.20703125,81.71875)"/>
<path d="M0 0 C4.47000595 2.31411813 7.99522512 5.67199068 9.828125 10.3515625 C10.64710617 16.04851048 10.91317706 22.06553676 8.328125 27.3515625 C4.54784695 31.88789616 1.06575651 34.77189922 -4.85546875 35.83203125 C-10.63976812 36.12886769 -14.79795758 35.25447015 -19.515625 31.8515625 C-23.28138715 28.44106093 -25.80887037 24.42222462 -26.41015625 19.3359375 C-26.59869804 13.65983734 -25.80118595 9.79968141 -22.171875 5.3515625 C-15.80194204 -0.92087148 -8.76380607 -2.61653203 0 0 Z " fill="#833AE9" transform="translate(74.171875,81.6484375)"/>
<path d="M0 0 C4.3115433 2.54611713 6.93246673 5.7906829 8.625 10.5 C9.53634776 16.67788628 9.36735848 22.30898662 5.625 27.5 C0.84234624 32.39817679 -2.78618426 34.57959592 -9.6875 34.8125 C-15.26515262 34.73007164 -18.9096991 32.88865942 -22.8828125 29.0390625 C-27.29465376 24.07258976 -27.80038369 19.54557163 -27.71484375 13.1015625 C-27.05522889 8.05209702 -24.5665637 4.51510013 -20.87109375 1.1171875 C-14.7872534 -3.07553139 -6.63434039 -2.80924811 0 0 Z " fill="#833AE9" transform="translate(215.375,82.5)"/>
</svg>
