<?xml version="1.0" encoding="UTF-8"?>
<svg version="1.1" xmlns="http://www.w3.org/2000/svg" width="512" height="512">
<path d="M0 0 C0.73385918 -0.00525911 1.46771837 -0.01051822 2.22381571 -0.0159367 C4.67834992 -0.02987214 7.1323475 -0.02253243 9.58690357 -0.01523495 C11.36631082 -0.02084117 13.14571437 -0.02774405 14.92511207 -0.03583091 C19.81165158 -0.05418118 24.69803709 -0.05378462 29.58460319 -0.05024779 C34.85608505 -0.04963566 40.12751749 -0.06619308 45.39897633 -0.08042049 C55.72594782 -0.10534025 66.05286794 -0.11358504 76.37986698 -0.11525763 C84.77491417 -0.1166832 93.1699444 -0.12284788 101.56498623 -0.1323595 C125.36866211 -0.15878009 149.17229741 -0.1726176 172.97598805 -0.17036808 C174.90089543 -0.17018828 174.90089543 -0.17018828 176.86468983 -0.17000484 C178.14952917 -0.1698822 179.43436852 -0.16975956 180.75814239 -0.1696332 C201.57834226 -0.16841399 222.39837932 -0.19711801 243.21853211 -0.23941994 C264.5986579 -0.28251666 285.97870429 -0.30323017 307.35887462 -0.30063862 C319.36133245 -0.29964284 331.36361962 -0.30787787 343.36603832 -0.34017277 C353.58590348 -0.36749513 363.80552063 -0.37400782 374.0254065 -0.3536445 C379.23812632 -0.34385198 384.45037042 -0.34366619 389.66304493 -0.36970425 C394.43962613 -0.39331816 399.21535489 -0.3889881 403.99191544 -0.36285185 C405.7153307 -0.35825076 407.43880976 -0.36368114 409.16214975 -0.38043208 C419.32454999 -0.47263025 427.83448351 0.27019236 436.42548084 6.38590336 C443.5868299 13.65867135 445.88048278 21.24825636 445.80643177 31.20925236 C445.81111174 32.18147427 445.81579171 33.15369618 445.8206135 34.15537935 C445.83255307 37.40415421 445.8231101 40.65250643 445.81366444 43.90128422 C445.81773061 46.23413686 445.82307275 48.56698757 445.82959461 50.89983463 C445.84326918 57.23038193 445.83796867 63.56078253 445.82845736 69.89133239 C445.82163084 75.84615165 445.82684247 81.8009528 445.83123894 87.75577254 C445.83978791 100.2697439 445.82996681 112.78364927 445.81383784 125.29760981 C445.80043822 136.0258859 445.80276074 146.75406458 445.81659412 157.48233891 C445.83266407 169.95092371 445.83896069 182.4194507 445.82975733 194.88804442 C445.82508242 201.48451676 445.82445099 208.08092207 445.8343668 214.6773901 C445.84303948 220.88017859 445.83700875 227.08278336 445.81968403 233.28555202 C445.81572067 235.560738 445.81685063 237.83593947 445.82347202 240.11111927 C445.8316834 243.21947779 445.82137029 246.32724947 445.80643177 249.43557072 C445.81312394 250.33353884 445.8198161 251.23150697 445.82671106 252.15668625 C445.74118751 261.34676369 442.92339673 267.67351142 436.61298084 274.40152836 C429.24402453 281.08622444 421.19303474 281.53619052 411.67491627 281.50615788 C410.68650802 281.5070123 409.69809978 281.50786672 408.67973977 281.50874704 C405.3647438 281.51039536 402.04979833 281.50489103 398.73480701 281.49942875 C396.35971547 281.49914671 393.98462385 281.49930494 391.60953236 281.49987125 C385.82762589 281.50012874 380.04573599 281.49579069 374.26383331 281.48943359 C367.53538956 281.4822832 360.80694816 281.48078826 354.07850114 281.47964542 C342.07965559 281.47745744 330.08081684 281.4708042 318.08197498 281.46134281 C306.42702741 281.45216216 294.77208169 281.44508452 283.11713123 281.440835 C282.39857892 281.44057228 281.6800266 281.44030955 280.93969997 281.44003887 C277.33489198 281.43873382 273.73008398 281.43747011 270.12527597 281.43622696 C240.22533949 281.42586223 210.32541096 281.40817639 180.42548084 281.38590336 C180.45170521 283.27031132 180.45170521 283.27031132 180.47845936 285.19278812 C180.59820479 293.79735306 175.84187132 301.90175639 170.42938709 308.35465336 C163.90620044 314.96685035 156.32617 318.89803712 147.42548084 321.38590336 C146.76548084 321.38590336 146.10548084 321.38590336 145.42548084 321.38590336 C145.42916801 322.11919991 145.43285519 322.85249645 145.43665409 323.60801411 C145.52495566 341.44306961 145.59116631 359.27808153 145.63272953 377.11330891 C145.65336297 385.73827046 145.68149841 394.36308618 145.72723866 402.98795414 C145.76708261 410.50458267 145.79290797 418.0211056 145.80183482 425.53783679 C145.80705376 429.51867954 145.81933604 433.49922016 145.84840107 437.47996616 C145.87553184 441.22611216 145.88393074 444.9718313 145.87791157 448.71806622 C145.87901287 450.09353358 145.88698114 451.46901508 145.90230274 452.84439754 C145.92218953 454.72151097 145.91503856 456.59885294 145.90649891 458.47605228 C145.91018608 459.52689629 145.91387325 460.57774029 145.91767216 461.66042805 C145.29096455 465.13077802 144.23510048 466.3023911 141.42548084 468.38590336 C139.33866692 468.89206123 139.33866692 468.89206123 137.06783009 468.90056705 C136.20289936 468.91329151 135.33796864 468.92601597 134.44682789 468.93912601 C133.50593815 468.93260014 132.56504841 468.92607426 131.59564686 468.91935062 C130.59847645 468.92796619 129.60130604 468.93658176 128.57391834 468.94545841 C125.27547771 468.9681734 121.9778829 468.96136886 118.67938709 468.95230961 C116.38779414 468.95754292 114.09620335 468.96381831 111.80461597 468.97109318 C107.00031879 468.98150779 102.19631759 468.97692076 97.39203358 468.96231937 C91.23350531 468.94513496 85.07591029 468.96861798 78.91748619 469.00380898 C74.18454771 469.025764 69.45183315 469.02434592 64.71885967 469.01604366 C62.44824608 469.01522302 60.17761624 469.02210788 57.90705013 469.03681469 C54.73235229 469.05422372 51.55933922 469.03974681 48.38470936 469.01700687 C47.44584385 469.02869907 46.50697834 469.04039127 45.53966236 469.05243778 C41.4624839 468.99298238 38.96089027 468.67943835 35.34424305 466.69663334 C32.22287428 461.31086478 32.72579645 455.89680295 32.76605701 449.78312016 C32.75760078 448.38337114 32.74695527 446.9836339 32.73428822 445.58391666 C32.70615286 441.79078102 32.70861129 437.99821108 32.71658206 434.20500255 C32.71970783 430.23842868 32.69467077 426.27203477 32.67262745 422.30553532 C32.63517824 414.79748445 32.62303895 407.28961471 32.62000304 399.78147966 C32.61531315 391.23246691 32.58239211 382.68363572 32.54710519 374.13470304 C32.47516142 356.55178317 32.43865246 338.96896345 32.42548084 321.38590336 C31.31596058 320.99954716 31.31596058 320.99954716 30.18402576 320.60538578 C28.71606556 320.08488651 28.71606556 320.08488651 27.21844959 319.55387211 C26.25189442 319.21380131 25.28533924 318.87373051 24.28949451 318.52335453 C14.06040533 314.46084268 6.32717936 306.76545938 1.48798084 296.94840336 C-0.67490386 291.80973769 -1.44208136 286.936251 -1.57451916 281.38590336 C-2.51811291 281.25635258 -2.51811291 281.25635258 -3.48076916 281.12418461 C-12.42628223 279.65571936 -18.28156393 276.31227363 -24.25030041 269.52262211 C-28.30498404 262.98010899 -29.01463796 256.9749746 -28.97565746 249.46921635 C-28.98245413 248.49896228 -28.9892508 247.52870821 -28.99625343 246.5290525 C-29.01517432 243.2927492 -29.01279186 240.056826 -29.01031017 236.82047367 C-29.0192909 234.49396117 -29.02949987 232.16745314 -29.04084301 229.84095097 C-29.06731575 223.53087889 -29.07437536 217.2209289 -29.07629037 210.91080666 C-29.07842463 206.96546825 -29.08483281 203.02016077 -29.09278202 199.07483006 C-29.11909603 186.01253474 -29.13304311 172.95031612 -29.1307906 159.8879942 C-29.13067073 159.18476516 -29.13055086 158.48153612 -29.13042736 157.75699711 C-29.13030472 157.05290253 -29.13018208 156.34880795 -29.13005572 155.62337717 C-29.12883696 144.21844556 -29.15753437 132.81381136 -29.19984246 121.40896574 C-29.24301047 109.67910466 -29.2636488 97.94938841 -29.26106113 86.21944594 C-29.2602974 79.6417523 -29.26878314 73.06439535 -29.30059528 66.48677158 C-29.32971139 60.2977673 -29.32982685 54.10941993 -29.30804539 47.92039204 C-29.30491681 45.65493526 -29.31194343 43.38943706 -29.33012676 41.12405109 C-29.5010705 18.34304021 -29.5010705 18.34304021 -22.57451916 9.38590336 C-16.09366988 3.06966345 -9.0374692 0.01465576 0 0 Z M-10.57451916 22.38590336 C-11.91594555 26.41018255 -11.71906198 30.28624842 -11.71496105 34.4826746 C-11.71793217 35.42501064 -11.7209033 36.36734668 -11.72396445 37.33823836 C-11.73266619 40.50957178 -11.73416094 43.68086752 -11.73565197 46.85221195 C-11.74027905 49.12037582 -11.74530356 51.38853891 -11.75069714 53.65670109 C-11.76383258 59.82814965 -11.77026817 65.99958733 -11.77470779 72.17104769 C-11.77763629 76.02399531 -11.78174065 79.87693994 -11.78621197 83.72988605 C-11.79832151 94.39632867 -11.80870367 105.06276763 -11.81208706 115.72921658 C-11.81230663 116.4118716 -11.81252619 117.09452663 -11.81275241 117.79786817 C-11.81297069 118.48215956 -11.81318897 119.16645095 -11.81341386 119.87147844 C-11.81385733 121.25812268 -11.81430389 122.64476693 -11.81475353 124.03141117 C-11.81497496 124.71923513 -11.81519639 125.40705908 -11.81542453 126.11572619 C-11.8193735 137.2637127 -11.83683087 148.41163388 -11.86011305 159.55959515 C-11.88382026 171.00335646 -11.89603055 182.44707029 -11.89745498 193.89085925 C-11.89850478 200.31684136 -11.90445003 206.74273133 -11.92227459 213.16869068 C-11.93870971 219.21134685 -11.94093296 225.25384115 -11.93213558 231.29651165 C-11.9313628 233.51652236 -11.93573954 235.7365416 -11.94559383 237.95653057 C-11.95824182 240.9829367 -11.95247538 244.00876328 -11.94201183 247.03516483 C-11.95006824 247.91736332 -11.95812464 248.79956181 -11.96642518 249.70849359 C-11.92846117 254.390849 -11.72010849 257.64829929 -8.57451916 261.38590336 C-6.808718 262.58464191 -6.808718 262.58464191 -4.88701916 263.19840336 C-3.79389416 263.59027836 -2.70076916 263.98215336 -1.57451916 264.38590336 C-1.56865292 263.26805454 -1.56278667 262.15020573 -1.55674267 260.9984827 C-1.49939199 250.43526648 -1.42656615 239.87225369 -1.33880424 229.30924511 C-1.29418243 223.87940947 -1.25490832 218.44964746 -1.22808361 213.01969242 C-1.2019689 207.77405393 -1.16150893 202.52869998 -1.11133289 197.28323841 C-1.0947193 195.2875394 -1.08317088 193.29179123 -1.07690525 191.29603291 C-1.06720401 188.48861341 -1.03907362 185.6819129 -1.0068922 182.87467289 C-1.00832729 182.05970844 -1.00976238 181.244744 -1.01124096 180.40508366 C-0.8435987 169.98359253 2.45611669 161.16748664 9.42548084 153.38590336 C25.07268252 139.8915046 44.73380067 136.68420013 64.42548084 133.38590336 C64.03441151 132.94149906 63.64334217 132.49709476 63.24042225 132.03922367 C55.96261213 123.67634195 50.5529374 115.08840546 47.42548084 104.38590336 C47.19989491 103.6214893 46.97430897 102.85707523 46.74188709 102.06949711 C43.36265983 88.29623288 44.19880826 71.59673825 51.05048084 59.07340336 C57.22985432 49.72083809 65.83823335 43.76531829 76.62469959 40.77652836 C91.64584419 38.68152911 106.78939547 39.52089328 119.39423084 48.63199711 C128.96811154 56.89867487 132.69472778 67.39842517 134.17157459 79.67887211 C135.29714362 96.11217992 131.87537842 113.05994549 121.26141834 126.03043461 C119.85295833 127.61059735 118.42260433 129.17170224 116.96454334 130.70621586 C115.31288596 132.12909092 115.31288596 132.12909092 115.42548084 133.38590336 C116.11996326 133.51642094 116.81444569 133.64693851 117.52997303 133.78141117 C120.74682492 134.39104357 123.96109361 135.01341161 127.17548084 135.63590336 C128.26731678 135.8408643 129.35915272 136.04582523 130.48407459 136.25699711 C147.17329485 139.51583893 164.95090411 145.09179909 175.08954334 159.79996586 C181.53960264 171.68165403 180.7579374 185.16032868 180.83954334 198.27262211 C180.85828317 200.18504998 180.87785861 202.09746982 180.89822865 204.00988102 C180.94925875 209.0090544 180.98903916 214.0082545 181.02637196 219.00754642 C181.06659555 224.12266332 181.11760357 229.23767187 181.16766834 234.35270023 C181.2640822 244.3636915 181.34859603 254.37474437 181.42548084 264.38590336 C211.64312495 264.45433849 241.86076509 264.50743102 272.07846919 264.53909935 C275.64580003 264.54285147 279.21313071 264.54673444 282.78046131 264.55069828 C283.84574999 264.55187868 283.84574999 264.55187868 284.93255965 264.55308292 C296.43248072 264.56613748 307.9323568 264.58979159 319.43225117 264.61736175 C331.23186682 264.64541457 343.03145891 264.66207935 354.83110654 264.66816884 C361.45893292 264.67191611 368.08667558 264.68130225 374.71447086 264.70309353 C380.95078238 264.72343185 387.18694967 264.72974247 393.42329121 264.7252264 C395.71383542 264.72605279 398.00438438 264.7320341 400.29489994 264.74351978 C403.41962902 264.75842206 406.54381191 264.75486493 409.66855335 264.74666691 C410.577122 264.75540543 411.48569064 264.76414396 412.42179167 264.77314728 C417.47065686 264.73728783 421.14282233 264.3597863 425.42548084 261.38590336 C429.21938797 257.07404203 428.8478449 252.49949066 428.80643177 247.04862309 C428.81111174 246.10457819 428.81579171 245.1605333 428.8206135 244.18788099 C428.8325853 241.02262601 428.82309757 237.85780223 428.81366444 234.69254398 C428.81772916 232.42408336 428.82307047 230.15562472 428.82959461 227.88716984 C428.84328576 221.72405435 428.83796206 215.56108931 428.82845736 209.39797115 C428.82087012 202.95274158 428.82790376 196.50752503 428.83261585 190.06229496 C428.83842603 178.54437658 428.82909412 167.02653523 428.81383784 155.5086289 C428.80043466 145.06648201 428.80276277 134.62443517 428.81659412 124.18229008 C428.83265045 112.05470701 428.83862378 99.92720248 428.82975733 87.7996068 C428.82507656 81.38037526 428.82446713 74.96121264 428.8343668 68.54198551 C428.84302282 62.50748987 428.83703934 56.47318347 428.81968403 50.43870831 C428.81571191 48.22192862 428.81686557 46.00513305 428.82347202 43.78835964 C428.83164878 40.76641815 428.82141243 37.74508612 428.80643177 34.72318363 C428.81312394 33.84234938 428.8198161 32.96151513 428.82671106 32.05398893 C428.78133044 27.34647638 428.53026305 24.17008192 425.42548084 20.38590336 C421.90560108 16.98207683 419.0938596 17.00863886 414.29704952 17.00279331 C413.57498453 16.9978338 412.85291955 16.99287428 412.1089738 16.98776448 C409.67654916 16.97475624 407.24466877 16.98320935 404.81223011 16.99149418 C403.05588511 16.98660774 401.29954333 16.98041908 399.54320705 16.97303629 C394.70670965 16.95658223 389.87037467 16.95896578 385.03385901 16.96441126 C379.82174807 16.96707475 374.60968109 16.95256249 369.39758778 16.9403162 C359.18250482 16.91923103 348.96747859 16.91472312 338.75237645 16.91650409 C330.45159997 16.91781018 322.15084123 16.9140154 313.85006809 16.90657902 C311.46174872 16.90447989 309.07342935 16.90238229 306.68510997 16.9002862 C304.90217266 16.89872091 304.90217266 16.89872091 303.08321641 16.89712399 C280.58796463 16.87820913 258.09274543 16.87927562 235.59748898 16.88609332 C215.00585876 16.89166955 194.41435292 16.87084211 173.82275178 16.83773285 C152.69361357 16.80402223 131.56453499 16.78882425 110.43536937 16.79344988 C98.56722137 16.79569725 86.69918834 16.79041236 74.83106327 16.76555729 C64.72735367 16.74457809 54.62382208 16.74091853 44.52010526 16.75985688 C39.36288631 16.76903563 34.20599956 16.77009238 29.04880619 16.74950123 C24.32986355 16.73086792 19.61152693 16.73520846 14.89260791 16.75804704 C13.18334452 16.76225221 11.47403535 16.75796881 9.76482023 16.74445111 C7.44434155 16.72734553 5.12599194 16.74094216 2.80559444 16.76228428 C1.51595417 16.7620119 0.2263139 16.76173951 -1.10240638 16.76145887 C-5.70552086 17.58930913 -7.31875081 19.07095727 -10.57451916 22.38590336 Z M72.42548084 60.38590336 C71.51798084 60.92215336 70.61048084 61.45840336 69.67548084 62.01090336 C62.44255853 69.64565468 61.10062881 78.80902826 61.21454334 88.91324711 C61.93591556 100.78917121 66.16188577 111.79784968 74.98798084 119.94840336 C80.3074808 124.50932934 84.9502847 125.85661086 91.86298084 125.70230961 C98.47898743 124.88539416 103.10550436 121.30587657 107.42548084 116.38590336 C108.10610584 115.62277836 108.78673084 114.85965336 109.48798084 114.07340336 C117.12283192 103.48312606 119.52426425 90.99923046 117.80048084 78.13590336 C116.16876254 69.81414002 112.32160844 64.21319267 105.42548084 59.38590336 C100.13287041 56.70049018 95.95722824 55.86603306 90.05048084 55.94840336 C89.30314686 55.95452641 88.55581287 55.96064945 87.78583241 55.96695805 C81.95493953 56.13195937 77.37410257 57.16929924 72.42548084 60.38590336 Z M22.07001209 164.44059086 C15.89503434 171.18850469 15.12678048 176.91547224 15.1349535 185.81656742 C15.12823627 186.86598011 15.12151905 187.9153928 15.11459827 188.99660587 C15.09560512 192.46496159 15.09169317 195.93312387 15.08954334 199.40152836 C15.08311561 201.81662926 15.07638727 204.23172938 15.06937122 206.64682865 C15.05739463 211.71075082 15.05369073 216.77460475 15.05487537 221.83854008 C15.05507841 228.31596659 15.02779301 234.79295362 14.99333096 241.27027607 C14.97105172 246.25982502 14.96703818 251.24926845 14.96809483 256.23886204 C14.96573978 258.62619126 14.95692175 261.01352344 14.94143009 263.40080357 C14.92175326 266.74673209 14.92761595 270.09171624 14.939641 273.43766117 C14.92840199 274.41667896 14.91716297 275.39569675 14.90558338 276.40438175 C14.97555028 284.09658296 17.12206748 289.63219269 21.11298084 296.13590336 C23.91719355 298.86432653 29.27553185 303.38590336 33.42548084 303.38590336 C33.42690586 302.21936726 33.42833088 301.05283115 33.42979908 299.85094547 C33.44646596 288.85935143 33.48923026 277.86812776 33.55757141 266.87672997 C33.59186744 261.22584376 33.6169555 255.57522866 33.62103748 249.92423344 C33.62531475 244.4710208 33.65373057 239.01842001 33.69891262 233.56539822 C33.71190582 231.48462519 33.71618888 229.403779 33.71163464 227.32297039 C33.7067417 224.40878641 33.73276335 221.49639968 33.76605701 218.58243656 C33.75743137 217.72144352 33.74880573 216.86045048 33.73991871 215.97336674 C33.8237322 211.59941205 34.03130509 209.89073661 36.81313038 206.32796574 C39.42548084 204.38590336 39.42548084 204.38590336 41.88251209 204.11637211 C42.65981678 204.26719242 43.43712147 204.41801273 44.23798084 204.57340336 C45.02817616 204.71133305 45.81837147 204.84926273 46.63251209 204.99137211 C47.22419178 205.12156742 47.81587147 205.25176273 48.42548084 205.38590336 C49.33814573 208.12389803 49.55398379 209.73221941 49.56414604 212.5500679 C49.56962049 213.40250617 49.57509493 214.25494444 49.58073527 215.13321418 C49.58171337 216.06997609 49.58269148 217.006738 49.58369923 217.97188663 C49.59110619 219.46418638 49.59110619 219.46418638 49.59866279 220.9866336 C49.61407666 224.33546072 49.62240895 227.68426861 49.63080311 231.03312016 C49.64037857 233.42762262 49.65038846 235.82212338 49.66080189 238.21662235 C49.68227412 243.37964187 49.70071144 248.54266285 49.71640682 253.70570278 C49.73910501 261.1706211 49.76724791 268.63551105 49.7967261 276.10040531 C49.84440263 288.21126519 49.88766665 300.32213666 49.92816639 312.4330225 C49.967521 324.19865668 50.00894715 335.96428055 50.05316639 347.7298975 C50.05589066 348.45494925 50.05861493 349.18000101 50.06142176 349.92702403 C50.07510123 353.56434157 50.08882151 357.20165895 50.10256207 360.83897626 C50.21652781 391.0212641 50.32306542 421.20357399 50.42548084 451.38590336 C60.98548084 451.38590336 71.54548084 451.38590336 82.42548084 451.38590336 C82.43482655 447.92315922 82.44417225 444.46041508 82.45380116 440.8927393 C82.48753401 429.46530197 82.54286056 418.03802643 82.60938358 406.6107378 C82.64919627 399.68080856 82.68157731 392.75099323 82.69647694 385.82096195 C82.71087071 379.13590706 82.74595598 372.45125611 82.79378986 365.76634312 C82.80865314 363.21304482 82.81652467 360.65969614 82.81736469 358.10635471 C82.81972114 354.53606658 82.84669587 350.9667645 82.87958241 347.39664555 C82.87203686 345.80521481 82.87203686 345.80521481 82.86433887 344.18163395 C82.96666162 337.02470813 82.96666162 337.02470813 85.33240223 333.7309351 C88.94933981 331.40665745 91.18499583 331.84742907 95.42548084 332.38590336 C98.23937726 335.21148549 98.80280091 337.31094026 98.82420826 341.23276615 C98.84301548 342.69245571 98.84301548 342.69245571 98.86220264 344.18163395 C98.86076756 345.24258778 98.85933247 346.3035416 98.85785389 347.39664555 C98.87314137 349.08001263 98.87314137 349.08001263 98.88873768 350.79738712 C98.91894776 354.50923446 98.92814613 358.22082406 98.93719959 361.93277836 C98.95404028 364.50539863 98.97218969 367.07801064 98.99159718 369.65061283 C99.03430616 375.73138962 99.06380852 381.81209931 99.08692056 387.89297795 C99.11397298 394.81683948 99.1578844 401.74056201 99.20320928 408.66432428 C99.29605376 422.90478649 99.3655098 437.14526568 99.42548084 451.38590336 C108.99548084 451.38590336 118.56548084 451.38590336 128.42548084 451.38590336 C128.4335677 448.39026814 128.44165455 445.39463291 128.44998646 442.30822086 C128.52504381 414.84460525 128.60992401 387.3810361 128.70553245 359.91748514 C128.71805149 356.31882337 128.73048424 352.72016131 128.74286366 349.12149906 C128.74656265 348.04684507 128.74656265 348.04684507 128.75033636 346.9504809 C128.79007194 335.34645645 128.82281574 323.74242225 128.85298066 312.13836942 C128.88408265 300.23363531 128.92268667 288.32894262 128.9682709 276.42425507 C128.99366255 269.73670043 129.01532845 263.04916557 129.02882481 256.36157513 C129.04163062 250.07026081 129.06366917 243.77904716 129.09286404 237.4877882 C129.10195137 235.17587972 129.10763273 232.86395503 129.10969448 230.55202961 C129.1130088 227.40073939 129.12846406 224.24973605 129.14700794 221.09850407 C129.14507321 220.17924068 129.14313847 219.2599773 129.14114511 218.31285745 C129.17982078 213.93023082 129.25952355 210.32520474 131.42548084 206.38590336 C134.10552927 204.2021602 135.54447434 204.39205819 139.05048084 204.57340336 C142.42548084 205.38590336 142.42548084 205.38590336 144.42548084 208.38590336 C144.63951468 211.43518777 144.73681776 214.39608775 144.7443285 217.44718266 C144.75939693 218.83772358 144.75939693 218.83772358 144.77476978 220.25635624 C144.80569095 223.32427182 144.82266178 226.39209978 144.83954334 229.46012211 C144.8582478 231.58576561 144.87782066 233.71140163 144.89822865 235.83702946 C144.94963213 241.43473756 144.98921389 247.03246975 145.02637196 252.63028812 C145.06636012 258.34120528 145.11747609 264.0520215 145.16766834 269.76285648 C145.26452492 280.97046795 145.34889854 292.17813631 145.42548084 303.38590336 C152.76724613 301.05301768 158.1544546 297.31747605 161.86298084 290.38590336 C164.95679348 283.94855329 164.57426698 276.51320999 164.57074451 269.53849125 C164.57410313 268.57496235 164.57746174 267.61143345 164.58092213 266.6187067 C164.59038425 263.44864439 164.59237271 260.27863514 164.59344959 257.10855961 C164.59666494 254.89570437 164.60002922 252.68284934 164.60353565 250.46999454 C164.60951468 245.83754833 164.61137676 241.20512074 164.61078358 236.57267094 C164.6106819 230.64686863 164.62434502 224.721186 164.64155579 218.79541206 C164.652691 214.22711994 164.65470233 209.65885664 164.65417385 205.09055233 C164.65535125 202.9061571 164.6597595 200.72176107 164.66750622 198.53737926 C164.67733884 195.47907149 164.67441532 192.42102222 164.66840076 189.36271 C164.67402027 188.46739567 164.67963978 187.57208134 164.68542957 186.64963627 C164.64574995 178.68155816 163.66734832 171.73132188 158.42548084 165.38590336 C140.42683622 148.0094341 106.42325678 147.94105858 83.00360584 148.16715336 C63.4238979 148.62650135 37.47232829 151.00507126 22.07001209 164.44059086 Z " fill="#F37E1A" transform="translate(47.57451915740967,21.614096641540527)"/>
<path d="M0 0 C1.58250073 1.20330727 3.14670038 2.43123829 4.6875 3.6875 C5.32429688 4.18765625 5.96109375 4.6878125 6.6171875 5.203125 C14.96343004 12.54781843 20.17824585 24.9449508 20.8984375 35.89453125 C21.33535417 51.40507301 16.57249709 63.9134447 6.0078125 75.32421875 C5.57210937 75.77410156 5.13640625 76.22398437 4.6875 76.6875 C5.74904297 76.84025391 5.74904297 76.84025391 6.83203125 76.99609375 C16.24753255 79.27590734 24.44648144 86.55060838 31.6875 92.6875 C32.89558776 93.68779666 34.10387974 94.6878468 35.3125 95.6875 C36.09625 96.3475 36.88 97.0075 37.6875 97.6875 C38.25855469 97.0584375 38.82960938 96.429375 39.41796875 95.78125 C47.91649803 86.80982958 57.50803176 80.94842623 68.6875 75.6875 C68.25179687 75.24921875 67.81609375 74.8109375 67.3671875 74.359375 C56.76192599 63.06546015 53.03897255 50.3429627 53.375 35.2109375 C53.92959141 24.13297411 58.78017988 15.098135 66.125 7 C66.970625 6.236875 67.81625 5.47375 68.6875 4.6875 C69.16445313 4.20667969 69.64140625 3.72585938 70.1328125 3.23046875 C79.93619903 -6.12300391 92.27581605 -7.70771821 105.19140625 -7.52734375 C117.03400104 -7.13283563 126.98267643 -1.56361244 135.546875 6.38671875 C144.70944785 16.23481257 149.07224566 28.12550039 148.83984375 41.52734375 C147.97372032 53.80852981 143.50954533 63.35912111 135.6875 72.6875 C134.67943549 74.01474667 133.67688299 75.34626957 132.6875 76.6875 C133.925 77.0175 135.1625 77.3475 136.4375 77.6875 C154.24727678 83.70770624 169.52787013 100.1396603 177.7578125 116.71484375 C182.63962052 127.13185191 188.12779087 140.00484763 185.6875 151.6875 C183.69358043 154.14325458 182.47869486 155.51834982 179.34223223 156.18889666 C178.468006 156.18954607 177.59377976 156.19019547 176.69306183 156.19086456 C175.68086311 156.20129555 174.66866439 156.21172654 173.62579298 156.22247362 C172.51568877 156.21355073 171.40558455 156.20462785 170.26184082 156.19543457 C168.49072772 156.20479451 168.49072772 156.20479451 166.68383455 156.21434355 C163.40533786 156.22755366 160.1274318 156.22277834 156.84894967 156.21039867 C153.3137725 156.2013618 149.77867621 156.21531109 146.24351501 156.22631836 C139.31773422 156.24412285 132.39212663 156.24025508 125.46633899 156.2286678 C119.83859323 156.2196413 114.21089607 156.21840607 108.58314514 156.22276306 C107.38257132 156.22368246 107.38257132 156.22368246 106.15774348 156.22462043 C104.53187953 156.22589931 102.90601559 156.22719616 101.28015167 156.2285108 C86.02750656 156.23992224 70.77495755 156.22679406 55.5223282 156.20530933 C42.42938811 156.18743782 29.33658987 156.19054177 16.24365234 156.20898438 C1.04631002 156.23038114 -14.15094804 156.23882356 -29.34830332 156.22653532 C-30.96825058 156.2252611 -32.58819785 156.22400362 -34.20814514 156.22276306 C-35.00523021 156.22214596 -35.80231528 156.22152886 -36.62355444 156.22089306 C-42.24579654 156.21743656 -47.86798528 156.22327492 -53.49021912 156.23268127 C-60.34008654 156.24388941 -67.18977058 156.24088635 -74.03961694 156.2195583 C-77.53585301 156.20903171 -81.03178311 156.204953 -84.52801704 156.21815491 C-88.31460034 156.22902754 -92.10031351 156.21544554 -95.88684082 156.19543457 C-96.99694503 156.20435746 -98.10704925 156.21328034 -99.25079298 156.22247362 C-100.2629917 156.21204263 -101.27519042 156.20161164 -102.31806183 156.19086456 C-103.19228806 156.19021515 -104.06651429 156.18956574 -104.96723223 156.18889666 C-108.11062364 155.51686851 -109.31076524 154.1479987 -111.3125 151.6875 C-114.84879839 140.19041825 -107.82605227 124.83958234 -102.5859375 114.671875 C-93.0502977 97.3389066 -78.42132969 84.50982675 -60.3125 76.6875 C-59.6525 76.6875 -58.9925 76.6875 -58.3125 76.6875 C-58.90417969 76.02105469 -59.49585938 75.35460937 -60.10546875 74.66796875 C-65.49427619 68.38249188 -69.4661255 62.47317144 -72.3125 54.6875 C-72.55742187 54.02363281 -72.80234375 53.35976563 -73.0546875 52.67578125 C-76.58817543 41.13144056 -74.57615099 27.69063518 -69.1875 17.0625 C-62.30079117 5.70149232 -52.64329769 -2.73356157 -39.8828125 -6.6171875 C-25.84420105 -9.35118404 -12.05438424 -8.01219551 0 0 Z M-49.3125 18.6875 C-54.75827869 26.38489872 -58.39179198 34.0435039 -57.3125 43.6875 C-55.76916231 52.35825176 -51.92474531 58.9609973 -45.0546875 64.51171875 C-37.7725769 69.34694653 -29.41294864 71.66482464 -20.6875 70.1875 C-12.5318908 67.86366943 -4.78807851 62.98828744 -0.3125 55.6875 C3.84172251 47.24923553 5.15419918 39.24592453 2.625 30.125 C-0.51226063 21.84204554 -6.2864967 15.42296696 -14.3125 11.6875 C-26.51919543 6.96178891 -40.1395457 9.09759323 -49.3125 18.6875 Z M76.6875 20.6875 C71.16332991 28.82259625 69.84204337 35.90435898 70.6875 45.6875 C72.75006708 54.36022183 77.74385706 60.29413282 84.375 66 C93.38929882 70.59218997 101.97509059 71.72348653 111.6875 68.6875 C119.79764239 64.96194537 125.74332541 58.63321899 129.6875 50.6875 C132.69712796 42.47403256 132.19585728 34.41424358 128.5625 26.5 C123.72709843 17.67435302 117.12086732 12.83195577 107.6875 9.6875 C95.20039629 8.61917836 85.15211649 11.05664746 76.6875 20.6875 Z M-77.3125 109.6875 C-77.99183594 110.34492188 -78.67117187 111.00234375 -79.37109375 111.6796875 C-86.54527825 119.12550037 -90.51417729 128.89337053 -93.3125 138.6875 C-49.4225 138.6875 -5.5325 138.6875 39.6875 138.6875 C33.27868048 119.46104143 23.46800826 104.84534091 5.453125 94.90234375 C-23.80331228 80.65907823 -54.68510342 86.82683129 -77.3125 109.6875 Z M48.6875 110.6875 C47.60188447 112.65847966 47.60188447 112.65847966 47.6875 114.6875 C48.52146726 116.85705838 48.52146726 116.85705838 49.875 119.0625 C52.6875 124.6875 52.6875 124.6875 56.6875 138.6875 C92.9875 138.6875 129.2875 138.6875 166.6875 138.6875 C163.00180641 122.10187886 153.88718946 109.2830098 140.1875 99.27734375 C110.69413939 80.52140974 72.21452712 83.7277038 48.6875 110.6875 Z " fill="#F48619" transform="translate(307.3125,334.3125)"/>
<path d="M0 0 C1.60138494 -0.01654759 3.20269637 -0.04382244 4.80371094 -0.08203125 C7.11684327 -0.13692965 9.42824647 -0.15869153 11.74194336 -0.17333984 C12.45357132 -0.19600922 13.16519928 -0.21867859 13.89839172 -0.24203491 C17.79896743 -0.22553805 19.4411111 0.22438268 22.51806641 2.69921875 C24.77676411 5.57874672 25.59811093 7.85254351 26.59741211 11.35009766 C28.11815735 15.317683 28.94669194 16.95933013 32.62866211 19.17041016 C35.92523714 20.41033815 39.20283162 21.41742826 42.59741211 22.35009766 C43.8697168 22.97658203 43.8697168 22.97658203 45.16772461 23.61572266 C47.64297305 24.62085788 47.64297305 24.62085788 50.24584961 23.45166016 C51.14561523 22.96439453 52.04538086 22.47712891 52.97241211 21.97509766 C60.68455687 18.23775307 60.68455687 18.23775307 65.59741211 19.35009766 C68.66297715 21.27232842 71.04942743 23.79817482 73.59741211 26.35009766 C74.865326 27.54972606 76.13501724 28.74747737 77.40600586 29.94384766 C78.78382443 31.26518483 80.16011072 32.58812151 81.53491211 33.91259766 C82.54811523 34.86791382 82.54811523 34.86791382 83.58178711 35.8425293 C86.41571533 38.6299228 88.34298448 40.64345415 89.70288086 44.42041016 C89.57265523 48.03778861 88.52513696 50.40187548 86.97241211 53.66259766 C84.62888083 59.32292898 84.62888083 59.32292898 85.59741211 65.16259766 C86.23359466 66.57258592 86.90041648 67.96915876 87.59741211 69.35009766 C90.59741211 76.86992144 90.59741211 76.86992144 90.59741211 80.35009766 C91.77303711 80.44291016 91.77303711 80.44291016 92.97241211 80.53759766 C97.9534299 81.65403268 104.72153273 83.567913 107.7121582 88.00341797 C109.55999034 92.90175292 108.96919834 98.43534885 108.96801758 103.62182617 C108.97239161 105.77749606 109.00873641 107.9311177 109.04663086 110.08642578 C109.05249971 111.46467403 109.05646865 112.84293195 109.05834961 114.22119141 C109.06656738 115.46827881 109.07478516 116.71536621 109.08325195 118.00024414 C108.5100916 121.9521704 107.39561644 123.55442908 104.59741211 126.35009766 C101.65209961 127.93212891 101.65209961 127.93212891 98.47241211 129.16259766 C97.41795898 129.58154297 96.36350586 130.00048828 95.27709961 130.43212891 C92.59741211 131.35009766 92.59741211 131.35009766 90.59741211 131.35009766 C90.53553711 132.11322266 90.47366211 132.87634766 90.40991211 133.66259766 C89.43877812 138.07005193 87.61239127 141.6662294 85.55834961 145.66650391 C83.59312019 151.15476657 86.55948812 155.75723546 88.85522461 160.75244141 C89.80214589 164.06666589 89.55160486 166.04512095 88.59741211 169.35009766 C86.91772461 171.73681641 86.91772461 171.73681641 84.72241211 174.03759766 C83.91674805 174.88708984 83.11108398 175.73658203 82.28100586 176.61181641 C81.39541992 177.51544922 80.50983398 178.41908203 79.59741211 179.35009766 C78.62982802 180.35647717 77.66238275 181.36299017 76.69506836 182.36962891 C68.27663973 191.01637764 68.27663973 191.01637764 64.59741211 192.35009766 C59.32710095 192.14341879 55.39694208 190.49425594 50.80834961 188.09228516 C45.19706549 186.20863854 39.40935846 190.06005144 34.33959961 192.29150391 C31.59741211 193.35009766 31.59741211 193.35009766 28.59741211 193.35009766 C28.4156543 193.93017578 28.23389648 194.51025391 28.04663086 195.10791016 C23.78751136 208.34394306 23.78751136 208.34394306 18.59741211 211.35009766 C14.04453556 211.9054902 9.48063786 211.82289185 4.8984375 211.79614258 C2.67020153 211.78763693 0.4445353 211.81639707 -1.78344727 211.84814453 C-3.20727463 211.84975695 -4.6311065 211.84917823 -6.05493164 211.84619141 C-7.34391357 211.84804443 -8.63289551 211.84989746 -9.9609375 211.85180664 C-13.96258195 211.26846413 -15.60186887 210.21897649 -18.40258789 207.35009766 C-19.45727539 204.32666016 -19.45727539 204.32666016 -20.27758789 200.97509766 C-21.75232847 196.72746298 -22.93022972 194.26320629 -26.91430664 192.20166016 C-30.66045583 190.60087469 -34.47473931 189.42093012 -38.40258789 188.35009766 C-39.09610352 188.08712891 -39.78961914 187.82416016 -40.50415039 187.55322266 C-44.34990495 187.14174274 -47.85973479 189.67724803 -51.23461914 191.31884766 C-55.17206211 192.60058002 -57.37949871 192.2922851 -61.40258789 191.35009766 C-65.08063892 188.72820598 -68.17020638 185.52937942 -71.33007812 182.31469727 C-72.8369247 180.79079664 -74.37736328 179.30800414 -75.92407227 177.82470703 C-84.05153891 169.81735237 -84.05153891 169.81735237 -84.19165039 164.92431641 C-83.51210524 161.84617874 -82.85392416 159.46539789 -81.34008789 156.72509766 C-79.20150545 152.85116717 -79.3378288 150.64107679 -80.40258789 146.35009766 C-81.20702698 144.08184316 -82.06285586 141.83125835 -82.96508789 139.60009766 C-85.40258789 133.5512308 -85.40258789 133.5512308 -85.40258789 131.35009766 C-85.98266602 131.16833984 -86.56274414 130.98658203 -87.16040039 130.79931641 C-98.65076307 127.10192247 -98.65076307 127.10192247 -102.40258789 123.35009766 C-104.37783167 117.76617485 -103.62899668 111.30802526 -103.65258789 105.47509766 C-103.67321289 104.20794922 -103.69383789 102.94080078 -103.71508789 101.63525391 C-103.72024414 100.40935547 -103.72540039 99.18345703 -103.73071289 97.92041016 C-103.74005859 96.80424316 -103.7494043 95.68807617 -103.7590332 94.53808594 C-103.34844017 90.86580938 -102.3305151 88.48823993 -100.40258789 85.35009766 C-97.59008789 83.67041016 -97.59008789 83.67041016 -94.40258789 82.47509766 C-93.35071289 82.06517578 -92.29883789 81.65525391 -91.21508789 81.23291016 C-88.40258789 80.35009766 -88.40258789 80.35009766 -85.40258789 80.35009766 C-85.15508789 79.21572266 -84.90758789 78.08134766 -84.65258789 76.91259766 C-83.85238007 73.6124705 -82.7094336 70.77066728 -81.21508789 67.72509766 C-79.41754 63.808053 -79.02731326 61.56760654 -80.40258789 57.35009766 C-80.91821289 56.23634766 -81.43383789 55.12259766 -81.96508789 53.97509766 C-83.57182526 49.92332516 -84.49218389 46.60117294 -83.40258789 42.35009766 C-81.53009788 39.23606536 -78.98979315 36.88026217 -76.40258789 34.35009766 C-75.23020076 33.15786855 -74.05979325 31.96369104 -72.89086914 30.76806641 C-70.40873449 28.24489414 -67.92252765 25.726269 -65.41430664 23.22900391 C-64.88281006 22.69863525 -64.35131348 22.1682666 -63.80371094 21.62182617 C-61.00461231 19.08122594 -58.39068316 19.03196936 -54.68774414 19.04541016 C-51.31392066 19.49525329 -48.63313322 20.94029847 -45.67602539 22.57275391 C-40.50210561 24.34184331 -35.4706667 21.73592215 -30.65258789 19.78759766 C-24.60372104 17.35009766 -24.60372104 17.35009766 -22.40258789 17.35009766 C-22.34071289 16.56634766 -22.27883789 15.78259766 -22.21508789 14.97509766 C-21.10807107 10.03609955 -19.01919479 5.67850347 -16.40258789 1.35009766 C-11.82292912 -0.93973173 -5.08663349 0.03853116 0 0 Z M-4.40258789 17.35009766 C-5.02133789 18.75259766 -5.64008789 20.15509766 -6.27758789 21.60009766 C-6.97772397 23.18707277 -7.68600643 24.77048012 -8.40258789 26.35009766 C-8.79800781 27.35121582 -8.79800781 27.35121582 -9.20141602 28.37255859 C-10.73418829 30.89602515 -11.94806889 31.32986565 -14.69165039 32.35009766 C-15.98135742 32.84509766 -15.98135742 32.84509766 -17.29711914 33.35009766 C-18.19817383 33.68009766 -19.09922852 34.01009766 -20.02758789 34.35009766 C-21.79190182 35.01333461 -23.55494286 35.6799682 -25.31665039 36.35009766 C-26.17436035 36.67486084 -27.03207031 36.99962402 -27.91577148 37.33422852 C-30.93255283 38.56658932 -33.77157604 40.03306503 -36.61450195 41.62182617 C-40.10383168 43.04299911 -42.78980489 42.22415806 -46.40258789 41.35009766 C-48.40258789 40.35009766 -50.40258789 39.35009766 -52.40258789 38.35009766 C-56.13835683 38.7029629 -58.08463472 40.54177758 -60.71508789 43.10009766 C-61.4330957 43.77556641 -62.15110352 44.45103516 -62.89086914 45.14697266 C-64.6703224 47.25278381 -64.6703224 47.25278381 -64.23461914 49.86962891 C-63.27720682 52.72388628 -62.15516254 55.44411666 -60.92602539 58.18994141 C-59.57405701 63.76933331 -62.27456228 68.64958073 -64.71508789 73.53759766 C-66.99249505 78.13950336 -68.74767567 82.41614889 -70.02758789 87.41259766 C-71.27289282 91.17095038 -72.13481187 92.17848061 -75.53540039 94.35791016 C-78.75343324 95.85224507 -82.07499219 97.11888725 -85.40258789 98.35009766 C-85.40258789 103.30009766 -85.40258789 108.25009766 -85.40258789 113.35009766 C-83.48446289 114.07197266 -81.56633789 114.79384766 -79.59008789 115.53759766 C-74.74906488 117.35948804 -72.58483887 118.61750517 -70.40258789 123.35009766 C-69.37639015 125.94706208 -68.39915209 128.53364155 -67.46508789 131.16259766 C-65.87082891 135.58388275 -64.28996686 139.81176948 -61.96508789 143.91259766 C-60.08264825 148.05396487 -60.19548273 150.00451908 -61.40258789 154.35009766 C-61.93883789 155.38134766 -62.47508789 156.41259766 -63.02758789 157.47509766 C-64.65156246 160.87068085 -64.54241487 161.83518934 -63.40258789 165.35009766 C-61.58604661 167.6477483 -61.58604661 167.6477483 -59.34008789 169.66259766 C-58.60661133 170.35998047 -57.87313477 171.05736328 -57.11743164 171.77587891 C-56.5515332 172.29537109 -55.98563477 172.81486328 -55.40258789 173.35009766 C-52.52313691 172.41260199 -49.71685215 171.4951427 -46.96508789 170.22509766 C-42.24808278 168.61441299 -38.4460637 168.94455465 -33.82446289 170.74072266 C-32.59420012 171.34790404 -31.37033406 171.96818786 -30.15258789 172.60009766 C-24.72603201 175.30256034 -19.40988235 177.5176505 -13.57446289 179.23291016 C-8.42092394 181.88383127 -6.58961119 189.29731968 -4.40258789 194.35009766 C0.21741211 194.35009766 4.83741211 194.35009766 9.59741211 194.35009766 C10.19553711 193.15384766 10.79366211 191.95759766 11.40991211 190.72509766 C12.13907878 189.26676432 12.86824544 187.80843099 13.59741211 186.35009766 C13.98155273 185.33302734 14.36569336 184.31595703 14.76147461 183.26806641 C17.1867272 179.41346282 20.00044965 178.57399968 24.15991211 177.28759766 C25.61074858 176.79888456 27.05998232 176.3053875 28.50756836 175.80712891 C29.21026855 175.56687988 29.91296875 175.32663086 30.63696289 175.07910156 C33.25684763 174.1048829 35.65490964 172.82780963 38.09741211 171.47509766 C42.4312136 169.24318989 45.77574414 168.3335893 50.59741211 169.35009766 C54.04621028 170.50465222 57.26533428 171.86917418 60.59741211 173.35009766 C63.89741211 170.05009766 67.19741211 166.75009766 70.59741211 163.35009766 C69.93741211 161.86509766 69.27741211 160.38009766 68.59741211 158.85009766 C65.92572962 152.83881206 65.68876725 147.75188084 67.98803711 141.67431641 C68.5928835 140.45455112 69.21318862 139.24234953 69.84741211 138.03759766 C72.15602416 133.45994976 74.0726493 129.09856171 75.53491211 124.16259766 C76.84504381 120.37277462 77.88203309 118.64726467 81.47241211 116.78759766 C82.82867759 116.25772066 84.20715485 115.78300694 85.59741211 115.35009766 C87.57741211 114.69009766 89.55741211 114.03009766 91.59741211 113.35009766 C91.59741211 108.40009766 91.59741211 103.45009766 91.59741211 98.35009766 C88.72022461 97.20541016 88.72022461 97.20541016 85.78491211 96.03759766 C78.60791797 93.1822344 78.60791797 93.1822344 76.59741211 90.35009766 C75.71361726 87.97240441 74.93944515 85.65101467 74.22241211 83.22509766 C72.80499723 78.63918249 71.34954568 74.57269916 68.78491211 70.47509766 C66.18394451 66.1182718 65.68227919 62.34087408 66.59741211 57.35009766 C67.56628792 55.33483597 68.56154421 53.33175799 69.59741211 51.35009766 C69.31024859 46.93495859 67.70460618 45.00604131 64.53491211 42.03759766 C63.80143555 41.34021484 63.06795898 40.64283203 62.31225586 39.92431641 C61.74635742 39.40482422 61.18045898 38.88533203 60.59741211 38.35009766 C60.04053711 38.55505859 59.48366211 38.76001953 58.90991211 38.97119141 C58.14678711 39.24060547 57.38366211 39.51001953 56.59741211 39.78759766 C55.48366211 40.18785156 55.48366211 40.18785156 54.34741211 40.59619141 C46.39727562 42.77570326 42.42944158 42.46176106 35.28491211 38.60009766 C30.26671375 36.0163131 25.82069397 33.96367321 20.22241211 32.91259766 C15.96167371 31.9263753 15.96167371 31.9263753 14.33569336 29.35400391 C13.55100459 27.02290411 13.07384734 24.76029941 12.59741211 22.35009766 C11.60741211 19.87509766 11.60741211 19.87509766 10.59741211 17.35009766 C5.64741211 17.35009766 0.69741211 17.35009766 -4.40258789 17.35009766 Z " fill="#EF5C20" transform="translate(350.402587890625,56.64990234375)"/>
<path d="M0 0 C11.92281 12.19378296 18.38109303 25.75055252 18.75 42.8125 C18.07610863 58.81741992 11.56336028 72.45783581 0.125 83.5625 C-11.77423061 93.84241635 -27.0466382 97.6112655 -42.47265625 96.6015625 C-56.61491992 94.6264901 -69.30830833 88.00246472 -78.5625 77.0625 C-88.8192213 63.35176988 -91.7747124 49.59179226 -90.25 32.8125 C-87.37812454 17.95636587 -79.48484889 5.8424911 -67.25 -3.0625 C-45.40175306 -17.41413052 -21.09916669 -14.2013622 0 0 Z M-64.48046875 17.29296875 C-72.06271401 27.08497583 -74.57379036 36.46703938 -73.25 48.8125 C-70.65270137 60.05278671 -64.07482107 68.84643402 -54.37890625 75 C-44.94802373 80.1613683 -35.0104022 80.77327133 -24.68359375 78.1640625 C-14.49099961 74.68677686 -6.00521554 66.41932058 -1.25 56.8125 C2.40553281 46.14947522 2.27296146 34.67894263 -2.63671875 24.5 C-8.52595879 14.68935316 -16.48934277 8.26777084 -27.55078125 5.3203125 C-41.23565828 2.74573361 -55.06772446 6.82520584 -64.48046875 17.29296875 Z " fill="#EE5C20" transform="translate(389.25,120.1875)"/>
</svg>
