<?xml version="1.0" encoding="UTF-8"?>
<svg version="1.1" xmlns="http://www.w3.org/2000/svg" width="512" height="512">
<path d="M0 0 C1.1567347 -0.01489471 1.1567347 -0.01489471 2.33683777 -0.03009033 C44.61596443 -0.46169124 84.33034375 8.96014287 117.8125 36.23828125 C118.66593994 36.92470703 118.66593994 36.92470703 119.53662109 37.625 C136.28179968 51.16143647 149.8642821 66.70836385 160.8125 85.23828125 C161.2132373 85.90859375 161.61397461 86.57890625 162.02685547 87.26953125 C183.46778401 123.70487722 190.17013153 168.27237741 180.04125977 209.29296875 C168.48707548 253.08580802 142.91451876 291.56380488 115.8125 327.23828125 C115.14130127 328.12894287 115.14130127 328.12894287 114.45654297 329.03759766 C105.27632409 341.21802616 95.60619935 353.01980514 85.7175293 364.62988281 C81.91274894 369.10013002 78.19300605 373.63452647 74.4921875 378.19140625 C72.8125 380.23828125 72.8125 380.23828125 71.8125 381.23828125 C72.83682129 381.38338135 73.86114258 381.52848145 74.91650391 381.67797852 C168.40003968 395.02560386 168.40003968 395.02560386 192.1484375 422.984375 C196.46040524 428.82476323 197.86036197 435.05804524 196.8125 442.23828125 C193.74089377 453.99448844 185.93700259 461.12866762 175.8125 467.23828125 C147.46334676 483.74749402 112.93780959 489.2913695 80.8125 493.23828125 C79.6682959 493.3892627 78.5240918 493.54024414 77.34521484 493.69580078 C33.25105115 499.31439731 -15.15532678 499.23291813 -59.1875 493.23828125 C-60.54474354 493.05945203 -61.90200311 492.88074454 -63.25927734 492.70214844 C-147.53950474 481.43633857 -147.53950474 481.43633857 -169.04296875 454.953125 C-173.84739693 448.11737089 -176.28602371 441.63712072 -175.1875 433.23828125 C-171.82689466 421.4057307 -162.13464399 413.32240984 -151.8984375 407.3046875 C-120.93297524 390.43997543 -84.55915735 386.18182315 -50.1875 381.23828125 C-50.78860596 380.57513916 -51.38971191 379.91199707 -52.0090332 379.22875977 C-52.80656006 378.34631592 -53.60408691 377.46387207 -54.42578125 376.5546875 C-55.60587769 375.25059937 -55.60587769 375.25059937 -56.80981445 373.92016602 C-59.85207001 370.48868667 -62.74693536 366.95297043 -65.62890625 363.38671875 C-67.51012409 361.06016671 -69.41879752 358.75861316 -71.33984375 356.46484375 C-79.72860307 346.42377123 -87.65654116 336.10056056 -95.43847656 325.58398438 C-97.03112279 323.44800658 -98.64482631 321.33126801 -100.2734375 319.22265625 C-112.85334551 302.88446151 -123.94082025 285.43730095 -133.96728516 267.42773438 C-134.75965817 266.00596543 -135.55846068 264.58775378 -136.36474609 263.17382812 C-160.41312374 220.9535176 -169.84296718 174.24228295 -156.92480469 126.84082031 C-144.54745658 83.15124057 -116.33663382 46.30075164 -77.1875 23.23828125 C-76.15810303 22.62919922 -76.15810303 22.62919922 -75.10791016 22.0078125 C-52.83399758 9.04917014 -25.94750929 0.27287454 0 0 Z M-95.1875 58.05078125 C-96.19302141 59.10805744 -97.19371677 60.16996428 -98.1875 61.23828125 C-103.1875 66.23828125 -103.1875 66.23828125 -104.69921875 67.609375 C-125.44933933 87.00517536 -137.13833609 116.11503226 -143.1875 143.23828125 C-143.53941406 144.81609375 -143.53941406 144.81609375 -143.8984375 146.42578125 C-153.52952275 196.67492169 -129.9190387 245.02814168 -102.59179688 285.69116211 C-99.4977976 290.23577105 -96.35546089 294.74498346 -93.1875 299.23828125 C-92.3202832 300.46901367 -92.3202832 300.46901367 -91.43554688 301.72460938 C-81.56038506 315.68135357 -71.05516225 329.04462654 -60.1875 342.23828125 C-58.72905659 344.02985831 -57.27072483 345.82152627 -55.8125 347.61328125 C-50.678976 353.88561127 -45.4434838 360.06859456 -40.1875 366.23828125 C-39.68782715 366.82577148 -39.1881543 367.41326172 -38.67333984 368.01855469 C-33.68249408 373.88323459 -28.68291946 379.72907673 -23.5 385.42578125 C-20.48935521 388.73911205 -17.62184822 392.12770054 -14.8125 395.61328125 C-11.13867893 400.15755469 -7.27633381 404.45702489 -3.2980957 408.73095703 C1.30954252 413.71108608 5.58284017 418.93293016 9.8125 424.23828125 C13.54573926 422.99386816 14.41110164 421.51140157 16.8125 418.42578125 C20.17328255 414.20843561 23.63260874 410.1786787 27.3125 406.23828125 C30.76479894 402.53032268 34.07776193 398.7531719 37.25 394.80078125 C40.61598508 390.6158803 44.14449722 386.65538146 47.8125 382.73828125 C52.21171694 378.03555138 56.36474015 373.2112867 60.3984375 368.1875 C63.31922048 364.61922953 66.34177197 361.14844456 69.375 357.67578125 C74.34098536 351.97651546 79.15576582 346.19456916 83.8125 340.23828125 C84.67143636 339.14939343 85.5308431 338.06087655 86.390625 336.97265625 C89.2083734 333.40267856 92.01206026 329.82184396 94.8125 326.23828125 C95.22757813 325.7086377 95.64265625 325.17899414 96.0703125 324.63330078 C132.29737834 278.34153802 173.71172347 219.93965325 167.14892578 157.88134766 C162.75029213 123.32430271 148.7510805 88.36719335 122.8125 64.23828125 C117.8125 59.23828125 117.8125 59.23828125 116.44140625 57.7265625 C91.41001511 30.94734355 50.60944016 17.5879521 14.875 16.27734375 C-24.62693514 15.54060131 -66.83153981 29.75646445 -95.1875 58.05078125 Z M-60.0625 399.86328125 C-60.75670044 399.95031311 -61.45090088 400.03734497 -62.1661377 400.12701416 C-112.618692 406.19151143 -112.618692 406.19151143 -155.3125 431.36328125 C-157.18007572 434.22689735 -158.1875 435.82744338 -158.1875 439.23828125 C-154.26279312 449.18087201 -142.66419407 454.20026969 -133.50927734 458.26074219 C-61.70972123 488.49054478 31.94985793 485.58219527 153.69921875 458.94921875 C163.12216271 455.09584253 172.28461796 450.29739488 178.8125 442.23828125 C179.8762932 438.40379031 180.14094274 436.93995438 178.4375 433.30078125 C158.40745461 407.50958569 109.03337854 403.49199098 79.71362305 399.59716797 C76.12297125 399.15298231 72.52972033 398.77344825 68.92749023 398.43676758 C67.24751069 398.27910587 65.5703046 398.09194498 63.89453125 397.89453125 C60.4090902 397.65456973 57.85304047 397.55018191 54.875 399.51953125 C53.03219196 401.32943201 51.42376609 403.2203254 49.8125 405.23828125 C48.75255855 406.42806553 47.68996713 407.61549331 46.625 408.80078125 C45.35051341 410.27680135 44.08023121 411.75645502 42.8125 413.23828125 C41.92846463 414.26959916 41.04434351 415.30084356 40.16015625 416.33203125 C39.67893311 416.8935791 39.19770996 417.45512695 38.7019043 418.03369141 C37.68660343 419.21840004 36.67113937 420.40296883 35.65551758 421.58740234 C35.13755615 422.19148926 34.61959473 422.79557617 34.0859375 423.41796875 C33.55452148 424.03768555 33.02310547 424.65740234 32.47558594 425.29589844 C31.33673247 426.62600974 30.19943785 427.95745689 29.06347656 429.29003906 C27.31686059 431.33849181 25.5650814 433.38243179 23.8125 435.42578125 C23.27286621 436.06136963 22.73323242 436.69695801 22.17724609 437.35180664 C15.77712039 444.79177662 15.77712039 444.79177662 11.0625 445.86328125 C3.05061896 444.3225349 -2.02026217 436.18361121 -6.828125 430.140625 C-10.01823374 426.21636872 -13.42604519 422.5150911 -16.84765625 418.79296875 C-18.84584848 416.6113031 -20.80898889 414.40816816 -22.75 412.17578125 C-23.30171875 411.55574219 -23.8534375 410.93570312 -24.421875 410.296875 C-25.75184633 408.74622259 -27.02389954 407.14561644 -28.265625 405.5234375 C-29.00296875 404.60433594 -29.7403125 403.68523437 -30.5 402.73828125 C-31.15613281 401.88234375 -31.81226563 401.02640625 -32.48828125 400.14453125 C-39.60844134 395.11611139 -51.92272502 398.83105109 -60.0625 399.86328125 Z " fill="#000000" transform="translate(245.1875,7.76171875)"/>
<path d="M0 0 C29.67773381 25.34880121 48.45637119 58.80228595 52.0625 97.98046875 C54.94687454 135.32630407 43.89599404 172.53630845 19.59765625 201.21875 C18.95425293 201.97961914 18.95425293 201.97961914 18.29785156 202.75585938 C-5.97573555 231.15001835 -40.49345112 248.26750266 -77.60791016 251.76879883 C-117.29268054 254.81243499 -153.85060435 241.68875023 -183.93359375 216.0625 C-212.34076569 191.16238632 -228.39214688 155.98331503 -231.15234375 118.55859375 C-233.38272252 79.31965437 -219.2995482 43.04221549 -193.53222656 13.75561523 C-175.02777427 -6.8539968 -150.21848269 -21.05283696 -123.40234375 -27.78125 C-122.28730469 -28.07902344 -121.17226562 -28.37679687 -120.0234375 -28.68359375 C-78.40536294 -37.94628316 -32.81103151 -27.03920188 0 0 Z M-180.62841797 25.078125 C-202.88876741 48.1816192 -214.70903144 80.29712907 -214.40234375 112.21875 C-213.22775386 147.41424599 -198.36805518 178.67068254 -173.03125 202.9296875 C-151.78558558 222.58036616 -123.19517141 233.79026863 -94.40234375 235.21875 C-93.64308594 235.26 -92.88382812 235.30125 -92.1015625 235.34375 C-59.48125562 236.22093472 -27.57515166 222.92656484 -3.8203125 200.95703125 C20.46117705 177.81430057 34.56479861 146.58808614 35.59375 112.953125 C35.99909095 77.54843562 21.91416466 45.79625147 -2.58984375 20.65625 C-25.09401944 -1.73619351 -56.47725882 -14.39814895 -88.17871094 -14.80419922 C-124.06316845 -14.43385018 -155.46227729 -0.21358785 -180.62841797 25.078125 Z " fill="#000000" transform="translate(345.40234375,70.78125)"/>
<path d="M0 0 C7.81106342 6.40274901 11.92953374 13.90130881 14.1015625 23.72265625 C15.58209304 40.05721846 13.98586602 55.31429225 3.84765625 68.70703125 C2.0215851 70.81497915 0.10139077 72.77971588 -1.8984375 74.72265625 C2.42862455 76.00663414 6.74244815 77.11015369 11.15258789 78.06591797 C26.52003785 81.44110238 39.59011418 86.62509479 49.1015625 99.72265625 C54.11377195 108.24797361 53.68783978 117.41611811 53.6328125 126.96484375 C53.63551174 128.6224897 53.63939775 130.28013409 53.64440918 131.93777466 C53.6502741 135.39226529 53.64183267 138.84633939 53.62304688 142.30078125 C53.60015086 146.7261524 53.61346578 151.15055871 53.63733673 155.57589531 C53.65178501 158.99029836 53.64719513 162.40447206 53.63682556 165.81888199 C53.63416113 167.45115398 53.63741809 169.08344691 53.64674377 170.71569443 C53.65690583 172.99185321 53.64142071 175.26643894 53.61914062 177.54248047 C53.61595825 178.83580292 53.61277588 180.12912537 53.60949707 181.4616394 C53.0172403 185.26401754 52.10453516 186.40692692 49.1015625 188.72265625 C46.41682524 190.06502488 44.35262553 189.85165714 41.34524536 189.85636902 C39.50709259 189.86276649 39.50709259 189.86276649 37.63180542 189.86929321 C36.26641843 189.86894367 34.90103146 189.86848212 33.53564453 189.86791992 C32.10343335 189.87091078 30.67122298 189.87431313 29.23901367 189.87809753 C25.34228929 189.88694978 21.44558686 189.88927618 17.5488534 189.88991332 C14.29831836 189.89086161 11.04778846 189.89453904 7.7972554 189.89808542 C0.12899445 189.90623482 -7.53925475 189.90866923 -15.20751953 189.90795898 C-23.12254093 189.90735822 -31.03749417 189.91790859 -38.95249832 189.93370265 C-45.74320639 189.94677127 -52.53389218 189.95214316 -59.32461274 189.95150357 C-63.38244719 189.95124836 -67.44022111 189.95411214 -71.49804306 189.96468163 C-75.31472777 189.97435109 -79.13129394 189.97444974 -82.94798279 189.96716499 C-84.34923093 189.96611768 -85.75048641 189.96849075 -87.15172195 189.97452545 C-89.06385077 189.98222728 -90.97601984 189.97640938 -92.88815308 189.96989441 C-93.95852247 189.97043918 -95.02889187 189.97098394 -96.1316967 189.97154522 C-98.95901779 189.7172066 -100.55348031 189.29374845 -102.8984375 187.72265625 C-105.37471832 184.00823503 -105.16284981 182.09395707 -105.18896484 177.65600586 C-105.19568207 176.94011292 -105.20239929 176.22421997 -105.20932007 175.4866333 C-105.22833913 173.11601842 -105.23222728 170.74568649 -105.234375 168.375 C-105.24080413 166.72172429 -105.24753257 165.06844972 -105.25454712 163.41517639 C-105.2665324 159.94415657 -105.27022705 156.47323632 -105.26904297 153.00219727 C-105.2688406 148.5761614 -105.2960514 144.15077358 -105.33058739 139.72489071 C-105.35294927 136.30598586 -105.35687756 132.88723409 -105.35582352 129.46826363 C-105.35816904 127.83813829 -105.36693287 126.20800805 -105.38248825 124.57795525 C-105.49727267 111.29751397 -103.88187575 101.84650697 -94.3671875 91.9765625 C-82.49944666 81.14161556 -66.26879008 78.20695765 -50.8984375 75.72265625 C-50.8984375 72.90412383 -52.1534046 72.2334794 -54.0859375 70.22265625 C-58.06273944 65.76381771 -60.63240862 61.23416972 -62.8984375 55.72265625 C-63.21941406 54.94921875 -63.54039062 54.17578125 -63.87109375 53.37890625 C-67.87504588 41.60914929 -67.83054179 25.68434683 -63.16015625 14.1640625 C-58.03233228 4.24180249 -50.48473301 -2.6301218 -39.8984375 -6.27734375 C-26.55626038 -9.80566029 -11.21371965 -8.06357579 0 0 Z M-44.2734375 15.97265625 C-49.66921695 25.10397533 -50.13233938 34.15472471 -48.4296875 44.59765625 C-46.19435404 53.11321227 -41.33546154 60.91046422 -33.8984375 65.72265625 C-29.39323005 67.54319632 -25.45502292 68.24689336 -20.7734375 66.72265625 C-11.6770212 62.51736855 -7.57661837 55.89342266 -3.8984375 46.72265625 C-1.52569388 37.80689234 -1.67772051 27.12977467 -5.6328125 18.74609375 C-8.86986173 13.57081135 -13.0742741 11.34243567 -18.8984375 9.72265625 C-28.46231889 8.75841967 -37.0572564 9.13627415 -44.2734375 15.97265625 Z M-83.8984375 105.72265625 C-88.89316347 112.27384039 -88.41859091 118.52370891 -88.2890625 126.53125 C-88.28159088 127.8664515 -88.2759023 129.20166405 -88.27191162 130.53688049 C-88.25672729 134.03057782 -88.21751009 137.52359714 -88.1730957 141.01702881 C-88.13198573 144.59003531 -88.11386728 148.16315267 -88.09375 151.73632812 C-88.05100675 158.73207538 -87.98071762 165.72726334 -87.8984375 172.72265625 C-82.9484375 172.72265625 -77.9984375 172.72265625 -72.8984375 172.72265625 C-72.87338135 171.37518311 -72.8483252 170.02770996 -72.82250977 168.6394043 C-72.72843527 163.64662947 -72.62821456 158.65399376 -72.52612305 153.66137695 C-72.48277437 151.49930065 -72.44109925 149.33719012 -72.40112305 147.17504883 C-72.34341906 144.06971923 -72.27972478 140.96456189 -72.21484375 137.859375 C-72.19813126 136.89053879 -72.18141876 135.92170258 -72.16419983 134.92350769 C-72.14425461 134.02280045 -72.12430939 133.1220932 -72.10375977 132.1940918 C-72.08821548 131.40133347 -72.0726712 130.60857513 -72.05665588 129.79179382 C-71.8984375 127.72265625 -71.8984375 127.72265625 -70.8984375 124.72265625 C-69.50979316 124.41709399 -68.11162486 124.15464817 -66.7109375 123.91015625 C-65.93363281 123.75933594 -65.15632813 123.60851562 -64.35546875 123.453125 C-61.8984375 123.72265625 -61.8984375 123.72265625 -59.2890625 125.60742188 C-55.92890962 129.98605246 -56.16818596 133.45328743 -56.19140625 138.8359375 C-56.17678345 139.69586304 -56.16216064 140.55578857 -56.14709473 141.44177246 C-56.09989639 144.63928371 -56.0954348 147.83731078 -56.0859375 151.03515625 C-56.0240625 158.19203125 -55.9621875 165.34890625 -55.8984375 172.72265625 C-36.0984375 172.72265625 -16.2984375 172.72265625 4.1015625 172.72265625 C4.23241273 158.46756385 4.23241273 158.46756385 4.30932617 144.2121582 C4.33577934 142.42005481 4.3640581 140.62797704 4.39453125 138.8359375 C4.39054321 137.91147827 4.38655518 136.98701904 4.38244629 136.0345459 C4.48419411 131.42343468 4.60839905 129.3652998 7.4921875 125.60742188 C10.1015625 123.72265625 10.1015625 123.72265625 12.55859375 123.453125 C13.33589844 123.60394531 14.11320312 123.75476563 14.9140625 123.91015625 C15.70425781 124.04808594 16.49445313 124.18601563 17.30859375 124.328125 C17.90027344 124.45832031 18.49195313 124.58851563 19.1015625 124.72265625 C20.03080227 127.51037556 20.25023588 129.30499873 20.30688477 132.1940918 C20.3368026 133.54515266 20.3368026 133.54515266 20.36732483 134.92350769 C20.38403732 135.8923439 20.40074982 136.86118011 20.41796875 137.859375 C20.43874985 138.85395218 20.45953094 139.84852936 20.48094177 140.87324524 C20.54635662 144.05214492 20.6052849 147.23112759 20.6640625 150.41015625 C20.70725538 152.56446173 20.75086992 154.71875879 20.79492188 156.87304688 C20.90202981 162.15616483 21.00332016 167.4393663 21.1015625 172.72265625 C26.0515625 172.72265625 31.0015625 172.72265625 36.1015625 172.72265625 C36.19215454 165.02059076 36.26544563 157.31872548 36.30881119 149.61625576 C36.32963121 146.03913416 36.35784474 142.46239791 36.40332031 138.88549805 C36.44698029 135.42953296 36.47074156 131.97393708 36.48107147 128.51771736 C36.49199166 126.56624793 36.52318558 124.61492575 36.55474854 122.66368103 C36.55647761 115.79189752 36.32403523 111.26093734 32.1015625 105.72265625 C17.79010924 92.26138833 -7.07003864 91.47790571 -25.5234375 91.41015625 C-26.54673157 91.40622864 -26.54673157 91.40622864 -27.59069824 91.40222168 C-45.72986839 91.39479846 -69.86675923 92.52454302 -83.8984375 105.72265625 Z " fill="#000000" transform="translate(281.8984375,78.27734375)"/>
</svg>
