<?xml version="1.0" encoding="UTF-8"?>
<svg version="1.1" xmlns="http://www.w3.org/2000/svg" width="512" height="512">
<path d="M0 0 C1.40476117 -0.00373917 2.80952026 -0.00834176 4.21427608 -0.01373065 C8.06518453 -0.02594315 11.91600599 -0.02570225 15.76692939 -0.02334189 C19.9238517 -0.02293328 24.08074629 -0.03397712 28.23765564 -0.04345703 C36.3785231 -0.06005852 44.51936159 -0.0655662 52.66024455 -0.06668179 C59.27898101 -0.06763269 65.89770791 -0.07174508 72.51644135 -0.07808304 C91.28946404 -0.09569331 110.06246389 -0.10492227 128.83549491 -0.10342209 C130.35307147 -0.10330222 130.35307147 -0.10330222 131.90130615 -0.10317993 C132.91426186 -0.10309817 133.92721758 -0.10301641 134.97086892 -0.10293217 C151.38477605 -0.10211938 167.7985914 -0.12125575 184.21247199 -0.14945666 C201.07366829 -0.17819708 217.93481984 -0.19199631 234.79604125 -0.19026911 C244.25929246 -0.1896056 253.72244745 -0.19508089 263.18567657 -0.21662521 C271.24333913 -0.23485226 279.30086184 -0.23917185 287.35853609 -0.22560637 C291.46728604 -0.21908433 295.57576782 -0.21893168 299.68449211 -0.23631287 C303.45117964 -0.25208281 307.21738726 -0.24914047 310.98406336 -0.2317446 C312.98081273 -0.22724108 314.97757723 -0.24230121 316.9742682 -0.25822389 C328.0557915 -0.17366987 338.2061055 2.25769705 346.28656006 10.26742554 C354.82793112 20.8632912 355.44290079 31.67148947 355.40681458 44.78341675 C355.40809621 46.49651118 355.40809621 46.49651118 355.40940374 48.24421358 C355.41104748 52.06121178 355.40555526 55.87816578 355.40008545 59.69515991 C355.39924595 62.43522164 355.39991782 65.1752825 355.40052795 67.91534424 C355.40105136 73.8094783 355.39792375 79.70360127 355.39229012 85.59773254 C355.38415022 94.11957217 355.38155734 102.64140646 355.38030212 111.16324955 C355.37811552 124.99062115 355.37146604 138.81798684 355.36199951 152.64535522 C355.35281528 166.07439138 355.34573939 179.50342593 355.3414917 192.9324646 C355.34109761 194.17488907 355.34109761 194.17488907 355.34069557 195.44241303 C355.33939049 199.59781976 355.3381268 203.75322649 355.33688366 207.90863323 C355.32652323 242.36156825 355.30891556 276.81449626 355.28656006 311.26742554 C356.04312584 311.40403725 356.79969162 311.54064896 357.57918364 311.68140042 C358.57095702 311.8609873 359.56273041 312.04057419 360.58455753 312.2256031 C362.05971871 312.49239567 362.05971871 312.49239567 363.56468111 312.76457798 C366.44240551 313.29621686 369.29921325 313.88696219 372.15350342 314.53256226 C373.16082016 314.75974945 374.1681369 314.98693665 375.20597839 315.2210083 C379.70066635 316.25040145 384.19450625 317.28322066 388.68621826 318.32553101 C391.05590068 318.87269527 393.42702335 319.413657 395.79949951 319.94857788 C399.24518015 320.7257848 402.68603001 321.52178444 406.12640381 322.32211304 C407.18681381 322.55767914 408.24722382 322.79324524 409.33976746 323.03594971 C410.32501907 323.26944122 411.31027069 323.50293274 412.32537842 323.74349976 C413.18932724 323.94176361 414.05327606 324.14002747 414.94340515 324.34429932 C417.82320992 325.47884799 419.3137471 326.90328801 421.28656006 329.26742554 C421.97406006 332.01742554 421.97406006 332.01742554 421.28656006 335.26742554 C419.28759754 338.25929378 416.81862793 340.72239486 414.28656006 343.26742554 C413.82088623 343.74002808 413.3552124 344.21263062 412.87542725 344.69955444 C409.70541608 347.9159108 406.50589795 351.10048193 403.28656006 354.26742554 C404.88564982 358.22855247 407.63604198 360.89248934 410.61907959 363.84286499 C411.43417244 364.66080536 411.43417244 364.66080536 412.26573181 365.49526978 C414.06209739 367.29533695 415.86556051 369.08810402 417.66937256 370.88070679 C418.92566814 372.13580928 420.1815932 373.39128274 421.43716431 374.64710999 C424.07203196 377.28041341 426.71022364 379.9103248 429.35101318 382.53768921 C432.71829846 385.88806363 436.07904346 389.24490308 439.43750191 392.60412312 C442.03332298 395.19967064 444.63175526 397.79259085 447.23104477 400.38466454 C448.46985465 401.62031402 449.70807897 402.85655087 450.94568253 404.09340858 C459.66850074 412.81990748 459.66850074 412.81990748 468.9022522 420.99830627 C471.10270516 423.015659 471.30942032 424.41030214 471.78656006 427.39242554 C471.26258228 431.45325336 470.94449335 432.06793496 468.34051514 434.91610718 C467.70231842 435.61519196 467.0641217 436.31427673 466.40658569 437.0345459 C462.63758638 441.004178 458.79851657 444.89770365 454.92327881 448.76351929 C453.61348808 450.0747451 453.61348808 450.0747451 452.27723694 451.41246033 C450.4455539 453.24481981 448.61262371 455.07593338 446.77850342 456.90585327 C444.89809576 458.78265955 443.01909523 460.66073101 441.14276123 462.54159546 C438.42642801 465.26407905 435.70668695 467.98310876 432.98577881 470.70101929 C432.14310959 471.54571274 431.30044037 472.39040619 430.43223572 473.26069641 C429.65415054 474.03562943 428.87606537 474.81056244 428.07440186 475.60897827 C427.38936081 476.29322372 426.70431976 476.97746918 425.9985199 477.68244934 C423.84790052 479.67354776 422.55354782 480.21657073 419.66156006 480.76742554 C410.17431564 479.36190785 400.77870262 465.88417688 394.16156006 459.24008179 C392.80557847 457.88223205 391.44937366 456.52460521 390.09295654 455.16719055 C386.54639946 451.61683954 383.00285745 448.06349436 379.45996094 444.50949097 C375.83498646 440.87423475 372.20713257 437.24185454 368.57952881 433.60922241 C361.47907105 426.49808252 354.38179909 419.38377224 347.28656006 412.26742554 C344.18746937 413.74244648 342.19339621 415.17456834 339.86077881 417.70883179 C338.91235107 418.70753296 338.91235107 418.70753296 337.94476318 419.72640991 C336.63446743 421.12501103 335.3322953 422.53126886 334.03851318 423.94515991 C330.91229635 427.21074203 328.92535758 429.05939828 324.55609131 430.48226929 C321.28656006 430.26742554 321.28656006 430.26742554 318.97796631 428.75570679 C316.90244304 425.70233883 316.10635097 423.04138078 315.22406006 419.45492554 C314.77353271 417.68182007 314.77353271 417.68182007 314.31390381 415.87289429 C313.36066289 411.76012965 312.54498848 407.62000051 311.72235107 403.47958374 C311.5146748 402.43760708 311.5146748 402.43760708 311.30280304 401.37458038 C310.96358862 399.67228838 310.62501024 397.96986965 310.28656006 396.26742554 C309.61015419 396.26894442 308.93374833 396.2704633 308.23684531 396.27202821 C268.12049194 396.3615996 228.00415149 396.43020161 187.88771831 396.47168685 C183.06762177 396.4766895 178.24752544 396.48186681 173.4274292 396.4871521 C171.98807732 396.48872596 171.98807732 396.48872596 170.51964762 396.49033162 C154.99580187 396.50772243 139.47201556 396.53925282 123.94820503 396.57603672 C108.01158108 396.61348299 92.07498819 396.63566918 76.13832206 396.64377952 C66.30972218 396.64925964 56.48129031 396.66654916 46.65274217 396.6990914 C39.90694463 396.72028482 33.16123358 396.72661468 26.41540519 396.72143105 C22.52719293 396.71887676 18.63927365 396.72270798 14.75111389 396.74424744 C11.18328053 396.76386686 7.61593418 396.76459736 4.04807731 396.75102112 C2.16280826 396.74855927 0.27754401 396.76567288 -1.60763997 396.78375077 C-13.76054192 396.69940659 -23.92100708 394.22746056 -32.68609619 385.57601929 C-35.31779403 382.57923042 -37.04112424 379.89077622 -38.71343994 376.26742554 C-39.06907127 375.49901455 -39.4247026 374.73060356 -39.79111063 373.93890738 C-40.84222993 370.89439161 -40.96636711 368.49196598 -40.97070885 365.27371597 C-40.97715774 364.06405615 -40.98360663 362.85439633 -40.99025095 361.60808015 C-40.98730879 360.26912536 -40.98417336 358.93017098 -40.98086548 357.59121704 C-40.98460228 356.16613262 -40.98920392 354.74105025 -40.99459612 353.31597114 C-41.0068381 349.39967537 -41.00656425 345.48346495 -41.00420737 341.56715441 C-41.0037995 337.34343173 -41.01483554 333.11973652 -41.02432251 328.89602661 C-41.04094042 320.62053345 -41.04643243 312.34506877 -41.04754727 304.06956032 C-41.04849743 297.34253997 -41.05260617 290.61552903 -41.05894852 283.88851166 C-41.07656365 264.81685377 -41.08578705 245.74521839 -41.08428757 226.6735523 C-41.08420766 225.64524336 -41.08412774 224.61693442 -41.08404541 223.5574646 C-41.08396365 222.52790019 -41.08388189 221.49833578 -41.08379765 220.43757245 C-41.08298483 203.75382682 -41.10212065 187.0701715 -41.13032214 170.38645199 C-41.15904964 153.25638581 -41.17286249 136.12636368 -41.17113459 118.9962728 C-41.17047061 109.3787961 -41.17596647 99.76141405 -41.19749069 90.14395905 C-41.21570078 81.95480541 -41.2200513 73.7657893 -41.20647185 65.57662418 C-41.19994111 61.3992785 -41.19982865 57.22219669 -41.21717834 53.0448761 C-41.23290982 49.21776853 -41.230045 45.39113404 -41.21261008 41.56403801 C-41.20809037 39.52992606 -41.22319699 37.49579943 -41.23908937 35.46174455 C-41.18397148 28.15017452 -40.40500033 22.6321985 -36.71343994 16.26742554 C-36.0444165 15.07053101 -36.0444165 15.07053101 -35.36187744 13.84945679 C-26.47198321 1.49632155 -14.17399675 -0.03379712 0 0 Z " fill="#EAEFF2" transform="translate(40.71343994140625,15.732574462890625)"/>
<path d="M0 0 C1.40476117 -0.00373917 2.80952026 -0.00834176 4.21427608 -0.01373065 C8.06518453 -0.02594315 11.91600599 -0.02570225 15.76692939 -0.02334189 C19.9238517 -0.02293328 24.08074629 -0.03397712 28.23765564 -0.04345703 C36.3785231 -0.06005852 44.51936159 -0.0655662 52.66024455 -0.06668179 C59.27898101 -0.06763269 65.89770791 -0.07174508 72.51644135 -0.07808304 C91.28946404 -0.09569331 110.06246389 -0.10492227 128.83549491 -0.10342209 C130.35307147 -0.10330222 130.35307147 -0.10330222 131.90130615 -0.10317993 C132.91426186 -0.10309817 133.92721758 -0.10301641 134.97086892 -0.10293217 C151.38477605 -0.10211938 167.7985914 -0.12125575 184.21247199 -0.14945666 C201.07366829 -0.17819708 217.93481984 -0.19199631 234.79604125 -0.19026911 C244.25929246 -0.1896056 253.72244745 -0.19508089 263.18567657 -0.21662521 C271.24333913 -0.23485226 279.30086184 -0.23917185 287.35853609 -0.22560637 C291.46728604 -0.21908433 295.57576782 -0.21893168 299.68449211 -0.23631287 C303.45117964 -0.25208281 307.21738726 -0.24914047 310.98406336 -0.2317446 C312.98081273 -0.22724108 314.97757723 -0.24230121 316.9742682 -0.25822389 C328.0557915 -0.17366987 338.2061055 2.25769705 346.28656006 10.26742554 C359.26830585 26.37172934 355.28656006 44.70997593 355.28656006 65.26742554 C224.60656006 65.26742554 93.92656006 65.26742554 -40.71343994 65.26742554 C-40.71343994 18.39535731 -40.71343994 18.39535731 -30.71343994 8.26742554 C-20.75291775 0.84230899 -12.11410863 -0.02888543 0 0 Z " fill="#3B566B" transform="translate(40.71343994140625,15.732574462890625)"/>
<path d="M0 0 C2.11204903 0.49944179 4.22267912 1.00491295 6.33203125 1.515625 C8.66117473 2.06630505 10.9906073 2.61576369 13.3203125 3.1640625 C15.054021 3.57350098 15.054021 3.57350098 16.82275391 3.99121094 C21.54431341 5.09195963 26.2794979 6.12289285 31.01953125 7.140625 C46.32792677 10.44518226 61.62166696 13.81259619 76.89855957 17.2598877 C79.10856532 17.75752636 81.31934258 18.25160694 83.53027344 18.74511719 C87.57287868 19.64957327 91.60886612 20.58068822 95.64453125 21.515625 C97.45945068 21.91950439 97.45945068 21.91950439 99.31103516 22.33154297 C100.42140137 22.59338379 101.53176758 22.85522461 102.67578125 23.125 C103.64064453 23.34639648 104.60550781 23.56779297 105.59960938 23.79589844 C108.60837626 24.94237024 110.11029333 26.29114156 112.14453125 28.765625 C112.83203125 31.515625 112.83203125 31.515625 112.14453125 34.765625 C110.14556873 37.75749324 107.67659912 40.22059432 105.14453125 42.765625 C104.67885742 43.23822754 104.21318359 43.71083008 103.73339844 44.19775391 C100.56338727 47.41411026 97.36386915 50.59868139 94.14453125 53.765625 C95.74362101 57.72675193 98.49401317 60.3906888 101.47705078 63.34106445 C102.02044601 63.88635803 102.56384125 64.43165161 103.123703 64.99346924 C104.92006858 66.79353641 106.7235317 68.58630349 108.52734375 70.37890625 C109.78363933 71.63400874 111.03956439 72.88948221 112.2951355 74.14530945 C114.93000315 76.77861287 117.56819483 79.40852426 120.20898438 82.03588867 C123.57626965 85.38626309 126.93701465 88.74310254 130.2954731 92.10232258 C132.89129417 94.6978701 135.48972645 97.29079031 138.08901596 99.882864 C139.32782584 101.11851348 140.56605016 102.35475034 141.80365372 103.59160805 C150.52647193 112.31810695 150.52647193 112.31810695 159.76022339 120.49650574 C161.96067635 122.51385846 162.16739151 123.9085016 162.64453125 126.890625 C162.12055347 130.95145282 161.80246454 131.56613442 159.19848633 134.41430664 C158.56028961 135.11339142 157.9220929 135.8124762 157.26455688 136.53274536 C153.49555757 140.50237746 149.65648776 144.39590312 145.78125 148.26171875 C144.90805618 149.13586929 144.03486237 150.01001984 143.13520813 150.91065979 C141.30352509 152.74301927 139.4705949 154.57413284 137.63647461 156.40405273 C135.75606695 158.28085902 133.87706642 160.15893048 132.00073242 162.03979492 C129.2843992 164.76227851 126.56465814 167.48130823 123.84375 170.19921875 C123.00108078 171.0439122 122.15841156 171.88860565 121.29020691 172.75889587 C120.12307915 173.92129539 120.12307915 173.92129539 118.93237305 175.10717773 C118.247332 175.79142319 117.56229095 176.47566864 116.85649109 177.1806488 C114.70587171 179.17174722 113.41151901 179.71477019 110.51953125 180.265625 C101.03228683 178.86010731 91.63667381 165.38237634 85.01953125 158.73828125 C83.66354967 157.38043152 82.30734485 156.02280467 80.95092773 154.66539001 C77.40437065 151.11503901 73.86082864 147.56169383 70.31793213 144.00769043 C66.69295765 140.37243422 63.06510376 136.74005401 59.4375 133.10742188 C52.33704224 125.99628198 45.23977028 118.8819717 38.14453125 111.765625 C35.04544057 113.24064594 33.0513674 114.67276781 30.71875 117.20703125 C30.08646484 117.87283203 29.45417969 118.53863281 28.80273438 119.22460938 C27.49243862 120.6232105 26.19026649 122.02946832 24.89648438 123.44335938 C21.77026754 126.70894149 19.78332877 128.55759774 15.4140625 129.98046875 C12.14453125 129.765625 12.14453125 129.765625 10.06835938 128.17749023 C7.67537564 125.1774539 7.00524976 122.68382494 6.09375 118.9609375 C5.92936935 118.30046417 5.76498871 117.63999084 5.59562683 116.95950317 C4.02826385 110.55698353 2.67794146 104.10576024 1.36593628 97.64675903 C-1.76645607 82.27889011 -5.39052149 67.05230043 -9.14343262 51.82603455 C-9.32942017 51.07133377 -9.51540771 50.316633 -9.70703125 49.5390625 C-9.89076294 48.79398941 -10.07449463 48.04891632 -10.26379395 47.28126526 C-12.26291308 39.15059376 -14.14494784 30.99409149 -16.00415039 22.83032227 C-16.96276187 18.62243282 -17.93007916 14.42139778 -18.9921875 10.23828125 C-20.72504952 3.26762815 -20.72504952 3.26762815 -18.48046875 -0.609375 C-13.15967088 -3.90320225 -5.82329242 -1.29948348 0 0 Z " fill="#EF5350" transform="translate(349.85546875,316.234375)"/>
<path d="M0 0 C7.94975922 5.46919525 12.57628393 12.34684179 14.828125 21.6796875 C15.25340169 25.86929409 15.27269897 30.02954122 15.26171875 34.23828125 C15.2669606 35.42261246 15.27220245 36.60694366 15.27760315 37.8271637 C15.28399928 40.32072163 15.28271777 42.81430984 15.27416992 45.30786133 C15.26565845 49.10227673 15.2944608 52.89518599 15.32617188 56.68945312 C15.32778419 59.12239539 15.32720578 61.55534029 15.32421875 63.98828125 C15.33545273 65.11149277 15.34668671 66.23470428 15.35826111 67.39195251 C15.26597718 77.93109428 12.45802242 85.93529323 5.18359375 93.6328125 C-4.720428 102.23929242 -14.55624485 103.38710601 -27.171875 102.6796875 C-36.01202238 101.15239996 -44.34695601 95.75787083 -49.79173279 88.66381836 C-55.09554279 81.03891347 -55.75707104 73.99036782 -55.66796875 64.8671875 C-55.66942398 63.65828857 -55.67087921 62.44938965 -55.67237854 61.20385742 C-55.67072547 58.6589923 -55.65923107 56.11411656 -55.63842773 53.56933594 C-55.60946414 49.69162176 -55.61783516 45.81527606 -55.63085938 41.9375 C-55.62462129 39.45572258 -55.61622981 36.97394943 -55.60546875 34.4921875 C-55.60840439 33.34194092 -55.61134003 32.19169434 -55.61436462 31.0065918 C-55.49270541 20.53819998 -53.40725121 12.44007967 -46.171875 4.6796875 C-33.17922789 -7.41884196 -15.11744639 -9.1901023 0 0 Z " fill="#5D9DEE" transform="translate(200.171875,135.3203125)"/>
<path d="M0 0 C0.68089691 -0.0038269 1.36179382 -0.00765381 2.06332397 -0.01159668 C3.50398232 -0.01431378 4.94469016 -0.00696641 6.38525391 0.00976562 C8.55878036 0.03098488 10.7289265 0.01006668 12.90234375 -0.015625 C24.53818999 -0.04052094 33.42052854 1.99482943 41.9765625 10.29296875 C48.74744461 17.93020388 49.92199614 25.52983286 49.46875 35.44140625 C49.04970812 40.10136689 47.50894182 43.77156523 45.0546875 47.74609375 C43.7867939 49.46654744 43.7867939 49.46654744 43.9609375 51.53125 C45.32061902 52.7398558 46.72517258 53.89821039 48.1484375 55.03125 C54.21900028 60.40283631 57.68015549 65.39669792 58.43359375 73.59765625 C58.9545297 83.51530555 57.74814446 91.13150671 50.9765625 98.76953125 C40.57434432 108.85820739 29.70019713 109.17806344 15.90917969 109.05273438 C13.07141213 109.03113946 10.23613172 109.0526836 7.3984375 109.078125 C5.5885361 109.07548436 3.77863624 109.07036484 1.96875 109.0625 C0.7015361 109.07464539 0.7015361 109.07464539 -0.59127808 109.08703613 C-1.37954987 109.07442749 -2.16782166 109.06181885 -2.97998047 109.04882812 C-4.01395462 109.04405457 -4.01395462 109.04405457 -5.06881714 109.03918457 C-8.17699751 108.23788728 -9.20281984 107.18011739 -11.0390625 104.53125 C-11.63405565 101.34333773 -11.58528744 98.19610398 -11.55664062 94.9609375 C-11.5636499 93.99142151 -11.57065918 93.02190552 -11.57788086 92.02301025 C-11.59549105 88.81713245 -11.58382702 85.61213684 -11.5703125 82.40625 C-11.57300653 80.17952301 -11.57688821 77.95279717 -11.58190918 75.72607422 C-11.58780834 71.05880536 -11.57922754 66.39184266 -11.56054688 61.72460938 C-11.53775742 55.73871492 -11.55087822 49.75353781 -11.57483673 43.76766968 C-11.58928321 39.16945988 -11.58469393 34.57142046 -11.57432556 29.97320557 C-11.57165511 27.76597001 -11.57493918 25.55871903 -11.58424377 23.35150146 C-11.59439012 20.26777099 -11.57893434 17.18520605 -11.55664062 14.1015625 C-11.56473755 13.18715393 -11.57283447 12.27274536 -11.58117676 11.33062744 C-11.49863881 5.17550741 -11.49863881 5.17550741 -9.20877075 1.9654541 C-6.0960714 -0.09207883 -3.70963131 0.01332517 0 0 Z " fill="#5E9DEE" transform="translate(248.0390625,129.46875)"/>
<path d="M0 0 C0 10.56 0 21.12 0 32 C-130.68 32 -261.36 32 -396 32 C-396 31.67 -396 31.34 -396 31 C-318.45 31 -240.9 31 -161 31 C-160.67 28.03 -160.34 25.06 -160 22 C-157.35573482 14.7228074 -152.26966517 8.34556095 -145.47349072 4.61205006 C-137.5688772 1.09211452 -130.85570735 0.27969179 -122.26098633 0.34057617 C-120.94410828 0.33009247 -119.62723022 0.31960876 -118.27044678 0.30880737 C-114.69871334 0.28092361 -111.1275858 0.28308551 -107.55577683 0.29110122 C-103.80725353 0.29424928 -100.05891559 0.26912443 -96.31047058 0.24714661 C-89.22883361 0.20984818 -82.14738858 0.19756722 -75.06566304 0.1945222 C-67.00003823 0.18981779 -58.93460423 0.15684505 -50.86906397 0.12162435 C-33.9127973 0.04823299 -16.95644442 0 0 0 Z " fill="#728594" transform="translate(396,49)"/>
<path d="M0 0 C0.84587138 -0.00843994 1.69174276 -0.01687988 2.56324661 -0.02557558 C3.95743715 -0.01656051 3.95743715 -0.01656051 5.37979317 -0.00736332 C6.36704828 -0.01274886 7.3543034 -0.01813439 8.37147534 -0.02368313 C11.69493986 -0.0380435 15.01801061 -0.03083901 18.34149361 -0.023736 C20.71803294 -0.02943537 23.09456952 -0.03639794 25.47110176 -0.04453373 C31.2656839 -0.06065806 37.0601416 -0.06255579 42.85474144 -0.05732083 C47.56430688 -0.05328268 52.27384026 -0.05471844 56.98340416 -0.06006908 C57.6531915 -0.06081751 58.32297883 -0.06156593 59.01306275 -0.06233703 C60.3736635 -0.06386848 61.73426424 -0.06540683 63.09486498 -0.066952 C75.86147633 -0.08068765 88.62802644 -0.07523219 101.39463641 -0.06376678 C113.07614212 -0.05383619 124.7574894 -0.0667701 136.43897067 -0.09070098 C148.42966788 -0.11508044 160.42029127 -0.12470252 172.41101277 -0.11804825 C179.14440588 -0.11455307 185.87767716 -0.11680751 192.61105156 -0.13429928 C198.94267674 -0.14972834 205.27399877 -0.14585753 211.6056118 -0.12699413 C213.93204629 -0.12329694 216.25850303 -0.12644941 218.58491707 -0.13687992 C221.75599051 -0.15001393 224.92604917 -0.138609 228.09707832 -0.12088871 C229.02207724 -0.13049372 229.94707617 -0.14009872 230.90010536 -0.14999479 C235.04011126 -0.1022544 237.32900314 0.06801557 240.97203445 2.18898582 C242.86541939 4.38031673 242.86541939 4.38031673 242.92791939 7.94281673 C241.86541939 11.38031673 241.86541939 11.38031673 240.39922523 13.07135105 C236.45342207 15.10975543 232.64050972 14.79300199 228.26202583 14.76126766 C227.27729428 14.76594763 226.29256272 14.77062761 225.27799082 14.7754494 C221.96910718 14.78744207 218.66063443 14.77792531 215.35174751 14.76850033 C212.98329107 14.77256412 210.61483652 14.77790491 208.24638557 14.7844305 C202.47566432 14.79670877 196.70507426 14.79488569 190.93434894 14.78619258 C186.24482314 14.77942037 181.55533015 14.7784973 176.86580086 14.78176403 C175.86505305 14.78245358 175.86505305 14.78245358 174.84408811 14.78315706 C173.48880016 14.78411622 172.13351222 14.78508886 170.77822429 14.78607483 C158.06647722 14.79463166 145.35479503 14.78479002 132.6430586 14.76867373 C121.73325965 14.75527027 110.82355645 14.75759828 99.91375923 14.77143002 C87.24783485 14.78748067 74.58196735 14.79380766 61.91603422 14.78459322 C60.56570213 14.78363757 59.21537003 14.78269445 57.86503792 14.78176403 C56.86842626 14.78106979 56.86842626 14.78106979 55.85168102 14.78036153 C51.16720546 14.77777009 46.48276595 14.78214593 41.79829597 14.78920269 C35.49460516 14.79785184 29.19109565 14.79188788 22.88742447 14.77451992 C20.5702469 14.77054411 18.25305415 14.77170772 15.93588257 14.77830791 C12.77998483 14.78647014 9.62467305 14.776266 6.46881294 14.76126766 C5.54547425 14.76795983 4.62213555 14.77465199 3.6708169 14.78154695 C-2.50440586 14.72437475 -2.50440586 14.72437475 -5.70378685 12.97760105 C-7.47814649 10.99677272 -7.64692608 10.01487719 -7.57208061 7.38031673 C-7.57079155 6.69969173 -7.56950249 6.01906673 -7.56817436 5.31781673 C-6.634439 1.14544969 -4.01021582 0.0056435 0 0 Z " fill="#D5D6DB" transform="translate(67.13458061218262,265.61968326568604)"/>
<path d="M0 0 C1.27495721 -0.01265991 1.27495721 -0.01265991 2.57567114 -0.02557558 C3.97672129 -0.01656051 3.97672129 -0.01656051 5.40607548 -0.00736332 C6.39811971 -0.01274886 7.39016395 -0.01813439 8.41227013 -0.02368313 C11.75188756 -0.03804367 15.09111313 -0.03083899 18.43074894 -0.023736 C20.81876286 -0.02943533 23.20677406 -0.03639788 25.59478092 -0.04453373 C31.41710137 -0.06065773 37.23929796 -0.06255596 43.06163602 -0.05732083 C47.79313983 -0.053283 52.52461173 -0.05471806 57.25611401 -0.06006908 C57.92896543 -0.06081751 58.60181685 -0.06156593 59.2950577 -0.06233703 C60.66186118 -0.06386847 62.02866466 -0.06540682 63.39546812 -0.066952 C76.21975313 -0.08068723 89.04397718 -0.07523223 101.86826081 -0.06376678 C113.60540725 -0.05383381 125.34239607 -0.06677429 137.07951819 -0.09070098 C149.1255811 -0.1150728 161.17157054 -0.12470455 173.21765763 -0.11804825 C179.98287671 -0.11455168 186.74797453 -0.11681678 193.51317501 -0.13429928 C199.87352382 -0.14971767 206.2335707 -0.14586953 212.59390736 -0.12699413 C214.93204978 -0.1232941 217.27021432 -0.12645757 219.60833645 -0.13687992 C222.79289644 -0.14999455 225.9764428 -0.13862653 229.16095829 -0.12088871 C230.092761 -0.13049372 231.02456371 -0.14009872 231.98460287 -0.14999479 C238.1859279 -0.07860951 238.1859279 -0.07860951 241.45238686 2.18898582 C242.84700871 4.38031673 242.84700871 4.38031673 242.84700871 7.94281673 C241.84700871 11.38031673 241.84700871 11.38031673 240.3847208 13.07093048 C236.43666543 15.10801319 232.62389534 14.79650819 228.24361515 14.76799679 C227.2588836 14.77338233 226.27415204 14.77876786 225.25958014 14.7843166 C221.95070628 14.79865602 218.64222909 14.79147763 215.33333683 14.78436947 C212.96487956 14.79006986 210.59642505 14.79703282 208.22797489 14.8051672 C202.45726026 14.82128052 196.68667063 14.82319209 190.91593826 14.81795429 C186.22641099 14.8139146 181.5369159 14.81535375 176.84739017 14.82070255 C176.18022497 14.82145097 175.51305976 14.8221994 174.82567742 14.8229705 C173.47038948 14.82450195 172.11510154 14.8260403 170.75981361 14.82758547 C158.04807073 14.8413159 145.33638939 14.83586879 132.62464792 14.82440025 C120.99102895 14.81446509 109.35756897 14.82741239 97.72397453 14.85133445 C85.78184095 14.8757062 73.83978149 14.88533821 61.89762354 14.87868172 C55.19166376 14.87518548 48.4858263 14.87744821 41.77988529 14.89493275 C35.47615582 14.91035098 29.17273099 14.9065032 22.86901379 14.8876276 C20.55183376 14.88392768 18.23463142 14.88709073 15.91747189 14.89751339 C12.76142615 14.91062863 9.60640311 14.89925956 6.45040226 14.88152218 C5.52706357 14.89112719 4.60372487 14.90073219 3.65240622 14.91062826 C-2.50026695 14.8391674 -2.50026695 14.8391674 -5.72585964 12.57164764 C-7.80269096 9.38271644 -7.62599792 7.09679735 -7.15299129 3.38031673 C-5.01276847 0.52550758 -3.50829935 0.00491311 0 0 Z " fill="#D5D6DB" transform="translate(67.15299129486084,349.61968326568604)"/>
<path d="M0 0 C1.27495721 -0.01265991 1.27495721 -0.01265991 2.57567114 -0.02557558 C3.97672129 -0.01656051 3.97672129 -0.01656051 5.40607548 -0.00736332 C6.39811971 -0.01274886 7.39016395 -0.01813439 8.41227013 -0.02368313 C11.75188756 -0.03804367 15.09111313 -0.03083899 18.43074894 -0.023736 C20.81876286 -0.02943533 23.20677406 -0.03639788 25.59478092 -0.04453373 C31.41710137 -0.06065773 37.23929796 -0.06255596 43.06163602 -0.05732083 C47.79313983 -0.053283 52.52461173 -0.05471806 57.25611401 -0.06006908 C57.92896543 -0.06081751 58.60181685 -0.06156593 59.2950577 -0.06233703 C60.66186118 -0.06386847 62.02866466 -0.06540682 63.39546812 -0.066952 C76.21975313 -0.08068723 89.04397718 -0.07523223 101.86826081 -0.06376678 C113.60540725 -0.05383381 125.34239607 -0.06677429 137.07951819 -0.09070098 C149.1255811 -0.1150728 161.17157054 -0.12470455 173.21765763 -0.11804825 C179.98287671 -0.11455168 186.74797453 -0.11681678 193.51317501 -0.13429928 C199.87352382 -0.14971767 206.2335707 -0.14586953 212.59390736 -0.12699413 C214.93204978 -0.1232941 217.27021432 -0.12645757 219.60833645 -0.13687992 C222.79289644 -0.14999455 225.9764428 -0.13862653 229.16095829 -0.12088871 C230.092761 -0.13049372 231.02456371 -0.14009872 231.98460287 -0.14999479 C238.1859279 -0.07860951 238.1859279 -0.07860951 241.45238686 2.18898582 C242.84700871 4.38031673 242.84700871 4.38031673 242.84700871 7.94281673 C241.84700871 11.38031673 241.84700871 11.38031673 240.3847208 13.07093048 C236.43666543 15.10801319 232.62389534 14.79650819 228.24361515 14.76799679 C227.2588836 14.77338233 226.27415204 14.77876786 225.25958014 14.7843166 C221.95070628 14.79865602 218.64222909 14.79147763 215.33333683 14.78436947 C212.96487956 14.79006986 210.59642505 14.79703282 208.22797489 14.8051672 C202.45726026 14.82128052 196.68667063 14.82319209 190.91593826 14.81795429 C186.22641099 14.8139146 181.5369159 14.81535375 176.84739017 14.82070255 C176.18022497 14.82145097 175.51305976 14.8221994 174.82567742 14.8229705 C173.47038948 14.82450195 172.11510154 14.8260403 170.75981361 14.82758547 C158.04807073 14.8413159 145.33638939 14.83586879 132.62464792 14.82440025 C120.99102895 14.81446509 109.35756897 14.82741239 97.72397453 14.85133445 C85.78184095 14.8757062 73.83978149 14.88533821 61.89762354 14.87868172 C55.19166376 14.87518548 48.4858263 14.87744821 41.77988529 14.89493275 C35.47615582 14.91035098 29.17273099 14.9065032 22.86901379 14.8876276 C20.55183376 14.88392768 18.23463142 14.88709073 15.91747189 14.89751339 C12.76142615 14.91062863 9.60640311 14.89925956 6.45040226 14.88152218 C5.52706357 14.89112719 4.60372487 14.90073219 3.65240622 14.91062826 C-2.50026695 14.8391674 -2.50026695 14.8391674 -5.72585964 12.57164764 C-7.80269096 9.38271644 -7.62599792 7.09679735 -7.15299129 3.38031673 C-5.01276847 0.52550758 -3.50829935 0.00491311 0 0 Z " fill="#D5D7DB" transform="translate(67.15299129486084,307.61968326568604)"/>
<path d="M0 0 C5.04885564 3.02931338 8.65629405 7.96888215 10.5 13.5 C10.60669705 15.09868573 10.65860822 16.7013301 10.67700195 18.3034668 C10.69625481 19.765951 10.69625481 19.765951 10.71589661 21.25798035 C10.72328354 22.31108902 10.73067047 23.36419769 10.73828125 24.44921875 C10.746353 25.53580276 10.75442474 26.62238678 10.76274109 27.74189758 C10.77657888 30.04430548 10.78730239 32.34673387 10.79516602 34.64916992 C10.81234807 38.1564875 10.85623469 41.66285494 10.90039062 45.16992188 C10.91052051 47.40884725 10.91903569 49.64778062 10.92578125 51.88671875 C10.94328934 52.92970627 10.96079742 53.97269379 10.97883606 55.04728699 C10.9581766 62.04365985 9.98165516 67.75108951 5.08784485 73.02055359 C-1.2599004 78.65710245 -7.63310005 79.11949158 -15.82421875 78.87109375 C-20.84268116 78.3644477 -23.98647533 77.1176291 -27.5 73.5 C-31.63632819 68.23842384 -33.58460393 63.59057702 -33.69287109 56.89013672 C-33.70893402 55.98174042 -33.72499695 55.07334412 -33.74154663 54.13742065 C-33.78636607 49.98062153 -33.82707933 45.82397703 -33.85009766 41.66699219 C-33.86661878 39.48296423 -33.89385758 37.29898948 -33.93212891 35.11523438 C-33.98726583 31.94893646 -34.00883022 28.7839027 -34.0234375 25.6171875 C-34.04610687 24.65328094 -34.06877625 23.68937439 -34.09213257 22.69625854 C-34.07067284 15.71396163 -32.46017818 10.30646319 -28.5 4.5 C-21.17224381 -2.50178052 -9.32231558 -4.10905949 0 0 Z " fill="#E9EEF2" transform="translate(191.5,145.5)"/>
<path d="M0 0 C1.6934967 1.05308533 1.6934967 1.05308533 3 3 C3.30123468 5.58792444 3.4202053 7.93656267 3.40405273 10.52563477 C3.41091599 11.29029556 3.41777924 12.05495636 3.42485046 12.8427887 C3.4431784 15.37584929 3.43926954 17.9082934 3.43359375 20.44140625 C3.43815567 22.20678407 3.44346128 23.97216011 3.44947815 25.73753357 C3.45842322 29.44399203 3.45597382 33.15023526 3.44604492 36.85668945 C3.43460699 41.5854129 3.45467942 46.31338383 3.48396206 51.0420084 C3.50240391 54.69254721 3.50201486 58.34290883 3.49632454 61.99348259 C3.49617201 63.73523952 3.50215935 65.477009 3.51461601 67.21872139 C3.59128454 79.70691053 2.79829233 89.85484436 -6.14453125 99.3125 C-12.98039978 105.52954254 -21.15749773 107.5110876 -30.23046875 107.3125 C-38.31809646 106.3999327 -46.46924277 101.40000457 -51.5390625 95.08203125 C-55.86704529 88.53943738 -58.42219821 80.89090618 -57 73 C-55.6953125 71.26171875 -55.6953125 71.26171875 -54 70 C-50.25918824 69.52389668 -47.96557809 69.42587249 -44.6875 71.375 C-42.93227937 74.10534321 -42.58470446 75.72278397 -42.0625 78.875 C-41.18350097 84.05727255 -39.90097784 86.45365651 -36 90 C-30.96526054 92.46142818 -25.45700035 93.04481349 -20.07421875 91.41796875 C-15.59597617 89.31789354 -13.67634035 86.4581807 -11.80960083 81.98724365 C-10.22400298 76.13674681 -10.45282727 70.08640334 -10.48357964 64.06523514 C-10.49630615 61.55974749 -10.48483649 59.0553457 -10.46754456 56.54989624 C-10.4409717 52.14192166 -10.43524473 47.73421789 -10.43664551 43.32617188 C-10.43888379 36.2506329 -10.42482134 29.1754256 -10.38105965 22.10001755 C-10.37121508 19.63198087 -10.37993617 17.16446758 -10.38975525 14.69644165 C-10.38361398 13.18906304 -10.37670324 11.68168731 -10.36889648 10.17431641 C-10.36985825 8.85799225 -10.37082001 7.54166809 -10.37181091 6.18545532 C-10 3 -10 3 -8.69569397 1.07504272 C-5.82039812 -0.74784864 -3.29059862 -0.35256414 0 0 Z " fill="#5D9CEE" transform="translate(115,131)"/>
<path d="M0 0 C7.425 -0.185625 7.425 -0.185625 15 -0.375 C16.54558594 -0.42962402 18.09117187 -0.48424805 19.68359375 -0.54052734 C26.7858826 -0.62644213 32.09085196 -0.57980097 37.6171875 4.41992188 C41.24541601 8.56573666 42.58555283 12.36211023 42.3515625 17.9140625 C41.48784034 23.03881399 39.16523741 26.89160344 35.4375 30.4375 C31.25845141 33.1163773 28.01396809 33.1182024 23.14453125 33.09765625 C21.93385986 33.09515869 20.72318848 33.09266113 19.47583008 33.09008789 C17.93693115 33.08098389 16.39803223 33.07187988 14.8125 33.0625 C9.924375 33.041875 5.03625 33.02125 0 33 C0 22.11 0 11.22 0 0 Z " fill="#EAEFF2" transform="translate(251,191)"/>
<path d="M0 0 C3.3 -0.103125 6.6 -0.20625 10 -0.3125 C11.53527344 -0.38078003 11.53527344 -0.38078003 13.1015625 -0.45043945 C19.61894347 -0.54817495 24.03838416 0.65933973 29 5 C32.28198738 8.809533 33.67274988 12.86970043 33.38671875 17.94921875 C32.42424951 23.05322229 30.1727433 26.88446369 26.4375 30.4375 C22.88553082 32.71440332 20.23860447 33.12265821 16.11328125 33.09765625 C15.26805908 33.09515869 14.42283691 33.09266113 13.55200195 33.09008789 C12.48296631 33.08098389 11.41393066 33.07187988 10.3125 33.0625 C5.2078125 33.0315625 5.2078125 33.0315625 0 33 C0 22.11 0 11.22 0 0 Z " fill="#EAEFF2" transform="translate(251,144)"/>
<path d="M0 0 C2.10058559 -0.00968123 4.20018223 -0.04069247 6.30053711 -0.07226562 C7.64232819 -0.07879848 8.98412625 -0.08404785 10.32592773 -0.08789062 C11.5438501 -0.09723633 12.76177246 -0.10658203 14.01660156 -0.11621094 C17.87758943 0.30212244 20.54120942 1.47504731 23.30639648 4.24023438 C23.89898908 11.469864 23.89898908 11.469864 21.43139648 14.67773438 C16.38654807 18.38718174 10.63728184 17.50104685 4.61279297 17.53540039 C2.51194596 17.55258672 0.41268447 17.59647036 -1.68774414 17.640625 C-3.02952947 17.6507549 -4.37132815 17.65927008 -5.71313477 17.66601562 C-7.54001831 17.6878894 -7.54001831 17.6878894 -9.40380859 17.71020508 C-13.32940515 17.14940557 -14.94921928 16.05947975 -17.69360352 13.24023438 C-18.75610352 9.80273438 -18.75610352 9.80273438 -18.69360352 6.24023438 C-13.96217628 -1.26478814 -8.017709 0.02239323 0 0 Z " fill="#E85350" transform="translate(129.693603515625,39.759765625)"/>
<path d="M0 0 C0.66677261 -0.00478363 1.33354523 -0.00956726 2.02052307 -0.01449585 C3.42492036 -0.01788447 4.82939764 -0.00875426 6.23364258 0.01220703 C8.37046371 0.03895681 10.50201455 0.01245832 12.63867188 -0.01953125 C23.99359405 -0.04852169 23.99359405 -0.04852169 27.875 3.015625 C29.94140625 5.6640625 29.94140625 5.6640625 30.56640625 8.6640625 C29.81113047 12.28938624 28.5030029 14.02712478 25.94140625 16.6640625 C21.66033927 18.80459599 15.9480867 17.84991701 11.19287109 17.84936523 C9.08149925 17.8515469 6.97065404 17.86969353 4.859375 17.88867188 C3.5143247 17.89160692 2.16927192 17.89359097 0.82421875 17.89453125 C-0.39894043 17.89864014 -1.62209961 17.90274902 -2.88232422 17.90698242 C-5.93191019 17.67375121 -7.57045817 17.38625949 -10.05859375 15.6640625 C-12.55891029 11.91358768 -12.59462929 10.10549984 -12.05859375 5.6640625 C-8.38500208 0.93589852 -5.90736663 0.02699012 0 0 Z " fill="#F8D04F" transform="translate(72.05859375,39.3359375)"/>
<path d="M0 0 C0.66677261 -0.00478363 1.33354523 -0.00956726 2.02052307 -0.01449585 C3.42492036 -0.01788447 4.82939764 -0.00875426 6.23364258 0.01220703 C8.37046371 0.03895681 10.50201455 0.01245832 12.63867188 -0.01953125 C23.99359405 -0.04852169 23.99359405 -0.04852169 27.875 3.015625 C29.94140625 5.6640625 29.94140625 5.6640625 30.56640625 8.6640625 C29.81113047 12.28938624 28.5030029 14.02712478 25.94140625 16.6640625 C21.66004555 18.80474285 16.00004161 17.93212975 11.24780273 17.95922852 C9.14695573 17.97641484 7.04769424 18.02029849 4.94726562 18.06445312 C3.6054803 18.07458302 2.26368161 18.0830982 0.921875 18.08984375 C-0.90500854 18.11171753 -0.90500854 18.11171753 -2.76879883 18.1340332 C-6.66669128 17.57719142 -8.28534077 16.40101385 -11.05859375 13.6640625 C-12.5029023 10.77544541 -12.43547881 8.86758549 -12.05859375 5.6640625 C-8.36592226 0.95091655 -5.9125066 0.02701361 0 0 Z " fill="#33C766" transform="translate(175.05859375,39.3359375)"/>
</svg>
