<?xml version="1.0" encoding="UTF-8"?>
<svg version="1.1" xmlns="http://www.w3.org/2000/svg" width="512" height="512">
<path d="M0 0 C13.62555245 10.63001115 13.62555245 10.63001115 16.37109375 16.12109375 C16.77301223 19.73836011 16.57218227 21.71891671 14.93359375 24.99609375 C11.72798061 27.65440709 9.81040237 28.03473359 5.70703125 27.7890625 C2.02403579 26.73589825 0.27530784 24.33596874 -2.23046875 21.54296875 C-11.45607647 12.22720851 -23.30608933 6.98125327 -35.62890625 3.12109375 C-36.42425781 2.85554688 -37.21960938 2.59 -38.0390625 2.31640625 C-55.43242495 -2.57652423 -73.60613061 2.69545233 -88.96484375 10.9921875 C-106.05892718 20.68059072 -116.31100726 36.6724918 -121.60351562 55.26000977 C-125.46709435 70.78434304 -124.88417199 88.3694721 -122.62890625 104.12109375 C-122.47924884 106.03474588 -122.3690893 107.95232167 -122.31640625 109.87109375 C-122.26033203 111.22460938 -122.26033203 111.22460938 -122.203125 112.60546875 C-122.77713114 115.99684445 -123.9338197 117.02790986 -126.62890625 119.12109375 C-129.3984375 120.39453125 -129.3984375 120.39453125 -132.44140625 121.49609375 C-138.4894902 123.90645483 -143.80659099 126.47646323 -146.81640625 132.49609375 C-146.32285924 139.40575191 -141.94541989 144.43842002 -137.1015625 149.046875 C-134.22705217 151.45819409 -131.21899806 153.62465077 -128.12890625 155.74609375 C-127.28924316 156.32677612 -127.28924316 156.32677612 -126.43261719 156.91918945 C-124.03288311 158.55942949 -121.64391376 160.11297909 -119.0859375 161.49609375 C-116.71294253 162.87926022 -115.25551401 163.89497745 -113.62890625 166.12109375 C-112.74955937 169.83534998 -112.35457909 173.50863276 -112.03125 177.30078125 C-110.99688636 187.12221461 -106.56701556 194.4396863 -100.62890625 202.12109375 C-99.90703125 203.13171875 -99.18515625 204.14234375 -98.44140625 205.18359375 C-88.15287507 217.05757072 -72.53689312 224.0409445 -57.09765625 225.44140625 C-39.07804679 226.00925109 -23.92252402 220.26989359 -10.203125 208.60546875 C-5.98898155 204.53840466 -2.73902226 200.06610736 0.37109375 195.12109375 C0.86480469 194.36570313 1.35851562 193.6103125 1.8671875 192.83203125 C5.42138995 186.69391307 6.38342142 180.41735995 7.12036133 173.45288086 C7.78980527 168.09327212 8.98610323 165.6106876 13.37109375 162.12109375 C15.4034063 160.66145119 17.46808504 159.24609339 19.55859375 157.87109375 C28.16969473 152.06120908 37.61364739 145.65811379 41.30859375 135.55859375 C41.39895119 132.03465365 40.63879693 130.85567699 38.37109375 128.12109375 C33.44171292 124.1898107 28.16951215 121.37531172 22.31640625 119.078125 C20.09676215 117.98613142 18.84085306 117.12033157 17.37109375 115.12109375 C17.04296875 112.703125 17.04296875 112.703125 17.12109375 109.93359375 C17.1365625 109.03253906 17.15203125 108.13148438 17.16796875 107.203125 C17.37109375 104.12109375 17.37109375 104.12109375 17.87109375 100.53125 C18.59696421 94.95062595 18.60424459 89.36672828 18.62109375 83.74609375 C18.6250415 82.60229248 18.62898926 81.45849121 18.63305664 80.2800293 C18.58093142 72.61332249 17.97239117 65.31212446 16.35058594 57.81689453 C15.39182906 53.28671269 15.38691674 49.65170172 16.37109375 45.12109375 C18.60731513 42.20428325 20.53092091 41.23311679 24.18359375 40.74609375 C28.50587395 41.2545973 29.6223846 42.81105988 32.37109375 46.12109375 C33.48046875 49.390625 33.48046875 49.390625 34.12109375 52.93359375 C34.3428125 54.09503906 34.56453125 55.25648437 34.79296875 56.453125 C35.88976542 63.41185522 36.45946865 69.76544402 36.1171875 76.78515625 C36.06561907 78.4178845 36.01687427 80.05070396 35.97070312 81.68359375 C35.89658265 84.22486708 35.80779204 86.76104193 35.67163086 89.29980469 C34.76209866 99.05437176 34.76209866 99.05437176 38.50317383 107.50561523 C41.08278475 109.04298299 43.56209162 110.0802726 46.37109375 111.12109375 C52.84257067 115.49604081 57.18517477 121.11388026 59.00390625 128.79296875 C60.23507605 138.06603487 58.06082146 145.03915706 52.80859375 152.68359375 C47.2296325 159.89566911 41.02272343 165.57165779 33.1862793 170.23706055 C29.0665506 172.7557246 25.94010711 174.71291233 24.0546875 179.37890625 C23.59739464 181.75682911 23.21218583 184.14969902 22.8984375 186.55078125 C21.69811429 194.67741392 17.63218719 202.17708963 13.37109375 209.12109375 C14.14332275 209.20866943 14.91555176 209.29624512 15.71118164 209.38647461 C20.65599726 210.37900014 25.21302482 212.11109909 29.9296875 213.875 C30.95103287 214.25414047 31.97237823 214.63328094 33.02467346 215.02391052 C35.18671108 215.82890186 37.34765411 216.63683835 39.50756836 217.44750977 C42.76191572 218.66611495 46.02220252 219.86769241 49.28320312 221.06835938 C65.22141785 226.99573219 79.98512053 233.408602 93.37109375 244.12109375 C93.92684082 244.56469238 94.48258789 245.00829102 95.05517578 245.46533203 C103.15140611 251.98784792 110.18434772 258.70153712 116.37109375 267.12109375 C117.11875 268.11625 117.86640625 269.11140625 118.63671875 270.13671875 C138.7836136 297.95862116 143.22475946 329.58519649 144.37109375 363.12109375 C144.43490234 364.90773438 144.43490234 364.90773438 144.5 366.73046875 C144.64005065 374.08779624 144.69192961 381.49393034 140.12109375 387.62109375 C105.68293656 423.38061908 31.15199656 426.98002283 -15.62890625 431.12109375 C-16.36093262 431.19166992 -17.09295898 431.26224609 -17.84716797 431.33496094 C-50.78028394 434.47778291 -85.11522609 432.08998415 -117.87890625 428.12109375 C-118.5731369 428.0375061 -119.26736755 427.95391846 -119.9826355 427.86779785 C-139.32765941 425.50120403 -139.32765941 425.50120403 -142.69140625 421.93359375 C-143.94623802 418.16909845 -143.73541017 415.92470097 -142.62890625 412.12109375 C-140.19313806 409.70235891 -138.63706476 408.23507345 -135.17578125 407.84375 C-134.2528125 407.95589844 -133.32984375 408.06804687 -132.37890625 408.18359375 C-131.22132813 408.30992187 -130.06375 408.43625 -128.87109375 408.56640625 C-127.45659416 408.74792799 -126.042566 408.93314338 -124.62890625 409.12109375 C-52.80438887 418.58283709 61.50820726 424.06215607 123.16015625 378.0390625 C125.4091889 376.08804654 126.28308551 375.23428702 126.51635742 372.28369141 C126.91144091 333.15768178 120.03532847 295.16819923 91.74609375 265.99609375 C75.09328591 249.50094247 52.98120187 241.69462855 31.37329102 233.88208008 C28.01610859 232.6682325 24.66305838 231.44347979 21.31054688 230.21679688 C19.16819395 229.43558008 17.02562388 228.65495844 14.8828125 227.875 C13.88497238 227.51152969 12.88713226 227.14805939 11.85905457 226.77357483 C10.47028862 226.27186012 10.47028862 226.27186012 9.0534668 225.76000977 C8.24314499 225.46659195 7.43282318 225.17317413 6.59794617 224.87086487 C3.52697802 223.82995386 3.52697802 223.82995386 0.37109375 223.12109375 C-1.7306207 224.50462771 -1.7306207 224.50462771 -3.81640625 226.55859375 C-18.8457494 239.19388224 -39.31157083 244.3198716 -58.6796875 242.87109375 C-73.82957608 241.40655613 -91.53483305 236.80209241 -102.44140625 225.43359375 C-105.26698593 222.82203985 -105.26698593 222.82203985 -107.745224 223.41390991 C-108.53820389 223.68385773 -109.33118378 223.95380554 -110.14819336 224.23193359 C-111.03699188 224.52839783 -111.92579041 224.82486206 -112.84152222 225.13031006 C-113.76135895 225.45726868 -114.68119568 225.78422729 -115.62890625 226.12109375 C-116.49613312 226.42275452 -117.36335999 226.72441528 -118.25686646 227.03521729 C-121.01616435 228.01209238 -123.7629298 229.01850053 -126.5078125 230.03515625 C-127.51875473 230.40909515 -128.52969696 230.78303406 -129.5712738 231.16830444 C-131.7006404 231.95813898 -133.82929832 232.74988647 -135.95727539 233.54345703 C-139.15452686 234.73237986 -142.35735928 235.90530726 -145.56054688 237.078125 C-178.73459347 249.35958465 -203.80232887 266.25337477 -219.58740234 298.82275391 C-228.86497481 319.29604674 -231.61801898 341.73541877 -232.06640625 363.99609375 C-232.11800903 365.39601563 -232.11800903 365.39601563 -232.1706543 366.82421875 C-232.19901823 371.30983047 -232.16674585 373.41611302 -229.37890625 377.0703125 C-213.24378507 389.10289577 -193.53108052 394.63416051 -174.25390625 399.5 C-173.42793945 399.71261475 -172.60197266 399.92522949 -171.75097656 400.14428711 C-170.21317201 400.53443617 -168.67088118 400.90746153 -167.12402344 401.26000977 C-163.71001159 402.12476948 -161.90416278 402.7846089 -159.64453125 405.546875 C-158.20833457 409.1870812 -158.54303206 411.38840123 -159.62890625 415.12109375 C-161.56640625 417.62109375 -161.56640625 417.62109375 -164.62890625 419.12109375 C-172.12855408 419.25751541 -179.43018534 417.05542068 -186.56640625 414.99609375 C-187.65816162 414.68406006 -188.74991699 414.37202637 -189.87475586 414.05053711 C-234.02278329 401.19755902 -234.02278329 401.19755902 -246.62890625 385.12109375 C-249.99554609 378.43250026 -250.06729774 371.65758095 -249.94140625 364.30859375 C-249.92940186 363.2105542 -249.91739746 362.11251465 -249.9050293 360.98120117 C-249.19465719 319.28084712 -237.50547034 281.08099554 -207.62890625 251.12109375 C-201.85563437 245.74959268 -195.56041795 241.25123051 -188.94140625 236.99609375 C-188.35528564 236.61243652 -187.76916504 236.2287793 -187.1652832 235.83349609 C-174.3006505 227.82876072 -159.35008524 222.98598259 -145.21508789 217.75708008 C-142.27284315 216.66746076 -139.33458958 215.56752303 -136.39648438 214.46679688 C-134.51975842 213.76892004 -132.64281354 213.07163159 -130.765625 212.375 C-129.89072922 212.04697891 -129.01583344 211.71895782 -128.11442566 211.3809967 C-126.90089165 210.93438942 -126.90089165 210.93438942 -125.6628418 210.47875977 C-124.95387253 210.21563492 -124.24490326 209.95251007 -123.51445007 209.68141174 C-121.62890625 209.12109375 -121.62890625 209.12109375 -118.62890625 209.12109375 C-119.17160156 208.09371094 -119.71429688 207.06632813 -120.2734375 206.0078125 C-124.95493283 196.99696972 -128.35569003 188.59446833 -130.32421875 178.5859375 C-131.96449153 174.22988373 -133.70382243 173.16224204 -137.62890625 170.74609375 C-138.81205187 169.98188999 -139.99170679 169.21225722 -141.16796875 168.4375 C-142.04630371 167.86153076 -142.04630371 167.86153076 -142.94238281 167.27392578 C-152.68073516 160.61722344 -161.34501592 151.36224732 -164.25 139.6875 C-165.4320504 131.68124112 -164.03106973 125.23072307 -159.5703125 118.48046875 C-154.60609299 112.44749374 -148.57131 108.52962778 -141.62890625 105.12109375 C-141.6446167 104.02869385 -141.66032715 102.93629395 -141.67651367 101.81079102 C-141.73172798 97.67138347 -141.76558094 93.53200671 -141.79370117 89.39233398 C-141.80858324 87.61688729 -141.82889545 85.84147595 -141.85522461 84.06616211 C-142.06965381 69.21168454 -141.23900719 54.57472281 -136.00390625 40.49609375 C-135.62105469 39.45618286 -135.62105469 39.45618286 -135.23046875 38.39526367 C-126.63200242 16.12087579 -110.30722579 1.15388196 -89.12890625 -9.19140625 C-59.54601588 -22.22670678 -26.39287885 -18.86326111 0 0 Z " fill="#2A8BFF" transform="translate(308.62890625,46.87890625)"/>
<path d="M0 0 C2.45391569 3.68087353 2.22802759 6.44355588 2.125 10.6875 C2.11597656 11.38939453 2.10695313 12.09128906 2.09765625 12.81445312 C2.07413704 14.54311525 2.03826713 16.27160145 2 18 C2.73863281 18.14695312 3.47726562 18.29390625 4.23828125 18.4453125 C19.13757972 21.73943948 30.90409581 29.36412262 39.42578125 42.13671875 C42.63250055 47.9692876 46 55.27511237 46 62 C47.03640625 61.95359375 48.0728125 61.9071875 49.140625 61.859375 C50.51038779 61.82184725 51.88018182 61.78544816 53.25 61.75 C54.27287109 61.69972656 54.27287109 61.69972656 55.31640625 61.6484375 C58.77497372 61.58128085 60.6293789 61.72009453 63.42578125 63.83203125 C65.47181098 66.64976449 65.92902182 68.52206928 66 72 C64.80101912 74.77658729 63.83247531 76.44245302 61.30859375 78.1328125 C58.20743494 79.29771479 55.55189404 79.19103788 52.25 79.125 C51.07953125 79.10695313 49.9090625 79.08890625 48.703125 79.0703125 C47.81109375 79.04710937 46.9190625 79.02390625 46 79 C45.86464844 79.72703125 45.72929687 80.4540625 45.58984375 81.203125 C42.68538708 94.76885075 35.86789138 105.57544985 24.58984375 113.74609375 C17.8169999 118.05023065 10.13351246 122 2 122 C2.05800781 123.10859375 2.11601562 124.2171875 2.17578125 125.359375 C2.22268829 126.82287452 2.26818745 128.28641963 2.3125 129.75 C2.35439453 130.47960937 2.39628906 131.20921875 2.43945312 131.9609375 C2.52838772 135.87405974 2.39146247 137.58296461 -0.33203125 140.484375 C-3.60541343 142.34392447 -5.28993412 142.61834431 -9 142 C-11.66796875 140.484375 -11.66796875 140.484375 -14 138 C-14.37233017 135.03327323 -14.4808246 132.68143759 -14.3125 129.75 C-14.27866211 128.63238281 -14.27866211 128.63238281 -14.24414062 127.4921875 C-14.18543561 125.660591 -14.09575757 123.83003347 -14 122 C-15.03125 121.979375 -16.0625 121.95875 -17.125 121.9375 C-29.42747974 120.34515776 -40.35786774 111.80534643 -48.02734375 102.5546875 C-53.39653146 95.31252733 -56.68521462 87.91991648 -58 79 C-58.88042969 79.03480469 -59.76085937 79.06960938 -60.66796875 79.10546875 C-61.82941406 79.13253906 -62.99085938 79.15960938 -64.1875 79.1875 C-65.91033203 79.23970703 -65.91033203 79.23970703 -67.66796875 79.29296875 C-71.33289234 78.97073045 -73.09664715 78.21232393 -76 76 C-78 73 -78 73 -77.875 69.5625 C-76.89122255 65.5571204 -76.27655274 64.41790628 -73 62 C-70.26317029 61.7088479 -67.96059961 61.61677582 -65.25 61.75 C-64.55261719 61.76804687 -63.85523438 61.78609375 -63.13671875 61.8046875 C-61.42388461 61.85161446 -59.71176176 61.92335395 -58 62 C-57.92523438 61.41734375 -57.85046875 60.8346875 -57.7734375 60.234375 C-55.66393289 47.08099333 -48.92896816 36.03946259 -38.328125 27.96484375 C-30.72549896 22.90716456 -23.056722 19.33302402 -14 18 C-14.04640625 16.96359375 -14.0928125 15.9271875 -14.140625 14.859375 C-14.17815275 13.48961221 -14.21455184 12.11981818 -14.25 10.75 C-14.28351563 10.06808594 -14.31703125 9.38617188 -14.3515625 8.68359375 C-14.41864429 5.22888142 -14.28073677 3.37191624 -12.171875 0.578125 C-7.69436655 -2.67531639 -5.00312989 -1.81931996 0 0 Z M-31.3125 44.6875 C-35.69696599 49.36544951 -40 55.40732905 -40 62 C-39.09636719 62.03738281 -38.19273437 62.07476562 -37.26171875 62.11328125 C-35.49248047 62.21189453 -35.49248047 62.21189453 -33.6875 62.3125 C-32.51574219 62.37050781 -31.34398437 62.42851562 -30.13671875 62.48828125 C-27 63 -27 63 -25.13671875 64.3984375 C-23.51997395 66.67632537 -23.13027914 68.19899844 -23 71 C-24.25 74.25 -24.25 74.25 -26 77 C-29.00778521 78.00259507 -31.53820647 78.30314642 -34.6875 78.5625 C-35.68136719 78.64628906 -36.67523438 78.73007812 -37.69921875 78.81640625 C-38.45847656 78.87699219 -39.21773437 78.93757813 -40 79 C-38.78166751 86.94749449 -34.15146712 93.8321111 -27.86328125 98.75390625 C-23.51129108 101.6643567 -19.11816294 103.85380387 -14 105 C-13.96261719 104.02417969 -13.92523438 103.04835938 -13.88671875 102.04296875 C-13.82097656 100.77066406 -13.75523437 99.49835938 -13.6875 98.1875 C-13.62949219 96.92292969 -13.57148438 95.65835938 -13.51171875 94.35546875 C-13 91 -13 91 -11.70703125 89.07421875 C-9.6507488 87.7802195 -8.41940888 87.59750672 -6 87.625 C-4.9790625 87.61339844 -4.9790625 87.61339844 -3.9375 87.6015625 C-1.29324435 88.14534088 -0.51263457 88.74704278 1 91 C1.51171875 94.35546875 1.51171875 94.35546875 1.6875 98.1875 C1.75324219 99.45980469 1.81898438 100.73210937 1.88671875 102.04296875 C1.92410156 103.01878906 1.96148437 103.99460937 2 105 C12.30315352 102.44247962 19.20879083 97.09530131 24.80859375 88.11328125 C27.32647482 83.83243828 27.32647482 83.83243828 28 79 C27.25234375 78.95101562 26.5046875 78.90203125 25.734375 78.8515625 C24.74953125 78.77679688 23.7646875 78.70203125 22.75 78.625 C21.77546875 78.55539062 20.8009375 78.48578125 19.796875 78.4140625 C17.07360292 78.01089652 15.30876887 77.47210492 13 76 C11.44225064 72.88450128 11.43519378 69.3955612 12 66 C13.09765625 64.2890625 13.09765625 64.2890625 15 63 C18.13671875 62.48828125 18.13671875 62.48828125 21.6875 62.3125 C22.86699219 62.24675781 24.04648437 62.18101562 25.26171875 62.11328125 C26.16535156 62.07589844 27.06898438 62.03851563 28 62 C26.82144532 52.65191853 21.26817445 46.60855578 14.24609375 40.6640625 C10.39214494 37.80878912 6.89499981 36 2 36 C1.96261719 36.90363281 1.92523438 37.80726563 1.88671875 38.73828125 C1.82097656 39.91777344 1.75523437 41.09726562 1.6875 42.3125 C1.60048828 44.07013672 1.60048828 44.07013672 1.51171875 45.86328125 C1 49 1 49 -0.359375 50.8671875 C-2.8526894 52.58876173 -5.00599482 52.81669356 -8 53 C-10.74954328 52.03394425 -11.69007757 51.61984486 -13 49 C-13.22950319 46.795636 -13.41075933 44.58607827 -13.5625 42.375 C-13.64628906 41.18648438 -13.73007813 39.99796875 -13.81640625 38.7734375 C-13.87699219 37.85820312 -13.93757813 36.94296875 -14 36 C-20.59267095 36 -26.63455049 40.30303401 -31.3125 44.6875 Z " fill="#2A8CFF" transform="translate(262,304)"/>
</svg>
